G04*
G04 #@! TF.GenerationSoftware,Altium Limited,Altium Designer,20.2.6 (244)*
G04*
G04 Layer_Color=128*
%FSTAX24Y24*%
%MOIN*%
G70*
G04*
G04 #@! TF.SameCoordinates,20AB1978-7CCD-4664-BF1E-2587ED644C09*
G04*
G04*
G04 #@! TF.FilePolarity,Positive*
G04*
G01*
G75*
%ADD126C,0.0020*%
D126*
X025365Y02242D02*
X025896D01*
X02563Y022154D02*
Y022686D01*
X028514Y02242D02*
X029046D01*
X02878Y022154D02*
Y022686D01*
X022403Y02148D02*
X022717D01*
X02256Y021323D02*
Y021637D01*
X023403Y02148D02*
X023717D01*
X02356Y021323D02*
Y021637D01*
X027903Y01319D02*
X028297D01*
X0281Y012993D02*
Y013387D01*
X004313Y00202D02*
X004707D01*
X00451Y001823D02*
Y002217D01*
X005313Y00202D02*
X005707D01*
X00551Y001823D02*
Y002217D01*
X036376Y00808D02*
X037164D01*
X03677Y007686D02*
Y008474D01*
X033376Y00808D02*
X034164D01*
X03377Y007686D02*
Y008474D01*
X008743Y00202D02*
X009137D01*
X00894Y001823D02*
Y002217D01*
X007743Y00202D02*
X008137D01*
X00794Y001823D02*
Y002217D01*
X015213Y02473D02*
X015607D01*
X01541Y024533D02*
Y024927D01*
X016213Y02473D02*
X016607D01*
X01641Y024533D02*
Y024927D01*
X017213Y02473D02*
X017607D01*
X01741Y024533D02*
Y024927D01*
X014213Y02473D02*
X014607D01*
X01441Y024533D02*
Y024927D01*
X020063Y00113D02*
X020457D01*
X02026Y000933D02*
Y001327D01*
X002073Y0069D02*
X002467D01*
X00227Y006703D02*
Y007097D01*
X001894Y01788D02*
X002366D01*
X00213Y017644D02*
Y018116D01*
X004493Y02416D02*
X004887D01*
X00469Y023963D02*
Y024357D01*
X013703Y01468D02*
X014097D01*
X0139Y014483D02*
Y014877D01*
X012703Y01468D02*
X013097D01*
X0129Y014483D02*
Y014877D01*
X011703Y01468D02*
X012097D01*
X0119Y014483D02*
Y014877D01*
X004493Y02216D02*
X004887D01*
X00469Y021963D02*
Y022357D01*
X004493Y02316D02*
X004887D01*
X00469Y022963D02*
Y023357D01*
X010829Y02318D02*
X012011D01*
X01142Y022589D02*
Y023771D01*
X001894Y01988D02*
X002366D01*
X00213Y019644D02*
Y020116D01*
X002073Y0079D02*
X002467D01*
X00227Y007703D02*
Y008097D01*
X022063Y00113D02*
X022457D01*
X02226Y000933D02*
Y001327D01*
X021063Y00113D02*
X021457D01*
X02126Y000933D02*
Y001327D01*
X0382Y024D02*
X0383D01*
X03825Y02395D02*
Y02405D01*
X0382Y021D02*
X0383D01*
X03825Y02095D02*
Y02105D01*
X0382Y018D02*
X0383D01*
X03825Y01795D02*
Y01805D01*
X03745Y0165D02*
X03755D01*
X0375Y01645D02*
Y01655D01*
X0382Y015D02*
X0383D01*
X03825Y01495D02*
Y01505D01*
X03745Y0135D02*
X03755D01*
X0375Y01345D02*
Y01355D01*
X0382Y012D02*
X0383D01*
X03825Y01195D02*
Y01205D01*
X03745Y0105D02*
X03755D01*
X0375Y01045D02*
Y01055D01*
X0382Y009D02*
X0383D01*
X03825Y00895D02*
Y00905D01*
X0382Y006D02*
X0383D01*
X03825Y00595D02*
Y00605D01*
X03745Y0045D02*
X03755D01*
X0375Y00445D02*
Y00455D01*
X03745Y0015D02*
X03755D01*
X0375Y00145D02*
Y00155D01*
X0367Y024D02*
X0368D01*
X03675Y02395D02*
Y02405D01*
X0367Y021D02*
X0368D01*
X03675Y02095D02*
Y02105D01*
X0367Y015D02*
X0368D01*
X03675Y01495D02*
Y01505D01*
X03595Y0135D02*
X03605D01*
X036Y01345D02*
Y01355D01*
X0367Y006D02*
X0368D01*
X03675Y00595D02*
Y00605D01*
X03595Y0045D02*
X03605D01*
X036Y00445D02*
Y00455D01*
X03595Y0015D02*
X03605D01*
X036Y00145D02*
Y00155D01*
X03445Y0135D02*
X03455D01*
X0345Y01345D02*
Y01355D01*
X0352Y009D02*
X0353D01*
X03525Y00895D02*
Y00905D01*
X0352Y006D02*
X0353D01*
X03525Y00595D02*
Y00605D01*
X03445Y0045D02*
X03455D01*
X0345Y00445D02*
Y00455D01*
X0337Y006D02*
X0338D01*
X03375Y00595D02*
Y00605D01*
X03295Y0045D02*
X03305D01*
X033Y00445D02*
Y00455D01*
X0322Y021D02*
X0323D01*
X03225Y02095D02*
Y02105D01*
X0322Y018D02*
X0323D01*
X03225Y01795D02*
Y01805D01*
X0322Y015D02*
X0323D01*
X03225Y01495D02*
Y01505D01*
X03145Y0135D02*
X03155D01*
X0315Y01345D02*
Y01355D01*
X0322Y009D02*
X0323D01*
X03225Y00895D02*
Y00905D01*
X03145Y0075D02*
X03155D01*
X0315Y00745D02*
Y00755D01*
X0322Y006D02*
X0323D01*
X03225Y00595D02*
Y00605D01*
X03145Y0045D02*
X03155D01*
X0315Y00445D02*
Y00455D01*
X03145Y0015D02*
X03155D01*
X0315Y00145D02*
Y00155D01*
X02995Y0135D02*
X03005D01*
X03Y01345D02*
Y01355D01*
X0307Y012D02*
X0308D01*
X03075Y01195D02*
Y01205D01*
X0307Y006D02*
X0308D01*
X03075Y00595D02*
Y00605D01*
X0307Y003D02*
X0308D01*
X03075Y00295D02*
Y00305D01*
X02995Y0015D02*
X03005D01*
X03Y00145D02*
Y00155D01*
X0292Y024D02*
X0293D01*
X02925Y02395D02*
Y02405D01*
X0292Y021D02*
X0293D01*
X02925Y02095D02*
Y02105D01*
X02845Y0075D02*
X02855D01*
X0285Y00745D02*
Y00755D01*
X0292Y003D02*
X0293D01*
X02925Y00295D02*
Y00305D01*
X02845Y0015D02*
X02855D01*
X0285Y00145D02*
Y00155D01*
X0277Y012D02*
X0278D01*
X02775Y01195D02*
Y01205D01*
X02695Y0075D02*
X02705D01*
X027Y00745D02*
Y00755D01*
X02695Y0045D02*
X02705D01*
X027Y00445D02*
Y00455D01*
X0277Y003D02*
X0278D01*
X02775Y00295D02*
Y00305D01*
X02695Y0015D02*
X02705D01*
X027Y00145D02*
Y00155D01*
X0262Y006D02*
X0263D01*
X02625Y00595D02*
Y00605D01*
X02545Y0045D02*
X02555D01*
X0255Y00445D02*
Y00455D01*
X0262Y003D02*
X0263D01*
X02625Y00295D02*
Y00305D01*
X02545Y0015D02*
X02555D01*
X0255Y00145D02*
Y00155D01*
X0247Y006D02*
X0248D01*
X02475Y00595D02*
Y00605D01*
X02395Y0015D02*
X02405D01*
X024Y00145D02*
Y00155D01*
X02245Y0225D02*
X02255D01*
X0225Y02245D02*
Y02255D01*
X02245Y0075D02*
X02255D01*
X0225Y00745D02*
Y00755D01*
X02095Y0225D02*
X02105D01*
X021Y02245D02*
Y02255D01*
X0217Y009D02*
X0218D01*
X02175Y00895D02*
Y00905D01*
X0217Y006D02*
X0218D01*
X02175Y00595D02*
Y00605D01*
X0202Y003D02*
X0203D01*
X02025Y00295D02*
Y00305D01*
X01945Y0015D02*
X01955D01*
X0195Y00145D02*
Y00155D01*
X01795Y0075D02*
X01805D01*
X018Y00745D02*
Y00755D01*
X01645Y0225D02*
X01655D01*
X0165Y02245D02*
Y02255D01*
X01645Y0195D02*
X01655D01*
X0165Y01945D02*
Y01955D01*
X0172Y003D02*
X0173D01*
X01725Y00295D02*
Y00305D01*
X01645Y0015D02*
X01655D01*
X0165Y00145D02*
Y00155D01*
X01495Y0225D02*
X01505D01*
X015Y02245D02*
Y02255D01*
X0142Y024D02*
X0143D01*
X01425Y02395D02*
Y02405D01*
X01345Y0225D02*
X01355D01*
X0135Y02245D02*
Y02255D01*
X01345Y0195D02*
X01355D01*
X0135Y01945D02*
Y01955D01*
X01345Y0135D02*
X01355D01*
X0135Y01345D02*
Y01355D01*
X0142Y003D02*
X0143D01*
X01425Y00295D02*
Y00305D01*
X0127Y024D02*
X0128D01*
X01275Y02395D02*
Y02405D01*
X0127Y021D02*
X0128D01*
X01275Y02095D02*
Y02105D01*
X01195Y0195D02*
X01205D01*
X012Y01945D02*
Y01955D01*
X01195Y0165D02*
X01205D01*
X012Y01645D02*
Y01655D01*
X0112Y021D02*
X0113D01*
X01125Y02095D02*
Y02105D01*
X0112Y018D02*
X0113D01*
X01125Y01795D02*
Y01805D01*
X01045Y0165D02*
X01055D01*
X0105Y01645D02*
Y01655D01*
X01045Y0135D02*
X01055D01*
X0105Y01345D02*
Y01355D01*
X0112Y012D02*
X0113D01*
X01125Y01195D02*
Y01205D01*
X0097Y024D02*
X0098D01*
X00975Y02395D02*
Y02405D01*
X0097Y021D02*
X0098D01*
X00975Y02095D02*
Y02105D01*
X0097Y018D02*
X0098D01*
X00975Y01795D02*
Y01805D01*
X0097Y015D02*
X0098D01*
X00975Y01495D02*
Y01505D01*
X0097Y012D02*
X0098D01*
X00975Y01195D02*
Y01205D01*
X0097Y003D02*
X0098D01*
X00975Y00295D02*
Y00305D01*
X0082Y024D02*
X0083D01*
X00825Y02395D02*
Y02405D01*
X0067Y024D02*
X0068D01*
X00675Y02395D02*
Y02405D01*
X00595Y0135D02*
X00605D01*
X006Y01345D02*
Y01355D01*
X0067Y012D02*
X0068D01*
X00675Y01195D02*
Y01205D01*
X00445Y0045D02*
X00455D01*
X0045Y00445D02*
Y00455D01*
X0037Y024D02*
X0038D01*
X00375Y02395D02*
Y02405D01*
X0037Y015D02*
X0038D01*
X00375Y01495D02*
Y01505D01*
X0037Y006D02*
X0038D01*
X00375Y00595D02*
Y00605D01*
X0037Y003D02*
X0038D01*
X00375Y00295D02*
Y00305D01*
X00295Y0015D02*
X00305D01*
X003Y00145D02*
Y00155D01*
X0022Y015D02*
X0023D01*
X00225Y01495D02*
Y01505D01*
X0022Y006D02*
X0023D01*
X00225Y00595D02*
Y00605D01*
X00145Y0045D02*
X00155D01*
X0015Y00445D02*
Y00455D01*
X00145Y0015D02*
X00155D01*
X0015Y00145D02*
Y00155D01*
X00148Y01226D02*
X00158D01*
X00153Y01221D02*
Y01231D01*
X02355Y01599D02*
X02365D01*
X0236Y01594D02*
Y01604D01*
X01838Y01073D02*
X01848D01*
X01843Y01068D02*
Y01078D01*
X02112Y0112D02*
X02122D01*
X02117Y01115D02*
Y01125D01*
X01412Y01731D02*
X01422D01*
X01417Y01726D02*
Y01736D01*
X01485Y01691D02*
X01495D01*
X0149Y01686D02*
Y01696D01*
X01317Y00832D02*
X01327D01*
X01322Y00827D02*
Y00837D01*
X02855Y00916D02*
X02865D01*
X0286Y00911D02*
Y00921D01*
X024208Y016272D02*
X024308D01*
X024258Y016222D02*
Y016322D01*
X03119Y02002D02*
X03129D01*
X03124Y01997D02*
Y02007D01*
X02883Y01033D02*
X02893D01*
X02888Y01028D02*
Y01038D01*
X02098Y01436D02*
X02108D01*
X02103Y01431D02*
Y01441D01*
X019503Y013407D02*
X019603D01*
X019553Y013357D02*
Y013457D01*
X01785Y01088D02*
X01795D01*
X0179Y01083D02*
Y01093D01*
X01933Y01119D02*
X01943D01*
X01938Y01114D02*
Y01124D01*
X00927Y01181D02*
X00937D01*
X00932Y01176D02*
Y01186D01*
X0135Y01118D02*
X0136D01*
X01355Y01113D02*
Y01123D01*
X0156Y01188D02*
X0157D01*
X01565Y01183D02*
Y01193D01*
X01496Y01279D02*
X01506D01*
X01501Y01274D02*
Y01284D01*
X01818Y00998D02*
X01828D01*
X01823Y00993D02*
Y01003D01*
X02415Y01478D02*
X02425D01*
X0242Y01473D02*
Y01483D01*
X01493Y01342D02*
X01503D01*
X01498Y01337D02*
Y01347D01*
X01465Y01363D02*
X01475D01*
X0147Y01358D02*
Y01368D01*
X01465Y01395D02*
X01475D01*
X0147Y0139D02*
Y014D01*
X01489Y01886D02*
X01499D01*
X01494Y01881D02*
Y01891D01*
X02764Y02385D02*
X02774D01*
X02769Y0238D02*
Y0239D01*
X02793Y02022D02*
X02803D01*
X02798Y02017D02*
Y02027D01*
X02851Y01605D02*
X02861D01*
X02856Y016D02*
Y0161D01*
X0273Y02379D02*
X0274D01*
X02735Y02374D02*
Y02384D01*
X02793Y02088D02*
X02803D01*
X02798Y02083D02*
Y02093D01*
X02675Y02443D02*
X02685D01*
X0268Y02438D02*
Y02448D01*
X02765Y02429D02*
X02775D01*
X0277Y02424D02*
Y02434D01*
X02555Y02086D02*
X02565D01*
X0256Y02081D02*
Y02091D01*
X02568Y02022D02*
X02578D01*
X02573Y02017D02*
Y02027D01*
X02199Y01933D02*
X02209D01*
X02204Y01928D02*
Y01938D01*
X01516Y01572D02*
X01526D01*
X01521Y01567D02*
Y01577D01*
X01538Y01603D02*
X01548D01*
X01543Y01598D02*
Y01608D01*
X03624Y01993D02*
X03634D01*
X03629Y01988D02*
Y01998D01*
X03627Y01668D02*
X03637D01*
X03632Y01663D02*
Y01673D01*
X03333Y01471D02*
X03343D01*
X03338Y01466D02*
Y01476D01*
X03371Y01446D02*
X03381D01*
X03376Y01441D02*
Y01451D01*
X03406Y01434D02*
X03416D01*
X03411Y01429D02*
Y01439D01*
X021329Y019319D02*
X021429D01*
X021379Y019269D02*
Y019369D01*
X03122Y01926D02*
X03132D01*
X03127Y01921D02*
Y01931D01*
X008Y0197D02*
X0081D01*
X00805Y01965D02*
Y01975D01*
X002765Y017565D02*
X002865D01*
X002815Y017515D02*
Y017615D01*
X00197Y01637D02*
X00207D01*
X00202Y01632D02*
Y01642D01*
X01254Y01006D02*
X01264D01*
X01259Y01001D02*
Y01011D01*
X03294Y017779D02*
X03304D01*
X03299Y017729D02*
Y017829D01*
X021578Y012978D02*
X021678D01*
X021628Y012928D02*
Y013028D01*
X02084Y003664D02*
X02094D01*
X02089Y003614D02*
Y003714D01*
X024084Y006874D02*
X024184D01*
X024134Y006824D02*
Y006924D01*
X02442Y01807D02*
X02452D01*
X02447Y01802D02*
Y01812D01*
X024116Y008374D02*
X024216D01*
X024166Y008324D02*
Y008424D01*
X0211Y021442D02*
X0212D01*
X02115Y021392D02*
Y021492D01*
X01155Y006926D02*
X01165D01*
X0116Y006876D02*
Y006976D01*
X010138Y00372D02*
X010238D01*
X010188Y00367D02*
Y00377D01*
X03029Y01605D02*
X03039D01*
X03034Y016D02*
Y0161D01*
X03019Y005225D02*
X03029D01*
X03024Y005175D02*
Y005275D01*
X028472Y00365D02*
X028572D01*
X028522Y0036D02*
Y0037D01*
X01233Y00653D02*
X01243D01*
X01238Y00648D02*
Y00658D01*
X01231Y017934D02*
X01241D01*
X01236Y017884D02*
Y017984D01*
X03468Y02053D02*
X03478D01*
X03473Y02048D02*
Y02058D01*
X0332Y02113D02*
X0333D01*
X03325Y02108D02*
Y02118D01*
X01075Y00828D02*
X01085D01*
X0108Y00823D02*
Y00833D01*
X015305Y02044D02*
X015805D01*
X015555Y02019D02*
Y02069D01*
X018299Y020442D02*
X018799D01*
X018549Y020192D02*
Y020692D01*
X007698Y008D02*
X008682D01*
X00819Y007508D02*
Y008492D01*
X001485Y00314D02*
X002535D01*
X00201Y002615D02*
Y003665D01*
X011848Y01266D02*
X012832D01*
X01234Y012168D02*
Y013152D01*
X036915Y02277D02*
X037965D01*
X03744Y022245D02*
Y023295D01*
X001445Y02282D02*
X002495D01*
X00197Y022295D02*
Y023345D01*
X036915Y00311D02*
X037965D01*
X03744Y002585D02*
Y003635D01*
X007868Y01722D02*
X008852D01*
X00836Y016728D02*
Y017712D01*
M02*
