G04*
G04 #@! TF.GenerationSoftware,Altium Limited,Altium Designer,20.2.6 (244)*
G04*
G04 Layer_Color=0*
%FSTAX24Y24*%
%MOIN*%
G70*
G04*
G04 #@! TF.SameCoordinates,20AB1978-7CCD-4664-BF1E-2587ED644C09*
G04*
G04*
G04 #@! TF.FilePolarity,Positive*
G04*
G01*
G75*
%ADD10C,0.0079*%
%ADD18C,0.0050*%
%ADD99C,0.0200*%
%ADD125C,0.0039*%
%ADD129C,0.0020*%
D10*
X011671Y003568D02*
Y007741D01*
Y003568D02*
X013749D01*
Y007741D01*
X011671D02*
X013749D01*
D18*
X025296Y01208D02*
X027296D01*
X025296D02*
Y01778D01*
X027296D01*
Y01208D02*
Y01778D01*
D99*
X026296Y01493D02*
D03*
D125*
X01928Y015143D02*
Y015537D01*
X019083Y01534D02*
X019477D01*
X01242Y009713D02*
Y010107D01*
X012223Y00991D02*
X012617D01*
X010033Y00556D02*
X010427D01*
X01023Y005363D02*
Y005757D01*
X01551Y005363D02*
Y005757D01*
X015313Y00556D02*
X015707D01*
D129*
X015678Y011738D02*
X022882D01*
X015678Y018942D02*
X022882D01*
X015678Y011738D02*
Y018942D01*
X022882Y011738D02*
Y018942D01*
X010412Y00865D02*
X014428D01*
X010412Y01117D02*
X014428D01*
X010412Y00865D02*
Y01117D01*
X014428Y00865D02*
Y01117D01*
X029922Y015793D02*
X035922D01*
X029922Y025338D02*
X035922D01*
X029922Y015793D02*
Y025338D01*
X035922Y015793D02*
Y025338D01*
X032725Y020771D02*
X033119D01*
X032922Y020574D02*
Y020968D01*
X032725Y020771D02*
X033119D01*
X032922Y020574D02*
Y020968D01*
X008882Y003375D02*
Y007745D01*
X011578Y003375D02*
Y007745D01*
X008882D02*
X011578D01*
X008882Y003375D02*
X011578D01*
X014162D02*
X016858D01*
X014162Y007745D02*
X016858D01*
Y003375D02*
Y007745D01*
X014162Y003375D02*
Y007745D01*
M02*
