G04*
G04 #@! TF.GenerationSoftware,Altium Limited,Altium Designer,20.2.6 (244)*
G04*
G04 Layer_Physical_Order=1*
G04 Layer_Color=255*
%FSTAX24Y24*%
%MOIN*%
G70*
G04*
G04 #@! TF.SameCoordinates,20AB1978-7CCD-4664-BF1E-2587ED644C09*
G04*
G04*
G04 #@! TF.FilePolarity,Positive*
G04*
G01*
G75*
%ADD12C,0.0100*%
%ADD22R,0.0394X0.0787*%
%ADD23R,0.0197X0.0591*%
%ADD24R,0.0394X0.0591*%
%ADD25R,0.0551X0.0472*%
%ADD26R,0.0350X0.0750*%
%ADD28R,0.1102X0.0433*%
%ADD29R,0.1024X0.0433*%
%ADD30R,0.0984X0.0984*%
%ADD31R,0.0550X0.0500*%
%ADD32R,0.0886X0.0394*%
%ADD33R,0.0472X0.0551*%
%ADD34R,0.1063X0.0630*%
%ADD35R,0.0630X0.1063*%
%ADD36O,0.0236X0.0571*%
%ADD37R,0.0394X0.0787*%
%ADD38R,0.0750X0.0350*%
G04:AMPARAMS|DCode=39|XSize=287.4mil|YSize=157.5mil|CornerRadius=0mil|HoleSize=0mil|Usage=FLASHONLY|Rotation=180.000|XOffset=0mil|YOffset=0mil|HoleType=Round|Shape=Octagon|*
%AMOCTAGOND39*
4,1,8,-0.1437,0.0394,-0.1437,-0.0394,-0.1043,-0.0787,0.1043,-0.0787,0.1437,-0.0394,0.1437,0.0394,0.1043,0.0787,-0.1043,0.0787,-0.1437,0.0394,0.0*
%
%ADD39OCTAGOND39*%

%ADD40R,0.0900X0.0640*%
%ADD41R,0.0709X0.0531*%
%ADD42R,0.0858X0.0675*%
%ADD80R,0.0276X0.0236*%
%ADD81C,0.0150*%
%ADD82C,0.0200*%
%ADD83C,0.0300*%
%ADD84C,0.0531*%
%ADD85O,0.0551X0.0669*%
%ADD86R,0.0630X0.0630*%
%ADD87R,0.0787X0.1181*%
%ADD88O,0.0787X0.1181*%
%ADD89O,0.1500X0.2400*%
%ADD90R,0.1500X0.2400*%
%ADD91O,0.0630X0.0787*%
%ADD92R,0.0630X0.0787*%
%ADD93C,0.0787*%
%ADD94C,0.1102*%
%ADD95R,0.1000X0.0800*%
%ADD96O,0.1000X0.0800*%
%ADD97C,0.1732*%
%ADD98R,0.0787X0.0787*%
%ADD99C,0.0200*%
%ADD100C,0.0300*%
%ADD101C,0.0500*%
%ADD102C,0.1772*%
%ADD103C,0.1969*%
G36*
X019226Y025514D02*
X019186Y025474D01*
X019134Y025406D01*
X019101Y025327D01*
X019095Y025285D01*
X01909Y025242D01*
Y024782D01*
X01903D01*
X019018Y024827D01*
Y025156D01*
X018242D01*
Y025116D01*
X018178D01*
X018135Y02511D01*
X018093Y025105D01*
X018014Y025072D01*
X017978Y025044D01*
X017975Y025043D01*
X017917Y025061D01*
X017903Y025094D01*
X017813Y025212D01*
X017695Y025302D01*
X017557Y025359D01*
X01741Y025379D01*
X017263Y025359D01*
X017125Y025302D01*
X017007Y025212D01*
X016942Y025126D01*
X016878D01*
X016813Y025212D01*
X016695Y025302D01*
X016557Y025359D01*
X01641Y025379D01*
X016263Y025359D01*
X016125Y025302D01*
X016007Y025212D01*
X015942Y025126D01*
X015878D01*
X015813Y025212D01*
X015695Y025302D01*
X015557Y025359D01*
X01541Y025379D01*
X015263Y025359D01*
X015125Y025302D01*
X015007Y025212D01*
X014917Y025094D01*
X01486Y024956D01*
X01484Y024809D01*
Y024651D01*
X01486Y024504D01*
X014917Y024366D01*
X015007Y024248D01*
X015125Y024158D01*
X015263Y024101D01*
X01541Y024081D01*
X015557Y024101D01*
X015695Y024158D01*
X015813Y024248D01*
X015878Y024334D01*
X015942D01*
X016007Y024248D01*
X016125Y024158D01*
X016263Y024101D01*
X01641Y024081D01*
X016557Y024101D01*
X016695Y024158D01*
X016813Y024248D01*
X016878Y024334D01*
X016942D01*
X017007Y024248D01*
X017125Y024158D01*
X017263Y024101D01*
X01741Y024081D01*
X017557Y024101D01*
X017695Y024158D01*
X017717Y024175D01*
X017762Y024153D01*
Y01998D01*
X017768Y019938D01*
X017773Y019895D01*
X017806Y019816D01*
X017858Y019748D01*
X018168Y019439D01*
X018148Y019393D01*
X01623D01*
X016152Y019382D01*
X016079Y019352D01*
X016016Y019304D01*
X015253Y018541D01*
X015203Y018561D01*
Y018627D01*
X015246Y018683D01*
X015281Y018769D01*
X015293Y01886D01*
X015281Y018951D01*
X015246Y019037D01*
X01519Y01911D01*
X015117Y019166D01*
X015031Y019201D01*
X01494Y019213D01*
X014849Y019201D01*
X014763Y019166D01*
X01469Y01911D01*
X014634Y019037D01*
X014599Y018951D01*
X014587Y01886D01*
X014597Y018781D01*
Y017091D01*
X014594Y017087D01*
X014559Y017001D01*
X014547Y01691D01*
X014559Y016819D01*
X014594Y016733D01*
X01465Y01666D01*
X014723Y016604D01*
X014809Y016569D01*
X0149Y016557D01*
X014991Y016569D01*
X015077Y016604D01*
X015083Y016609D01*
X015127Y016587D01*
Y016211D01*
X015124Y016207D01*
X015089Y016121D01*
X015079Y016045D01*
X015033Y016026D01*
X01496Y01597D01*
X014904Y015897D01*
X014869Y015811D01*
X014857Y01572D01*
X014869Y015629D01*
X014904Y015543D01*
X01496Y01547D01*
X015033Y015414D01*
X015119Y015379D01*
X01521Y015367D01*
X015301Y015379D01*
X015387Y015414D01*
X015391Y015417D01*
X01573D01*
X015808Y015428D01*
X015881Y015458D01*
X015944Y015506D01*
X016254Y015816D01*
X016302Y015879D01*
X016332Y015952D01*
X016343Y01603D01*
Y017875D01*
X017045Y018577D01*
X023451D01*
Y017859D01*
X02373D01*
X023749Y017813D01*
X023544Y017608D01*
X02282D01*
X022735Y017597D01*
X022656Y017564D01*
X022588Y017512D01*
X020798Y015722D01*
X020746Y015654D01*
X020713Y015575D01*
X020708Y015532D01*
X020702Y01549D01*
Y014483D01*
X020689Y014451D01*
X020677Y01436D01*
X020689Y014269D01*
X020724Y014183D01*
X02078Y01411D01*
X020849Y014058D01*
X020849Y014042D01*
X020835Y014008D01*
X017988D01*
X017945Y014002D01*
X017903Y013997D01*
X017824Y013964D01*
X017756Y013912D01*
X017668Y013824D01*
X017616Y013756D01*
X017583Y013677D01*
X017578Y013635D01*
X017572Y013592D01*
Y011003D01*
X017559Y010971D01*
X017547Y01088D01*
X017559Y010789D01*
X017594Y010703D01*
X01765Y01063D01*
X017723Y010574D01*
X017809Y010539D01*
X0179Y010527D01*
X017991Y010539D01*
X018077Y010574D01*
X01815Y01063D01*
X018206Y010703D01*
X018241Y010789D01*
X018253Y01088D01*
X018241Y010971D01*
X018228Y011003D01*
Y013352D01*
X019207D01*
X019212Y013316D01*
X019247Y013231D01*
X019277Y013191D01*
Y011526D01*
X019203Y011496D01*
X01913Y01144D01*
X019074Y011367D01*
X019039Y011281D01*
X019027Y01119D01*
X019039Y011099D01*
X019042Y011091D01*
Y006605D01*
X01766D01*
Y005679D01*
X016435D01*
X015698Y006416D01*
Y009642D01*
X015748Y009683D01*
X01579Y009677D01*
X018049D01*
X018053Y009674D01*
X018139Y009639D01*
X01823Y009627D01*
X018321Y009639D01*
X018407Y009674D01*
X01848Y00973D01*
X018536Y009803D01*
X018571Y009889D01*
X018583Y00998D01*
X018571Y010071D01*
X018536Y010157D01*
X01848Y01023D01*
X018407Y010286D01*
X018321Y010321D01*
X01823Y010333D01*
X018139Y010321D01*
X018053Y010286D01*
X018049Y010283D01*
X015953D01*
Y011699D01*
X015956Y011703D01*
X015991Y011789D01*
X016003Y01188D01*
X015991Y011971D01*
X015956Y012057D01*
X0159Y01213D01*
X015827Y012186D01*
X015741Y012221D01*
X015698Y012227D01*
Y01303D01*
X015687Y013115D01*
X015654Y013194D01*
X015602Y013262D01*
X015299Y013565D01*
X015286Y013597D01*
X01523Y01367D01*
X015157Y013726D01*
X015071Y013761D01*
X015051Y013764D01*
X015023Y013816D01*
X015041Y013859D01*
X015053Y01395D01*
X015041Y014041D01*
X015006Y014127D01*
X01495Y0142D01*
X014877Y014256D01*
X014791Y014291D01*
X0147Y014303D01*
X014609Y014291D01*
X014577Y014278D01*
X01435D01*
X014265Y014267D01*
X014186Y014234D01*
X014118Y014182D01*
X014028Y014092D01*
X013976Y014024D01*
X013943Y013945D01*
X013938Y013902D01*
X013932Y01386D01*
Y011303D01*
X013882Y011293D01*
X013856Y011357D01*
X0138Y01143D01*
X013727Y011486D01*
X013641Y011521D01*
X01355Y011533D01*
X013459Y011521D01*
X013427Y011508D01*
X01262D01*
X012615Y011558D01*
X012692Y011576D01*
X012857Y011645D01*
X01301Y011738D01*
X013146Y011854D01*
X013262Y01199D01*
X013355Y012143D01*
X013424Y012308D01*
X013465Y012482D01*
X013479Y01266D01*
X013465Y012838D01*
X013424Y013012D01*
X013355Y013177D01*
X013262Y01333D01*
X013146Y013466D01*
X01301Y013582D01*
X012857Y013675D01*
X012692Y013744D01*
X012518Y013785D01*
X01234Y013799D01*
X012162Y013785D01*
X011988Y013744D01*
X011823Y013675D01*
X01167Y013582D01*
X011534Y013466D01*
X011418Y01333D01*
X011325Y013177D01*
X011256Y013012D01*
X011215Y012838D01*
X011201Y01266D01*
X011215Y012482D01*
X011256Y012308D01*
X011325Y012143D01*
X011418Y01199D01*
X011534Y011854D01*
X01167Y011738D01*
X011823Y011645D01*
X011988Y011576D01*
X012065Y011558D01*
X01206Y011508D01*
X010086D01*
X009639Y011955D01*
X009626Y011987D01*
X00957Y01206D01*
X009497Y012116D01*
X009411Y012151D01*
X00932Y012163D01*
X009229Y012151D01*
X009143Y012116D01*
X00907Y01206D01*
X009014Y011987D01*
X009005Y011964D01*
X008955Y011974D01*
X008955Y01439D01*
X008935Y014488D01*
X00888Y01457D01*
X00881Y01464D01*
X008728Y014696D01*
X008666Y014708D01*
Y015344D01*
X007562D01*
X007536Y015407D01*
X00748Y01548D01*
X007324Y015635D01*
X007251Y015691D01*
X007166Y015727D01*
X007074Y015739D01*
X006011D01*
X005953Y015816D01*
X005876Y015875D01*
X005818Y015898D01*
X005807Y015957D01*
X005817Y015966D01*
X006416D01*
Y016716D01*
X007312D01*
X007352Y016692D01*
X007438Y01655D01*
X007554Y016414D01*
X00769Y016298D01*
X007843Y016205D01*
X008008Y016136D01*
X008182Y016095D01*
X00836Y016081D01*
X008538Y016095D01*
X008712Y016136D01*
X008877Y016205D01*
X00903Y016298D01*
X009166Y016414D01*
X009282Y01655D01*
X009375Y016703D01*
X009444Y016868D01*
X009485Y017042D01*
X009499Y01722D01*
X009485Y017398D01*
X009444Y017572D01*
X009375Y017737D01*
X009282Y01789D01*
X0092Y017985D01*
X009223Y018035D01*
X00948D01*
X009578Y018054D01*
X00966Y01811D01*
X00982Y01827D01*
X009875Y018352D01*
X009895Y01845D01*
Y01937D01*
X009875Y019468D01*
X00982Y01955D01*
X00962Y01975D01*
X009538Y019806D01*
X00944Y019825D01*
X008473D01*
X008468Y019834D01*
X008498Y019884D01*
X009314D01*
Y019996D01*
X010093D01*
Y019564D01*
X010987D01*
Y019932D01*
X012088D01*
Y01985D01*
X01314D01*
Y020822D01*
X012088D01*
Y020739D01*
X010987D01*
Y020852D01*
X010093D01*
Y020803D01*
X009314D01*
Y020915D01*
X009113D01*
Y02166D01*
X009113Y02166D01*
X0091Y021764D01*
X009059Y021862D01*
X008995Y021945D01*
X008995Y021945D01*
X008495Y022445D01*
X008412Y022509D01*
X008314Y02255D01*
X00821Y022563D01*
X00821Y022563D01*
X0053D01*
X005252Y022622D01*
X005236Y022635D01*
Y022685D01*
X005252Y022698D01*
X005333Y022797D01*
X005393Y02291D01*
X005431Y023033D01*
X005443Y02316D01*
X005431Y023287D01*
X005393Y02341D01*
X005333Y023523D01*
X005252Y023622D01*
X005153Y023703D01*
X00504Y023763D01*
X004917Y023801D01*
X00479Y023813D01*
X00459D01*
X004463Y023801D01*
X00434Y023763D01*
X004227Y023703D01*
X004128Y023622D01*
X004047Y023523D01*
X003987Y02341D01*
X003949Y023287D01*
X003937Y02316D01*
X003949Y023033D01*
X003987Y02291D01*
X004047Y022797D01*
X004128Y022698D01*
X004144Y022685D01*
Y022635D01*
X004128Y022622D01*
X004047Y022523D01*
X003987Y02241D01*
X003949Y022287D01*
X003937Y02216D01*
X003949Y022033D01*
X003987Y02191D01*
X004047Y021797D01*
X004128Y021698D01*
X004227Y021617D01*
X00434Y021557D01*
X004463Y021519D01*
X004504Y021515D01*
X004505Y021512D01*
X004516Y021464D01*
X004464Y021388D01*
X004445Y02129D01*
Y021241D01*
X004399Y021222D01*
X00414Y02148D01*
X004058Y021535D01*
X00396Y021555D01*
X002202D01*
X002196Y021605D01*
X002353Y021643D01*
X002532Y021717D01*
X002698Y021818D01*
X002845Y021945D01*
X002972Y022092D01*
X003073Y022258D01*
X003147Y022437D01*
X003193Y022626D01*
X003208Y02282D01*
X003193Y023014D01*
X003147Y023203D01*
X003073Y023382D01*
X002972Y023548D01*
X002845Y023695D01*
X002698Y023822D01*
X002532Y023923D01*
X002353Y023997D01*
X002164Y024043D01*
X00197Y024058D01*
X001776Y024043D01*
X001587Y023997D01*
X001408Y023923D01*
X001242Y023822D01*
X001095Y023695D01*
X000968Y023548D01*
X000873Y023391D01*
X000823Y023398D01*
Y02556D01*
X019207D01*
X019226Y025514D01*
D02*
G37*
G36*
X021712Y024844D02*
Y02414D01*
X021723Y024055D01*
X021737Y024021D01*
Y019548D01*
X021719Y01953D01*
X021654Y019535D01*
X021629Y019569D01*
X021556Y019625D01*
X02147Y01966D01*
X021379Y019672D01*
X021302Y019662D01*
X021271Y019698D01*
X021268Y019706D01*
Y021182D01*
X020247D01*
X018958Y022472D01*
Y023672D01*
X019018D01*
Y024001D01*
X01903Y024046D01*
X019342D01*
X019519Y023868D01*
X019587Y023816D01*
X019666Y023783D01*
X019751Y023772D01*
X019794D01*
Y023614D01*
X020846D01*
Y024586D01*
X019805D01*
Y024782D01*
X019745D01*
Y025002D01*
X021554D01*
X021712Y024844D01*
D02*
G37*
G36*
X038618Y023282D02*
X038568Y023272D01*
X038543Y023332D01*
X038442Y023498D01*
X038315Y023645D01*
X038168Y023772D01*
X038002Y023873D01*
X037823Y023947D01*
X037634Y023993D01*
X03744Y024008D01*
X037246Y023993D01*
X037057Y023947D01*
X036878Y023873D01*
X036712Y023772D01*
X036565Y023645D01*
X036438Y023498D01*
X036337Y023332D01*
X036263Y023153D01*
X036217Y022964D01*
X036202Y02277D01*
X036217Y022576D01*
X036263Y022387D01*
X036337Y022208D01*
X036438Y022042D01*
X036565Y021895D01*
X036712Y021768D01*
X036878Y021667D01*
X037057Y021593D01*
X037246Y021547D01*
X03744Y021532D01*
X037634Y021547D01*
X037823Y021593D01*
X038002Y021667D01*
X038168Y021768D01*
X038315Y021895D01*
X038442Y022042D01*
X038543Y022208D01*
X038568Y022268D01*
X038618Y022258D01*
Y003622D01*
X038568Y003612D01*
X038543Y003672D01*
X038442Y003838D01*
X038315Y003985D01*
X038168Y004112D01*
X038002Y004213D01*
X037823Y004287D01*
X037634Y004333D01*
X03744Y004348D01*
X037246Y004333D01*
X037057Y004287D01*
X036878Y004213D01*
X036712Y004112D01*
X036565Y003985D01*
X036438Y003838D01*
X036337Y003672D01*
X036263Y003493D01*
X036217Y003304D01*
X036202Y00311D01*
X036217Y002916D01*
X036263Y002727D01*
X036337Y002548D01*
X036438Y002382D01*
X036565Y002235D01*
X036712Y002108D01*
X036878Y002007D01*
X037057Y001933D01*
X037246Y001887D01*
X03744Y001872D01*
X037634Y001887D01*
X037823Y001933D01*
X038002Y002007D01*
X038168Y002108D01*
X038315Y002235D01*
X038442Y002382D01*
X038543Y002548D01*
X038568Y002608D01*
X038618Y002598D01*
Y000364D01*
X000823D01*
Y002651D01*
X000873Y002661D01*
X000907Y002578D01*
X001008Y002412D01*
X001135Y002265D01*
X001282Y002138D01*
X001448Y002037D01*
X001627Y001963D01*
X001816Y001917D01*
X00201Y001902D01*
X002204Y001917D01*
X002393Y001963D01*
X002572Y002037D01*
X002738Y002138D01*
X002885Y002265D01*
X003012Y002412D01*
X003113Y002578D01*
X003187Y002757D01*
X003233Y002946D01*
X003248Y00314D01*
X003233Y003334D01*
X003187Y003523D01*
X003113Y003702D01*
X003012Y003868D01*
X002885Y004015D01*
X002738Y004142D01*
X002572Y004243D01*
X002393Y004317D01*
X002204Y004363D01*
X00201Y004378D01*
X001816Y004363D01*
X001627Y004317D01*
X001448Y004243D01*
X001282Y004142D01*
X001135Y004015D01*
X001008Y003868D01*
X000907Y003702D01*
X000873Y003619D01*
X000823Y003629D01*
Y007552D01*
X000869Y007571D01*
X00105Y00739D01*
X001132Y007335D01*
X00123Y007315D01*
X001626D01*
Y007256D01*
X002723D01*
X00291Y00707D01*
X002992Y007015D01*
X00309Y006995D01*
X005945D01*
X005967Y00695D01*
X005956Y006936D01*
X005938Y006892D01*
X005608D01*
Y00592D01*
Y005171D01*
X005655D01*
Y00436D01*
X006705D01*
Y00437D01*
X007545D01*
Y005171D01*
X007548D01*
Y00592D01*
Y006078D01*
X009086D01*
X009128Y006084D01*
X009171Y006089D01*
X00925Y006122D01*
X009318Y006174D01*
X010476Y007332D01*
X01145D01*
X011492Y007338D01*
X011535Y007343D01*
X011614Y007376D01*
X011682Y007428D01*
X012246Y007992D01*
X013097D01*
X013129Y007979D01*
X01322Y007967D01*
X013311Y007979D01*
X013345Y007993D01*
X013387Y007965D01*
Y005754D01*
X01312D01*
Y005818D01*
X011597D01*
Y005754D01*
X011422D01*
Y005884D01*
Y006763D01*
X01045D01*
Y005712D01*
Y004833D01*
X011422D01*
Y004948D01*
X011597D01*
Y004097D01*
Y00331D01*
Y002522D01*
Y001735D01*
Y000948D01*
X01312D01*
Y001735D01*
Y002522D01*
Y00331D01*
Y003449D01*
X014396D01*
X014439Y003454D01*
X014481Y00346D01*
X01456Y003492D01*
X014628Y003545D01*
X014932Y003848D01*
X014984Y003916D01*
X015017Y003995D01*
X015028Y00408D01*
Y004593D01*
X015074Y004612D01*
X015355Y004332D01*
X015422Y00428D01*
X015501Y004247D01*
X015586Y004236D01*
X01766D01*
Y004097D01*
Y00331D01*
Y002522D01*
Y001735D01*
X019183D01*
Y002522D01*
Y00331D01*
Y003449D01*
X019256D01*
X019298Y003454D01*
X019341Y00346D01*
X01942Y003492D01*
X019488Y003545D01*
X019837Y003894D01*
X019889Y003961D01*
X019922Y004041D01*
X019933Y004125D01*
Y004385D01*
X019983Y004426D01*
X019988Y004426D01*
X020828D01*
Y00419D01*
X020818D01*
Y004007D01*
X020799Y004005D01*
X020713Y00397D01*
X02064Y003914D01*
X020584Y00384D01*
X020549Y003755D01*
X020537Y003664D01*
X020549Y003573D01*
X020584Y003487D01*
X02064Y003414D01*
X020713Y003358D01*
X020799Y003323D01*
X020818Y00332D01*
Y003138D01*
X021299D01*
X021319Y003092D01*
X021028Y002802D01*
X020976Y002734D01*
X020943Y002655D01*
X020938Y002612D01*
X020932Y00257D01*
Y001669D01*
X020857Y001612D01*
X020767Y001494D01*
X02071Y001356D01*
X02069Y001209D01*
Y001051D01*
X02071Y000904D01*
X020767Y000766D01*
X020857Y000648D01*
X020975Y000558D01*
X021113Y000501D01*
X02126Y000481D01*
X021407Y000501D01*
X021545Y000558D01*
X021663Y000648D01*
X021728Y000734D01*
X021792D01*
X021857Y000648D01*
X021975Y000558D01*
X022113Y000501D01*
X02226Y000481D01*
X022407Y000501D01*
X022545Y000558D01*
X022663Y000648D01*
X022753Y000766D01*
X02281Y000904D01*
X02283Y001051D01*
Y001209D01*
X02281Y001356D01*
X022753Y001494D01*
X022663Y001612D01*
X022588Y001669D01*
Y002244D01*
X023066Y002722D01*
X02477D01*
X024812Y002728D01*
X024855Y002733D01*
X024934Y002766D01*
X025002Y002818D01*
X025152Y002968D01*
X025204Y003036D01*
X025237Y003115D01*
X025242Y003158D01*
X025248Y0032D01*
Y00435D01*
X025237Y004434D01*
X025204Y004513D01*
X025152Y004581D01*
X025064Y004669D01*
X024996Y004721D01*
X024917Y004754D01*
X024875Y00476D01*
X024832Y004765D01*
X024213D01*
Y005565D01*
Y006353D01*
Y006511D01*
X024224Y006516D01*
X024271Y006552D01*
X024311Y006568D01*
X024384Y006624D01*
X02444Y006697D01*
X024475Y006783D01*
X024487Y006874D01*
X024475Y006965D01*
X02444Y00705D01*
X024384Y007124D01*
X024311Y00718D01*
X024226Y007215D01*
X024213Y007217D01*
Y007928D01*
Y008028D01*
X024257Y008033D01*
X024342Y008069D01*
X024415Y008125D01*
X024471Y008198D01*
X024507Y008283D01*
X024519Y008374D01*
X024507Y008466D01*
X024471Y008551D01*
X024415Y008624D01*
X024342Y00868D01*
X024257Y008715D01*
X024213Y008721D01*
Y008821D01*
X022827D01*
Y007928D01*
Y007127D01*
X021615D01*
Y007377D01*
X020765D01*
Y006127D01*
X021615D01*
Y006472D01*
X022827D01*
Y006353D01*
Y005565D01*
Y004846D01*
X022777Y004827D01*
X022705Y004857D01*
X022662Y004862D01*
X02262Y004868D01*
X022548D01*
Y005078D01*
X021174D01*
X021153Y005081D01*
X020228D01*
Y01264D01*
X021528D01*
X021536Y012637D01*
X021628Y012625D01*
X021719Y012637D01*
X021804Y012672D01*
X021877Y012728D01*
X021934Y012801D01*
X021969Y012886D01*
X021981Y012978D01*
X021969Y013069D01*
X021934Y013154D01*
X021877Y013227D01*
X021804Y013284D01*
X021759Y013302D01*
X021769Y013352D01*
X022622D01*
Y01083D01*
X022628Y010788D01*
X022633Y010745D01*
X022666Y010666D01*
X022718Y010598D01*
X023218Y010098D01*
X023286Y010046D01*
X023365Y010013D01*
X02345Y010002D01*
X028757D01*
X028789Y009989D01*
X02888Y009977D01*
X028971Y009989D01*
X029057Y010024D01*
X02913Y01008D01*
X029146Y010102D01*
X029196Y010085D01*
Y009609D01*
X028831D01*
Y009489D01*
X028721D01*
X028691Y009501D01*
X0286Y009513D01*
X028509Y009501D01*
X028423Y009466D01*
X02835Y00941D01*
X028294Y009337D01*
X028259Y009251D01*
X028247Y00916D01*
X028259Y009069D01*
X028294Y008983D01*
X02835Y00891D01*
X028423Y008854D01*
X028509Y008819D01*
X0286Y008807D01*
X028691Y008819D01*
X028725Y008833D01*
X028831D01*
Y008715D01*
Y007928D01*
Y00714D01*
Y006353D01*
Y005565D01*
Y004778D01*
Y003978D01*
X028645D01*
X028614Y003991D01*
X028522Y004003D01*
X028431Y003991D01*
X028346Y003956D01*
X028273Y0039D01*
X028217Y003827D01*
X028181Y003741D01*
X028169Y00365D01*
X028181Y003559D01*
X028217Y003473D01*
X028273Y0034D01*
X028346Y003344D01*
X028431Y003309D01*
X028522Y003297D01*
X028614Y003309D01*
X028645Y003322D01*
X028831D01*
Y003203D01*
X030217D01*
Y003991D01*
Y004851D01*
X03024Y004872D01*
X030331Y004884D01*
X030417Y004919D01*
X03049Y004975D01*
X030546Y005048D01*
X030581Y005133D01*
X030593Y005225D01*
X030581Y005316D01*
X030546Y005401D01*
X03049Y005474D01*
X030417Y005531D01*
X030331Y005566D01*
X03024Y005578D01*
X030217Y005598D01*
Y006353D01*
Y00714D01*
Y007928D01*
Y008715D01*
Y008834D01*
X030271D01*
Y008114D01*
X031244D01*
Y009165D01*
X031234D01*
Y010044D01*
X030261D01*
Y009622D01*
X030217Y009609D01*
Y009609D01*
X029852D01*
Y01107D01*
Y015178D01*
X03038D01*
Y015181D01*
X030462D01*
X03051Y01512D01*
X033525Y012104D01*
X033593Y012052D01*
X033672Y012019D01*
X033757Y012008D01*
X034248D01*
Y01185D01*
Y011101D01*
X034285D01*
Y01033D01*
X035125D01*
Y01031D01*
X036175D01*
Y011111D01*
X0362D01*
Y01186D01*
Y012018D01*
X036518D01*
X036652Y011884D01*
Y009523D01*
X036574Y009516D01*
X036385Y009458D01*
X036212Y009365D01*
X036059Y009241D01*
X035935Y009088D01*
X035842Y008915D01*
X035784Y008726D01*
X035765Y00853D01*
Y00763D01*
X035784Y007434D01*
X035842Y007245D01*
X035935Y007072D01*
X036059Y006919D01*
X036212Y006795D01*
X036385Y006702D01*
X036574Y006644D01*
X03677Y006625D01*
X036966Y006644D01*
X037155Y006702D01*
X037328Y006795D01*
X037481Y006919D01*
X037605Y007072D01*
X037698Y007245D01*
X037756Y007434D01*
X037775Y00763D01*
Y00853D01*
X037756Y008726D01*
X037698Y008915D01*
X037605Y009088D01*
X037481Y009241D01*
X037328Y009365D01*
X037308Y009376D01*
Y01202D01*
X037302Y012062D01*
X037297Y012105D01*
X037264Y012184D01*
X037212Y012252D01*
X036886Y012578D01*
X036818Y01263D01*
X036739Y012662D01*
X036697Y012668D01*
X036654Y012674D01*
X0362D01*
Y012832D01*
X035148D01*
Y012822D01*
X034248D01*
Y012664D01*
X033893D01*
X031267Y015289D01*
Y015411D01*
X0313Y015436D01*
X033031Y017168D01*
X033077Y017148D01*
Y014891D01*
X033074Y014887D01*
X033039Y014801D01*
X033027Y01471D01*
X033039Y014619D01*
X033074Y014533D01*
X03313Y01446D01*
X033203Y014404D01*
X033289Y014369D01*
X03338Y014357D01*
X033422Y014362D01*
X033454Y014283D01*
X03351Y01421D01*
X033583Y014154D01*
X033669Y014119D01*
X03376Y014107D01*
X03384Y014117D01*
X03386Y01409D01*
X033933Y014034D01*
X034019Y013999D01*
X03411Y013987D01*
X034201Y013999D01*
X034287Y014034D01*
X03436Y01409D01*
X034416Y014163D01*
X034451Y014249D01*
X034463Y01434D01*
X034451Y014431D01*
X034416Y014517D01*
X034413Y014521D01*
Y019268D01*
X034692D01*
Y020016D01*
Y020141D01*
X03473Y020177D01*
X034821Y020189D01*
X034907Y020224D01*
X03498Y02028D01*
X035036Y020353D01*
X035071Y020439D01*
X035083Y02053D01*
X035071Y020621D01*
X035036Y020707D01*
X03498Y02078D01*
X034907Y020836D01*
X034821Y020871D01*
X03473Y020883D01*
X034729Y020883D01*
X034692Y020916D01*
Y020989D01*
X033742D01*
Y021009D01*
X033627D01*
X033594Y021058D01*
X033603Y02113D01*
X033591Y021221D01*
X033556Y021307D01*
X0335Y02138D01*
X033427Y021436D01*
X033341Y021471D01*
X03325Y021483D01*
X033159Y021471D01*
X033073Y021436D01*
X033Y02138D01*
X032944Y021307D01*
X032909Y021221D01*
X032903Y021176D01*
X032899Y021167D01*
X032894Y021125D01*
X032888Y021083D01*
Y021009D01*
X03269D01*
Y019983D01*
X032644Y019964D01*
X032388Y02022D01*
X032326Y020268D01*
X03231Y020274D01*
Y020492D01*
X031258D01*
Y020389D01*
X03124Y020373D01*
X031149Y020361D01*
X031063Y020326D01*
X03099Y02027D01*
X030934Y020197D01*
X030899Y020111D01*
X030887Y02002D01*
X030899Y019929D01*
X030934Y019843D01*
X03099Y01977D01*
X031063Y019714D01*
X031149Y019679D01*
X03124Y019667D01*
X031258Y019651D01*
Y01952D01*
X032233D01*
X033077Y018675D01*
Y018158D01*
X03304Y018125D01*
X03299Y018132D01*
X032899Y01812D01*
X032813Y018085D01*
X03274Y018028D01*
X032684Y017955D01*
X032649Y01787D01*
X032637Y017779D01*
X032646Y01771D01*
X03109Y016154D01*
X03038D01*
Y016898D01*
X030085D01*
X029592Y017392D01*
X029592Y017392D01*
X029422Y017562D01*
X029365Y017619D01*
Y018459D01*
X029344D01*
Y020614D01*
X029338Y020656D01*
X029333Y020699D01*
X0293Y020778D01*
X029248Y020846D01*
X028982Y021112D01*
X028914Y021164D01*
X028835Y021197D01*
X028792Y021202D01*
X02875Y021208D01*
X028103D01*
X028071Y021221D01*
X028045Y021224D01*
Y02366D01*
X028037Y02372D01*
Y023804D01*
X028043Y02385D01*
X028031Y023941D01*
X027996Y024027D01*
X027967Y024063D01*
X028006Y024113D01*
X028041Y024199D01*
X028053Y02429D01*
X028041Y024381D01*
X028006Y024467D01*
X02795Y02454D01*
X027877Y024596D01*
X027791Y024631D01*
X0277Y024643D01*
X027609Y024631D01*
X027577Y024618D01*
X027097D01*
X02705Y02468D01*
X026977Y024736D01*
X026891Y024771D01*
X0268Y024783D01*
X026709Y024771D01*
X026677Y024758D01*
X0263D01*
X026258Y024752D01*
X026215Y024747D01*
X026136Y024714D01*
X026068Y024662D01*
X025848Y024442D01*
X025796Y024374D01*
X025763Y024295D01*
X025758Y024252D01*
X025752Y02421D01*
Y022962D01*
X025715Y022929D01*
X02563Y02294D01*
X025496Y022922D01*
X02537Y022871D01*
X025263Y022788D01*
X02518Y02268D01*
X025128Y022555D01*
X02511Y02242D01*
X025128Y022285D01*
X02518Y02216D01*
X025263Y022052D01*
X02537Y021969D01*
X025496Y021918D01*
X02563Y0219D01*
X025715Y021911D01*
X025752Y021878D01*
Y021221D01*
X025711Y021193D01*
X025691Y021201D01*
X0256Y021213D01*
X025509Y021201D01*
X025423Y021166D01*
X02535Y02111D01*
X025294Y021037D01*
X025259Y020951D01*
X025258Y020946D01*
X025086Y020774D01*
X025038Y020711D01*
X025008Y020638D01*
X024997Y02056D01*
Y019695D01*
X024695Y019393D01*
X022385D01*
X022381Y019421D01*
X022346Y019507D01*
X022343Y019511D01*
Y020897D01*
X022384Y020925D01*
X022423Y020909D01*
X02256Y020891D01*
X022697Y020909D01*
X022825Y020962D01*
X022935Y021046D01*
X023019Y021156D01*
X023035Y021194D01*
X023085D01*
X023101Y021156D01*
X023185Y021046D01*
X023295Y020962D01*
X023423Y020909D01*
X02356Y020891D01*
X023697Y020909D01*
X023825Y020962D01*
X023935Y021046D01*
X024019Y021156D01*
X024072Y021284D01*
X02409Y021421D01*
Y021539D01*
X024076Y021648D01*
X024109Y021698D01*
X024109D01*
Y022985D01*
X023215D01*
Y021937D01*
X023185Y021914D01*
X023101Y021804D01*
X023085Y021766D01*
X023035D01*
X023019Y021804D01*
X022935Y021914D01*
X022825Y021998D01*
X022697Y022051D01*
X02256Y022069D01*
X022423Y022051D01*
X022384Y022035D01*
X022343Y022063D01*
Y024021D01*
X022357Y024055D01*
X022368Y02414D01*
Y02498D01*
X022357Y025065D01*
X022324Y025144D01*
X022272Y025212D01*
X021969Y025514D01*
X021988Y02556D01*
X02985D01*
Y022985D01*
X029593D01*
Y021698D01*
X02985D01*
Y021533D01*
X036132D01*
Y02556D01*
X038618D01*
Y023282D01*
D02*
G37*
G36*
X0081Y02168D02*
Y02016D01*
X00797Y02003D01*
X00483D01*
X0047Y02016D01*
Y02129D01*
X00526Y02185D01*
X00793D01*
X0081Y02168D01*
D02*
G37*
G36*
X00437Y02089D02*
Y02015D01*
X00469Y01983D01*
X00662D01*
X00663Y01984D01*
X00682Y01965D01*
Y01894D01*
X0063Y01842D01*
X00484D01*
X00442Y01884D01*
X00096D01*
X00083Y01897D01*
Y02098D01*
X00115Y0213D01*
X00396D01*
X00437Y02089D01*
D02*
G37*
G36*
X00096Y018585D02*
X004314D01*
X004388Y018511D01*
X004369Y018465D01*
X00418D01*
X004082Y018446D01*
X004Y01839D01*
X00377Y01816D01*
X003715Y018078D01*
X003695Y01798D01*
Y017525D01*
X00108D01*
X000982Y017506D01*
X0009Y01745D01*
X000869Y017419D01*
X000823Y017438D01*
Y018576D01*
X000873Y018602D01*
X00096Y018585D01*
D02*
G37*
G36*
X028255Y019481D02*
Y018459D01*
X028235D01*
Y017368D01*
X028285D01*
X028296Y017342D01*
X028348Y017274D01*
X028638Y016984D01*
Y016898D01*
X028405D01*
Y016933D01*
X028394Y017018D01*
X028361Y017097D01*
X028309Y017165D01*
X028065Y017408D01*
Y018459D01*
X028045D01*
Y019626D01*
X028091Y019645D01*
X028255Y019481D01*
D02*
G37*
G36*
X00417Y016307D02*
X004129Y01628D01*
X004101Y016291D01*
X00401Y016303D01*
X003566D01*
Y016476D01*
X002594D01*
Y015424D01*
X003566D01*
Y015597D01*
X003787D01*
X00382Y015559D01*
X003819Y015553D01*
Y015218D01*
X003831Y015122D01*
X003868Y015033D01*
X003927Y014956D01*
X004004Y014897D01*
X004094Y01486D01*
X00419Y014847D01*
X004286Y01486D01*
X004376Y014897D01*
X00444Y014946D01*
X004504Y014897D01*
X004594Y01486D01*
X00469Y014847D01*
X004786Y01486D01*
X004876Y014897D01*
X00494Y014946D01*
X005004Y014897D01*
X005094Y01486D01*
X00519Y014847D01*
X005286Y01486D01*
X005376Y014897D01*
X00544Y014946D01*
X005504Y014897D01*
X005594Y01486D01*
X00569Y014847D01*
X005786Y01486D01*
X005876Y014897D01*
X005953Y014956D01*
X006011Y015033D01*
X006724D01*
Y014372D01*
X007574D01*
X007575Y01437D01*
Y011541D01*
X007529Y011522D01*
X00723Y01182D01*
X007148Y011875D01*
X00705Y011895D01*
X005565Y011895D01*
X005565Y0135D01*
X005545Y013598D01*
X00549Y01368D01*
X00546Y01371D01*
X005378Y013765D01*
X00528Y013785D01*
X0051D01*
X005002Y013765D01*
X004938Y013722D01*
X00484Y01382D01*
X004758Y013875D01*
X00466Y013895D01*
X001955D01*
Y016224D01*
X002356Y016625D01*
X00417D01*
Y016307D01*
D02*
G37*
G36*
X025752Y018829D02*
Y018459D01*
X025636D01*
Y01753D01*
X025179Y017072D01*
X025127Y017004D01*
X025094Y016925D01*
X02509Y016898D01*
X024885D01*
Y016022D01*
X024586D01*
Y016149D01*
X024599Y016181D01*
X024611Y016272D01*
X024599Y016364D01*
X024563Y016449D01*
X024507Y016522D01*
X024434Y016578D01*
X024349Y016613D01*
X024258Y016625D01*
X024166Y016613D01*
X024081Y016578D01*
X024008Y016522D01*
X023952Y016449D01*
X023917Y016364D01*
X023905Y016272D01*
X023917Y016181D01*
X02393Y016149D01*
Y015782D01*
X023935Y015739D01*
X023941Y015697D01*
X023974Y015618D01*
X024026Y01555D01*
X024114Y015462D01*
X024182Y01541D01*
X024261Y015377D01*
X024303Y015372D01*
X024346Y015366D01*
X024885D01*
Y015178D01*
X029196D01*
Y011388D01*
X025456D01*
Y011586D01*
X024704D01*
Y012433D01*
X02451D01*
Y012753D01*
X024807D01*
Y013603D01*
X02451D01*
Y013672D01*
X027535D01*
Y012625D01*
X028665D01*
Y013755D01*
X028378D01*
Y013912D01*
X028372Y013955D01*
X028367Y013997D01*
X028334Y014076D01*
X028282Y014144D01*
X028194Y014232D01*
X028126Y014284D01*
X028047Y014317D01*
X028005Y014322D01*
X027962Y014328D01*
X024528D01*
Y014657D01*
X024541Y014689D01*
X024553Y01478D01*
X024541Y014871D01*
X024506Y014957D01*
X02445Y01503D01*
X024377Y015086D01*
X024291Y015121D01*
X0242Y015133D01*
X024109Y015121D01*
X024023Y015086D01*
X02395Y01503D01*
X023894Y014957D01*
X023859Y014871D01*
X023847Y01478D01*
X023859Y014689D01*
X023872Y014657D01*
Y013873D01*
X023865Y013857D01*
X02386Y013814D01*
X023854Y013772D01*
Y013603D01*
X023557D01*
Y012753D01*
X023854D01*
Y012433D01*
X023731D01*
Y011382D01*
X023736D01*
Y010658D01*
X023586D01*
X023278Y010966D01*
Y013592D01*
X023272Y013635D01*
X023267Y013677D01*
X023234Y013756D01*
X023182Y013824D01*
X023094Y013912D01*
X023026Y013964D01*
X022947Y013997D01*
X022905Y014002D01*
X022862Y014008D01*
X021225D01*
X021211Y014042D01*
X021211Y014058D01*
X02128Y01411D01*
X021336Y014183D01*
X021371Y014269D01*
X021383Y01436D01*
X021371Y014451D01*
X021358Y014483D01*
Y015354D01*
X022956Y016952D01*
X02368D01*
X023722Y016958D01*
X023765Y016963D01*
X023844Y016996D01*
X023912Y017048D01*
X024615Y017751D01*
X024647Y017764D01*
X02472Y01782D01*
X024776Y017893D01*
X024811Y017979D01*
X024823Y01807D01*
X024811Y018161D01*
X024776Y018247D01*
X02472Y01832D01*
X024647Y018376D01*
X024561Y018411D01*
X02447Y018423D01*
X024395Y018413D01*
X024345Y018445D01*
Y018577D01*
X02531D01*
X025388Y018588D01*
X025461Y018618D01*
X025524Y018666D01*
X025706Y018848D01*
X025752Y018829D01*
D02*
G37*
G36*
X00964Y01937D02*
Y01845D01*
X00948Y01829D01*
X00706D01*
X00654Y01777D01*
X00509D01*
X00497Y01765D01*
Y01694D01*
X00491Y01688D01*
X00225D01*
X0017Y01633D01*
Y01364D01*
X00466D01*
X00482Y01348D01*
Y012714D01*
X004791Y012686D01*
X004724D01*
Y012599D01*
X004718Y01257D01*
Y011682D01*
X0033D01*
X003261Y011674D01*
X003228Y011652D01*
X003213Y01163D01*
X00098D01*
X000823Y011787D01*
Y01318D01*
X000823D01*
X000823Y01704D01*
X00085Y01704D01*
X00108Y01727D01*
X00395D01*
Y01798D01*
X00418Y01821D01*
X00638D01*
X00702Y01885D01*
Y01955D01*
X00704Y01957D01*
X00944D01*
X00964Y01937D01*
D02*
G37*
G36*
X00531Y0135D02*
X00531Y01164D01*
X00705Y01164D01*
X00742Y01127D01*
Y00984D01*
X00718Y0096D01*
X00342D01*
X0033Y00972D01*
Y01158D01*
X00477D01*
X00483Y01164D01*
X00482Y01165D01*
Y01257D01*
X00497Y01272D01*
X00507D01*
Y0135D01*
X0051Y01353D01*
X00528D01*
X00531Y0135D01*
D02*
G37*
G36*
X0087Y01439D02*
X0087Y00989D01*
X0072Y00839D01*
Y00742D01*
X00703Y00725D01*
X00309D01*
X00277Y00757D01*
X00123D01*
X00083Y00797D01*
Y00876D01*
X00118Y00911D01*
X00704D01*
X00783Y0099D01*
Y01437D01*
X00792Y01446D01*
X00863D01*
X0087Y01439D01*
D02*
G37*
%LPC*%
G36*
X01142Y0243D02*
X011245Y024286D01*
X011074Y024245D01*
X010912Y024178D01*
X010762Y024086D01*
X010628Y023972D01*
X010514Y023838D01*
X010422Y023688D01*
X010355Y023526D01*
X010314Y023355D01*
X0103Y02318D01*
X010314Y023005D01*
X010355Y022834D01*
X010422Y022672D01*
X010514Y022522D01*
X010628Y022388D01*
X010762Y022274D01*
X010912Y022182D01*
X011074Y022115D01*
X011245Y022074D01*
X01142Y02206D01*
X011595Y022074D01*
X011766Y022115D01*
X011928Y022182D01*
X012078Y022274D01*
X012212Y022388D01*
X012326Y022522D01*
X012418Y022672D01*
X012485Y022834D01*
X012526Y023005D01*
X01254Y02318D01*
X012526Y023355D01*
X012485Y023526D01*
X012418Y023688D01*
X012326Y023838D01*
X012212Y023972D01*
X012078Y024086D01*
X011928Y024178D01*
X011766Y024245D01*
X011595Y024286D01*
X01142Y0243D01*
D02*
G37*
G36*
X015555Y020944D02*
X015424Y020927D01*
X015303Y020877D01*
X015198Y020797D01*
X015118Y020692D01*
X015068Y020571D01*
X015051Y02044D01*
X015068Y020309D01*
X015118Y020188D01*
X015198Y020083D01*
X015303Y020003D01*
X015424Y019953D01*
X015555Y019936D01*
X015686Y019953D01*
X015807Y020003D01*
X015912Y020083D01*
X015992Y020188D01*
X016042Y020309D01*
X016059Y02044D01*
X016042Y020571D01*
X015992Y020692D01*
X015912Y020797D01*
X015807Y020877D01*
X015686Y020927D01*
X015555Y020944D01*
D02*
G37*
G36*
X0129Y015329D02*
X012753Y015309D01*
X012615Y015252D01*
X012515Y015175D01*
X012465Y015198D01*
Y015324D01*
X011335D01*
Y014036D01*
X012465D01*
Y014162D01*
X012515Y014185D01*
X012615Y014108D01*
X012753Y014051D01*
X0129Y014031D01*
X013047Y014051D01*
X013185Y014108D01*
X013303Y014198D01*
X013393Y014316D01*
X01345Y014454D01*
X01347Y014601D01*
Y014759D01*
X01345Y014906D01*
X013393Y015044D01*
X013303Y015162D01*
X013185Y015252D01*
X013047Y015309D01*
X0129Y015329D01*
D02*
G37*
G36*
X02878Y02294D02*
X028645Y022922D01*
X02852Y022871D01*
X028412Y022788D01*
X02833Y02268D01*
X028278Y022555D01*
X02826Y02242D01*
X028278Y022285D01*
X02833Y02216D01*
X028412Y022052D01*
X02852Y021969D01*
X028645Y021918D01*
X02878Y0219D01*
X028915Y021918D01*
X02904Y021969D01*
X029148Y022052D01*
X02923Y02216D01*
X029282Y022285D01*
X0293Y02242D01*
X029282Y022555D01*
X02923Y02268D01*
X029148Y022788D01*
X02904Y022871D01*
X028915Y022922D01*
X02878Y02294D01*
D02*
G37*
G36*
X030487Y01895D02*
X029593D01*
Y017859D01*
X030487D01*
Y01895D01*
D02*
G37*
G36*
X03629Y020283D02*
X036199Y020271D01*
X036113Y020236D01*
X03604Y02018D01*
X035984Y020107D01*
X035949Y020021D01*
X035937Y01993D01*
X035949Y019839D01*
X035984Y019753D01*
X036017Y01971D01*
Y016861D01*
X036014Y016857D01*
X035979Y016771D01*
X035967Y01668D01*
X035979Y016589D01*
X036014Y016503D01*
X03607Y01643D01*
X036143Y016374D01*
X036229Y016339D01*
X03632Y016327D01*
X036411Y016339D01*
X036497Y016374D01*
X03657Y01643D01*
X036626Y016503D01*
X036661Y016589D01*
X036673Y01668D01*
X036661Y016771D01*
X036626Y016857D01*
X036623Y016861D01*
Y019818D01*
X036631Y019839D01*
X036643Y01993D01*
X036631Y020021D01*
X036596Y020107D01*
X03654Y02018D01*
X036467Y020236D01*
X036381Y020271D01*
X03629Y020283D01*
D02*
G37*
G36*
X00894Y002864D02*
X008814Y002851D01*
X008692Y002814D01*
X008627Y002779D01*
X008584Y002805D01*
Y002861D01*
X007296D01*
Y001179D01*
X008584D01*
Y001235D01*
X008627Y001261D01*
X008692Y001226D01*
X008814Y001189D01*
X00894Y001176D01*
X009066Y001189D01*
X009188Y001226D01*
X009299Y001285D01*
X009397Y001366D01*
X009478Y001464D01*
X009538Y001576D01*
X009574Y001697D01*
X009587Y001823D01*
Y002217D01*
X009574Y002343D01*
X009538Y002464D01*
X009478Y002576D01*
X009397Y002674D01*
X009299Y002755D01*
X009188Y002814D01*
X009066Y002851D01*
X00894Y002864D01*
D02*
G37*
G36*
X00551D02*
X005384Y002851D01*
X005262Y002814D01*
X005197Y002779D01*
X005154Y002805D01*
Y002861D01*
X003866D01*
Y001179D01*
X005154D01*
Y001235D01*
X005197Y001261D01*
X005262Y001226D01*
X005384Y001189D01*
X00551Y001176D01*
X005636Y001189D01*
X005758Y001226D01*
X005869Y001285D01*
X005967Y001366D01*
X006048Y001464D01*
X006108Y001576D01*
X006144Y001697D01*
X006157Y001823D01*
Y002217D01*
X006144Y002343D01*
X006108Y002464D01*
X006048Y002576D01*
X005967Y002674D01*
X005869Y002755D01*
X005758Y002814D01*
X005636Y002851D01*
X00551Y002864D01*
D02*
G37*
G36*
X00419Y01363D02*
X004105Y013613D01*
X004033Y013565D01*
X003985Y013492D01*
X003968Y013407D01*
Y013073D01*
X003985Y012988D01*
X003993Y012975D01*
Y012686D01*
X003976D01*
Y011934D01*
X004648D01*
Y012686D01*
X004401D01*
Y013015D01*
X004412Y013073D01*
Y013407D01*
X004395Y013492D01*
X004347Y013565D01*
X004275Y013613D01*
X00419Y01363D01*
D02*
G37*
%LPD*%
D12*
X0149Y01882D02*
X01494Y01886D01*
X0149Y01691D02*
Y01882D01*
X01565Y01012D02*
Y01188D01*
X01579Y00998D02*
X01823D01*
X01565Y01012D02*
X01579Y00998D01*
X034166Y019754D02*
X03419Y01973D01*
X031784Y020006D02*
X032174D01*
X033216Y019774D02*
X033255D01*
X03411Y01434D02*
Y01965D01*
X03419Y01973D01*
X033255Y019774D02*
X03376Y01927D01*
Y01446D02*
Y01927D01*
X032174Y020006D02*
X03338Y0188D01*
Y01471D02*
Y0188D01*
X03629Y01993D02*
X03632Y0199D01*
Y01668D02*
Y0199D01*
X02204Y01933D02*
Y02414D01*
X02531Y01888D02*
X02573Y0193D01*
X01692Y01888D02*
X02531D01*
X02573Y0193D02*
Y02022D01*
X02769Y02385D02*
X027709Y023831D01*
Y023668D02*
X027717Y02366D01*
X02482Y01909D02*
X0253Y01957D01*
Y02056D02*
X0256Y02086D01*
X0253Y01957D02*
Y02056D01*
X01604Y018D02*
X01692Y01888D01*
X01543Y01829D02*
X01623Y01909D01*
X02482D01*
X01604Y01603D02*
Y018D01*
X01573Y01572D02*
X01604Y01603D01*
X01521Y01572D02*
X01573D01*
X01543Y01603D02*
Y01829D01*
D22*
X03004Y022341D02*
D03*
X023662D02*
D03*
D23*
X029016Y017914D02*
D03*
X028583D02*
D03*
X027717D02*
D03*
X027284D02*
D03*
X026851D02*
D03*
X026418D02*
D03*
X025985D02*
D03*
X029449D02*
D03*
X02815D02*
D03*
D24*
X023898Y018404D02*
D03*
X03004D02*
D03*
D25*
X030741Y016416D02*
D03*
Y015668D02*
D03*
X026299Y016412D02*
D03*
Y015664D02*
D03*
X027188Y016412D02*
D03*
Y015664D02*
D03*
X028077Y016412D02*
D03*
Y015664D02*
D03*
X028966Y016412D02*
D03*
Y015664D02*
D03*
X025411Y016412D02*
D03*
Y015664D02*
D03*
X007023Y006406D02*
D03*
Y005658D02*
D03*
X006134D02*
D03*
Y006406D02*
D03*
X035674Y012346D02*
D03*
Y011598D02*
D03*
X031784Y019258D02*
D03*
Y020006D02*
D03*
X02032Y0241D02*
D03*
Y024848D02*
D03*
X012614Y019588D02*
D03*
X006786Y016454D02*
D03*
X00725Y01411D02*
D03*
X033216Y020522D02*
D03*
Y019774D02*
D03*
X034166Y020502D02*
D03*
Y019754D02*
D03*
X034774Y011588D02*
D03*
Y012336D02*
D03*
X029855Y016412D02*
D03*
Y015664D02*
D03*
X00725Y014858D02*
D03*
X00814D02*
D03*
Y01411D02*
D03*
X006786Y017202D02*
D03*
X004696D02*
D03*
Y016454D02*
D03*
X00589Y0172D02*
D03*
Y016452D02*
D03*
X012614Y020336D02*
D03*
D26*
X02119Y006752D02*
D03*
Y009508D02*
D03*
D28*
X012398Y006926D02*
D03*
D29*
X012358Y006138D02*
D03*
Y005351D02*
D03*
Y004564D02*
D03*
Y003776D02*
D03*
Y002989D02*
D03*
Y002201D02*
D03*
Y001414D02*
D03*
X018421D02*
D03*
Y002201D02*
D03*
Y002989D02*
D03*
Y003776D02*
D03*
Y004564D02*
D03*
Y005351D02*
D03*
Y006138D02*
D03*
Y006926D02*
D03*
D30*
X020526Y02044D02*
D03*
X013754D02*
D03*
D31*
X00702Y00487D02*
D03*
Y00397D02*
D03*
X03565Y01081D02*
D03*
Y00991D02*
D03*
X00618Y00396D02*
D03*
Y00486D02*
D03*
X03481Y00993D02*
D03*
Y01083D02*
D03*
D32*
X029524Y009162D02*
D03*
Y008374D02*
D03*
Y007587D02*
D03*
Y0068D02*
D03*
Y006012D02*
D03*
Y005225D02*
D03*
Y004437D02*
D03*
Y00365D02*
D03*
X02352D02*
D03*
Y004437D02*
D03*
Y005225D02*
D03*
Y006012D02*
D03*
Y0068D02*
D03*
Y007587D02*
D03*
Y008374D02*
D03*
Y009162D02*
D03*
D33*
X021314Y004553D02*
D03*
X022062D02*
D03*
X021304Y003664D02*
D03*
X022052D02*
D03*
X010936Y005359D02*
D03*
X010188D02*
D03*
X002332Y01595D02*
D03*
X010188Y006237D02*
D03*
X031506Y00864D02*
D03*
X031496Y009519D02*
D03*
X024966Y011908D02*
D03*
X024218D02*
D03*
X024222Y01106D02*
D03*
X02497D02*
D03*
X030748Y009519D02*
D03*
X030758Y00864D02*
D03*
X010936Y006237D02*
D03*
X00308Y01595D02*
D03*
X00506Y01231D02*
D03*
X004312D02*
D03*
D34*
X00234Y014151D02*
D03*
Y013049D02*
D03*
D35*
X007249Y01279D02*
D03*
X008351D02*
D03*
D36*
X00569Y01324D02*
D03*
X00419D02*
D03*
X00469D02*
D03*
X00519D02*
D03*
X00419Y015386D02*
D03*
X00469D02*
D03*
X00519D02*
D03*
X00569D02*
D03*
D37*
X01054Y018673D02*
D03*
Y020208D02*
D03*
D38*
X026938Y013178D02*
D03*
X024182D02*
D03*
D39*
X00537Y00808D02*
D03*
Y01058D02*
D03*
D40*
X00748Y01892D02*
D03*
Y02046D02*
D03*
D41*
X00871Y020399D02*
D03*
Y019081D02*
D03*
D42*
X00568Y018887D02*
D03*
Y020413D02*
D03*
D80*
X019417Y024414D02*
D03*
X01863Y024788D02*
D03*
Y02404D02*
D03*
D81*
X00469Y01276D02*
Y01324D01*
X03034Y01605D02*
X030354D01*
X030424Y01612D02*
X030446D01*
X030354Y01605D02*
X030424Y01612D01*
X029827Y019258D02*
X031784D01*
X029449Y017914D02*
Y01888D01*
Y017839D02*
Y017914D01*
X006329Y014131D02*
X00635Y01411D01*
X00544Y01502D02*
X006329Y014131D01*
X011586Y006935D02*
X0116Y006949D01*
X012194Y006926D02*
X01238Y00674D01*
X0124Y006138D02*
Y00653D01*
X01238Y00674D02*
Y006926D01*
X02368Y01728D02*
X02447Y01807D01*
X02103Y01549D02*
X02282Y01728D01*
X02368D01*
X02103Y01436D02*
Y01549D01*
X01211Y00832D02*
X01322D01*
X01145Y00766D02*
X01211Y00832D01*
X029523Y009161D02*
X029524Y009162D01*
X028601Y009161D02*
X029523D01*
X0286Y00916D02*
X028601Y009161D01*
X029524Y015664D02*
Y015664D01*
Y01107D02*
Y015664D01*
Y009162D02*
Y01107D01*
X02497Y01106D02*
X029514D01*
X029524Y01107D01*
X024258Y015782D02*
Y016272D01*
Y015782D02*
X024346Y015694D01*
X025381D01*
X027962Y014D02*
X02805Y013912D01*
Y01324D02*
Y013912D01*
X0242Y014D02*
X027962D01*
X03064Y016517D02*
Y01686D01*
X029685Y017815D02*
X03064Y01686D01*
Y016517D02*
X030741Y016416D01*
X029449Y017839D02*
X029473Y017815D01*
X029685D01*
X030446Y01612D02*
X030541Y016215D01*
Y016255D01*
X030702Y016416D01*
X03177Y02002D02*
X031784Y020006D01*
X03124Y02002D02*
X03177D01*
X0179Y013592D02*
X017988Y01368D01*
X02295Y01083D02*
Y013592D01*
X0179Y01088D02*
Y013592D01*
X022862Y01368D02*
X02295Y013592D01*
X017988Y01368D02*
X022862D01*
X018421Y003776D02*
X019256D01*
X019605Y004125D01*
Y013355D01*
X019553Y013407D02*
X019605Y013355D01*
X02345Y01033D02*
X02888D01*
X02295Y01083D02*
X02345Y01033D01*
X01937Y00623D02*
Y01118D01*
X01938Y01119D01*
X019279Y006138D02*
X01937Y00623D01*
X018421Y006138D02*
X019279D01*
X0199Y01283D02*
X020038Y012968D01*
X0199Y004841D02*
X019988Y004753D01*
X021153D01*
X0199Y004841D02*
Y01283D01*
X020038Y012968D02*
X021618D01*
X021628Y012978D01*
X021314Y004553D02*
Y004592D01*
X021153Y004753D02*
X021314Y004592D01*
X00995Y01118D02*
X01355D01*
X00932Y01181D02*
X00995Y01118D01*
X01501Y00514D02*
X015586Y004564D01*
X01501Y00514D02*
Y01279D01*
X00814Y013001D02*
Y01411D01*
Y013001D02*
X008351Y01279D01*
X01034Y00766D02*
X01145D01*
X009086Y006406D02*
X01034Y00766D01*
X007023Y006406D02*
X009086D01*
X009222Y00686D02*
X00931Y006948D01*
Y00744D02*
X01015Y00828D01*
X006328Y00686D02*
X009222D01*
X00931Y006948D02*
Y00744D01*
X010188Y006237D02*
Y006862D01*
X011555Y006935D02*
X011586D01*
X011541Y00695D02*
X011555Y006935D01*
X010276Y00695D02*
X011541D01*
X010188Y006862D02*
X010276Y00695D01*
X0116Y006926D02*
X012194D01*
X0242Y01379D02*
Y01478D01*
X024182Y013772D02*
X0242Y01379D01*
X025381Y015694D02*
X025411Y015664D01*
X01809Y01998D02*
X018751Y019319D01*
X018178Y024788D02*
X01863D01*
X01809Y01998D02*
Y0247D01*
X018178Y024788D01*
X018751Y019319D02*
X021379D01*
X02169Y02533D02*
X02204Y02498D01*
Y02414D02*
Y02498D01*
X024182Y011908D02*
Y013178D01*
X01498Y01342D02*
X01537Y01303D01*
Y00628D02*
Y01303D01*
Y00628D02*
X016299Y005351D01*
X015586Y004564D02*
X018421D01*
X012358Y003776D02*
X014396D01*
X0147Y00408D01*
Y01363D01*
X01426Y004652D02*
Y01386D01*
X01435Y01395D01*
X0147D01*
X012358Y004564D02*
X014172D01*
X01426Y004652D01*
X03677Y00808D02*
X03698Y00829D01*
Y01202D01*
X035674Y012346D02*
X036654D01*
X03698Y01202D01*
X02798Y02088D02*
X02875D01*
X029016Y020614D01*
Y017914D02*
Y020614D01*
X02815Y01742D02*
X02856Y01701D01*
X026418Y023628D02*
X02708Y02429D01*
X0277D01*
X026851Y017914D02*
Y023271D01*
X02735Y02377D02*
Y02379D01*
X027717Y017914D02*
Y02366D01*
X02815Y01742D02*
Y017914D01*
X02608Y02421D02*
X0263Y02443D01*
X0268D01*
X026851Y023271D02*
X02735Y02377D01*
X027709Y023668D02*
Y023831D01*
X02856Y01605D02*
Y01701D01*
X025985Y018111D02*
X02608Y018206D01*
Y02421D01*
X026418Y017914D02*
Y023628D01*
X02798Y02022D02*
X028583Y019617D01*
Y017914D02*
Y019617D01*
Y017506D02*
Y017914D01*
X02858Y017506D02*
X028966Y01712D01*
Y016924D02*
Y01712D01*
Y016412D02*
Y016924D01*
X029017Y017503D02*
X02919Y01733D01*
X029855Y016412D02*
Y016665D01*
X02936Y01716D02*
X029855Y016665D01*
X02919Y01733D02*
X02936Y01716D01*
X029449Y01888D02*
X029827Y019258D01*
X027717Y017293D02*
Y017914D01*
X028077Y016412D02*
Y016933D01*
X027717Y017293D02*
X028077Y016933D01*
X026851Y017299D02*
Y017914D01*
Y017299D02*
X02706Y01709D01*
Y01654D02*
Y01709D01*
Y01654D02*
X027188Y016412D01*
X025985Y017415D02*
Y018111D01*
X025411Y016412D02*
Y016841D01*
X025985Y017415D01*
X026418Y017278D02*
Y017914D01*
X02633Y016443D02*
Y01719D01*
X026418Y017278D01*
X027284Y017226D02*
Y017914D01*
X02762Y015664D02*
Y01689D01*
X027284Y017226D02*
X02762Y01689D01*
X029016Y017914D02*
X029017Y017913D01*
Y017503D02*
Y017913D01*
X026299Y016412D02*
X02633Y016443D01*
X0208Y024848D02*
X02115Y024498D01*
X02032Y024848D02*
X0208D01*
X019417Y024414D02*
Y025242D01*
X019505Y02533D01*
X02169D01*
X019417Y024414D02*
X019437D01*
X019751Y0241D01*
X02032D01*
X026876Y01324D02*
X026938Y013178D01*
X02507Y01324D02*
X026876D01*
X024966Y011908D02*
Y013136D01*
X02507Y01324D01*
X027188Y015664D02*
X027188Y015664D01*
X02759Y015664D02*
X028077D01*
X027188Y015664D02*
X02759D01*
X028966Y015664D02*
X029524D01*
X028077D02*
X028966D01*
X029524Y015664D02*
X029855D01*
X029524Y015664D02*
X029524Y015664D01*
Y009162D02*
X03043D01*
X031496Y009519D02*
X034374D01*
X034445Y00959D01*
X031496Y00865D02*
Y009519D01*
Y00865D02*
X031506Y00864D01*
X03481Y00993D02*
X03483Y00991D01*
X03565D01*
X03377Y00808D02*
X034445Y008755D01*
Y00959D01*
X034785Y00993D01*
X03481D01*
X016299Y005351D02*
X018421D01*
X00702Y00397D02*
X010188D01*
Y005359D01*
Y00372D02*
Y00397D01*
X00352Y00396D02*
X00618D01*
X00227Y00521D02*
Y0069D01*
Y00521D02*
X00352Y00396D01*
X00805Y01872D02*
Y0197D01*
X012194Y006926D02*
X01238D01*
Y00653D02*
Y00674D01*
X004696Y01744D02*
X004856Y0176D01*
X004696Y017202D02*
Y01744D01*
X002246Y017764D02*
X002445Y017565D01*
X002815D01*
X00202Y016262D02*
Y01637D01*
Y016262D02*
X002246Y016036D01*
X00537Y00808D02*
X00694D01*
X030741Y015668D02*
X031068D01*
X03299Y01759D01*
Y017779D01*
X030741Y015351D02*
Y015668D01*
Y015351D02*
X033757Y012336D01*
X034774D01*
X02089Y003664D02*
X021304D01*
X02352Y0068D02*
X02406D01*
X024134Y006874D01*
X00614Y01279D02*
X007249D01*
X00569Y01324D02*
X00614Y01279D01*
X02352Y008374D02*
X024166D01*
X012358Y006138D02*
X0124D01*
X02115Y021442D02*
Y024498D01*
X00648Y016454D02*
X006786D01*
X00638Y016354D02*
X00648Y016454D01*
X00638Y01616D02*
Y016354D01*
X00622Y016D02*
X00638Y01616D01*
X00572Y016D02*
X00622D01*
X00544Y01572D02*
X00572Y016D01*
X00544Y01502D02*
Y01572D01*
X00635Y01411D02*
X00725D01*
X029524Y005225D02*
X03024D01*
X028522Y00365D02*
X029524D01*
X01238Y006926D02*
X012398D01*
X01236Y017934D02*
X012614Y018188D01*
Y019588D01*
X01054Y018673D02*
Y019248D01*
X01088Y019588D01*
X012614D01*
X019474Y00113D02*
X02026D01*
X01919Y001414D02*
X019474Y00113D01*
X018421Y001414D02*
X01919D01*
X00391Y00808D02*
X00537D01*
X00373Y0079D02*
X00391Y00808D01*
X00227Y0079D02*
X00373D01*
X026299Y015664D02*
X027188D01*
X025411D02*
X026299D01*
X030293Y015668D02*
X030741D01*
X03029Y015664D02*
X030293Y015668D01*
X029855Y015664D02*
X03029D01*
X024218Y011484D02*
Y011908D01*
Y011484D02*
X024222Y01148D01*
Y01106D02*
Y01148D01*
X034166Y020502D02*
X034689D01*
X034716Y02053D01*
X03473D01*
X033216Y020522D02*
Y021083D01*
X03325Y021116D01*
Y02113D01*
X01015Y00828D02*
X0108D01*
X00624Y006512D02*
Y006772D01*
X006328Y00686D01*
X006134Y006406D02*
X00624Y006512D01*
X007023Y004873D02*
Y005658D01*
X00702Y00487D02*
X007023Y004873D01*
X006134Y004906D02*
Y005658D01*
Y004906D02*
X00618Y00486D01*
X00469Y015386D02*
Y016448D01*
X004696Y016454D01*
X010188Y005359D02*
Y006237D01*
X00618Y00396D02*
X00701D01*
X00702Y00397D01*
X035674Y010834D02*
Y011598D01*
X03565Y01081D02*
X035674Y010834D01*
X03481Y01083D02*
Y011552D01*
X034774Y011588D02*
X03481Y011552D01*
X030748Y009479D02*
Y009519D01*
Y00865D02*
Y009479D01*
Y00865D02*
X030758Y00864D01*
X03043Y009162D02*
X030748Y009479D01*
X02119Y006752D02*
X021238Y0068D01*
X02352D01*
X02805Y01324D02*
X0281Y01319D01*
X024182Y013178D02*
Y013772D01*
X02226Y00113D02*
Y00238D01*
X02293Y00305D01*
X02477D01*
X02492Y0032D02*
Y00435D01*
X02477Y00305D02*
X02492Y0032D01*
X02352Y004437D02*
X024832D01*
X02492Y00435D01*
X0216Y00291D02*
X021964D01*
X022052Y002998D02*
Y003664D01*
X021964Y00291D02*
X022052Y002998D01*
X02126Y00257D02*
X0216Y00291D01*
X02126Y00113D02*
Y00257D01*
X022066Y00365D02*
X02352D01*
X022052Y003664D02*
X022066Y00365D01*
X022062Y004553D02*
X022075Y00454D01*
X02262D01*
X022723Y004437D01*
X02352D01*
X01863Y022336D02*
Y02404D01*
Y022336D02*
X020526Y02044D01*
D82*
X004197Y012425D02*
Y013233D01*
X00813Y014848D02*
X00814Y014838D01*
Y014858D01*
X00308Y01595D02*
X00401D01*
X00419Y015386D02*
Y01577D01*
X00401Y01595D02*
X00419Y01577D01*
Y01324D02*
X004197Y013233D01*
Y012425D02*
X004312Y01231D01*
X005183Y013233D02*
X00519Y01324D01*
X005183Y012433D02*
Y013233D01*
X00506Y01231D02*
X005183Y012433D01*
X00725Y014858D02*
X00726Y014848D01*
X00813D01*
X00723Y014878D02*
X00725Y014858D01*
X00723Y014878D02*
Y01523D01*
X00569Y015386D02*
X007074D01*
X00723Y01523D01*
X005754Y016316D02*
X00589Y016452D01*
X005556Y016316D02*
X005754D01*
X00519Y01595D02*
X005556Y016316D01*
X00519Y015386D02*
Y01595D01*
D83*
X006329Y014131D02*
X007229D01*
X002361D02*
X006329D01*
X00801Y01006D02*
X01259D01*
X012359Y005351D02*
X013614D01*
X01259Y010052D02*
X01379Y008852D01*
Y005527D02*
Y008852D01*
X013614Y005351D02*
X01379Y005527D01*
X010928Y00623D02*
X010936Y006237D01*
X01259Y010052D02*
Y01006D01*
X012358Y005351D02*
X012359Y005351D01*
X010943D02*
X012358D01*
X010928Y005366D02*
X010943Y005351D01*
X012358D02*
X012358Y005351D01*
X010928Y005366D02*
Y00623D01*
X01259Y01006D02*
X01259Y01006D01*
X013754Y02044D02*
Y024074D01*
X01441Y02473D01*
X00748Y01892D02*
X008461D01*
X004696Y017202D02*
Y017844D01*
X00735Y01892D02*
X00748D01*
X007249Y014109D02*
X00725Y01411D01*
X007249Y012791D02*
Y014109D01*
X007249Y01279D02*
X007249Y012791D01*
X00234Y014151D02*
X002361Y014131D01*
X007229D02*
X00725Y01411D01*
X00213Y01788D02*
X002246Y017764D01*
Y016036D02*
X002332Y01595D01*
Y014159D02*
Y01595D01*
Y014159D02*
X00234Y014151D01*
X012614Y019588D02*
X013594D01*
Y02028D02*
X013754Y02044D01*
X013594Y019588D02*
Y02028D01*
X01054Y020289D02*
Y020353D01*
Y020208D02*
Y020289D01*
X010587Y020336D01*
X012614D01*
X00871Y020399D02*
Y02166D01*
X00469Y02216D02*
X00821D01*
X00871Y02166D01*
X00506Y01089D02*
Y01231D01*
Y01089D02*
X00537Y01058D01*
X004696Y017844D02*
X004872Y018019D01*
X006449D01*
X00735Y01892D01*
X00589Y0172D02*
X005891Y017201D01*
X006785D01*
X006786Y017202D01*
X008461Y01892D02*
X008621Y019081D01*
X00871D01*
Y020399D02*
X010493D01*
X01054Y020353D01*
X00568Y020413D02*
X005704Y020436D01*
X007456D01*
X00748Y02046D01*
X00432Y019166D02*
Y01921D01*
X004598Y018887D02*
X00568D01*
X00432Y019166D02*
X004598Y018887D01*
X00364Y01989D02*
X00432Y01921D01*
X00213Y01988D02*
X00214Y01989D01*
X00364D01*
D84*
X02563Y02242D02*
D03*
X02878D02*
D03*
D85*
X02256Y02148D02*
D03*
X02356D02*
D03*
D86*
X0281Y01319D02*
D03*
X01441Y02473D02*
D03*
D87*
X00451Y00202D02*
D03*
X00794D02*
D03*
D88*
X00551D02*
D03*
X00894D02*
D03*
D89*
X03677Y00808D02*
D03*
D90*
X03377D02*
D03*
D91*
X01541Y02473D02*
D03*
X01641D02*
D03*
X01741D02*
D03*
X0139Y01468D02*
D03*
X0129D02*
D03*
X02226Y00113D02*
D03*
X02126D02*
D03*
D92*
X02026D02*
D03*
X0119Y01468D02*
D03*
D93*
X00227Y0069D02*
D03*
D94*
X00213Y01788D02*
D03*
Y01988D02*
D03*
D95*
X00469Y02416D02*
D03*
D96*
Y02216D02*
D03*
Y02316D02*
D03*
D97*
X01142Y02318D02*
D03*
D98*
X00227Y0079D02*
D03*
D99*
X03825Y024D02*
D03*
Y021D02*
D03*
Y018D02*
D03*
X0375Y0165D02*
D03*
X03825Y015D02*
D03*
X0375Y0135D02*
D03*
X03825Y012D02*
D03*
X0375Y0105D02*
D03*
X03825Y009D02*
D03*
Y006D02*
D03*
X0375Y0045D02*
D03*
Y0015D02*
D03*
X03675Y024D02*
D03*
Y021D02*
D03*
Y015D02*
D03*
X036Y0135D02*
D03*
X03675Y006D02*
D03*
X036Y0045D02*
D03*
Y0015D02*
D03*
X0345Y0135D02*
D03*
X03525Y009D02*
D03*
Y006D02*
D03*
X0345Y0045D02*
D03*
X03375Y006D02*
D03*
X033Y0045D02*
D03*
X03225Y021D02*
D03*
Y018D02*
D03*
Y015D02*
D03*
X0315Y0135D02*
D03*
X03225Y009D02*
D03*
X0315Y0075D02*
D03*
X03225Y006D02*
D03*
X0315Y0045D02*
D03*
Y0015D02*
D03*
X03Y0135D02*
D03*
X03075Y012D02*
D03*
Y006D02*
D03*
Y003D02*
D03*
X03Y0015D02*
D03*
X02925Y024D02*
D03*
Y021D02*
D03*
X0285Y0075D02*
D03*
X02925Y003D02*
D03*
X0285Y0015D02*
D03*
X02775Y012D02*
D03*
X027Y0075D02*
D03*
Y0045D02*
D03*
X02775Y003D02*
D03*
X027Y0015D02*
D03*
X02625Y006D02*
D03*
X0255Y0045D02*
D03*
X02625Y003D02*
D03*
X0255Y0015D02*
D03*
X02475Y006D02*
D03*
X024Y0015D02*
D03*
X0225Y0225D02*
D03*
Y0075D02*
D03*
X021Y0225D02*
D03*
X02175Y009D02*
D03*
Y006D02*
D03*
X02025Y003D02*
D03*
X0195Y0015D02*
D03*
X018Y0075D02*
D03*
X0165Y0225D02*
D03*
Y0195D02*
D03*
X01725Y003D02*
D03*
X0165Y0015D02*
D03*
X015Y0225D02*
D03*
X01425Y024D02*
D03*
X0135Y0225D02*
D03*
Y0195D02*
D03*
Y0135D02*
D03*
X01425Y003D02*
D03*
X01275Y024D02*
D03*
Y021D02*
D03*
X012Y0195D02*
D03*
Y0165D02*
D03*
X01125Y021D02*
D03*
Y018D02*
D03*
X0105Y0165D02*
D03*
Y0135D02*
D03*
X01125Y012D02*
D03*
X00975Y024D02*
D03*
Y021D02*
D03*
Y018D02*
D03*
Y015D02*
D03*
Y012D02*
D03*
Y003D02*
D03*
X00825Y024D02*
D03*
X00675D02*
D03*
X006Y0135D02*
D03*
X00675Y012D02*
D03*
X0045Y0045D02*
D03*
X00375Y024D02*
D03*
Y015D02*
D03*
Y006D02*
D03*
Y003D02*
D03*
X003Y0015D02*
D03*
X00225Y015D02*
D03*
Y006D02*
D03*
X0015Y0045D02*
D03*
Y0015D02*
D03*
X0236Y01599D02*
D03*
X01843Y01073D02*
D03*
X02117Y0112D02*
D03*
X01417Y01731D02*
D03*
X0149Y01691D02*
D03*
X01322Y00832D02*
D03*
X0286Y00916D02*
D03*
X024258Y016272D02*
D03*
X03124Y02002D02*
D03*
X02888Y01033D02*
D03*
X02103Y01436D02*
D03*
X019553Y013407D02*
D03*
X0179Y01088D02*
D03*
X01938Y01119D02*
D03*
X00932Y01181D02*
D03*
X01355Y01118D02*
D03*
X01565Y01188D02*
D03*
X01501Y01279D02*
D03*
X01823Y00998D02*
D03*
X0242Y01478D02*
D03*
X01498Y01342D02*
D03*
X0147Y01363D02*
D03*
Y01395D02*
D03*
X01494Y01886D02*
D03*
X02769Y02385D02*
D03*
X02798Y02022D02*
D03*
X02856Y01605D02*
D03*
X02735Y02379D02*
D03*
X02798Y02088D02*
D03*
X0268Y02443D02*
D03*
X0277Y02429D02*
D03*
X0256Y02086D02*
D03*
X02573Y02022D02*
D03*
X02204Y01933D02*
D03*
X01521Y01572D02*
D03*
X01543Y01603D02*
D03*
X03629Y01993D02*
D03*
X03632Y01668D02*
D03*
X03338Y01471D02*
D03*
X03376Y01446D02*
D03*
X03411Y01434D02*
D03*
X021379Y019319D02*
D03*
X03127Y01926D02*
D03*
X002815Y017565D02*
D03*
X00202Y01637D02*
D03*
X01259Y01006D02*
D03*
X03299Y017779D02*
D03*
X021628Y012978D02*
D03*
X02089Y003664D02*
D03*
X024134Y006874D02*
D03*
X02447Y01807D02*
D03*
X024166Y008374D02*
D03*
X02115Y021442D02*
D03*
X0116Y006926D02*
D03*
X010188Y00372D02*
D03*
X03034Y01605D02*
D03*
X03024Y005225D02*
D03*
X028522Y00365D02*
D03*
X01238Y00653D02*
D03*
X01236Y017934D02*
D03*
X03473Y02053D02*
D03*
X03325Y02113D02*
D03*
X0108Y00828D02*
D03*
D100*
X00153Y01226D02*
D03*
X00805Y0197D02*
D03*
D101*
X015555Y02044D02*
D03*
X018549Y020442D02*
D03*
D102*
X00819Y008D02*
D03*
X01234Y01266D02*
D03*
X00836Y01722D02*
D03*
D103*
X00201Y00314D02*
D03*
X03744Y02277D02*
D03*
X00197Y02282D02*
D03*
X03744Y00311D02*
D03*
M02*
