G04*
G04 #@! TF.GenerationSoftware,Altium Limited,Altium Designer,20.2.6 (244)*
G04*
G04 Layer_Color=16711935*
%FSTAX24Y24*%
%MOIN*%
G70*
G04*
G04 #@! TF.SameCoordinates,20AB1978-7CCD-4664-BF1E-2587ED644C09*
G04*
G04*
G04 #@! TF.FilePolarity,Positive*
G04*
G01*
G75*
%ADD10C,0.0079*%
%ADD12C,0.0100*%
%ADD18C,0.0050*%
%ADD125C,0.0039*%
%ADD126C,0.0020*%
%ADD127C,0.0059*%
%ADD128C,0.0060*%
D10*
X011659Y006926D02*
G03*
X011659Y006926I-000039J0D01*
G01*
X004904Y02055D02*
X006456D01*
X004904Y01875D02*
Y02055D01*
Y01875D02*
X006456D01*
Y02055D01*
D12*
X023339Y009779D02*
X029704D01*
X023339Y000354D02*
Y009779D01*
Y000354D02*
X029704D01*
Y009779D01*
D18*
X01224Y007516D02*
X01854D01*
Y000824D02*
Y007516D01*
X01224Y000824D02*
X01854D01*
X01224D02*
Y007516D01*
D125*
X004507Y01388D02*
G03*
X004507Y01388I-000197J0D01*
G01*
X018768Y023843D02*
Y024985D01*
X01928D01*
X018768Y023843D02*
X01928D01*
Y024985D01*
X003956Y013525D02*
X005924D01*
X003956Y0151D02*
X005924D01*
X003956Y013525D02*
Y0151D01*
X005924Y013525D02*
Y0151D01*
D126*
X029722Y00035D02*
Y002576D01*
X023322Y00035D02*
X029722D01*
X023322D02*
Y002576D01*
X029722D01*
D127*
X009693Y018555D02*
X011406D01*
Y020366D01*
X009693D02*
X011406D01*
X009693Y018555D02*
Y020366D01*
X01054Y019263D02*
Y019657D01*
X010343Y01946D02*
X010737D01*
X007185Y013302D02*
X008405D01*
Y012278D02*
Y013302D01*
X007185Y012278D02*
X008405D01*
X007185D02*
Y013302D01*
X007655Y01279D02*
X007955D01*
X007805Y01264D02*
Y01294D01*
X002852Y012995D02*
Y014215D01*
X001828Y012995D02*
X002852D01*
X001828D02*
Y014215D01*
X002852D01*
X00234Y013445D02*
Y013745D01*
X00219Y013595D02*
X00249D01*
D128*
X00703Y02064D02*
X00793D01*
Y01914D02*
Y02024D01*
X00703Y01874D02*
X00793D01*
X00703Y01914D02*
Y02024D01*
X00793Y01874D02*
Y01914D01*
X00703Y01874D02*
Y01914D01*
X00793D01*
X00703Y02024D02*
Y02064D01*
X00793Y02024D02*
Y02064D01*
X00703Y02024D02*
X00793D01*
M02*
