G04*
G04 #@! TF.GenerationSoftware,Altium Limited,Altium Designer,20.2.6 (244)*
G04*
G04 Layer_Color=8388736*
%FSTAX24Y24*%
%MOIN*%
G70*
G04*
G04 #@! TF.SameCoordinates,20AB1978-7CCD-4664-BF1E-2587ED644C09*
G04*
G04*
G04 #@! TF.FilePolarity,Positive*
G04*
G01*
G75*
%ADD10C,0.0079*%
%ADD125C,0.0039*%
%ADD129C,0.0020*%
D10*
X01171Y004276D02*
Y007032D01*
Y004276D02*
X01371D01*
Y007032D01*
X01171D02*
X01371D01*
D125*
X021878Y017742D02*
G03*
X021878Y017742I-000197J0D01*
G01*
X013326Y010619D02*
G03*
X013326Y010619I-000197J0D01*
G01*
X016524Y012584D02*
X022036D01*
X016524Y018096D02*
X022036D01*
X016524Y012584D02*
Y018096D01*
X022036Y012584D02*
Y018096D01*
X011357Y008847D02*
X013483D01*
X011357Y010973D02*
X013483D01*
X011357Y008847D02*
Y010973D01*
X013483Y008847D02*
Y010973D01*
X030363Y016243D02*
X035481D01*
X030363Y025299D02*
X035481D01*
X030363Y016243D02*
Y025299D01*
X035481Y016243D02*
Y025299D01*
X008921Y004714D02*
Y007162D01*
X011539Y004714D02*
Y007162D01*
X008921D02*
X011539D01*
X008921Y004714D02*
X011539D01*
X014201D02*
X016819D01*
X014201Y007162D02*
X016819D01*
Y004714D02*
Y007162D01*
X014201Y004714D02*
Y007162D01*
D129*
X027246Y017116D02*
G03*
X027148Y017214I-000098J0D01*
G01*
Y012647D02*
G03*
X027246Y012745I0J000098D01*
G01*
X025345D02*
G03*
X025443Y012647I000098J0D01*
G01*
Y017214D02*
G03*
X025345Y017116I0J-000098D01*
G01*
X02537Y013671D02*
G03*
X027221Y013671I000925J0D01*
G01*
Y01619D02*
G03*
X02537Y01619I-000925J0D01*
G01*
X027044D02*
G03*
X025548Y01619I-000748J0D01*
G01*
X026847D02*
G03*
X025744Y01619I-000551J0D01*
G01*
X025548Y013671D02*
G03*
X027044Y013671I000748J0D01*
G01*
X025744D02*
G03*
X026847Y013671I000551J0D01*
G01*
X026118Y012411D02*
Y012647D01*
X026473Y012411D02*
Y012647D01*
X026118Y012411D02*
X026473D01*
Y017214D02*
Y01745D01*
X026118Y017214D02*
Y01745D01*
X026473D01*
X025443Y017214D02*
X027148D01*
X027246Y012745D02*
Y017116D01*
X025443Y012647D02*
X027148D01*
X025345Y012745D02*
Y017116D01*
X02537Y013671D02*
Y01619D01*
X027221Y013671D02*
Y01619D01*
X025548Y013671D02*
Y01619D01*
X025744Y013671D02*
Y01619D01*
X026847Y013671D02*
Y01619D01*
X027044Y013671D02*
Y01619D01*
M02*
