G04*
G04 #@! TF.GenerationSoftware,Altium Limited,Altium Designer,20.2.6 (244)*
G04*
G04 Layer_Color=32896*
%FSTAX24Y24*%
%MOIN*%
G70*
G04*
G04 #@! TF.SameCoordinates,20AB1978-7CCD-4664-BF1E-2587ED644C09*
G04*
G04*
G04 #@! TF.FilePolarity,Positive*
G04*
G01*
G75*
%ADD10C,0.0079*%
%ADD11C,0.0098*%
%ADD12C,0.0100*%
%ADD15C,0.0070*%
%ADD16C,0.0236*%
%ADD18C,0.0050*%
%ADD123R,0.0250X0.0140*%
D10*
X02205Y0103D02*
X02275D01*
X02205Y01168D02*
X02275D01*
Y0103D02*
Y010829D01*
Y011134D02*
Y01168D01*
X02205Y011134D02*
Y01168D01*
Y0103D02*
Y010829D01*
X014796Y011106D02*
X015506D01*
Y010561D02*
Y011106D01*
X014796Y010561D02*
Y011106D01*
Y009728D02*
Y010256D01*
Y009728D02*
X015506D01*
Y010256D01*
X01577Y011106D02*
X01647D01*
X01577Y009726D02*
X01647D01*
X01577Y010576D02*
Y011106D01*
Y009726D02*
Y010271D01*
X01647Y009726D02*
Y010271D01*
Y010576D02*
Y011106D01*
X016859Y012919D02*
X021701D01*
X016859Y017761D02*
X021701D01*
X016859Y012919D02*
Y017761D01*
X021701Y012919D02*
Y017761D01*
X011514Y008847D02*
X013326D01*
X011514Y010973D02*
X013326D01*
X011514Y008847D02*
Y010973D01*
X013326Y008847D02*
Y010973D01*
X035481Y016243D02*
Y016873D01*
X030363Y016243D02*
X03065D01*
X030363D02*
Y016873D01*
X035193Y016243D02*
X035481D01*
Y02144D02*
Y025299D01*
X030363D02*
X035481D01*
X030363Y02144D02*
Y025299D01*
X008911Y004714D02*
Y005068D01*
Y004714D02*
X011549D01*
Y005068D01*
X01171Y004276D02*
Y007032D01*
X013692Y004276D02*
X01371D01*
X01171D02*
X011728D01*
X01371D02*
Y007032D01*
X013692D02*
X01371D01*
X01171D02*
X011728D01*
X012509Y00795D02*
Y00866D01*
X011964Y00795D02*
X012509D01*
X011964Y00866D02*
X012509D01*
X011131D02*
X011659D01*
X011131Y00795D02*
Y00866D01*
Y00795D02*
X011659D01*
X012117Y002554D02*
X012645D01*
X012117D02*
Y003264D01*
X012645D01*
X01295D02*
X013495D01*
X01295Y002554D02*
X013495D01*
Y003264D01*
X016829Y004714D02*
Y005068D01*
X014191Y004714D02*
X016829D01*
X014191D02*
Y005068D01*
X017789Y00791D02*
Y00862D01*
X017244Y00791D02*
X017789D01*
X017244Y00862D02*
X017789D01*
X016411D02*
X016939D01*
X016411Y00791D02*
Y00862D01*
Y00791D02*
X016939D01*
X018889Y00248D02*
Y00319D01*
X018344Y00248D02*
X018889D01*
X018344Y00319D02*
X018889D01*
X017511D02*
X018039D01*
X017511Y00248D02*
Y00319D01*
Y00248D02*
X018039D01*
X008971Y01083D02*
X009499D01*
X008971D02*
Y01154D01*
X009499D01*
X009804D02*
X010349D01*
X009804Y01083D02*
X010349D01*
Y01154D01*
X009Y00983D02*
Y01053D01*
X01038Y00983D02*
Y01053D01*
X009Y00983D02*
X009529D01*
X009834D02*
X01038D01*
X009834Y01053D02*
X01038D01*
X009D02*
X009529D01*
X024741Y00652D02*
Y00723D01*
X025286D01*
X024741Y00652D02*
X025286D01*
X025591D02*
X026119D01*
Y00723D01*
X025591D02*
X026119D01*
X024743Y008096D02*
Y008806D01*
X025288D01*
X024743Y008096D02*
X025288D01*
X025593D02*
X026121D01*
Y008806D01*
X025593D02*
X026121D01*
X027461Y00395D02*
X027989D01*
X027461D02*
Y00466D01*
X027989D01*
X028294D02*
X028839D01*
X028294Y00395D02*
X028839D01*
Y00466D01*
X027459Y004794D02*
X027987D01*
X027459D02*
Y005504D01*
X027987D01*
X028292D02*
X028837D01*
X028292Y004794D02*
X028837D01*
Y005504D01*
X03726Y01796D02*
Y018489D01*
Y018794D02*
Y01934D01*
X03796Y018794D02*
Y01934D01*
Y01796D02*
Y018489D01*
X03726Y01934D02*
X03796D01*
X03726Y01796D02*
X03796D01*
X03638D02*
Y018489D01*
Y018794D02*
Y01934D01*
X03708Y018794D02*
Y01934D01*
Y01796D02*
Y018489D01*
X03638Y01934D02*
X03708D01*
X03638Y01796D02*
X03708D01*
X024261Y021602D02*
X024961D01*
X024261Y020222D02*
X024961D01*
X024261Y021073D02*
Y021602D01*
Y020222D02*
Y020768D01*
X024961Y020222D02*
Y020768D01*
Y021073D02*
Y021602D01*
X0221Y01943D02*
Y02013D01*
X02348Y01943D02*
Y02013D01*
X0221Y01943D02*
X022629D01*
X022934D02*
X02348D01*
X022934Y02013D02*
X02348D01*
X0221D02*
X022629D01*
X02175Y020241D02*
Y02077D01*
Y01939D02*
Y019936D01*
X02105Y01939D02*
Y019936D01*
Y020241D02*
Y02077D01*
Y01939D02*
X02175D01*
X02105Y02077D02*
X02175D01*
X02445Y015331D02*
Y015859D01*
X02516D01*
Y015331D02*
Y015859D01*
Y014481D02*
Y015026D01*
X02445Y014481D02*
Y015026D01*
Y014481D02*
X02516D01*
X02532Y01635D02*
Y01705D01*
X02394Y01635D02*
Y01705D01*
X024791D02*
X02532D01*
X02394D02*
X024486D01*
X02394Y01635D02*
X024486D01*
X024791D02*
X02532D01*
X023069Y01039D02*
X023769D01*
X023069Y01177D02*
X023769D01*
Y01039D02*
Y010919D01*
Y011224D02*
Y01177D01*
X023069Y011224D02*
Y01177D01*
Y01039D02*
Y010919D01*
X02388Y01039D02*
Y010919D01*
Y011224D02*
Y01177D01*
X02458Y011224D02*
Y01177D01*
Y01039D02*
Y010919D01*
X02388Y01177D02*
X02458D01*
X02388Y01039D02*
X02458D01*
X02084Y019391D02*
Y019919D01*
X02013Y019391D02*
X02084D01*
X02013D02*
Y019919D01*
Y020224D02*
Y020769D01*
X02084Y020224D02*
Y020769D01*
X02013D02*
X02084D01*
X027474Y014361D02*
Y015061D01*
X028854Y014361D02*
Y015061D01*
X027474Y014361D02*
X028004D01*
X028309D02*
X028854D01*
X028309Y015061D02*
X028854D01*
X027474D02*
X028004D01*
X02746Y01524D02*
Y01594D01*
X02884Y01524D02*
Y01594D01*
X02746Y01524D02*
X027989D01*
X028294D02*
X02884D01*
X028294Y01594D02*
X02884D01*
X02746D02*
X027989D01*
X01236Y01719D02*
Y01789D01*
X01374Y01719D02*
Y01789D01*
X01236Y01719D02*
X012889D01*
X013194D02*
X01374D01*
X013194Y01789D02*
X01374D01*
X01236D02*
X012889D01*
X01236Y01799D02*
Y01869D01*
X01374Y01799D02*
Y01869D01*
X01236Y01799D02*
X012889D01*
X013194D02*
X01374D01*
X013194Y01869D02*
X01374D01*
X01236D02*
X012889D01*
X01235Y01638D02*
Y01708D01*
X01373Y01638D02*
Y01708D01*
X01235Y01638D02*
X012879D01*
X013184D02*
X01373D01*
X013184Y01708D02*
X01373D01*
X01235D02*
X012879D01*
X013712Y015579D02*
Y016279D01*
X012332Y015579D02*
Y016279D01*
X013183D02*
X013712D01*
X012332D02*
X012878D01*
X012332Y015579D02*
X012878D01*
X013183D02*
X013712D01*
X016679Y009726D02*
Y010255D01*
Y01056D02*
Y011106D01*
X017379Y01056D02*
Y011106D01*
Y009726D02*
Y010255D01*
X016679Y011106D02*
X017379D01*
X016679Y009726D02*
X017379D01*
D11*
X022321Y017978D02*
G03*
X022321Y017978I-000049J0D01*
G01*
X013906Y011004D02*
G03*
X013906Y011004I-000049J0D01*
G01*
X036148Y021031D02*
G03*
X036148Y021031I-000049J0D01*
G01*
X011571Y003867D02*
G03*
X011571Y003867I-000049J0D01*
G01*
X012259Y007918D02*
G03*
X012259Y007918I-000049J0D01*
G01*
X016851Y003867D02*
G03*
X016851Y003867I-000049J0D01*
G01*
D12*
X01686Y00101D02*
Y00131D01*
X01701D01*
X01706Y00126D01*
Y00106D01*
X01701Y00101D01*
X01686D01*
X01731Y00131D02*
Y00101D01*
X01716Y00116D01*
X01736D01*
X027315Y01835D02*
Y0183D01*
X027215Y0182D01*
X027116Y0183D01*
Y01835D01*
X027215Y0182D02*
Y018051D01*
X026816D02*
X027016D01*
X026816Y01825D01*
Y0183D01*
X026866Y01835D01*
X026966D01*
X027016Y0183D01*
X02357Y02481D02*
X02352D01*
X02342Y02491D01*
X02352Y02501D01*
X02357D01*
X02342Y02491D02*
X02327D01*
Y02511D02*
Y02521D01*
Y02516D01*
X02357D01*
X02352Y02511D01*
X03662Y025201D02*
Y024951D01*
X03657Y024901D01*
X03647D01*
X03642Y024951D01*
Y025201D01*
X03617Y024901D02*
Y025201D01*
X03632Y025051D01*
X03612D01*
X02267Y01823D02*
X02242D01*
X02237Y01828D01*
Y01838D01*
X02242Y01843D01*
X02267D01*
X02237Y01853D02*
Y01863D01*
Y01858D01*
X02267D01*
X02262Y01853D01*
X0271Y0085D02*
Y0088D01*
X02695D01*
X0269Y00875D01*
Y00865D01*
X02695Y0086D01*
X0271D01*
X027D02*
X0269Y0085D01*
X0266D02*
X0268D01*
X0266Y0087D01*
Y00875D01*
X02665Y0088D01*
X02675D01*
X0268Y00875D01*
X0263Y0088D02*
X0264Y00875D01*
X0265Y00865D01*
Y00855D01*
X02645Y0085D01*
X02635D01*
X0263Y00855D01*
Y0086D01*
X02635Y00865D01*
X0265D01*
X02711Y00691D02*
Y00721D01*
X02696D01*
X02691Y00716D01*
Y00706D01*
X02696Y00701D01*
X02711D01*
X02701D02*
X02691Y00691D01*
X02661D02*
X02681D01*
X02661Y00711D01*
Y00716D01*
X02666Y00721D01*
X02676D01*
X02681Y00716D01*
X02631Y00721D02*
X02651D01*
Y00706D01*
X02641Y00711D01*
X02636D01*
X02631Y00706D01*
Y00696D01*
X02636Y00691D01*
X02646D01*
X02651Y00696D01*
X02726Y0052D02*
Y0055D01*
X02711D01*
X02706Y00545D01*
Y00535D01*
X02711Y0053D01*
X02726D01*
X02716D02*
X02706Y0052D01*
X02676D02*
X02696D01*
X02676Y0054D01*
Y00545D01*
X02681Y0055D01*
X02691D01*
X02696Y00545D01*
X02666D02*
X02661Y0055D01*
X02651D01*
X02646Y00545D01*
Y0054D01*
X02651Y00535D01*
X02656D01*
X02651D01*
X02646Y0053D01*
Y00525D01*
X02651Y0052D01*
X02661D01*
X02666Y00525D01*
X02724Y00431D02*
Y00461D01*
X02709D01*
X02704Y00456D01*
Y00446D01*
X02709Y00441D01*
X02724D01*
X02714D02*
X02704Y00431D01*
X02674D02*
X02694D01*
X02674Y00451D01*
Y00456D01*
X02679Y00461D01*
X02689D01*
X02694Y00456D01*
X02644Y00431D02*
X02664D01*
X02644Y00451D01*
Y00456D01*
X02649Y00461D01*
X02659D01*
X02664Y00456D01*
X011815Y00288D02*
Y00318D01*
X011665D01*
X011615Y00313D01*
Y00303D01*
X011665Y00298D01*
X011815D01*
X011715D02*
X011615Y00288D01*
X011515D02*
X011415D01*
X011465D01*
Y00318D01*
X011515Y00313D01*
X011265Y00288D02*
X011165D01*
X011215D01*
Y00318D01*
X011265Y00313D01*
X01099Y00848D02*
Y00878D01*
X01084D01*
X01079Y00873D01*
Y00863D01*
X01084Y00858D01*
X01099D01*
X01089D02*
X01079Y00848D01*
X01069Y00873D02*
X01064Y00878D01*
X01054D01*
X01049Y00873D01*
Y00868D01*
X01054Y00863D01*
X01049Y00858D01*
Y00853D01*
X01054Y00848D01*
X01064D01*
X01069Y00853D01*
Y00858D01*
X01064Y00863D01*
X01069Y00868D01*
Y00873D01*
X01064Y00863D02*
X01054D01*
X01732Y00281D02*
Y00311D01*
X01717D01*
X01712Y00306D01*
Y00296D01*
X01717Y00291D01*
X01732D01*
X01722D02*
X01712Y00281D01*
X01702Y00311D02*
X01682D01*
Y00306D01*
X01702Y00286D01*
Y00281D01*
X01771Y00887D02*
Y00917D01*
X01756D01*
X01751Y00912D01*
Y00902D01*
X01756Y00897D01*
X01771D01*
X01761D02*
X01751Y00887D01*
X01721Y00917D02*
X01731Y00912D01*
X01741Y00902D01*
Y00892D01*
X01736Y00887D01*
X01726D01*
X01721Y00892D01*
Y00897D01*
X01726Y00902D01*
X01741D01*
X02015Y021D02*
X02045D01*
Y02115D01*
X0204Y0212D01*
X0203D01*
X02025Y02115D01*
Y021D01*
Y0211D02*
X02015Y0212D01*
X02045Y0215D02*
Y0213D01*
X0203D01*
X02035Y0214D01*
Y02145D01*
X0203Y0215D01*
X0202D01*
X02015Y02145D01*
Y02135D01*
X0202Y0213D01*
X00863Y01117D02*
Y01147D01*
X00848D01*
X00843Y01142D01*
Y01132D01*
X00848Y01127D01*
X00863D01*
X00853D02*
X00843Y01117D01*
X00818D02*
Y01147D01*
X00833Y01132D01*
X00813D01*
X02474Y0143D02*
X02444D01*
Y01415D01*
X02449Y0141D01*
X02459D01*
X02464Y01415D01*
Y0143D01*
Y0142D02*
X02474Y0141D01*
X02449Y014D02*
X02444Y01395D01*
Y01385D01*
X02449Y0138D01*
X02454D01*
X02459Y01385D01*
Y0139D01*
Y01385D01*
X02464Y0138D01*
X02469D01*
X02474Y01385D01*
Y01395D01*
X02469Y014D01*
X01549Y009501D02*
X01519D01*
Y009351D01*
X01524Y009301D01*
X01534D01*
X01539Y009351D01*
Y009501D01*
Y009401D02*
X01549Y009301D01*
Y009001D02*
Y009201D01*
X01529Y009001D01*
X01524D01*
X01519Y009051D01*
Y009151D01*
X01524Y009201D01*
X0097Y00797D02*
Y00817D01*
X00975Y00822D01*
X00985D01*
X0099Y00817D01*
Y00797D01*
X00985Y00792D01*
X00975D01*
X0098Y00802D02*
X0097Y00792D01*
X00975D02*
X0097Y00797D01*
X00945Y00792D02*
Y00822D01*
X0096Y00807D01*
X0094D01*
X01478Y00819D02*
Y00839D01*
X01483Y00844D01*
X01493D01*
X01498Y00839D01*
Y00819D01*
X01493Y00814D01*
X01483D01*
X01488Y00824D02*
X01478Y00814D01*
X01483D02*
X01478Y00819D01*
X01448Y00814D02*
X01468D01*
X01448Y00834D01*
Y00839D01*
X01453Y00844D01*
X01463D01*
X01468Y00839D01*
X03788Y01712D02*
X03793Y01707D01*
Y01697D01*
X03788Y01692D01*
X03768D01*
X03763Y01697D01*
Y01707D01*
X03768Y01712D01*
X03788Y01722D02*
X03793Y01727D01*
Y01737D01*
X03788Y01742D01*
X03783D01*
X03778Y01737D01*
Y01732D01*
Y01737D01*
X03773Y01742D01*
X03768D01*
X03763Y01737D01*
Y01727D01*
X03768Y01722D01*
X03788Y01752D02*
X03793Y01757D01*
Y01767D01*
X03788Y01772D01*
X03768D01*
X03763Y01767D01*
Y01757D01*
X03768Y01752D01*
X03788D01*
X036951Y017082D02*
X037001Y017032D01*
Y016932D01*
X036951Y016882D01*
X036751D01*
X036701Y016932D01*
Y017032D01*
X036751Y017082D01*
X036701Y017382D02*
Y017182D01*
X036901Y017382D01*
X036951D01*
X037001Y017332D01*
Y017232D01*
X036951Y017182D01*
X036751Y017482D02*
X036701Y017532D01*
Y017632D01*
X036751Y017682D01*
X036951D01*
X037001Y017632D01*
Y017532D01*
X036951Y017482D01*
X036901D01*
X036851Y017532D01*
Y017682D01*
X014465Y01621D02*
X014515Y01626D01*
X014615D01*
X014665Y01621D01*
Y01601D01*
X014615Y01596D01*
X014515D01*
X014465Y01601D01*
X014365Y01596D02*
X014265D01*
X014315D01*
Y01626D01*
X014365Y01621D01*
X014115D02*
X014065Y01626D01*
X013965D01*
X013915Y01621D01*
Y01616D01*
X013965Y01611D01*
X013915Y01606D01*
Y01601D01*
X013965Y01596D01*
X014065D01*
X014115Y01601D01*
Y01606D01*
X014065Y01611D01*
X014115Y01616D01*
Y01621D01*
X014065Y01611D02*
X013965D01*
X008555Y01044D02*
X008605Y01049D01*
X008705D01*
X008755Y01044D01*
Y01024D01*
X008705Y01019D01*
X008605D01*
X008555Y01024D01*
X008455Y01019D02*
X008355D01*
X008405D01*
Y01049D01*
X008455Y01044D01*
X008205Y01049D02*
X008005D01*
Y01044D01*
X008205Y01024D01*
Y01019D01*
X029595Y01498D02*
X029645Y01503D01*
X029745D01*
X029795Y01498D01*
Y01478D01*
X029745Y01473D01*
X029645D01*
X029595Y01478D01*
X029495Y01473D02*
X029395D01*
X029445D01*
Y01503D01*
X029495Y01498D01*
X029045Y01503D02*
X029245D01*
Y01488D01*
X029145Y01493D01*
X029095D01*
X029045Y01488D01*
Y01478D01*
X029095Y01473D01*
X029195D01*
X029245Y01478D01*
X024775Y02203D02*
X024825Y02208D01*
X024925D01*
X024975Y02203D01*
Y02183D01*
X024925Y02178D01*
X024825D01*
X024775Y02183D01*
X024675Y02178D02*
X024575D01*
X024625D01*
Y02208D01*
X024675Y02203D01*
X024425D02*
X024375Y02208D01*
X024275D01*
X024225Y02203D01*
Y02198D01*
X024275Y02193D01*
X024325D01*
X024275D01*
X024225Y02188D01*
Y02183D01*
X024275Y02178D01*
X024375D01*
X024425Y02183D01*
X029435Y01587D02*
X029485Y01592D01*
X029585D01*
X029635Y01587D01*
Y01567D01*
X029585Y01562D01*
X029485D01*
X029435Y01567D01*
X029335Y01562D02*
X029235D01*
X029285D01*
Y01592D01*
X029335Y01587D01*
X029085Y01562D02*
X028985D01*
X029035D01*
Y01592D01*
X029085Y01587D01*
X023285Y01919D02*
X023335Y01924D01*
X023435D01*
X023485Y01919D01*
Y01899D01*
X023435Y01894D01*
X023335D01*
X023285Y01899D01*
X023185Y01894D02*
X023085D01*
X023135D01*
Y01924D01*
X023185Y01919D01*
X022935D02*
X022885Y01924D01*
X022785D01*
X022735Y01919D01*
Y01899D01*
X022785Y01894D01*
X022885D01*
X022935Y01899D01*
Y01919D01*
X01422Y01781D02*
X01427Y01786D01*
X01437D01*
X01442Y01781D01*
Y01761D01*
X01437Y01756D01*
X01427D01*
X01422Y01761D01*
X01412D02*
X01407Y01756D01*
X01397D01*
X01392Y01761D01*
Y01781D01*
X01397Y01786D01*
X01407D01*
X01412Y01781D01*
Y01776D01*
X01407Y01771D01*
X01392D01*
X02451Y00993D02*
X02456Y00988D01*
Y00978D01*
X02451Y00973D01*
X02431D01*
X02426Y00978D01*
Y00988D01*
X02431Y00993D01*
X02451Y01003D02*
X02456Y01008D01*
Y01018D01*
X02451Y01023D01*
X02446D01*
X02441Y01018D01*
X02436Y01023D01*
X02431D01*
X02426Y01018D01*
Y01008D01*
X02431Y01003D01*
X02436D01*
X02441Y01008D01*
X02446Y01003D01*
X02451D01*
X02441Y01008D02*
Y01018D01*
X02367Y00994D02*
X02372Y00989D01*
Y00979D01*
X02367Y00974D01*
X02347D01*
X02342Y00979D01*
Y00989D01*
X02347Y00994D01*
X02372Y01004D02*
Y01024D01*
X02367D01*
X02347Y01004D01*
X02342D01*
X01428Y01862D02*
X01433Y01867D01*
X01443D01*
X01448Y01862D01*
Y01842D01*
X01443Y01837D01*
X01433D01*
X01428Y01842D01*
X01398Y01867D02*
X01408Y01862D01*
X01418Y01852D01*
Y01842D01*
X01413Y01837D01*
X01403D01*
X01398Y01842D01*
Y01847D01*
X01403Y01852D01*
X01418D01*
X02172Y02118D02*
X02177Y02113D01*
Y02103D01*
X02172Y02098D01*
X02152D01*
X02147Y02103D01*
Y02113D01*
X02152Y02118D01*
X02177Y02148D02*
Y02128D01*
X02162D01*
X02167Y02138D01*
Y02143D01*
X02162Y02148D01*
X02152D01*
X02147Y02143D01*
Y02133D01*
X02152Y02128D01*
X0142Y01703D02*
X01425Y01708D01*
X01435D01*
X0144Y01703D01*
Y01683D01*
X01435Y01678D01*
X01425D01*
X0142Y01683D01*
X01395Y01678D02*
Y01708D01*
X0141Y01693D01*
X0139D01*
X01584Y009336D02*
X01579Y009386D01*
Y009486D01*
X01584Y009536D01*
X01604D01*
X01609Y009486D01*
Y009386D01*
X01604Y009336D01*
X01584Y009236D02*
X01579Y009186D01*
Y009086D01*
X01584Y009036D01*
X01589D01*
X01594Y009086D01*
Y009136D01*
Y009086D01*
X01599Y009036D01*
X01604D01*
X01609Y009086D01*
Y009186D01*
X01604Y009236D01*
X0227Y00984D02*
X02275Y00979D01*
Y00969D01*
X0227Y00964D01*
X0225D01*
X02245Y00969D01*
Y00979D01*
X0225Y00984D01*
X02245Y01014D02*
Y00994D01*
X02265Y01014D01*
X0227D01*
X02275Y01009D01*
Y00999D01*
X0227Y00994D01*
X02356Y01697D02*
X02361Y01702D01*
X02371D01*
X02376Y01697D01*
Y01677D01*
X02371Y01672D01*
X02361D01*
X02356Y01677D01*
X02346Y01672D02*
X02336D01*
X02341D01*
Y01702D01*
X02346Y01697D01*
D15*
X022671Y010898D02*
Y011078D01*
X022131Y010898D02*
Y011078D01*
X01488Y010325D02*
Y010505D01*
X01542Y010325D02*
Y010505D01*
X015849Y010327D02*
Y010507D01*
X016389Y010327D02*
Y010507D01*
X011728Y008576D02*
X011908D01*
X011728Y008036D02*
X011908D01*
X012714Y00264D02*
X012894D01*
X012714Y00318D02*
X012894D01*
X017008Y008536D02*
X017188D01*
X017008Y007996D02*
X017188D01*
X018108Y003106D02*
X018288D01*
X018108Y002566D02*
X018288D01*
X009568Y010916D02*
X009748D01*
X009568Y011456D02*
X009748D01*
X009598Y009909D02*
X009778D01*
X009598Y010449D02*
X009778D01*
X025342Y006604D02*
X025522D01*
X025342Y007144D02*
X025522D01*
X025344Y00818D02*
X025524D01*
X025344Y00872D02*
X025524D01*
X028058Y004036D02*
X028238D01*
X028058Y004576D02*
X028238D01*
X028056Y00488D02*
X028236D01*
X028056Y00542D02*
X028236D01*
X037341Y018558D02*
Y018738D01*
X037881Y018558D02*
Y018738D01*
X036461Y018558D02*
Y018738D01*
X037001Y018558D02*
Y018738D01*
X02434Y020824D02*
Y021004D01*
X02488Y020824D02*
Y021004D01*
X022698Y019509D02*
X022878D01*
X022698Y020049D02*
X022878D01*
X021669Y019992D02*
Y020172D01*
X021129Y019992D02*
Y020172D01*
X024536Y015082D02*
Y015262D01*
X025076Y015082D02*
Y015262D01*
X024542Y016971D02*
X024722D01*
X024542Y016431D02*
X024722D01*
X02369Y010988D02*
Y011168D01*
X02315Y010988D02*
Y011168D01*
X023961Y010988D02*
Y011168D01*
X024501Y010988D02*
Y011168D01*
X020754Y019988D02*
Y020168D01*
X020214Y019988D02*
Y020168D01*
X028073Y01444D02*
X028253D01*
X028073Y01498D02*
X028253D01*
X028058Y015319D02*
X028238D01*
X028058Y015859D02*
X028238D01*
X012958Y017269D02*
X013138D01*
X012958Y017809D02*
X013138D01*
X012958Y018069D02*
X013138D01*
X012958Y018609D02*
X013138D01*
X012948Y016459D02*
X013128D01*
X012948Y016999D02*
X013128D01*
X012934Y0162D02*
X013114D01*
X012934Y01566D02*
X013114D01*
X01676Y010324D02*
Y010504D01*
X0173Y010324D02*
Y010504D01*
D16*
X021426Y017368D02*
G03*
X021426Y017368I-000118J0D01*
G01*
X01305Y010579D02*
G03*
X01305Y010579I-000118J0D01*
G01*
D18*
X022505Y021785D02*
Y021895D01*
X023605D01*
Y021785D02*
Y021895D01*
Y021065D02*
Y021175D01*
X022515Y021065D02*
Y021175D01*
Y021065D02*
X023605D01*
X023085Y021205D02*
Y021335D01*
X02296D02*
X02321D01*
X02296Y021635D02*
X02321D01*
X023085D02*
Y021785D01*
X025346Y01263D02*
Y01723D01*
X026746Y01263D02*
X027246D01*
X025346D02*
X025846D01*
X025346Y01723D02*
X025846D01*
X026296Y01448D02*
Y01468D01*
X025996D02*
X026596D01*
X025796Y01483D02*
X026796D01*
X025796D02*
Y01503D01*
X026796D01*
Y01483D02*
Y01503D01*
X025996Y01518D02*
X026596D01*
X026296D02*
Y01538D01*
X027246Y01263D02*
Y01723D01*
X026746D02*
X027246D01*
D123*
X02308Y021485D02*
D03*
M02*
