G04*
G04 #@! TF.GenerationSoftware,Altium Limited,Altium Designer,20.2.6 (244)*
G04*
G04 Layer_Color=128*
%FSTAX24Y24*%
%MOIN*%
G70*
G04*
G04 #@! TF.SameCoordinates,20AB1978-7CCD-4664-BF1E-2587ED644C09*
G04*
G04*
G04 #@! TF.FilePolarity,Positive*
G04*
G01*
G75*
%ADD25R,0.0551X0.0472*%
%ADD33R,0.0472X0.0551*%
%ADD104O,0.0118X0.0827*%
%ADD105O,0.0827X0.0118*%
%ADD106R,0.0531X0.0709*%
%ADD107O,0.0748X0.0256*%
%ADD108R,0.0394X0.0965*%
%ADD109R,0.0965X0.0394*%
%ADD110R,0.2185X0.2480*%
%ADD111R,0.0354X0.0886*%
%ADD112R,0.0669X0.0866*%
G04:AMPARAMS|DCode=113|XSize=216.5mil|YSize=59.1mil|CornerRadius=7.4mil|HoleSize=0mil|Usage=FLASHONLY|Rotation=90.000|XOffset=0mil|YOffset=0mil|HoleType=Round|Shape=RoundedRectangle|*
%AMROUNDEDRECTD113*
21,1,0.2165,0.0443,0,0,90.0*
21,1,0.2018,0.0591,0,0,90.0*
1,1,0.0148,0.0221,0.1009*
1,1,0.0148,0.0221,-0.1009*
1,1,0.0148,-0.0221,-0.1009*
1,1,0.0148,-0.0221,0.1009*
%
%ADD113ROUNDEDRECTD113*%
D25*
X022401Y011362D02*
D03*
Y010614D02*
D03*
X01515Y010789D02*
D03*
Y010041D02*
D03*
X016119Y010043D02*
D03*
Y010791D02*
D03*
X037611Y019022D02*
D03*
Y018274D02*
D03*
X036731Y019022D02*
D03*
Y018274D02*
D03*
X02461Y021288D02*
D03*
Y02054D02*
D03*
X021399Y020456D02*
D03*
Y019708D02*
D03*
X024806Y015546D02*
D03*
Y014798D02*
D03*
X02342Y010704D02*
D03*
Y011452D02*
D03*
X024231Y010704D02*
D03*
Y011452D02*
D03*
X020484Y020452D02*
D03*
Y019704D02*
D03*
X01703Y010788D02*
D03*
Y01004D02*
D03*
D33*
X012192Y008306D02*
D03*
X011444D02*
D03*
X01243Y00291D02*
D03*
X013178D02*
D03*
X017472Y008266D02*
D03*
X016724D02*
D03*
X017824Y002836D02*
D03*
X018572D02*
D03*
X009284Y011186D02*
D03*
X010032D02*
D03*
X009314Y010179D02*
D03*
X010062D02*
D03*
X025058Y006874D02*
D03*
X025806D02*
D03*
X025808Y00845D02*
D03*
X02506D02*
D03*
X027774Y004306D02*
D03*
X028522D02*
D03*
X027772Y00515D02*
D03*
X02852D02*
D03*
X022414Y019779D02*
D03*
X023162D02*
D03*
X025006Y016701D02*
D03*
X024258D02*
D03*
X028537Y01471D02*
D03*
X027789D02*
D03*
X028522Y015589D02*
D03*
X027774D02*
D03*
X012674Y017539D02*
D03*
X013422D02*
D03*
X012674Y018339D02*
D03*
X013422D02*
D03*
X012664Y016729D02*
D03*
X013412D02*
D03*
X01265Y01593D02*
D03*
X013398D02*
D03*
D104*
X019477Y018332D02*
D03*
X019674D02*
D03*
X021445Y012348D02*
D03*
Y018332D02*
D03*
X021642D02*
D03*
X021249D02*
D03*
X021052D02*
D03*
X020855D02*
D03*
X020658D02*
D03*
X020461D02*
D03*
X020264D02*
D03*
X020067D02*
D03*
X019871D02*
D03*
X01928D02*
D03*
X019083D02*
D03*
X018886D02*
D03*
X018689D02*
D03*
X018493D02*
D03*
X018296D02*
D03*
X018099D02*
D03*
X017902D02*
D03*
X017705D02*
D03*
X017508D02*
D03*
X017312D02*
D03*
X017115D02*
D03*
X016918D02*
D03*
Y012348D02*
D03*
X017115D02*
D03*
X017312D02*
D03*
X017508D02*
D03*
X017705D02*
D03*
X017902D02*
D03*
X018099D02*
D03*
X018296D02*
D03*
X018493D02*
D03*
X018689D02*
D03*
X018886D02*
D03*
X019083D02*
D03*
X01928D02*
D03*
X019477D02*
D03*
X019674D02*
D03*
X019871D02*
D03*
X020067D02*
D03*
X020264D02*
D03*
X020461D02*
D03*
X020658D02*
D03*
X020855D02*
D03*
X021052D02*
D03*
X021249D02*
D03*
X021642D02*
D03*
D105*
X022272Y015931D02*
D03*
X016288Y017505D02*
D03*
Y017702D02*
D03*
Y017308D02*
D03*
Y017112D02*
D03*
Y016915D02*
D03*
Y016718D02*
D03*
Y016521D02*
D03*
Y016324D02*
D03*
Y016127D02*
D03*
Y015931D02*
D03*
Y015734D02*
D03*
Y015537D02*
D03*
Y01534D02*
D03*
Y015143D02*
D03*
Y014946D02*
D03*
Y014749D02*
D03*
Y014553D02*
D03*
Y014356D02*
D03*
Y014159D02*
D03*
Y013962D02*
D03*
Y013765D02*
D03*
Y013568D02*
D03*
Y013371D02*
D03*
Y013175D02*
D03*
Y012978D02*
D03*
X022272D02*
D03*
Y013175D02*
D03*
Y013371D02*
D03*
Y013568D02*
D03*
Y013765D02*
D03*
Y013962D02*
D03*
Y014159D02*
D03*
Y014356D02*
D03*
Y014553D02*
D03*
Y014749D02*
D03*
Y014946D02*
D03*
Y015143D02*
D03*
Y01534D02*
D03*
Y015537D02*
D03*
Y015734D02*
D03*
Y016127D02*
D03*
Y016324D02*
D03*
Y016521D02*
D03*
Y016718D02*
D03*
Y016915D02*
D03*
Y017112D02*
D03*
Y017308D02*
D03*
Y017505D02*
D03*
Y017702D02*
D03*
D106*
X017441Y00188D02*
D03*
X018759D02*
D03*
D107*
X010983Y00916D02*
D03*
Y00966D02*
D03*
Y01016D02*
D03*
Y01066D02*
D03*
X013857Y00916D02*
D03*
Y00966D02*
D03*
Y01016D02*
D03*
Y01066D02*
D03*
D108*
X034851Y016324D02*
D03*
X0343D02*
D03*
X033748D02*
D03*
X033197D02*
D03*
X032646D02*
D03*
X032095D02*
D03*
X031544D02*
D03*
X030993D02*
D03*
D109*
X030443Y021086D02*
D03*
Y020535D02*
D03*
Y019984D02*
D03*
Y019432D02*
D03*
Y018881D02*
D03*
Y01833D02*
D03*
Y017779D02*
D03*
Y017228D02*
D03*
X0354D02*
D03*
Y017779D02*
D03*
Y01833D02*
D03*
Y018881D02*
D03*
Y019432D02*
D03*
Y019984D02*
D03*
Y020535D02*
D03*
Y021086D02*
D03*
D110*
X01023Y006466D02*
D03*
X01551D02*
D03*
D111*
X009332Y003867D02*
D03*
X011128D02*
D03*
X014612D02*
D03*
X016408D02*
D03*
D112*
X01221Y007268D02*
D03*
X01321D02*
D03*
Y00404D02*
D03*
X01221D02*
D03*
D113*
X026296Y016604D02*
D03*
Y013257D02*
D03*
M02*
