G04*
G04 #@! TF.GenerationSoftware,Altium Limited,Altium Designer,20.2.6 (244)*
G04*
G04 Layer_Color=2752767*
%FSTAX24Y24*%
%MOIN*%
G70*
G04*
G04 #@! TF.SameCoordinates,20AB1978-7CCD-4664-BF1E-2587ED644C09*
G04*
G04*
G04 #@! TF.FilePolarity,Positive*
G04*
G01*
G75*
%ADD126C,0.0020*%
%ADD131C,0.0027*%
%ADD132C,0.0013*%
D126*
X02555Y02234D02*
Y0225D01*
X02571D01*
Y02234D01*
X02555D01*
X0287D02*
Y0225D01*
X02886D01*
Y02234D01*
X0287D01*
X0281Y01311D02*
X02802Y01327D01*
X02818D01*
X0281Y01311D01*
X00451Y00194D02*
X00443Y0021D01*
X00459D01*
X00451Y00194D01*
X00551D02*
X00543Y0021D01*
X00559D01*
X00551Y00194D01*
X03677Y008D02*
X03681Y00804D01*
X03685D01*
X03681Y00808D01*
X03685Y00812D01*
X03681D01*
X03677Y00816D01*
X03673Y00812D01*
X03669D01*
X03673Y00808D01*
X03669Y00804D01*
X03673D01*
X03677Y008D01*
X03377D02*
X03381Y00804D01*
X03385D01*
X03381Y00808D01*
X03385Y00812D01*
X03381D01*
X03377Y00816D01*
X03373Y00812D01*
X03369D01*
X03373Y00808D01*
X03369Y00804D01*
X03373D01*
X03377Y008D01*
X00894Y00194D02*
X00886Y0021D01*
X00902D01*
X00894Y00194D01*
X00794D02*
X00786Y0021D01*
X00802D01*
X00794Y00194D01*
X01541Y02465D02*
X01533Y02481D01*
X01549D01*
X01541Y02465D01*
X01641D02*
X01633Y02481D01*
X01649D01*
X01641Y02465D01*
X01741D02*
X01733Y02481D01*
X01749D01*
X01741Y02465D01*
X01441D02*
X01433Y02481D01*
X01449D01*
X01441Y02465D01*
X02026Y00105D02*
X02018Y00121D01*
X02034D01*
X02026Y00105D01*
X00227Y00682D02*
X00219Y00698D01*
X00235D01*
X00227Y00682D01*
X00205Y0178D02*
X00209Y01788D01*
X00205Y01796D01*
X00213Y01792D01*
X00221Y01796D01*
X00217Y01788D01*
X00221Y0178D01*
X00213Y01784D01*
X00205Y0178D01*
X00469Y02408D02*
X00461Y02424D01*
X00477D01*
X00469Y02408D01*
X0139Y0146D02*
X01382Y01476D01*
X01398D01*
X0139Y0146D01*
X0129D02*
X01282Y01476D01*
X01298D01*
X0129Y0146D01*
X0119D02*
X01182Y01476D01*
X01198D01*
X0119Y0146D01*
X00469Y02208D02*
X00461Y02224D01*
X00477D01*
X00469Y02208D01*
Y02308D02*
X00461Y02324D01*
X00477D01*
X00469Y02308D01*
X01138Y02314D02*
Y0231D01*
X01146D01*
Y02314D01*
X0115D01*
Y02322D01*
X01146D01*
Y02326D01*
X01138D01*
Y02322D01*
X01134D01*
Y02314D01*
X01138D01*
X00205Y0198D02*
X00209Y01988D01*
X00205Y01996D01*
X00213Y01992D01*
X00221Y01996D01*
X00217Y01988D01*
X00221Y0198D01*
X00213Y01984D01*
X00205Y0198D01*
X00227Y00782D02*
X00219Y00798D01*
X00235D01*
X00227Y00782D01*
X02226Y00105D02*
X02218Y00121D01*
X02234D01*
X02226Y00105D01*
X02126D02*
X02118Y00121D01*
X02134D01*
X02126Y00105D01*
X03817Y02392D02*
X03821D01*
X03825Y02396D01*
X03829Y02392D01*
X03833D01*
Y02396D01*
X03829Y024D01*
X03833Y02404D01*
Y02408D01*
X03829D01*
X03825Y02404D01*
X03821Y02408D01*
X03817D01*
Y02404D01*
X03821Y024D01*
X03817Y02396D01*
Y02392D01*
Y02092D02*
X03821D01*
X03825Y02096D01*
X03829Y02092D01*
X03833D01*
Y02096D01*
X03829Y021D01*
X03833Y02104D01*
Y02108D01*
X03829D01*
X03825Y02104D01*
X03821Y02108D01*
X03817D01*
Y02104D01*
X03821Y021D01*
X03817Y02096D01*
Y02092D01*
Y01792D02*
X03821D01*
X03825Y01796D01*
X03829Y01792D01*
X03833D01*
Y01796D01*
X03829Y018D01*
X03833Y01804D01*
Y01808D01*
X03829D01*
X03825Y01804D01*
X03821Y01808D01*
X03817D01*
Y01804D01*
X03821Y018D01*
X03817Y01796D01*
Y01792D01*
X03742Y01642D02*
X03746D01*
X0375Y01646D01*
X03754Y01642D01*
X03758D01*
Y01646D01*
X03754Y0165D01*
X03758Y01654D01*
Y01658D01*
X03754D01*
X0375Y01654D01*
X03746Y01658D01*
X03742D01*
Y01654D01*
X03746Y0165D01*
X03742Y01646D01*
Y01642D01*
X03817Y01492D02*
X03821D01*
X03825Y01496D01*
X03829Y01492D01*
X03833D01*
Y01496D01*
X03829Y015D01*
X03833Y01504D01*
Y01508D01*
X03829D01*
X03825Y01504D01*
X03821Y01508D01*
X03817D01*
Y01504D01*
X03821Y015D01*
X03817Y01496D01*
Y01492D01*
X03742Y01342D02*
X03746D01*
X0375Y01346D01*
X03754Y01342D01*
X03758D01*
Y01346D01*
X03754Y0135D01*
X03758Y01354D01*
Y01358D01*
X03754D01*
X0375Y01354D01*
X03746Y01358D01*
X03742D01*
Y01354D01*
X03746Y0135D01*
X03742Y01346D01*
Y01342D01*
X03817Y01192D02*
X03821D01*
X03825Y01196D01*
X03829Y01192D01*
X03833D01*
Y01196D01*
X03829Y012D01*
X03833Y01204D01*
Y01208D01*
X03829D01*
X03825Y01204D01*
X03821Y01208D01*
X03817D01*
Y01204D01*
X03821Y012D01*
X03817Y01196D01*
Y01192D01*
X03742Y01042D02*
X03746D01*
X0375Y01046D01*
X03754Y01042D01*
X03758D01*
Y01046D01*
X03754Y0105D01*
X03758Y01054D01*
Y01058D01*
X03754D01*
X0375Y01054D01*
X03746Y01058D01*
X03742D01*
Y01054D01*
X03746Y0105D01*
X03742Y01046D01*
Y01042D01*
X03817Y00892D02*
X03821D01*
X03825Y00896D01*
X03829Y00892D01*
X03833D01*
Y00896D01*
X03829Y009D01*
X03833Y00904D01*
Y00908D01*
X03829D01*
X03825Y00904D01*
X03821Y00908D01*
X03817D01*
Y00904D01*
X03821Y009D01*
X03817Y00896D01*
Y00892D01*
Y00592D02*
X03821D01*
X03825Y00596D01*
X03829Y00592D01*
X03833D01*
Y00596D01*
X03829Y006D01*
X03833Y00604D01*
Y00608D01*
X03829D01*
X03825Y00604D01*
X03821Y00608D01*
X03817D01*
Y00604D01*
X03821Y006D01*
X03817Y00596D01*
Y00592D01*
X03742Y00442D02*
X03746D01*
X0375Y00446D01*
X03754Y00442D01*
X03758D01*
Y00446D01*
X03754Y0045D01*
X03758Y00454D01*
Y00458D01*
X03754D01*
X0375Y00454D01*
X03746Y00458D01*
X03742D01*
Y00454D01*
X03746Y0045D01*
X03742Y00446D01*
Y00442D01*
Y00142D02*
X03746D01*
X0375Y00146D01*
X03754Y00142D01*
X03758D01*
Y00146D01*
X03754Y0015D01*
X03758Y00154D01*
Y00158D01*
X03754D01*
X0375Y00154D01*
X03746Y00158D01*
X03742D01*
Y00154D01*
X03746Y0015D01*
X03742Y00146D01*
Y00142D01*
X03667Y02392D02*
X03671D01*
X03675Y02396D01*
X03679Y02392D01*
X03683D01*
Y02396D01*
X03679Y024D01*
X03683Y02404D01*
Y02408D01*
X03679D01*
X03675Y02404D01*
X03671Y02408D01*
X03667D01*
Y02404D01*
X03671Y024D01*
X03667Y02396D01*
Y02392D01*
Y02092D02*
X03671D01*
X03675Y02096D01*
X03679Y02092D01*
X03683D01*
Y02096D01*
X03679Y021D01*
X03683Y02104D01*
Y02108D01*
X03679D01*
X03675Y02104D01*
X03671Y02108D01*
X03667D01*
Y02104D01*
X03671Y021D01*
X03667Y02096D01*
Y02092D01*
Y01492D02*
X03671D01*
X03675Y01496D01*
X03679Y01492D01*
X03683D01*
Y01496D01*
X03679Y015D01*
X03683Y01504D01*
Y01508D01*
X03679D01*
X03675Y01504D01*
X03671Y01508D01*
X03667D01*
Y01504D01*
X03671Y015D01*
X03667Y01496D01*
Y01492D01*
X03592Y01342D02*
X03596D01*
X036Y01346D01*
X03604Y01342D01*
X03608D01*
Y01346D01*
X03604Y0135D01*
X03608Y01354D01*
Y01358D01*
X03604D01*
X036Y01354D01*
X03596Y01358D01*
X03592D01*
Y01354D01*
X03596Y0135D01*
X03592Y01346D01*
Y01342D01*
X03667Y00592D02*
X03671D01*
X03675Y00596D01*
X03679Y00592D01*
X03683D01*
Y00596D01*
X03679Y006D01*
X03683Y00604D01*
Y00608D01*
X03679D01*
X03675Y00604D01*
X03671Y00608D01*
X03667D01*
Y00604D01*
X03671Y006D01*
X03667Y00596D01*
Y00592D01*
X03592Y00442D02*
X03596D01*
X036Y00446D01*
X03604Y00442D01*
X03608D01*
Y00446D01*
X03604Y0045D01*
X03608Y00454D01*
Y00458D01*
X03604D01*
X036Y00454D01*
X03596Y00458D01*
X03592D01*
Y00454D01*
X03596Y0045D01*
X03592Y00446D01*
Y00442D01*
Y00142D02*
X03596D01*
X036Y00146D01*
X03604Y00142D01*
X03608D01*
Y00146D01*
X03604Y0015D01*
X03608Y00154D01*
Y00158D01*
X03604D01*
X036Y00154D01*
X03596Y00158D01*
X03592D01*
Y00154D01*
X03596Y0015D01*
X03592Y00146D01*
Y00142D01*
X03442Y01342D02*
X03446D01*
X0345Y01346D01*
X03454Y01342D01*
X03458D01*
Y01346D01*
X03454Y0135D01*
X03458Y01354D01*
Y01358D01*
X03454D01*
X0345Y01354D01*
X03446Y01358D01*
X03442D01*
Y01354D01*
X03446Y0135D01*
X03442Y01346D01*
Y01342D01*
X03517Y00892D02*
X03521D01*
X03525Y00896D01*
X03529Y00892D01*
X03533D01*
Y00896D01*
X03529Y009D01*
X03533Y00904D01*
Y00908D01*
X03529D01*
X03525Y00904D01*
X03521Y00908D01*
X03517D01*
Y00904D01*
X03521Y009D01*
X03517Y00896D01*
Y00892D01*
Y00592D02*
X03521D01*
X03525Y00596D01*
X03529Y00592D01*
X03533D01*
Y00596D01*
X03529Y006D01*
X03533Y00604D01*
Y00608D01*
X03529D01*
X03525Y00604D01*
X03521Y00608D01*
X03517D01*
Y00604D01*
X03521Y006D01*
X03517Y00596D01*
Y00592D01*
X03442Y00442D02*
X03446D01*
X0345Y00446D01*
X03454Y00442D01*
X03458D01*
Y00446D01*
X03454Y0045D01*
X03458Y00454D01*
Y00458D01*
X03454D01*
X0345Y00454D01*
X03446Y00458D01*
X03442D01*
Y00454D01*
X03446Y0045D01*
X03442Y00446D01*
Y00442D01*
X03367Y00592D02*
X03371D01*
X03375Y00596D01*
X03379Y00592D01*
X03383D01*
Y00596D01*
X03379Y006D01*
X03383Y00604D01*
Y00608D01*
X03379D01*
X03375Y00604D01*
X03371Y00608D01*
X03367D01*
Y00604D01*
X03371Y006D01*
X03367Y00596D01*
Y00592D01*
X03292Y00442D02*
X03296D01*
X033Y00446D01*
X03304Y00442D01*
X03308D01*
Y00446D01*
X03304Y0045D01*
X03308Y00454D01*
Y00458D01*
X03304D01*
X033Y00454D01*
X03296Y00458D01*
X03292D01*
Y00454D01*
X03296Y0045D01*
X03292Y00446D01*
Y00442D01*
X03217Y02092D02*
X03221D01*
X03225Y02096D01*
X03229Y02092D01*
X03233D01*
Y02096D01*
X03229Y021D01*
X03233Y02104D01*
Y02108D01*
X03229D01*
X03225Y02104D01*
X03221Y02108D01*
X03217D01*
Y02104D01*
X03221Y021D01*
X03217Y02096D01*
Y02092D01*
Y01792D02*
X03221D01*
X03225Y01796D01*
X03229Y01792D01*
X03233D01*
Y01796D01*
X03229Y018D01*
X03233Y01804D01*
Y01808D01*
X03229D01*
X03225Y01804D01*
X03221Y01808D01*
X03217D01*
Y01804D01*
X03221Y018D01*
X03217Y01796D01*
Y01792D01*
Y01492D02*
X03221D01*
X03225Y01496D01*
X03229Y01492D01*
X03233D01*
Y01496D01*
X03229Y015D01*
X03233Y01504D01*
Y01508D01*
X03229D01*
X03225Y01504D01*
X03221Y01508D01*
X03217D01*
Y01504D01*
X03221Y015D01*
X03217Y01496D01*
Y01492D01*
X03142Y01342D02*
X03146D01*
X0315Y01346D01*
X03154Y01342D01*
X03158D01*
Y01346D01*
X03154Y0135D01*
X03158Y01354D01*
Y01358D01*
X03154D01*
X0315Y01354D01*
X03146Y01358D01*
X03142D01*
Y01354D01*
X03146Y0135D01*
X03142Y01346D01*
Y01342D01*
X03217Y00892D02*
X03221D01*
X03225Y00896D01*
X03229Y00892D01*
X03233D01*
Y00896D01*
X03229Y009D01*
X03233Y00904D01*
Y00908D01*
X03229D01*
X03225Y00904D01*
X03221Y00908D01*
X03217D01*
Y00904D01*
X03221Y009D01*
X03217Y00896D01*
Y00892D01*
X03142Y00742D02*
X03146D01*
X0315Y00746D01*
X03154Y00742D01*
X03158D01*
Y00746D01*
X03154Y0075D01*
X03158Y00754D01*
Y00758D01*
X03154D01*
X0315Y00754D01*
X03146Y00758D01*
X03142D01*
Y00754D01*
X03146Y0075D01*
X03142Y00746D01*
Y00742D01*
X03217Y00592D02*
X03221D01*
X03225Y00596D01*
X03229Y00592D01*
X03233D01*
Y00596D01*
X03229Y006D01*
X03233Y00604D01*
Y00608D01*
X03229D01*
X03225Y00604D01*
X03221Y00608D01*
X03217D01*
Y00604D01*
X03221Y006D01*
X03217Y00596D01*
Y00592D01*
X03142Y00442D02*
X03146D01*
X0315Y00446D01*
X03154Y00442D01*
X03158D01*
Y00446D01*
X03154Y0045D01*
X03158Y00454D01*
Y00458D01*
X03154D01*
X0315Y00454D01*
X03146Y00458D01*
X03142D01*
Y00454D01*
X03146Y0045D01*
X03142Y00446D01*
Y00442D01*
Y00142D02*
X03146D01*
X0315Y00146D01*
X03154Y00142D01*
X03158D01*
Y00146D01*
X03154Y0015D01*
X03158Y00154D01*
Y00158D01*
X03154D01*
X0315Y00154D01*
X03146Y00158D01*
X03142D01*
Y00154D01*
X03146Y0015D01*
X03142Y00146D01*
Y00142D01*
X02992Y01342D02*
X02996D01*
X03Y01346D01*
X03004Y01342D01*
X03008D01*
Y01346D01*
X03004Y0135D01*
X03008Y01354D01*
Y01358D01*
X03004D01*
X03Y01354D01*
X02996Y01358D01*
X02992D01*
Y01354D01*
X02996Y0135D01*
X02992Y01346D01*
Y01342D01*
X03067Y01192D02*
X03071D01*
X03075Y01196D01*
X03079Y01192D01*
X03083D01*
Y01196D01*
X03079Y012D01*
X03083Y01204D01*
Y01208D01*
X03079D01*
X03075Y01204D01*
X03071Y01208D01*
X03067D01*
Y01204D01*
X03071Y012D01*
X03067Y01196D01*
Y01192D01*
Y00592D02*
X03071D01*
X03075Y00596D01*
X03079Y00592D01*
X03083D01*
Y00596D01*
X03079Y006D01*
X03083Y00604D01*
Y00608D01*
X03079D01*
X03075Y00604D01*
X03071Y00608D01*
X03067D01*
Y00604D01*
X03071Y006D01*
X03067Y00596D01*
Y00592D01*
Y00292D02*
X03071D01*
X03075Y00296D01*
X03079Y00292D01*
X03083D01*
Y00296D01*
X03079Y003D01*
X03083Y00304D01*
Y00308D01*
X03079D01*
X03075Y00304D01*
X03071Y00308D01*
X03067D01*
Y00304D01*
X03071Y003D01*
X03067Y00296D01*
Y00292D01*
X02992Y00142D02*
X02996D01*
X03Y00146D01*
X03004Y00142D01*
X03008D01*
Y00146D01*
X03004Y0015D01*
X03008Y00154D01*
Y00158D01*
X03004D01*
X03Y00154D01*
X02996Y00158D01*
X02992D01*
Y00154D01*
X02996Y0015D01*
X02992Y00146D01*
Y00142D01*
X02917Y02392D02*
X02921D01*
X02925Y02396D01*
X02929Y02392D01*
X02933D01*
Y02396D01*
X02929Y024D01*
X02933Y02404D01*
Y02408D01*
X02929D01*
X02925Y02404D01*
X02921Y02408D01*
X02917D01*
Y02404D01*
X02921Y024D01*
X02917Y02396D01*
Y02392D01*
Y02092D02*
X02921D01*
X02925Y02096D01*
X02929Y02092D01*
X02933D01*
Y02096D01*
X02929Y021D01*
X02933Y02104D01*
Y02108D01*
X02929D01*
X02925Y02104D01*
X02921Y02108D01*
X02917D01*
Y02104D01*
X02921Y021D01*
X02917Y02096D01*
Y02092D01*
X02842Y00742D02*
X02846D01*
X0285Y00746D01*
X02854Y00742D01*
X02858D01*
Y00746D01*
X02854Y0075D01*
X02858Y00754D01*
Y00758D01*
X02854D01*
X0285Y00754D01*
X02846Y00758D01*
X02842D01*
Y00754D01*
X02846Y0075D01*
X02842Y00746D01*
Y00742D01*
X02917Y00292D02*
X02921D01*
X02925Y00296D01*
X02929Y00292D01*
X02933D01*
Y00296D01*
X02929Y003D01*
X02933Y00304D01*
Y00308D01*
X02929D01*
X02925Y00304D01*
X02921Y00308D01*
X02917D01*
Y00304D01*
X02921Y003D01*
X02917Y00296D01*
Y00292D01*
X02842Y00142D02*
X02846D01*
X0285Y00146D01*
X02854Y00142D01*
X02858D01*
Y00146D01*
X02854Y0015D01*
X02858Y00154D01*
Y00158D01*
X02854D01*
X0285Y00154D01*
X02846Y00158D01*
X02842D01*
Y00154D01*
X02846Y0015D01*
X02842Y00146D01*
Y00142D01*
X02767Y01192D02*
X02771D01*
X02775Y01196D01*
X02779Y01192D01*
X02783D01*
Y01196D01*
X02779Y012D01*
X02783Y01204D01*
Y01208D01*
X02779D01*
X02775Y01204D01*
X02771Y01208D01*
X02767D01*
Y01204D01*
X02771Y012D01*
X02767Y01196D01*
Y01192D01*
X02692Y00742D02*
X02696D01*
X027Y00746D01*
X02704Y00742D01*
X02708D01*
Y00746D01*
X02704Y0075D01*
X02708Y00754D01*
Y00758D01*
X02704D01*
X027Y00754D01*
X02696Y00758D01*
X02692D01*
Y00754D01*
X02696Y0075D01*
X02692Y00746D01*
Y00742D01*
Y00442D02*
X02696D01*
X027Y00446D01*
X02704Y00442D01*
X02708D01*
Y00446D01*
X02704Y0045D01*
X02708Y00454D01*
Y00458D01*
X02704D01*
X027Y00454D01*
X02696Y00458D01*
X02692D01*
Y00454D01*
X02696Y0045D01*
X02692Y00446D01*
Y00442D01*
X02767Y00292D02*
X02771D01*
X02775Y00296D01*
X02779Y00292D01*
X02783D01*
Y00296D01*
X02779Y003D01*
X02783Y00304D01*
Y00308D01*
X02779D01*
X02775Y00304D01*
X02771Y00308D01*
X02767D01*
Y00304D01*
X02771Y003D01*
X02767Y00296D01*
Y00292D01*
X02692Y00142D02*
X02696D01*
X027Y00146D01*
X02704Y00142D01*
X02708D01*
Y00146D01*
X02704Y0015D01*
X02708Y00154D01*
Y00158D01*
X02704D01*
X027Y00154D01*
X02696Y00158D01*
X02692D01*
Y00154D01*
X02696Y0015D01*
X02692Y00146D01*
Y00142D01*
X02617Y00592D02*
X02621D01*
X02625Y00596D01*
X02629Y00592D01*
X02633D01*
Y00596D01*
X02629Y006D01*
X02633Y00604D01*
Y00608D01*
X02629D01*
X02625Y00604D01*
X02621Y00608D01*
X02617D01*
Y00604D01*
X02621Y006D01*
X02617Y00596D01*
Y00592D01*
X02542Y00442D02*
X02546D01*
X0255Y00446D01*
X02554Y00442D01*
X02558D01*
Y00446D01*
X02554Y0045D01*
X02558Y00454D01*
Y00458D01*
X02554D01*
X0255Y00454D01*
X02546Y00458D01*
X02542D01*
Y00454D01*
X02546Y0045D01*
X02542Y00446D01*
Y00442D01*
X02617Y00292D02*
X02621D01*
X02625Y00296D01*
X02629Y00292D01*
X02633D01*
Y00296D01*
X02629Y003D01*
X02633Y00304D01*
Y00308D01*
X02629D01*
X02625Y00304D01*
X02621Y00308D01*
X02617D01*
Y00304D01*
X02621Y003D01*
X02617Y00296D01*
Y00292D01*
X02542Y00142D02*
X02546D01*
X0255Y00146D01*
X02554Y00142D01*
X02558D01*
Y00146D01*
X02554Y0015D01*
X02558Y00154D01*
Y00158D01*
X02554D01*
X0255Y00154D01*
X02546Y00158D01*
X02542D01*
Y00154D01*
X02546Y0015D01*
X02542Y00146D01*
Y00142D01*
X02467Y00592D02*
X02471D01*
X02475Y00596D01*
X02479Y00592D01*
X02483D01*
Y00596D01*
X02479Y006D01*
X02483Y00604D01*
Y00608D01*
X02479D01*
X02475Y00604D01*
X02471Y00608D01*
X02467D01*
Y00604D01*
X02471Y006D01*
X02467Y00596D01*
Y00592D01*
X02392Y00142D02*
X02396D01*
X024Y00146D01*
X02404Y00142D01*
X02408D01*
Y00146D01*
X02404Y0015D01*
X02408Y00154D01*
Y00158D01*
X02404D01*
X024Y00154D01*
X02396Y00158D01*
X02392D01*
Y00154D01*
X02396Y0015D01*
X02392Y00146D01*
Y00142D01*
X02242Y02242D02*
X02246D01*
X0225Y02246D01*
X02254Y02242D01*
X02258D01*
Y02246D01*
X02254Y0225D01*
X02258Y02254D01*
Y02258D01*
X02254D01*
X0225Y02254D01*
X02246Y02258D01*
X02242D01*
Y02254D01*
X02246Y0225D01*
X02242Y02246D01*
Y02242D01*
Y00742D02*
X02246D01*
X0225Y00746D01*
X02254Y00742D01*
X02258D01*
Y00746D01*
X02254Y0075D01*
X02258Y00754D01*
Y00758D01*
X02254D01*
X0225Y00754D01*
X02246Y00758D01*
X02242D01*
Y00754D01*
X02246Y0075D01*
X02242Y00746D01*
Y00742D01*
X02092Y02242D02*
X02096D01*
X021Y02246D01*
X02104Y02242D01*
X02108D01*
Y02246D01*
X02104Y0225D01*
X02108Y02254D01*
Y02258D01*
X02104D01*
X021Y02254D01*
X02096Y02258D01*
X02092D01*
Y02254D01*
X02096Y0225D01*
X02092Y02246D01*
Y02242D01*
X02167Y00892D02*
X02171D01*
X02175Y00896D01*
X02179Y00892D01*
X02183D01*
Y00896D01*
X02179Y009D01*
X02183Y00904D01*
Y00908D01*
X02179D01*
X02175Y00904D01*
X02171Y00908D01*
X02167D01*
Y00904D01*
X02171Y009D01*
X02167Y00896D01*
Y00892D01*
Y00592D02*
X02171D01*
X02175Y00596D01*
X02179Y00592D01*
X02183D01*
Y00596D01*
X02179Y006D01*
X02183Y00604D01*
Y00608D01*
X02179D01*
X02175Y00604D01*
X02171Y00608D01*
X02167D01*
Y00604D01*
X02171Y006D01*
X02167Y00596D01*
Y00592D01*
X02017Y00292D02*
X02021D01*
X02025Y00296D01*
X02029Y00292D01*
X02033D01*
Y00296D01*
X02029Y003D01*
X02033Y00304D01*
Y00308D01*
X02029D01*
X02025Y00304D01*
X02021Y00308D01*
X02017D01*
Y00304D01*
X02021Y003D01*
X02017Y00296D01*
Y00292D01*
X01942Y00142D02*
X01946D01*
X0195Y00146D01*
X01954Y00142D01*
X01958D01*
Y00146D01*
X01954Y0015D01*
X01958Y00154D01*
Y00158D01*
X01954D01*
X0195Y00154D01*
X01946Y00158D01*
X01942D01*
Y00154D01*
X01946Y0015D01*
X01942Y00146D01*
Y00142D01*
X01792Y00742D02*
X01796D01*
X018Y00746D01*
X01804Y00742D01*
X01808D01*
Y00746D01*
X01804Y0075D01*
X01808Y00754D01*
Y00758D01*
X01804D01*
X018Y00754D01*
X01796Y00758D01*
X01792D01*
Y00754D01*
X01796Y0075D01*
X01792Y00746D01*
Y00742D01*
X01642Y02242D02*
X01646D01*
X0165Y02246D01*
X01654Y02242D01*
X01658D01*
Y02246D01*
X01654Y0225D01*
X01658Y02254D01*
Y02258D01*
X01654D01*
X0165Y02254D01*
X01646Y02258D01*
X01642D01*
Y02254D01*
X01646Y0225D01*
X01642Y02246D01*
Y02242D01*
Y01942D02*
X01646D01*
X0165Y01946D01*
X01654Y01942D01*
X01658D01*
Y01946D01*
X01654Y0195D01*
X01658Y01954D01*
Y01958D01*
X01654D01*
X0165Y01954D01*
X01646Y01958D01*
X01642D01*
Y01954D01*
X01646Y0195D01*
X01642Y01946D01*
Y01942D01*
X01717Y00292D02*
X01721D01*
X01725Y00296D01*
X01729Y00292D01*
X01733D01*
Y00296D01*
X01729Y003D01*
X01733Y00304D01*
Y00308D01*
X01729D01*
X01725Y00304D01*
X01721Y00308D01*
X01717D01*
Y00304D01*
X01721Y003D01*
X01717Y00296D01*
Y00292D01*
X01642Y00142D02*
X01646D01*
X0165Y00146D01*
X01654Y00142D01*
X01658D01*
Y00146D01*
X01654Y0015D01*
X01658Y00154D01*
Y00158D01*
X01654D01*
X0165Y00154D01*
X01646Y00158D01*
X01642D01*
Y00154D01*
X01646Y0015D01*
X01642Y00146D01*
Y00142D01*
X01492Y02242D02*
X01496D01*
X015Y02246D01*
X01504Y02242D01*
X01508D01*
Y02246D01*
X01504Y0225D01*
X01508Y02254D01*
Y02258D01*
X01504D01*
X015Y02254D01*
X01496Y02258D01*
X01492D01*
Y02254D01*
X01496Y0225D01*
X01492Y02246D01*
Y02242D01*
X01417Y02392D02*
X01421D01*
X01425Y02396D01*
X01429Y02392D01*
X01433D01*
Y02396D01*
X01429Y024D01*
X01433Y02404D01*
Y02408D01*
X01429D01*
X01425Y02404D01*
X01421Y02408D01*
X01417D01*
Y02404D01*
X01421Y024D01*
X01417Y02396D01*
Y02392D01*
X01342Y02242D02*
X01346D01*
X0135Y02246D01*
X01354Y02242D01*
X01358D01*
Y02246D01*
X01354Y0225D01*
X01358Y02254D01*
Y02258D01*
X01354D01*
X0135Y02254D01*
X01346Y02258D01*
X01342D01*
Y02254D01*
X01346Y0225D01*
X01342Y02246D01*
Y02242D01*
Y01942D02*
X01346D01*
X0135Y01946D01*
X01354Y01942D01*
X01358D01*
Y01946D01*
X01354Y0195D01*
X01358Y01954D01*
Y01958D01*
X01354D01*
X0135Y01954D01*
X01346Y01958D01*
X01342D01*
Y01954D01*
X01346Y0195D01*
X01342Y01946D01*
Y01942D01*
Y01342D02*
X01346D01*
X0135Y01346D01*
X01354Y01342D01*
X01358D01*
Y01346D01*
X01354Y0135D01*
X01358Y01354D01*
Y01358D01*
X01354D01*
X0135Y01354D01*
X01346Y01358D01*
X01342D01*
Y01354D01*
X01346Y0135D01*
X01342Y01346D01*
Y01342D01*
X01417Y00292D02*
X01421D01*
X01425Y00296D01*
X01429Y00292D01*
X01433D01*
Y00296D01*
X01429Y003D01*
X01433Y00304D01*
Y00308D01*
X01429D01*
X01425Y00304D01*
X01421Y00308D01*
X01417D01*
Y00304D01*
X01421Y003D01*
X01417Y00296D01*
Y00292D01*
X01267Y02392D02*
X01271D01*
X01275Y02396D01*
X01279Y02392D01*
X01283D01*
Y02396D01*
X01279Y024D01*
X01283Y02404D01*
Y02408D01*
X01279D01*
X01275Y02404D01*
X01271Y02408D01*
X01267D01*
Y02404D01*
X01271Y024D01*
X01267Y02396D01*
Y02392D01*
Y02092D02*
X01271D01*
X01275Y02096D01*
X01279Y02092D01*
X01283D01*
Y02096D01*
X01279Y021D01*
X01283Y02104D01*
Y02108D01*
X01279D01*
X01275Y02104D01*
X01271Y02108D01*
X01267D01*
Y02104D01*
X01271Y021D01*
X01267Y02096D01*
Y02092D01*
X01192Y01942D02*
X01196D01*
X012Y01946D01*
X01204Y01942D01*
X01208D01*
Y01946D01*
X01204Y0195D01*
X01208Y01954D01*
Y01958D01*
X01204D01*
X012Y01954D01*
X01196Y01958D01*
X01192D01*
Y01954D01*
X01196Y0195D01*
X01192Y01946D01*
Y01942D01*
Y01642D02*
X01196D01*
X012Y01646D01*
X01204Y01642D01*
X01208D01*
Y01646D01*
X01204Y0165D01*
X01208Y01654D01*
Y01658D01*
X01204D01*
X012Y01654D01*
X01196Y01658D01*
X01192D01*
Y01654D01*
X01196Y0165D01*
X01192Y01646D01*
Y01642D01*
X01117Y02092D02*
X01121D01*
X01125Y02096D01*
X01129Y02092D01*
X01133D01*
Y02096D01*
X01129Y021D01*
X01133Y02104D01*
Y02108D01*
X01129D01*
X01125Y02104D01*
X01121Y02108D01*
X01117D01*
Y02104D01*
X01121Y021D01*
X01117Y02096D01*
Y02092D01*
Y01792D02*
X01121D01*
X01125Y01796D01*
X01129Y01792D01*
X01133D01*
Y01796D01*
X01129Y018D01*
X01133Y01804D01*
Y01808D01*
X01129D01*
X01125Y01804D01*
X01121Y01808D01*
X01117D01*
Y01804D01*
X01121Y018D01*
X01117Y01796D01*
Y01792D01*
X01042Y01642D02*
X01046D01*
X0105Y01646D01*
X01054Y01642D01*
X01058D01*
Y01646D01*
X01054Y0165D01*
X01058Y01654D01*
Y01658D01*
X01054D01*
X0105Y01654D01*
X01046Y01658D01*
X01042D01*
Y01654D01*
X01046Y0165D01*
X01042Y01646D01*
Y01642D01*
Y01342D02*
X01046D01*
X0105Y01346D01*
X01054Y01342D01*
X01058D01*
Y01346D01*
X01054Y0135D01*
X01058Y01354D01*
Y01358D01*
X01054D01*
X0105Y01354D01*
X01046Y01358D01*
X01042D01*
Y01354D01*
X01046Y0135D01*
X01042Y01346D01*
Y01342D01*
X01117Y01192D02*
X01121D01*
X01125Y01196D01*
X01129Y01192D01*
X01133D01*
Y01196D01*
X01129Y012D01*
X01133Y01204D01*
Y01208D01*
X01129D01*
X01125Y01204D01*
X01121Y01208D01*
X01117D01*
Y01204D01*
X01121Y012D01*
X01117Y01196D01*
Y01192D01*
X00967Y02392D02*
X00971D01*
X00975Y02396D01*
X00979Y02392D01*
X00983D01*
Y02396D01*
X00979Y024D01*
X00983Y02404D01*
Y02408D01*
X00979D01*
X00975Y02404D01*
X00971Y02408D01*
X00967D01*
Y02404D01*
X00971Y024D01*
X00967Y02396D01*
Y02392D01*
Y02092D02*
X00971D01*
X00975Y02096D01*
X00979Y02092D01*
X00983D01*
Y02096D01*
X00979Y021D01*
X00983Y02104D01*
Y02108D01*
X00979D01*
X00975Y02104D01*
X00971Y02108D01*
X00967D01*
Y02104D01*
X00971Y021D01*
X00967Y02096D01*
Y02092D01*
Y01792D02*
X00971D01*
X00975Y01796D01*
X00979Y01792D01*
X00983D01*
Y01796D01*
X00979Y018D01*
X00983Y01804D01*
Y01808D01*
X00979D01*
X00975Y01804D01*
X00971Y01808D01*
X00967D01*
Y01804D01*
X00971Y018D01*
X00967Y01796D01*
Y01792D01*
Y01492D02*
X00971D01*
X00975Y01496D01*
X00979Y01492D01*
X00983D01*
Y01496D01*
X00979Y015D01*
X00983Y01504D01*
Y01508D01*
X00979D01*
X00975Y01504D01*
X00971Y01508D01*
X00967D01*
Y01504D01*
X00971Y015D01*
X00967Y01496D01*
Y01492D01*
Y01192D02*
X00971D01*
X00975Y01196D01*
X00979Y01192D01*
X00983D01*
Y01196D01*
X00979Y012D01*
X00983Y01204D01*
Y01208D01*
X00979D01*
X00975Y01204D01*
X00971Y01208D01*
X00967D01*
Y01204D01*
X00971Y012D01*
X00967Y01196D01*
Y01192D01*
Y00292D02*
X00971D01*
X00975Y00296D01*
X00979Y00292D01*
X00983D01*
Y00296D01*
X00979Y003D01*
X00983Y00304D01*
Y00308D01*
X00979D01*
X00975Y00304D01*
X00971Y00308D01*
X00967D01*
Y00304D01*
X00971Y003D01*
X00967Y00296D01*
Y00292D01*
X00817Y02392D02*
X00821D01*
X00825Y02396D01*
X00829Y02392D01*
X00833D01*
Y02396D01*
X00829Y024D01*
X00833Y02404D01*
Y02408D01*
X00829D01*
X00825Y02404D01*
X00821Y02408D01*
X00817D01*
Y02404D01*
X00821Y024D01*
X00817Y02396D01*
Y02392D01*
X00667D02*
X00671D01*
X00675Y02396D01*
X00679Y02392D01*
X00683D01*
Y02396D01*
X00679Y024D01*
X00683Y02404D01*
Y02408D01*
X00679D01*
X00675Y02404D01*
X00671Y02408D01*
X00667D01*
Y02404D01*
X00671Y024D01*
X00667Y02396D01*
Y02392D01*
X00592Y01342D02*
X00596D01*
X006Y01346D01*
X00604Y01342D01*
X00608D01*
Y01346D01*
X00604Y0135D01*
X00608Y01354D01*
Y01358D01*
X00604D01*
X006Y01354D01*
X00596Y01358D01*
X00592D01*
Y01354D01*
X00596Y0135D01*
X00592Y01346D01*
Y01342D01*
X00667Y01192D02*
X00671D01*
X00675Y01196D01*
X00679Y01192D01*
X00683D01*
Y01196D01*
X00679Y012D01*
X00683Y01204D01*
Y01208D01*
X00679D01*
X00675Y01204D01*
X00671Y01208D01*
X00667D01*
Y01204D01*
X00671Y012D01*
X00667Y01196D01*
Y01192D01*
X00442Y00442D02*
X00446D01*
X0045Y00446D01*
X00454Y00442D01*
X00458D01*
Y00446D01*
X00454Y0045D01*
X00458Y00454D01*
Y00458D01*
X00454D01*
X0045Y00454D01*
X00446Y00458D01*
X00442D01*
Y00454D01*
X00446Y0045D01*
X00442Y00446D01*
Y00442D01*
X00367Y02392D02*
X00371D01*
X00375Y02396D01*
X00379Y02392D01*
X00383D01*
Y02396D01*
X00379Y024D01*
X00383Y02404D01*
Y02408D01*
X00379D01*
X00375Y02404D01*
X00371Y02408D01*
X00367D01*
Y02404D01*
X00371Y024D01*
X00367Y02396D01*
Y02392D01*
Y01492D02*
X00371D01*
X00375Y01496D01*
X00379Y01492D01*
X00383D01*
Y01496D01*
X00379Y015D01*
X00383Y01504D01*
Y01508D01*
X00379D01*
X00375Y01504D01*
X00371Y01508D01*
X00367D01*
Y01504D01*
X00371Y015D01*
X00367Y01496D01*
Y01492D01*
Y00592D02*
X00371D01*
X00375Y00596D01*
X00379Y00592D01*
X00383D01*
Y00596D01*
X00379Y006D01*
X00383Y00604D01*
Y00608D01*
X00379D01*
X00375Y00604D01*
X00371Y00608D01*
X00367D01*
Y00604D01*
X00371Y006D01*
X00367Y00596D01*
Y00592D01*
Y00292D02*
X00371D01*
X00375Y00296D01*
X00379Y00292D01*
X00383D01*
Y00296D01*
X00379Y003D01*
X00383Y00304D01*
Y00308D01*
X00379D01*
X00375Y00304D01*
X00371Y00308D01*
X00367D01*
Y00304D01*
X00371Y003D01*
X00367Y00296D01*
Y00292D01*
X00292Y00142D02*
X00296D01*
X003Y00146D01*
X00304Y00142D01*
X00308D01*
Y00146D01*
X00304Y0015D01*
X00308Y00154D01*
Y00158D01*
X00304D01*
X003Y00154D01*
X00296Y00158D01*
X00292D01*
Y00154D01*
X00296Y0015D01*
X00292Y00146D01*
Y00142D01*
X00217Y01492D02*
X00221D01*
X00225Y01496D01*
X00229Y01492D01*
X00233D01*
Y01496D01*
X00229Y015D01*
X00233Y01504D01*
Y01508D01*
X00229D01*
X00225Y01504D01*
X00221Y01508D01*
X00217D01*
Y01504D01*
X00221Y015D01*
X00217Y01496D01*
Y01492D01*
Y00592D02*
X00221D01*
X00225Y00596D01*
X00229Y00592D01*
X00233D01*
Y00596D01*
X00229Y006D01*
X00233Y00604D01*
Y00608D01*
X00229D01*
X00225Y00604D01*
X00221Y00608D01*
X00217D01*
Y00604D01*
X00221Y006D01*
X00217Y00596D01*
Y00592D01*
X00142Y00442D02*
X00146D01*
X0015Y00446D01*
X00154Y00442D01*
X00158D01*
Y00446D01*
X00154Y0045D01*
X00158Y00454D01*
Y00458D01*
X00154D01*
X0015Y00454D01*
X00146Y00458D01*
X00142D01*
Y00454D01*
X00146Y0045D01*
X00142Y00446D01*
Y00442D01*
Y00142D02*
X00146D01*
X0015Y00146D01*
X00154Y00142D01*
X00158D01*
Y00146D01*
X00154Y0015D01*
X00158Y00154D01*
Y00158D01*
X00154D01*
X0015Y00154D01*
X00146Y00158D01*
X00142D01*
Y00154D01*
X00146Y0015D01*
X00142Y00146D01*
Y00142D01*
X00145Y01218D02*
X00149D01*
X00153Y01222D01*
X00157Y01218D01*
X00161D01*
Y01222D01*
X00157Y01226D01*
X00161Y0123D01*
Y01234D01*
X00157D01*
X00153Y0123D01*
X00149Y01234D01*
X00145D01*
Y0123D01*
X00149Y01226D01*
X00145Y01222D01*
Y01218D01*
X02352Y01591D02*
X02356D01*
X0236Y01595D01*
X02364Y01591D01*
X02368D01*
Y01595D01*
X02364Y01599D01*
X02368Y01603D01*
Y01607D01*
X02364D01*
X0236Y01603D01*
X02356Y01607D01*
X02352D01*
Y01603D01*
X02356Y01599D01*
X02352Y01595D01*
Y01591D01*
X01835Y01065D02*
X01839D01*
X01843Y01069D01*
X01847Y01065D01*
X01851D01*
Y01069D01*
X01847Y01073D01*
X01851Y01077D01*
Y01081D01*
X01847D01*
X01843Y01077D01*
X01839Y01081D01*
X01835D01*
Y01077D01*
X01839Y01073D01*
X01835Y01069D01*
Y01065D01*
X02109Y01112D02*
X02113D01*
X02117Y01116D01*
X02121Y01112D01*
X02125D01*
Y01116D01*
X02121Y0112D01*
X02125Y01124D01*
Y01128D01*
X02121D01*
X02117Y01124D01*
X02113Y01128D01*
X02109D01*
Y01124D01*
X02113Y0112D01*
X02109Y01116D01*
Y01112D01*
X01409Y01723D02*
X01413D01*
X01417Y01727D01*
X01421Y01723D01*
X01425D01*
Y01727D01*
X01421Y01731D01*
X01425Y01735D01*
Y01739D01*
X01421D01*
X01417Y01735D01*
X01413Y01739D01*
X01409D01*
Y01735D01*
X01413Y01731D01*
X01409Y01727D01*
Y01723D01*
X01482Y01683D02*
X01486D01*
X0149Y01687D01*
X01494Y01683D01*
X01498D01*
Y01687D01*
X01494Y01691D01*
X01498Y01695D01*
Y01699D01*
X01494D01*
X0149Y01695D01*
X01486Y01699D01*
X01482D01*
Y01695D01*
X01486Y01691D01*
X01482Y01687D01*
Y01683D01*
X01314Y00824D02*
X01318D01*
X01322Y00828D01*
X01326Y00824D01*
X0133D01*
Y00828D01*
X01326Y00832D01*
X0133Y00836D01*
Y0084D01*
X01326D01*
X01322Y00836D01*
X01318Y0084D01*
X01314D01*
Y00836D01*
X01318Y00832D01*
X01314Y00828D01*
Y00824D01*
X02852Y00908D02*
X02856D01*
X0286Y00912D01*
X02864Y00908D01*
X02868D01*
Y00912D01*
X02864Y00916D01*
X02868Y0092D01*
Y00924D01*
X02864D01*
X0286Y0092D01*
X02856Y00924D01*
X02852D01*
Y0092D01*
X02856Y00916D01*
X02852Y00912D01*
Y00908D01*
X024178Y016192D02*
X024218D01*
X024258Y016232D01*
X024298Y016192D01*
X024338D01*
Y016232D01*
X024298Y016272D01*
X024338Y016312D01*
Y016352D01*
X024298D01*
X024258Y016312D01*
X024218Y016352D01*
X024178D01*
Y016312D01*
X024218Y016272D01*
X024178Y016232D01*
Y016192D01*
X03116Y01994D02*
X0312D01*
X03124Y01998D01*
X03128Y01994D01*
X03132D01*
Y01998D01*
X03128Y02002D01*
X03132Y02006D01*
Y0201D01*
X03128D01*
X03124Y02006D01*
X0312Y0201D01*
X03116D01*
Y02006D01*
X0312Y02002D01*
X03116Y01998D01*
Y01994D01*
X0288Y01025D02*
X02884D01*
X02888Y01029D01*
X02892Y01025D01*
X02896D01*
Y01029D01*
X02892Y01033D01*
X02896Y01037D01*
Y01041D01*
X02892D01*
X02888Y01037D01*
X02884Y01041D01*
X0288D01*
Y01037D01*
X02884Y01033D01*
X0288Y01029D01*
Y01025D01*
X02095Y01428D02*
X02099D01*
X02103Y01432D01*
X02107Y01428D01*
X02111D01*
Y01432D01*
X02107Y01436D01*
X02111Y0144D01*
Y01444D01*
X02107D01*
X02103Y0144D01*
X02099Y01444D01*
X02095D01*
Y0144D01*
X02099Y01436D01*
X02095Y01432D01*
Y01428D01*
X019473Y013327D02*
X019512D01*
X019553Y013368D01*
X019592Y013327D01*
X019633D01*
Y013368D01*
X019592Y013407D01*
X019633Y013448D01*
Y013487D01*
X019592D01*
X019553Y013448D01*
X019512Y013487D01*
X019473D01*
Y013448D01*
X019512Y013407D01*
X019473Y013368D01*
Y013327D01*
X01782Y0108D02*
X01786D01*
X0179Y01084D01*
X01794Y0108D01*
X01798D01*
Y01084D01*
X01794Y01088D01*
X01798Y01092D01*
Y01096D01*
X01794D01*
X0179Y01092D01*
X01786Y01096D01*
X01782D01*
Y01092D01*
X01786Y01088D01*
X01782Y01084D01*
Y0108D01*
X0193Y01111D02*
X01934D01*
X01938Y01115D01*
X01942Y01111D01*
X01946D01*
Y01115D01*
X01942Y01119D01*
X01946Y01123D01*
Y01127D01*
X01942D01*
X01938Y01123D01*
X01934Y01127D01*
X0193D01*
Y01123D01*
X01934Y01119D01*
X0193Y01115D01*
Y01111D01*
X00924Y01173D02*
X00928D01*
X00932Y01177D01*
X00936Y01173D01*
X0094D01*
Y01177D01*
X00936Y01181D01*
X0094Y01185D01*
Y01189D01*
X00936D01*
X00932Y01185D01*
X00928Y01189D01*
X00924D01*
Y01185D01*
X00928Y01181D01*
X00924Y01177D01*
Y01173D01*
X01347Y0111D02*
X01351D01*
X01355Y01114D01*
X01359Y0111D01*
X01363D01*
Y01114D01*
X01359Y01118D01*
X01363Y01122D01*
Y01126D01*
X01359D01*
X01355Y01122D01*
X01351Y01126D01*
X01347D01*
Y01122D01*
X01351Y01118D01*
X01347Y01114D01*
Y0111D01*
X01557Y0118D02*
X01561D01*
X01565Y01184D01*
X01569Y0118D01*
X01573D01*
Y01184D01*
X01569Y01188D01*
X01573Y01192D01*
Y01196D01*
X01569D01*
X01565Y01192D01*
X01561Y01196D01*
X01557D01*
Y01192D01*
X01561Y01188D01*
X01557Y01184D01*
Y0118D01*
X01493Y01271D02*
X01497D01*
X01501Y01275D01*
X01505Y01271D01*
X01509D01*
Y01275D01*
X01505Y01279D01*
X01509Y01283D01*
Y01287D01*
X01505D01*
X01501Y01283D01*
X01497Y01287D01*
X01493D01*
Y01283D01*
X01497Y01279D01*
X01493Y01275D01*
Y01271D01*
X01815Y0099D02*
X01819D01*
X01823Y00994D01*
X01827Y0099D01*
X01831D01*
Y00994D01*
X01827Y00998D01*
X01831Y01002D01*
Y01006D01*
X01827D01*
X01823Y01002D01*
X01819Y01006D01*
X01815D01*
Y01002D01*
X01819Y00998D01*
X01815Y00994D01*
Y0099D01*
X02412Y0147D02*
X02416D01*
X0242Y01474D01*
X02424Y0147D01*
X02428D01*
Y01474D01*
X02424Y01478D01*
X02428Y01482D01*
Y01486D01*
X02424D01*
X0242Y01482D01*
X02416Y01486D01*
X02412D01*
Y01482D01*
X02416Y01478D01*
X02412Y01474D01*
Y0147D01*
X0149Y01334D02*
X01494D01*
X01498Y01338D01*
X01502Y01334D01*
X01506D01*
Y01338D01*
X01502Y01342D01*
X01506Y01346D01*
Y0135D01*
X01502D01*
X01498Y01346D01*
X01494Y0135D01*
X0149D01*
Y01346D01*
X01494Y01342D01*
X0149Y01338D01*
Y01334D01*
X01462Y01355D02*
X01466D01*
X0147Y01359D01*
X01474Y01355D01*
X01478D01*
Y01359D01*
X01474Y01363D01*
X01478Y01367D01*
Y01371D01*
X01474D01*
X0147Y01367D01*
X01466Y01371D01*
X01462D01*
Y01367D01*
X01466Y01363D01*
X01462Y01359D01*
Y01355D01*
Y01387D02*
X01466D01*
X0147Y01391D01*
X01474Y01387D01*
X01478D01*
Y01391D01*
X01474Y01395D01*
X01478Y01399D01*
Y01403D01*
X01474D01*
X0147Y01399D01*
X01466Y01403D01*
X01462D01*
Y01399D01*
X01466Y01395D01*
X01462Y01391D01*
Y01387D01*
X01486Y01878D02*
X0149D01*
X01494Y01882D01*
X01498Y01878D01*
X01502D01*
Y01882D01*
X01498Y01886D01*
X01502Y0189D01*
Y01894D01*
X01498D01*
X01494Y0189D01*
X0149Y01894D01*
X01486D01*
Y0189D01*
X0149Y01886D01*
X01486Y01882D01*
Y01878D01*
X02761Y02377D02*
X02765D01*
X02769Y02381D01*
X02773Y02377D01*
X02777D01*
Y02381D01*
X02773Y02385D01*
X02777Y02389D01*
Y02393D01*
X02773D01*
X02769Y02389D01*
X02765Y02393D01*
X02761D01*
Y02389D01*
X02765Y02385D01*
X02761Y02381D01*
Y02377D01*
X0279Y02014D02*
X02794D01*
X02798Y02018D01*
X02802Y02014D01*
X02806D01*
Y02018D01*
X02802Y02022D01*
X02806Y02026D01*
Y0203D01*
X02802D01*
X02798Y02026D01*
X02794Y0203D01*
X0279D01*
Y02026D01*
X02794Y02022D01*
X0279Y02018D01*
Y02014D01*
X02848Y01597D02*
X02852D01*
X02856Y01601D01*
X0286Y01597D01*
X02864D01*
Y01601D01*
X0286Y01605D01*
X02864Y01609D01*
Y01613D01*
X0286D01*
X02856Y01609D01*
X02852Y01613D01*
X02848D01*
Y01609D01*
X02852Y01605D01*
X02848Y01601D01*
Y01597D01*
X02727Y02371D02*
X02731D01*
X02735Y02375D01*
X02739Y02371D01*
X02743D01*
Y02375D01*
X02739Y02379D01*
X02743Y02383D01*
Y02387D01*
X02739D01*
X02735Y02383D01*
X02731Y02387D01*
X02727D01*
Y02383D01*
X02731Y02379D01*
X02727Y02375D01*
Y02371D01*
X0279Y0208D02*
X02794D01*
X02798Y02084D01*
X02802Y0208D01*
X02806D01*
Y02084D01*
X02802Y02088D01*
X02806Y02092D01*
Y02096D01*
X02802D01*
X02798Y02092D01*
X02794Y02096D01*
X0279D01*
Y02092D01*
X02794Y02088D01*
X0279Y02084D01*
Y0208D01*
X02672Y02435D02*
X02676D01*
X0268Y02439D01*
X02684Y02435D01*
X02688D01*
Y02439D01*
X02684Y02443D01*
X02688Y02447D01*
Y02451D01*
X02684D01*
X0268Y02447D01*
X02676Y02451D01*
X02672D01*
Y02447D01*
X02676Y02443D01*
X02672Y02439D01*
Y02435D01*
X02762Y02421D02*
X02766D01*
X0277Y02425D01*
X02774Y02421D01*
X02778D01*
Y02425D01*
X02774Y02429D01*
X02778Y02433D01*
Y02437D01*
X02774D01*
X0277Y02433D01*
X02766Y02437D01*
X02762D01*
Y02433D01*
X02766Y02429D01*
X02762Y02425D01*
Y02421D01*
X02552Y02078D02*
X02556D01*
X0256Y02082D01*
X02564Y02078D01*
X02568D01*
Y02082D01*
X02564Y02086D01*
X02568Y0209D01*
Y02094D01*
X02564D01*
X0256Y0209D01*
X02556Y02094D01*
X02552D01*
Y0209D01*
X02556Y02086D01*
X02552Y02082D01*
Y02078D01*
X02565Y02014D02*
X02569D01*
X02573Y02018D01*
X02577Y02014D01*
X02581D01*
Y02018D01*
X02577Y02022D01*
X02581Y02026D01*
Y0203D01*
X02577D01*
X02573Y02026D01*
X02569Y0203D01*
X02565D01*
Y02026D01*
X02569Y02022D01*
X02565Y02018D01*
Y02014D01*
X02196Y01925D02*
X022D01*
X02204Y01929D01*
X02208Y01925D01*
X02212D01*
Y01929D01*
X02208Y01933D01*
X02212Y01937D01*
Y01941D01*
X02208D01*
X02204Y01937D01*
X022Y01941D01*
X02196D01*
Y01937D01*
X022Y01933D01*
X02196Y01929D01*
Y01925D01*
X01513Y01564D02*
X01517D01*
X01521Y01568D01*
X01525Y01564D01*
X01529D01*
Y01568D01*
X01525Y01572D01*
X01529Y01576D01*
Y0158D01*
X01525D01*
X01521Y01576D01*
X01517Y0158D01*
X01513D01*
Y01576D01*
X01517Y01572D01*
X01513Y01568D01*
Y01564D01*
X01535Y01595D02*
X01539D01*
X01543Y01599D01*
X01547Y01595D01*
X01551D01*
Y01599D01*
X01547Y01603D01*
X01551Y01607D01*
Y01611D01*
X01547D01*
X01543Y01607D01*
X01539Y01611D01*
X01535D01*
Y01607D01*
X01539Y01603D01*
X01535Y01599D01*
Y01595D01*
X03621Y01985D02*
X03625D01*
X03629Y01989D01*
X03633Y01985D01*
X03637D01*
Y01989D01*
X03633Y01993D01*
X03637Y01997D01*
Y02001D01*
X03633D01*
X03629Y01997D01*
X03625Y02001D01*
X03621D01*
Y01997D01*
X03625Y01993D01*
X03621Y01989D01*
Y01985D01*
X03624Y0166D02*
X03628D01*
X03632Y01664D01*
X03636Y0166D01*
X0364D01*
Y01664D01*
X03636Y01668D01*
X0364Y01672D01*
Y01676D01*
X03636D01*
X03632Y01672D01*
X03628Y01676D01*
X03624D01*
Y01672D01*
X03628Y01668D01*
X03624Y01664D01*
Y0166D01*
X0333Y01463D02*
X03334D01*
X03338Y01467D01*
X03342Y01463D01*
X03346D01*
Y01467D01*
X03342Y01471D01*
X03346Y01475D01*
Y01479D01*
X03342D01*
X03338Y01475D01*
X03334Y01479D01*
X0333D01*
Y01475D01*
X03334Y01471D01*
X0333Y01467D01*
Y01463D01*
X03368Y01438D02*
X03372D01*
X03376Y01442D01*
X0338Y01438D01*
X03384D01*
Y01442D01*
X0338Y01446D01*
X03384Y0145D01*
Y01454D01*
X0338D01*
X03376Y0145D01*
X03372Y01454D01*
X03368D01*
Y0145D01*
X03372Y01446D01*
X03368Y01442D01*
Y01438D01*
X03403Y01426D02*
X03407D01*
X03411Y0143D01*
X03415Y01426D01*
X03419D01*
Y0143D01*
X03415Y01434D01*
X03419Y01438D01*
Y01442D01*
X03415D01*
X03411Y01438D01*
X03407Y01442D01*
X03403D01*
Y01438D01*
X03407Y01434D01*
X03403Y0143D01*
Y01426D01*
X021299Y019239D02*
X021339D01*
X021379Y019279D01*
X021419Y019239D01*
X021459D01*
Y019279D01*
X021419Y019319D01*
X021459Y019359D01*
Y019399D01*
X021419D01*
X021379Y019359D01*
X021339Y019399D01*
X021299D01*
Y019359D01*
X021339Y019319D01*
X021299Y019279D01*
Y019239D01*
X03119Y01918D02*
X03123D01*
X03127Y01922D01*
X03131Y01918D01*
X03135D01*
Y01922D01*
X03131Y01926D01*
X03135Y0193D01*
Y01934D01*
X03131D01*
X03127Y0193D01*
X03123Y01934D01*
X03119D01*
Y0193D01*
X03123Y01926D01*
X03119Y01922D01*
Y01918D01*
X00797Y01962D02*
X00801D01*
X00805Y01966D01*
X00809Y01962D01*
X00813D01*
Y01966D01*
X00809Y0197D01*
X00813Y01974D01*
Y01978D01*
X00809D01*
X00805Y01974D01*
X00801Y01978D01*
X00797D01*
Y01974D01*
X00801Y0197D01*
X00797Y01966D01*
Y01962D01*
X002735Y017485D02*
X002775D01*
X002815Y017525D01*
X002855Y017485D01*
X002895D01*
Y017525D01*
X002855Y017565D01*
X002895Y017605D01*
Y017645D01*
X002855D01*
X002815Y017605D01*
X002775Y017645D01*
X002735D01*
Y017605D01*
X002775Y017565D01*
X002735Y017525D01*
Y017485D01*
X00194Y01629D02*
X00198D01*
X00202Y01633D01*
X00206Y01629D01*
X0021D01*
Y01633D01*
X00206Y01637D01*
X0021Y01641D01*
Y01645D01*
X00206D01*
X00202Y01641D01*
X00198Y01645D01*
X00194D01*
Y01641D01*
X00198Y01637D01*
X00194Y01633D01*
Y01629D01*
X01251Y00998D02*
X01255D01*
X01259Y01002D01*
X01263Y00998D01*
X01267D01*
Y01002D01*
X01263Y01006D01*
X01267Y0101D01*
Y01014D01*
X01263D01*
X01259Y0101D01*
X01255Y01014D01*
X01251D01*
Y0101D01*
X01255Y01006D01*
X01251Y01002D01*
Y00998D01*
X03291Y017699D02*
X03295D01*
X03299Y017739D01*
X03303Y017699D01*
X03307D01*
Y017739D01*
X03303Y017779D01*
X03307Y017819D01*
Y017859D01*
X03303D01*
X03299Y017819D01*
X03295Y017859D01*
X03291D01*
Y017819D01*
X03295Y017779D01*
X03291Y017739D01*
Y017699D01*
X021548Y012898D02*
X021588D01*
X021628Y012938D01*
X021668Y012898D01*
X021708D01*
Y012938D01*
X021668Y012978D01*
X021708Y013018D01*
Y013058D01*
X021668D01*
X021628Y013018D01*
X021588Y013058D01*
X021548D01*
Y013018D01*
X021588Y012978D01*
X021548Y012938D01*
Y012898D01*
X02081Y003584D02*
X02085D01*
X02089Y003624D01*
X02093Y003584D01*
X02097D01*
Y003624D01*
X02093Y003664D01*
X02097Y003704D01*
Y003744D01*
X02093D01*
X02089Y003704D01*
X02085Y003744D01*
X02081D01*
Y003704D01*
X02085Y003664D01*
X02081Y003624D01*
Y003584D01*
X024054Y006794D02*
X024094D01*
X024134Y006834D01*
X024174Y006794D01*
X024214D01*
Y006834D01*
X024174Y006874D01*
X024214Y006914D01*
Y006954D01*
X024174D01*
X024134Y006914D01*
X024094Y006954D01*
X024054D01*
Y006914D01*
X024094Y006874D01*
X024054Y006834D01*
Y006794D01*
X02439Y01799D02*
X02443D01*
X02447Y01803D01*
X02451Y01799D01*
X02455D01*
Y01803D01*
X02451Y01807D01*
X02455Y01811D01*
Y01815D01*
X02451D01*
X02447Y01811D01*
X02443Y01815D01*
X02439D01*
Y01811D01*
X02443Y01807D01*
X02439Y01803D01*
Y01799D01*
X024086Y008294D02*
X024126D01*
X024166Y008334D01*
X024206Y008294D01*
X024246D01*
Y008334D01*
X024206Y008374D01*
X024246Y008414D01*
Y008454D01*
X024206D01*
X024166Y008414D01*
X024126Y008454D01*
X024086D01*
Y008414D01*
X024126Y008374D01*
X024086Y008334D01*
Y008294D01*
X02107Y021362D02*
X02111D01*
X02115Y021402D01*
X02119Y021362D01*
X02123D01*
Y021402D01*
X02119Y021442D01*
X02123Y021482D01*
Y021522D01*
X02119D01*
X02115Y021482D01*
X02111Y021522D01*
X02107D01*
Y021482D01*
X02111Y021442D01*
X02107Y021402D01*
Y021362D01*
X01152Y006846D02*
X01156D01*
X0116Y006886D01*
X01164Y006846D01*
X01168D01*
Y006886D01*
X01164Y006926D01*
X01168Y006966D01*
Y007006D01*
X01164D01*
X0116Y006966D01*
X01156Y007006D01*
X01152D01*
Y006966D01*
X01156Y006926D01*
X01152Y006886D01*
Y006846D01*
X010108Y00364D02*
X010148D01*
X010188Y00368D01*
X010228Y00364D01*
X010268D01*
Y00368D01*
X010228Y00372D01*
X010268Y00376D01*
Y0038D01*
X010228D01*
X010188Y00376D01*
X010148Y0038D01*
X010108D01*
Y00376D01*
X010148Y00372D01*
X010108Y00368D01*
Y00364D01*
X03026Y01597D02*
X0303D01*
X03034Y01601D01*
X03038Y01597D01*
X03042D01*
Y01601D01*
X03038Y01605D01*
X03042Y01609D01*
Y01613D01*
X03038D01*
X03034Y01609D01*
X0303Y01613D01*
X03026D01*
Y01609D01*
X0303Y01605D01*
X03026Y01601D01*
Y01597D01*
X03016Y005145D02*
X0302D01*
X03024Y005185D01*
X03028Y005145D01*
X03032D01*
Y005185D01*
X03028Y005225D01*
X03032Y005265D01*
Y005305D01*
X03028D01*
X03024Y005265D01*
X0302Y005305D01*
X03016D01*
Y005265D01*
X0302Y005225D01*
X03016Y005185D01*
Y005145D01*
X028442Y00357D02*
X028482D01*
X028522Y00361D01*
X028562Y00357D01*
X028602D01*
Y00361D01*
X028562Y00365D01*
X028602Y00369D01*
Y00373D01*
X028562D01*
X028522Y00369D01*
X028482Y00373D01*
X028442D01*
Y00369D01*
X028482Y00365D01*
X028442Y00361D01*
Y00357D01*
X0123Y00645D02*
X01234D01*
X01238Y00649D01*
X01242Y00645D01*
X01246D01*
Y00649D01*
X01242Y00653D01*
X01246Y00657D01*
Y00661D01*
X01242D01*
X01238Y00657D01*
X01234Y00661D01*
X0123D01*
Y00657D01*
X01234Y00653D01*
X0123Y00649D01*
Y00645D01*
X01228Y017854D02*
X01232D01*
X01236Y017894D01*
X0124Y017854D01*
X01244D01*
Y017894D01*
X0124Y017934D01*
X01244Y017974D01*
Y018014D01*
X0124D01*
X01236Y017974D01*
X01232Y018014D01*
X01228D01*
Y017974D01*
X01232Y017934D01*
X01228Y017894D01*
Y017854D01*
X03465Y02045D02*
X03469D01*
X03473Y02049D01*
X03477Y02045D01*
X03481D01*
Y02049D01*
X03477Y02053D01*
X03481Y02057D01*
Y02061D01*
X03477D01*
X03473Y02057D01*
X03469Y02061D01*
X03465D01*
Y02057D01*
X03469Y02053D01*
X03465Y02049D01*
Y02045D01*
X03317Y02105D02*
X03321D01*
X03325Y02109D01*
X03329Y02105D01*
X03333D01*
Y02109D01*
X03329Y02113D01*
X03333Y02117D01*
Y02121D01*
X03329D01*
X03325Y02117D01*
X03321Y02121D01*
X03317D01*
Y02117D01*
X03321Y02113D01*
X03317Y02109D01*
Y02105D01*
X01072Y0082D02*
X01076D01*
X0108Y00824D01*
X01084Y0082D01*
X01088D01*
Y00824D01*
X01084Y00828D01*
X01088Y00832D01*
Y00836D01*
X01084D01*
X0108Y00832D01*
X01076Y00836D01*
X01072D01*
Y00832D01*
X01076Y00828D01*
X01072Y00824D01*
Y0082D01*
X015475Y02044D02*
X015555Y02052D01*
X015635Y02044D01*
X015555Y02036D01*
X015475Y02044D01*
X018469Y020442D02*
X018549Y020522D01*
X018629Y020442D01*
X018549Y020362D01*
X018469Y020442D01*
X00811Y00792D02*
Y00808D01*
X00827D01*
Y00792D01*
X00811D01*
X00815Y00796D02*
Y00804D01*
X00823D01*
Y00796D01*
X00815D01*
X01226Y01258D02*
Y01274D01*
X01242D01*
Y01258D01*
X01226D01*
X0123Y01262D02*
Y0127D01*
X01238D01*
Y01262D01*
X0123D01*
X00828Y01714D02*
Y0173D01*
X00844D01*
Y01714D01*
X00828D01*
X00832Y01718D02*
Y01726D01*
X0084D01*
Y01718D01*
X00832D01*
D131*
X02264Y02148D02*
G03*
X02264Y02148I-00008J0D01*
G01*
X02364D02*
G03*
X02364Y02148I-00008J0D01*
G01*
X00209Y00314D02*
G03*
X00209Y00314I-00008J0D01*
G01*
X03752Y02277D02*
G03*
X03752Y02277I-00008J0D01*
G01*
X00205Y02282D02*
G03*
X00205Y02282I-00008J0D01*
G01*
X03752Y00311D02*
G03*
X03752Y00311I-00008J0D01*
G01*
D132*
X00205Y00314D02*
G03*
X00205Y00314I-00004J0D01*
G01*
X03748Y02277D02*
G03*
X03748Y02277I-00004J0D01*
G01*
X00201Y02282D02*
G03*
X00201Y02282I-00004J0D01*
G01*
X03748Y00311D02*
G03*
X03748Y00311I-00004J0D01*
G01*
M02*
