G04*
G04 #@! TF.GenerationSoftware,Altium Limited,Altium Designer,20.2.6 (244)*
G04*
G04 Layer_Color=32768*
%FSTAX24Y24*%
%MOIN*%
G70*
G04*
G04 #@! TF.SameCoordinates,20AB1978-7CCD-4664-BF1E-2587ED644C09*
G04*
G04*
G04 #@! TF.FilePolarity,Positive*
G04*
G01*
G75*
%ADD10C,0.0079*%
%ADD12C,0.0100*%
%ADD125C,0.0039*%
%ADD127C,0.0059*%
%ADD129C,0.0020*%
%ADD130C,0.0062*%
D10*
X004865Y02079D02*
X006495D01*
X004865Y01851D02*
Y02079D01*
Y01851D02*
X006495D01*
Y02079D01*
D12*
X030055Y000354D02*
Y009779D01*
X022989Y000354D02*
X030055D01*
X022989D02*
Y009779D01*
X030055D01*
D125*
X018925Y024414D02*
X019122D01*
X019024Y024316D02*
Y024512D01*
X026522Y004967D02*
Y005167D01*
X026422Y005067D02*
X026622D01*
X00494Y014116D02*
Y01451D01*
X004743Y014313D02*
X005137D01*
D127*
X009359Y018279D02*
Y020641D01*
X011721D01*
Y018279D02*
Y020641D01*
X009359Y018279D02*
X011721D01*
D129*
X019595Y023804D02*
Y025024D01*
X018453Y023804D02*
X019595D01*
X018453Y025024D02*
X019595D01*
X018453Y023804D02*
Y025024D01*
X011748Y007615D02*
X019032D01*
Y000725D02*
Y007615D01*
X011748Y000725D02*
X019032D01*
X011748D02*
Y007615D01*
X003857Y012856D02*
X006023D01*
X003857Y01577D02*
X006023D01*
X003857Y012856D02*
Y01577D01*
X006023Y012856D02*
Y01577D01*
D130*
X006619Y012003D02*
X008981D01*
X006619Y013577D02*
X008981D01*
X006619Y012003D02*
Y013577D01*
X008981Y012003D02*
Y013577D01*
X001553Y012419D02*
Y014781D01*
X003127Y012419D02*
Y014781D01*
X001553D02*
X003127D01*
X001553Y012419D02*
X003127D01*
M02*
