M48
;Layer_Color=9474304
;FILE_FORMAT=2:4
INCH,LZ
;TYPE=PLATED
T1F00S00C0.0100
T2F00S00C0.0315
T3F00S00C0.0394
T4F00S00C0.0472
T5F00S00C0.0500
T6F00S00C0.0531
T7F00S00C0.0787
T8F00S00C0.0984
T9F00S00C0.1050
T10F00S00C0.1181
%
T01
X0015Y0015
X003
X00375Y003
X0045Y0045
X00375Y006
X00225
X0015Y0045
X00153Y01226
X00225Y015
X00375
X006Y0135
X00675Y012
X00932Y01181
X00975Y012
X01125
X0105Y0135
X00975Y015
X0135Y0135
X0147Y01363
Y01395
X01498Y01342
X01501Y01279
X01355Y01118
X01259Y01006
X01322Y00832
X0108Y00828
X0116Y006926
X01238Y00653
X010188Y00372
X00975Y003
X01425
X01725
X0165Y0015
X0195
X02025Y003
X02089Y003664
X02175Y006
X0225Y0075
X02175Y009
X02117Y0112
X01938Y01119
X01843Y01073
X0179Y01088
X01823Y00998
X018Y0075
X01565Y01188
X019553Y013407
X02103Y01436
X021628Y012978
X0242Y01478
X02775Y012
X02888Y01033
X0286Y00916
X0285Y0075
X027
X02625Y006
X02475
X024134Y006874
X024166Y008374
X0255Y0045
X027
X02775Y003
X028522Y00365
X02925Y003
X03075
X03Y0015
X0285
X027
X0255
X024
X02625Y003
X03024Y005225
X03075Y006
Y012
X03Y0135
X0315
X03225Y015
X03338Y01471
X03376Y01446
X03411Y01434
X0345Y0135
X036
X0375
X03825Y015
X03675
X03825Y012
X0375Y0105
X03825Y009
Y006
X03675
X03525
X03375
X03225
X033Y0045
X0345
X036
X0375
Y0015
X036
X0315
Y0045
Y0075
X03225Y009
X03525
X03632Y01668
X0375Y0165
X03825Y018
Y021
X03675
X03629Y01993
X03473Y02053
X03325Y02113
X03225Y021
X03127Y01926
X03225Y018
X03299Y017779
X03675Y024
X03825
X02925
X02769Y02385
X02735Y02379
X0277Y02429
X0268Y02443
X02798Y02088
Y02022
X02925Y021
X03124Y02002
X03034Y01605
X02856
X024258Y016272
X0236Y01599
X02447Y01807
X02573Y02022
X0256Y02086
X0225Y0225
X021
X02115Y021442
X021379Y019319
X02204Y01933
X0165Y0195
Y0225
X015
X0135
X01425Y024
X01275
Y021
X01125
X00975
Y024
X00825
X00675
X00375
X002815Y017565
X00202Y01637
X0105Y0165
X012
X01236Y017934
X01125Y018
X00975
X00805Y0197
X012Y0195
X0135
X01494Y01886
X0149Y01691
X01417Y01731
X01543Y01603
X01521Y01572
T02
X02256Y02148
X02356
T03
X00451Y00202
X00551
X00794
X00894
X00227Y0069
Y0079
X0119Y01468
X0129
X0139
X0281Y01319
X02226Y00113
X02126
X02026
X01741Y02473
X01641
X01541
X01441
X00469Y02416
Y02316
Y02216
T04
X00213Y01788
Y01988
T05
X018549Y020442
X015555Y02044
T06
X02563Y02242
X02878
T07
X03377Y00808
X03677
T08
X00819Y008
X01234Y01266
X00836Y01722
T09
X00201Y00314
X03744Y00311
Y02277
X00197Y02282
T10
X01142Y02318
M30
