G04*
G04 #@! TF.GenerationSoftware,Altium Limited,Altium Designer,20.2.6 (244)*
G04*
G04 Layer_Color=255*
%FSTAX24Y24*%
%MOIN*%
G70*
G04*
G04 #@! TF.SameCoordinates,20AB1978-7CCD-4664-BF1E-2587ED644C09*
G04*
G04*
G04 #@! TF.FilePolarity,Positive*
G04*
G01*
G75*
%ADD22R,0.0394X0.0787*%
%ADD23R,0.0197X0.0591*%
%ADD24R,0.0394X0.0591*%
%ADD25R,0.0551X0.0472*%
%ADD26R,0.0350X0.0750*%
%ADD28R,0.1102X0.0433*%
%ADD29R,0.1024X0.0433*%
%ADD30R,0.0984X0.0984*%
%ADD31R,0.0550X0.0500*%
%ADD32R,0.0886X0.0394*%
%ADD33R,0.0472X0.0551*%
%ADD34R,0.1063X0.0630*%
%ADD35R,0.0630X0.1063*%
%ADD36O,0.0236X0.0571*%
%ADD37R,0.0394X0.0787*%
%ADD38R,0.0750X0.0350*%
G04:AMPARAMS|DCode=39|XSize=287.4mil|YSize=157.5mil|CornerRadius=0mil|HoleSize=0mil|Usage=FLASHONLY|Rotation=180.000|XOffset=0mil|YOffset=0mil|HoleType=Round|Shape=Octagon|*
%AMOCTAGOND39*
4,1,8,-0.1437,0.0394,-0.1437,-0.0394,-0.1043,-0.0787,0.1043,-0.0787,0.1437,-0.0394,0.1437,0.0394,0.1043,0.0787,-0.1043,0.0787,-0.1437,0.0394,0.0*
%
%ADD39OCTAGOND39*%

%ADD40R,0.0900X0.0640*%
%ADD41R,0.0709X0.0531*%
%ADD42R,0.0858X0.0675*%
%ADD80R,0.0276X0.0236*%
%ADD84C,0.0531*%
%ADD85O,0.0551X0.0669*%
%ADD86R,0.0630X0.0630*%
%ADD87R,0.0787X0.1181*%
%ADD88O,0.0787X0.1181*%
%ADD89O,0.1500X0.2400*%
%ADD90R,0.1500X0.2400*%
%ADD91O,0.0630X0.0787*%
%ADD92R,0.0630X0.0787*%
%ADD93C,0.0787*%
%ADD94C,0.1102*%
%ADD95R,0.1000X0.0800*%
%ADD96O,0.1000X0.0800*%
%ADD97C,0.1732*%
%ADD98R,0.0787X0.0787*%
D22*
X03004Y022341D02*
D03*
X023662D02*
D03*
D23*
X029016Y017914D02*
D03*
X028583D02*
D03*
X027717D02*
D03*
X027284D02*
D03*
X026851D02*
D03*
X026418D02*
D03*
X025985D02*
D03*
X029449D02*
D03*
X02815D02*
D03*
D24*
X023898Y018404D02*
D03*
X03004D02*
D03*
D25*
X030741Y016416D02*
D03*
Y015668D02*
D03*
X026299Y016412D02*
D03*
Y015664D02*
D03*
X027188Y016412D02*
D03*
Y015664D02*
D03*
X028077Y016412D02*
D03*
Y015664D02*
D03*
X028966Y016412D02*
D03*
Y015664D02*
D03*
X025411Y016412D02*
D03*
Y015664D02*
D03*
X007023Y006406D02*
D03*
Y005658D02*
D03*
X006134D02*
D03*
Y006406D02*
D03*
X035674Y012346D02*
D03*
Y011598D02*
D03*
X031784Y019258D02*
D03*
Y020006D02*
D03*
X02032Y0241D02*
D03*
Y024848D02*
D03*
X012614Y019588D02*
D03*
X006786Y016454D02*
D03*
X00725Y01411D02*
D03*
X033216Y020522D02*
D03*
Y019774D02*
D03*
X034166Y020502D02*
D03*
Y019754D02*
D03*
X034774Y011588D02*
D03*
Y012336D02*
D03*
X029855Y016412D02*
D03*
Y015664D02*
D03*
X00725Y014858D02*
D03*
X00814D02*
D03*
Y01411D02*
D03*
X006786Y017202D02*
D03*
X004696D02*
D03*
Y016454D02*
D03*
X00589Y0172D02*
D03*
Y016452D02*
D03*
X012614Y020336D02*
D03*
D26*
X02119Y006752D02*
D03*
Y009508D02*
D03*
D28*
X012398Y006926D02*
D03*
D29*
X012358Y006138D02*
D03*
Y005351D02*
D03*
Y004564D02*
D03*
Y003776D02*
D03*
Y002989D02*
D03*
Y002201D02*
D03*
Y001414D02*
D03*
X018421D02*
D03*
Y002201D02*
D03*
Y002989D02*
D03*
Y003776D02*
D03*
Y004564D02*
D03*
Y005351D02*
D03*
Y006138D02*
D03*
Y006926D02*
D03*
D30*
X020526Y02044D02*
D03*
X013754D02*
D03*
D31*
X00702Y00487D02*
D03*
Y00397D02*
D03*
X03565Y01081D02*
D03*
Y00991D02*
D03*
X00618Y00396D02*
D03*
Y00486D02*
D03*
X03481Y00993D02*
D03*
Y01083D02*
D03*
D32*
X029524Y009162D02*
D03*
Y008374D02*
D03*
Y007587D02*
D03*
Y0068D02*
D03*
Y006012D02*
D03*
Y005225D02*
D03*
Y004437D02*
D03*
Y00365D02*
D03*
X02352D02*
D03*
Y004437D02*
D03*
Y005225D02*
D03*
Y006012D02*
D03*
Y0068D02*
D03*
Y007587D02*
D03*
Y008374D02*
D03*
Y009162D02*
D03*
D33*
X021314Y004553D02*
D03*
X022062D02*
D03*
X021304Y003664D02*
D03*
X022052D02*
D03*
X010936Y005359D02*
D03*
X010188D02*
D03*
X002332Y01595D02*
D03*
X010188Y006237D02*
D03*
X031506Y00864D02*
D03*
X031496Y009519D02*
D03*
X024966Y011908D02*
D03*
X024218D02*
D03*
X024222Y01106D02*
D03*
X02497D02*
D03*
X030748Y009519D02*
D03*
X030758Y00864D02*
D03*
X010936Y006237D02*
D03*
X00308Y01595D02*
D03*
X00506Y01231D02*
D03*
X004312D02*
D03*
D34*
X00234Y014151D02*
D03*
Y013049D02*
D03*
D35*
X007249Y01279D02*
D03*
X008351D02*
D03*
D36*
X00569Y01324D02*
D03*
X00419D02*
D03*
X00469D02*
D03*
X00519D02*
D03*
X00419Y015386D02*
D03*
X00469D02*
D03*
X00519D02*
D03*
X00569D02*
D03*
D37*
X01054Y018673D02*
D03*
Y020208D02*
D03*
D38*
X026938Y013178D02*
D03*
X024182D02*
D03*
D39*
X00537Y00808D02*
D03*
Y01058D02*
D03*
D40*
X00748Y01892D02*
D03*
Y02046D02*
D03*
D41*
X00871Y020399D02*
D03*
Y019081D02*
D03*
D42*
X00568Y018887D02*
D03*
Y020413D02*
D03*
D80*
X019417Y024414D02*
D03*
X01863Y024788D02*
D03*
Y02404D02*
D03*
D84*
X02563Y02242D02*
D03*
X02878D02*
D03*
D85*
X02256Y02148D02*
D03*
X02356D02*
D03*
D86*
X0281Y01319D02*
D03*
X01441Y02473D02*
D03*
D87*
X00451Y00202D02*
D03*
X00794D02*
D03*
D88*
X00551D02*
D03*
X00894D02*
D03*
D89*
X03677Y00808D02*
D03*
D90*
X03377D02*
D03*
D91*
X01541Y02473D02*
D03*
X01641D02*
D03*
X01741D02*
D03*
X0139Y01468D02*
D03*
X0129D02*
D03*
X02226Y00113D02*
D03*
X02126D02*
D03*
D92*
X02026D02*
D03*
X0119Y01468D02*
D03*
D93*
X00227Y0069D02*
D03*
D94*
X00213Y01788D02*
D03*
Y01988D02*
D03*
D95*
X00469Y02416D02*
D03*
D96*
Y02216D02*
D03*
Y02316D02*
D03*
D97*
X01142Y02318D02*
D03*
D98*
X00227Y0079D02*
D03*
M02*
