G04*
G04 #@! TF.GenerationSoftware,Altium Limited,Altium Designer,20.2.6 (244)*
G04*
G04 Layer_Color=8388736*
%FSTAX24Y24*%
%MOIN*%
G70*
G04*
G04 #@! TF.SameCoordinates,20AB1978-7CCD-4664-BF1E-2587ED644C09*
G04*
G04*
G04 #@! TF.FilePolarity,Negative*
G04*
G01*
G75*
%ADD42R,0.0858X0.0675*%
%ADD43R,0.0474X0.0867*%
%ADD44R,0.0277X0.0671*%
%ADD45R,0.0474X0.0671*%
%ADD46R,0.0631X0.0552*%
%ADD47R,0.0430X0.0830*%
%ADD48R,0.0356X0.0316*%
%ADD49R,0.1182X0.0513*%
%ADD50R,0.1104X0.0513*%
%ADD51R,0.1064X0.1064*%
%ADD52R,0.0630X0.0580*%
%ADD53R,0.0966X0.0474*%
%ADD54R,0.0552X0.0631*%
%ADD55R,0.1143X0.0710*%
%ADD56R,0.0710X0.1143*%
%ADD57O,0.0316X0.0651*%
%ADD58R,0.0474X0.0867*%
%ADD59R,0.0830X0.0430*%
G04:AMPARAMS|DCode=60|XSize=295.4mil|YSize=165.5mil|CornerRadius=0mil|HoleSize=0mil|Usage=FLASHONLY|Rotation=180.000|XOffset=0mil|YOffset=0mil|HoleType=Round|Shape=Octagon|*
%AMOCTAGOND60*
4,1,8,-0.1477,0.0414,-0.1477,-0.0414,-0.1063,-0.0827,0.1063,-0.0827,0.1477,-0.0414,0.1477,0.0414,0.1063,0.0827,-0.1063,0.0827,-0.1477,0.0414,0.0*
%
%ADD60OCTAGOND60*%

%ADD61R,0.0980X0.0720*%
%ADD62R,0.0789X0.0611*%
%ADD63C,0.0611*%
%ADD64O,0.0631X0.0749*%
%ADD65R,0.0710X0.0710*%
%ADD66R,0.0867X0.1261*%
%ADD67O,0.0867X0.1261*%
%ADD68O,0.1580X0.2480*%
%ADD69R,0.1580X0.2480*%
%ADD70O,0.0710X0.0867*%
%ADD71R,0.0710X0.0867*%
%ADD72C,0.0867*%
%ADD73C,0.1182*%
%ADD74R,0.1080X0.0880*%
%ADD75O,0.1080X0.0880*%
%ADD76C,0.1812*%
%ADD77R,0.0867X0.0867*%
%ADD78C,0.1852*%
%ADD79C,0.2049*%
D42*
X00568Y018887D02*
D03*
Y020413D02*
D03*
D43*
X03004Y022341D02*
D03*
X023662D02*
D03*
D44*
X029016Y017914D02*
D03*
X028583D02*
D03*
X027717D02*
D03*
X027284D02*
D03*
X026851D02*
D03*
X026418D02*
D03*
X025985D02*
D03*
X029449D02*
D03*
X02815D02*
D03*
D45*
X023898Y018404D02*
D03*
X03004D02*
D03*
D46*
X030741Y016416D02*
D03*
Y015668D02*
D03*
X026299Y016412D02*
D03*
Y015664D02*
D03*
X027188Y016412D02*
D03*
Y015664D02*
D03*
X028077Y016412D02*
D03*
Y015664D02*
D03*
X028966Y016412D02*
D03*
Y015664D02*
D03*
X025411Y016412D02*
D03*
Y015664D02*
D03*
X007023Y006406D02*
D03*
Y005658D02*
D03*
X006134D02*
D03*
Y006406D02*
D03*
X035674Y012346D02*
D03*
Y011598D02*
D03*
X031784Y019258D02*
D03*
Y020006D02*
D03*
X02032Y0241D02*
D03*
Y024848D02*
D03*
X012614Y019588D02*
D03*
X006786Y016454D02*
D03*
X00725Y01411D02*
D03*
X033216Y020522D02*
D03*
Y019774D02*
D03*
X034166Y020502D02*
D03*
Y019754D02*
D03*
X034774Y011588D02*
D03*
Y012336D02*
D03*
X029855Y016412D02*
D03*
Y015664D02*
D03*
X00725Y014858D02*
D03*
X00814D02*
D03*
Y01411D02*
D03*
X006786Y017202D02*
D03*
X004696D02*
D03*
Y016454D02*
D03*
X00589Y0172D02*
D03*
Y016452D02*
D03*
X012614Y020336D02*
D03*
D47*
X02119Y006752D02*
D03*
Y009508D02*
D03*
D48*
X019417Y024414D02*
D03*
X01863Y024788D02*
D03*
Y02404D02*
D03*
D49*
X012398Y006926D02*
D03*
D50*
X012358Y006138D02*
D03*
Y005351D02*
D03*
Y004564D02*
D03*
Y003776D02*
D03*
Y002989D02*
D03*
Y002201D02*
D03*
Y001414D02*
D03*
X018421D02*
D03*
Y002201D02*
D03*
Y002989D02*
D03*
Y003776D02*
D03*
Y004564D02*
D03*
Y005351D02*
D03*
Y006138D02*
D03*
Y006926D02*
D03*
D51*
X020526Y02044D02*
D03*
X013754D02*
D03*
D52*
X00702Y00487D02*
D03*
Y00397D02*
D03*
X03565Y01081D02*
D03*
Y00991D02*
D03*
X00618Y00396D02*
D03*
Y00486D02*
D03*
X03481Y00993D02*
D03*
Y01083D02*
D03*
D53*
X029524Y009162D02*
D03*
Y008374D02*
D03*
Y007587D02*
D03*
Y0068D02*
D03*
Y006012D02*
D03*
Y005225D02*
D03*
Y004437D02*
D03*
Y00365D02*
D03*
X02352D02*
D03*
Y004437D02*
D03*
Y005225D02*
D03*
Y006012D02*
D03*
Y0068D02*
D03*
Y007587D02*
D03*
Y008374D02*
D03*
Y009162D02*
D03*
D54*
X021314Y004553D02*
D03*
X022062D02*
D03*
X021304Y003664D02*
D03*
X022052D02*
D03*
X010936Y005359D02*
D03*
X010188D02*
D03*
X002332Y01595D02*
D03*
X010188Y006237D02*
D03*
X031506Y00864D02*
D03*
X031496Y009519D02*
D03*
X024966Y011908D02*
D03*
X024218D02*
D03*
X024222Y01106D02*
D03*
X02497D02*
D03*
X030748Y009519D02*
D03*
X030758Y00864D02*
D03*
X010936Y006237D02*
D03*
X00308Y01595D02*
D03*
X00506Y01231D02*
D03*
X004312D02*
D03*
D55*
X00234Y014151D02*
D03*
Y013049D02*
D03*
D56*
X007249Y01279D02*
D03*
X008351D02*
D03*
D57*
X00569Y01324D02*
D03*
X00419D02*
D03*
X00469D02*
D03*
X00519D02*
D03*
X00419Y015386D02*
D03*
X00469D02*
D03*
X00519D02*
D03*
X00569D02*
D03*
D58*
X01054Y018673D02*
D03*
Y020208D02*
D03*
D59*
X026938Y013178D02*
D03*
X024182D02*
D03*
D60*
X00537Y00808D02*
D03*
Y01058D02*
D03*
D61*
X00748Y01892D02*
D03*
Y02046D02*
D03*
D62*
X00871Y020399D02*
D03*
Y019081D02*
D03*
D63*
X02563Y02242D02*
D03*
X02878D02*
D03*
D64*
X02256Y02148D02*
D03*
X02356D02*
D03*
D65*
X0281Y01319D02*
D03*
X01441Y02473D02*
D03*
D66*
X00451Y00202D02*
D03*
X00794D02*
D03*
D67*
X00551D02*
D03*
X00894D02*
D03*
D68*
X03677Y00808D02*
D03*
D69*
X03377D02*
D03*
D70*
X01541Y02473D02*
D03*
X01641D02*
D03*
X01741D02*
D03*
X0139Y01468D02*
D03*
X0129D02*
D03*
X02226Y00113D02*
D03*
X02126D02*
D03*
D71*
X02026D02*
D03*
X0119Y01468D02*
D03*
D72*
X00227Y0069D02*
D03*
D73*
X00213Y01788D02*
D03*
Y01988D02*
D03*
D74*
X00469Y02416D02*
D03*
D75*
Y02216D02*
D03*
Y02316D02*
D03*
D76*
X01142Y02318D02*
D03*
D77*
X00227Y0079D02*
D03*
D78*
X00819Y008D02*
D03*
X01234Y01266D02*
D03*
X00836Y01722D02*
D03*
D79*
X00201Y00314D02*
D03*
X03744Y02277D02*
D03*
X00197Y02282D02*
D03*
X03744Y00311D02*
D03*
M02*
