G04*
G04 #@! TF.GenerationSoftware,Altium Limited,Altium Designer,18.1.6 (161)*
G04*
G04 Layer_Color=128*
%FSTAX24Y24*%
%MOIN*%
G70*
G01*
G75*
%ADD16R,0.0295X0.0315*%
%ADD18R,0.0315X0.0295*%
%ADD19R,0.0374X0.0394*%
%ADD42O,0.0098X0.0610*%
%ADD43O,0.0610X0.0098*%
%ADD44R,0.0394X0.0965*%
%ADD45R,0.0965X0.0394*%
%ADD46R,0.0492X0.0787*%
%ADD47R,0.0354X0.0374*%
%ADD48R,0.0630X0.1260*%
%ADD49R,0.0591X0.0354*%
%ADD50R,0.0472X0.0551*%
D16*
X006358Y004488D02*
D03*
Y003898D02*
D03*
X009055Y005856D02*
D03*
Y005266D02*
D03*
X005679Y010797D02*
D03*
Y011388D02*
D03*
X004911D02*
D03*
Y010797D02*
D03*
X007854Y010807D02*
D03*
Y011398D02*
D03*
D18*
X015925Y007156D02*
D03*
X016516D02*
D03*
X015925Y007884D02*
D03*
X016516D02*
D03*
X013642Y003868D02*
D03*
X013051D02*
D03*
X005049Y009646D02*
D03*
X00564D02*
D03*
D19*
X004242Y00874D02*
D03*
Y00815D02*
D03*
X006989Y004498D02*
D03*
Y003907D02*
D03*
X007615Y004498D02*
D03*
Y003907D02*
D03*
X008242Y004498D02*
D03*
Y003907D02*
D03*
X008917Y004498D02*
D03*
Y003907D02*
D03*
X004508Y00561D02*
D03*
Y006201D02*
D03*
X008514Y010965D02*
D03*
Y010374D02*
D03*
D42*
X005768Y008819D02*
D03*
X005965D02*
D03*
X006161D02*
D03*
X006358D02*
D03*
X006555D02*
D03*
X006752D02*
D03*
X006949D02*
D03*
X007146D02*
D03*
X007343D02*
D03*
X007539D02*
D03*
X007736D02*
D03*
X007933D02*
D03*
Y00565D02*
D03*
X007736D02*
D03*
X007539D02*
D03*
X007343D02*
D03*
X007146D02*
D03*
X006949D02*
D03*
X006752D02*
D03*
X006555D02*
D03*
X006358D02*
D03*
X006161D02*
D03*
X005965D02*
D03*
X005768D02*
D03*
D43*
X008435Y008317D02*
D03*
Y00812D02*
D03*
Y007923D02*
D03*
Y007726D02*
D03*
Y00753D02*
D03*
Y007333D02*
D03*
Y007136D02*
D03*
Y006939D02*
D03*
Y006742D02*
D03*
Y006545D02*
D03*
Y006348D02*
D03*
Y006152D02*
D03*
X005266D02*
D03*
Y006348D02*
D03*
Y006545D02*
D03*
Y006742D02*
D03*
Y006939D02*
D03*
Y007136D02*
D03*
Y007333D02*
D03*
Y00753D02*
D03*
Y007726D02*
D03*
Y007923D02*
D03*
Y00812D02*
D03*
Y008317D02*
D03*
D44*
X014449Y005846D02*
D03*
X013898D02*
D03*
X013346D02*
D03*
X012795D02*
D03*
X012244D02*
D03*
X011693D02*
D03*
X011142D02*
D03*
X010591D02*
D03*
D45*
X010041Y010608D02*
D03*
Y010057D02*
D03*
Y009506D02*
D03*
Y008955D02*
D03*
Y008404D02*
D03*
Y007852D02*
D03*
Y007301D02*
D03*
Y00675D02*
D03*
X014998D02*
D03*
Y007301D02*
D03*
Y007852D02*
D03*
Y008404D02*
D03*
Y008955D02*
D03*
Y009506D02*
D03*
Y010057D02*
D03*
Y010608D02*
D03*
D46*
X014134Y004636D02*
D03*
X012657D02*
D03*
D47*
X012894Y003228D02*
D03*
X013268Y002244D02*
D03*
X013642Y003228D02*
D03*
D48*
X012067Y002894D02*
D03*
X008917D02*
D03*
D49*
X007726Y003182D02*
D03*
Y002625D02*
D03*
X006506Y003182D02*
D03*
Y002624D02*
D03*
D50*
X007106Y011565D02*
D03*
X006437D02*
D03*
Y010699D02*
D03*
X007106D02*
D03*
M02*
