G04*
G04 #@! TF.GenerationSoftware,Altium Limited,Altium Designer,18.1.6 (161)*
G04*
G04 Layer_Color=16711935*
%FSTAX24Y24*%
%MOIN*%
G70*
G01*
G75*
%ADD11C,0.0079*%
G36*
X016346Y007085D02*
X016353Y007085D01*
X01636Y007084D01*
X016366Y007082D01*
X016372Y007081D01*
X016377Y007079D01*
X016382Y007077D01*
X016387Y007075D01*
X016391Y007073D01*
X016395Y007071D01*
X016398Y007069D01*
X016401Y007068D01*
X016402Y007066D01*
X016404Y007065D01*
X016405Y007065D01*
X016405Y007064D01*
X01641Y00706D01*
X016415Y007056D01*
X016419Y00705D01*
X016423Y007045D01*
X016429Y007035D01*
X016435Y007025D01*
X016437Y00702D01*
X016438Y007016D01*
X01644Y007012D01*
X016441Y007009D01*
X016442Y007006D01*
X016443Y007004D01*
X016443Y007002D01*
Y007002D01*
X01641Y006993D01*
X016408Y006999D01*
X016406Y007005D01*
X016405Y00701D01*
X016403Y007014D01*
X016401Y007019D01*
X016398Y007022D01*
X016396Y007026D01*
X016394Y007029D01*
X016392Y007032D01*
X01639Y007034D01*
X016388Y007037D01*
X016386Y007038D01*
X016385Y00704D01*
X016384Y007041D01*
X016384Y007041D01*
X016383Y007041D01*
X01638Y007044D01*
X016376Y007046D01*
X016368Y00705D01*
X01636Y007053D01*
X016352Y007055D01*
X016346Y007057D01*
X016343Y007057D01*
X016341D01*
X016338Y007057D01*
X016336D01*
X016327Y007057D01*
X016319Y007056D01*
X016312Y007054D01*
X016306Y007052D01*
X016301Y007049D01*
X016298Y007048D01*
X016297Y007048D01*
X016295Y007047D01*
X016294Y007046D01*
X016293Y007046D01*
X016293D01*
X016286Y007041D01*
X01628Y007035D01*
X016275Y007029D01*
X016271Y007023D01*
X016268Y007018D01*
X016266Y007014D01*
X016265Y007012D01*
X016264Y007011D01*
X016264Y00701D01*
Y00701D01*
X016261Y007D01*
X016259Y006991D01*
X016257Y006981D01*
X016256Y006973D01*
X016255Y006969D01*
X016255Y006965D01*
Y006962D01*
X016255Y006959D01*
Y006957D01*
Y006955D01*
Y006954D01*
Y006954D01*
X016255Y006944D01*
X016256Y006935D01*
X016257Y006927D01*
X016259Y00692D01*
X01626Y006914D01*
X016261Y006911D01*
X016261Y006909D01*
X016262Y006907D01*
X016262Y006906D01*
X016262Y006906D01*
Y006905D01*
X016266Y006897D01*
X01627Y006889D01*
X016274Y006883D01*
X016279Y006878D01*
X016283Y006873D01*
X016286Y00687D01*
X016289Y006868D01*
X016289Y006868D01*
X01629D01*
X016297Y006863D01*
X016306Y006859D01*
X016314Y006857D01*
X016321Y006855D01*
X016328Y006854D01*
X016331Y006854D01*
X016334D01*
X016335Y006854D01*
X016338D01*
X016348Y006854D01*
X016356Y006855D01*
X016363Y006858D01*
X016369Y00686D01*
X016374Y006862D01*
X016377Y006864D01*
X01638Y006866D01*
X01638Y006866D01*
X016386Y006872D01*
X016392Y006878D01*
X016396Y006884D01*
X0164Y006891D01*
X016402Y006897D01*
X016404Y0069D01*
X016404Y006902D01*
X016405Y006904D01*
X016406Y006905D01*
X016406Y006906D01*
Y006906D01*
X016439Y006899D01*
X016437Y006892D01*
X016435Y006886D01*
X016432Y006881D01*
X016429Y006875D01*
X016426Y006871D01*
X016423Y006866D01*
X01642Y006862D01*
X016417Y006858D01*
X016414Y006855D01*
X016412Y006852D01*
X016409Y00685D01*
X016407Y006848D01*
X016405Y006846D01*
X016404Y006845D01*
X016403Y006845D01*
X016403Y006844D01*
X016398Y006841D01*
X016393Y006838D01*
X016388Y006835D01*
X016382Y006833D01*
X016371Y00683D01*
X016361Y006828D01*
X016357Y006827D01*
X016353Y006826D01*
X016349Y006826D01*
X016345Y006826D01*
X016343Y006825D01*
X016339D01*
X016327Y006826D01*
X016315Y006828D01*
X016305Y00683D01*
X016301Y006831D01*
X016296Y006833D01*
X016292Y006834D01*
X016289Y006836D01*
X016286Y006837D01*
X016283Y006838D01*
X016281Y006839D01*
X016279Y00684D01*
X016278Y00684D01*
X016278Y00684D01*
X016268Y006847D01*
X01626Y006854D01*
X016252Y006861D01*
X016246Y006868D01*
X016242Y006875D01*
X01624Y006878D01*
X016238Y00688D01*
X016237Y006882D01*
X016236Y006884D01*
X016236Y006885D01*
X016235Y006885D01*
X01623Y006896D01*
X016227Y006908D01*
X016224Y00692D01*
X016222Y00693D01*
X016222Y006935D01*
X016221Y00694D01*
X016221Y006943D01*
Y006947D01*
X01622Y00695D01*
Y006952D01*
Y006953D01*
Y006954D01*
X016221Y006967D01*
X016223Y006979D01*
X016224Y006991D01*
X016226Y006996D01*
X016227Y007001D01*
X016228Y007005D01*
X01623Y007009D01*
X016231Y007013D01*
X016231Y007016D01*
X016232Y007018D01*
X016233Y00702D01*
X016234Y007021D01*
Y007021D01*
X016239Y007032D01*
X016245Y007042D01*
X016252Y00705D01*
X016255Y007054D01*
X016258Y007057D01*
X016261Y00706D01*
X016264Y007062D01*
X016266Y007065D01*
X016269Y007066D01*
X01627Y007068D01*
X016271Y007069D01*
X016272Y007069D01*
X016273Y007069D01*
X016278Y007072D01*
X016283Y007075D01*
X016294Y007079D01*
X016305Y007082D01*
X016315Y007084D01*
X01632Y007084D01*
X016325Y007085D01*
X016329Y007085D01*
X016332D01*
X016335Y007086D01*
X016339D01*
X016346Y007085D01*
D02*
G37*
G36*
X016557Y007085D02*
X016566Y007084D01*
X016575Y007081D01*
X016582Y007078D01*
X016584Y007077D01*
X016587Y007076D01*
X01659Y007074D01*
X016592Y007073D01*
X016593Y007072D01*
X016594Y007072D01*
X016595Y007071D01*
X016595D01*
X016603Y007065D01*
X016609Y007058D01*
X016614Y00705D01*
X016619Y007044D01*
X016622Y007037D01*
X016624Y007034D01*
X016625Y007032D01*
X016626Y00703D01*
X016626Y007029D01*
X016627Y007028D01*
Y007028D01*
X016629Y007022D01*
X01663Y007016D01*
X016633Y007004D01*
X016635Y00699D01*
X016636Y006978D01*
X016637Y006973D01*
X016637Y006967D01*
Y006962D01*
X016637Y006958D01*
Y006955D01*
Y006953D01*
Y006951D01*
Y00695D01*
Y006942D01*
X016637Y006934D01*
X016636Y006927D01*
X016635Y00692D01*
X016635Y006914D01*
X016634Y006908D01*
X016633Y006902D01*
X016632Y006898D01*
X016631Y006894D01*
X01663Y00689D01*
X016629Y006887D01*
X016628Y006884D01*
X016627Y006882D01*
X016627Y006881D01*
X016626Y00688D01*
Y00688D01*
X016622Y006871D01*
X016617Y006863D01*
X016612Y006857D01*
X016607Y006851D01*
X016602Y006847D01*
X016599Y006844D01*
X016597Y006843D01*
X016596Y006843D01*
X016596Y006842D01*
X016595D01*
X016588Y006838D01*
X01658Y006834D01*
X016572Y006832D01*
X016566Y00683D01*
X016559Y006829D01*
X016557Y006829D01*
X016555D01*
X016553Y006828D01*
X016551D01*
X016544Y006829D01*
X016539Y00683D01*
X016533Y006831D01*
X016528Y006832D01*
X016518Y006836D01*
X016513Y006838D01*
X01651Y00684D01*
X016506Y006843D01*
X016503Y006844D01*
X0165Y006847D01*
X016498Y006848D01*
X016496Y00685D01*
X016495Y006851D01*
X016495Y006852D01*
X016494Y006852D01*
X01649Y006856D01*
X016487Y006862D01*
X016484Y006866D01*
X016481Y006871D01*
X016479Y006877D01*
X016477Y006882D01*
X016475Y006891D01*
X016473Y006896D01*
X016473Y0069D01*
X016472Y006904D01*
X016472Y006907D01*
X016472Y00691D01*
Y006912D01*
Y006913D01*
Y006914D01*
X016472Y006921D01*
X016473Y006927D01*
X016473Y006933D01*
X016475Y006939D01*
X016477Y006944D01*
X016479Y006949D01*
X01648Y006953D01*
X016483Y006957D01*
X016484Y006961D01*
X016486Y006964D01*
X016488Y006967D01*
X01649Y006969D01*
X016491Y006971D01*
X016492Y006972D01*
X016493Y006973D01*
X016493Y006973D01*
X016497Y006977D01*
X016501Y006981D01*
X016506Y006984D01*
X016511Y006986D01*
X016515Y006989D01*
X016519Y00699D01*
X016528Y006993D01*
X016531Y006994D01*
X016535Y006995D01*
X016538Y006995D01*
X016541Y006995D01*
X016543Y006996D01*
X016546D01*
X016553Y006995D01*
X016559Y006994D01*
X016565Y006993D01*
X016571Y006991D01*
X016575Y00699D01*
X016578Y006988D01*
X01658Y006987D01*
X016581Y006987D01*
X016587Y006983D01*
X016592Y006979D01*
X016596Y006975D01*
X0166Y006971D01*
X016602Y006968D01*
X016604Y006965D01*
X016606Y006963D01*
X016606Y006963D01*
Y006966D01*
Y006967D01*
Y006969D01*
Y006969D01*
X016606Y006976D01*
X016606Y006983D01*
X016605Y006989D01*
X016604Y006995D01*
X016603Y007D01*
X016602Y007004D01*
X016602Y007005D01*
Y007006D01*
X016602Y007006D01*
Y007007D01*
X0166Y007013D01*
X016598Y007019D01*
X016596Y007024D01*
X016594Y007029D01*
X016593Y007032D01*
X016591Y007034D01*
X016591Y007036D01*
X01659Y007037D01*
X016587Y007041D01*
X016584Y007044D01*
X016582Y007047D01*
X016579Y007049D01*
X016576Y007052D01*
X016574Y007053D01*
X016573Y007054D01*
X016572Y007054D01*
X016568Y007056D01*
X016564Y007058D01*
X01656Y007059D01*
X016556Y00706D01*
X016553Y00706D01*
X01655Y00706D01*
X016548D01*
X016542Y00706D01*
X016536Y007059D01*
X016532Y007057D01*
X016528Y007056D01*
X016525Y007054D01*
X016522Y007053D01*
X016521Y007052D01*
X01652Y007051D01*
X016517Y007047D01*
X016514Y007042D01*
X016511Y007037D01*
X016509Y007032D01*
X016508Y007028D01*
X016507Y007024D01*
X016507Y007022D01*
Y007022D01*
X016506Y007021D01*
Y007021D01*
X016476Y007023D01*
X016479Y007034D01*
X016481Y007043D01*
X016485Y007051D01*
X016489Y007057D01*
X016492Y007062D01*
X016494Y007065D01*
X016496Y007066D01*
X016497Y007068D01*
X016498Y007069D01*
X016498Y007069D01*
X016499Y007069D01*
X016502Y007072D01*
X016506Y007075D01*
X016514Y007079D01*
X016522Y007082D01*
X01653Y007084D01*
X016537Y007085D01*
X01654Y007085D01*
X016542D01*
X016544Y007086D01*
X016547D01*
X016557Y007085D01*
D02*
G37*
G36*
X016346Y007814D02*
X016353Y007813D01*
X01636Y007812D01*
X016366Y007811D01*
X016372Y007809D01*
X016377Y007807D01*
X016382Y007805D01*
X016387Y007803D01*
X016391Y007801D01*
X016395Y0078D01*
X016398Y007798D01*
X016401Y007796D01*
X016402Y007794D01*
X016404Y007794D01*
X016405Y007793D01*
X016405Y007793D01*
X01641Y007788D01*
X016415Y007784D01*
X016419Y007779D01*
X016423Y007774D01*
X016429Y007764D01*
X016435Y007753D01*
X016437Y007749D01*
X016438Y007744D01*
X01644Y00774D01*
X016441Y007737D01*
X016442Y007734D01*
X016443Y007732D01*
X016443Y00773D01*
Y00773D01*
X01641Y007722D01*
X016408Y007727D01*
X016406Y007733D01*
X016405Y007738D01*
X016403Y007743D01*
X016401Y007747D01*
X016398Y007751D01*
X016396Y007754D01*
X016394Y007758D01*
X016392Y007761D01*
X01639Y007763D01*
X016388Y007765D01*
X016386Y007767D01*
X016385Y007768D01*
X016384Y007769D01*
X016384Y007769D01*
X016383Y00777D01*
X01638Y007773D01*
X016376Y007775D01*
X016368Y007779D01*
X01636Y007782D01*
X016352Y007784D01*
X016346Y007785D01*
X016343Y007785D01*
X016341D01*
X016338Y007786D01*
X016336D01*
X016327Y007785D01*
X016319Y007784D01*
X016312Y007782D01*
X016306Y00778D01*
X016301Y007778D01*
X016298Y007777D01*
X016297Y007776D01*
X016295Y007775D01*
X016294Y007774D01*
X016293Y007774D01*
X016293D01*
X016286Y007769D01*
X01628Y007764D01*
X016275Y007757D01*
X016271Y007752D01*
X016268Y007746D01*
X016266Y007742D01*
X016265Y00774D01*
X016264Y007739D01*
X016264Y007738D01*
Y007738D01*
X016261Y007729D01*
X016259Y007719D01*
X016257Y00771D01*
X016256Y007701D01*
X016255Y007697D01*
X016255Y007693D01*
Y00769D01*
X016255Y007687D01*
Y007685D01*
Y007683D01*
Y007682D01*
Y007682D01*
X016255Y007673D01*
X016256Y007664D01*
X016257Y007656D01*
X016259Y007649D01*
X01626Y007642D01*
X016261Y00764D01*
X016261Y007638D01*
X016262Y007636D01*
X016262Y007635D01*
X016262Y007634D01*
Y007634D01*
X016266Y007625D01*
X01627Y007618D01*
X016274Y007611D01*
X016279Y007606D01*
X016283Y007602D01*
X016286Y007599D01*
X016289Y007597D01*
X016289Y007596D01*
X01629D01*
X016297Y007591D01*
X016306Y007588D01*
X016314Y007585D01*
X016321Y007584D01*
X016328Y007583D01*
X016331Y007582D01*
X016334D01*
X016335Y007582D01*
X016338D01*
X016348Y007582D01*
X016356Y007584D01*
X016363Y007586D01*
X016369Y007588D01*
X016374Y007591D01*
X016377Y007592D01*
X01638Y007594D01*
X01638Y007595D01*
X016386Y0076D01*
X016392Y007606D01*
X016396Y007613D01*
X0164Y007619D01*
X016402Y007625D01*
X016404Y007628D01*
X016404Y00763D01*
X016405Y007632D01*
X016406Y007634D01*
X016406Y007634D01*
Y007635D01*
X016439Y007627D01*
X016437Y00762D01*
X016435Y007615D01*
X016432Y007609D01*
X016429Y007604D01*
X016426Y007599D01*
X016423Y007595D01*
X01642Y00759D01*
X016417Y007587D01*
X016414Y007584D01*
X016412Y007581D01*
X016409Y007578D01*
X016407Y007576D01*
X016405Y007575D01*
X016404Y007574D01*
X016403Y007573D01*
X016403Y007573D01*
X016398Y00757D01*
X016393Y007566D01*
X016388Y007564D01*
X016382Y007562D01*
X016371Y007558D01*
X016361Y007556D01*
X016357Y007555D01*
X016353Y007555D01*
X016349Y007554D01*
X016345Y007554D01*
X016343Y007553D01*
X016339D01*
X016327Y007554D01*
X016315Y007556D01*
X016305Y007558D01*
X016301Y00756D01*
X016296Y007561D01*
X016292Y007563D01*
X016289Y007564D01*
X016286Y007565D01*
X016283Y007566D01*
X016281Y007567D01*
X016279Y007568D01*
X016278Y007568D01*
X016278Y007569D01*
X016268Y007575D01*
X01626Y007582D01*
X016252Y00759D01*
X016246Y007597D01*
X016242Y007603D01*
X01624Y007606D01*
X016238Y007609D01*
X016237Y007611D01*
X016236Y007612D01*
X016236Y007613D01*
X016235Y007614D01*
X01623Y007625D01*
X016227Y007636D01*
X016224Y007648D01*
X016222Y007659D01*
X016222Y007663D01*
X016221Y007668D01*
X016221Y007672D01*
Y007675D01*
X01622Y007678D01*
Y00768D01*
Y007682D01*
Y007682D01*
X016221Y007695D01*
X016223Y007708D01*
X016224Y007719D01*
X016226Y007725D01*
X016227Y007729D01*
X016228Y007734D01*
X01623Y007738D01*
X016231Y007741D01*
X016231Y007744D01*
X016232Y007746D01*
X016233Y007748D01*
X016234Y007749D01*
Y00775D01*
X016239Y007761D01*
X016245Y00777D01*
X016252Y007779D01*
X016255Y007782D01*
X016258Y007785D01*
X016261Y007788D01*
X016264Y007791D01*
X016266Y007793D01*
X016269Y007794D01*
X01627Y007796D01*
X016271Y007797D01*
X016272Y007797D01*
X016273Y007798D01*
X016278Y007801D01*
X016283Y007803D01*
X016294Y007807D01*
X016305Y00781D01*
X016315Y007812D01*
X01632Y007813D01*
X016325Y007813D01*
X016329Y007814D01*
X016332D01*
X016335Y007814D01*
X016339D01*
X016346Y007814D01*
D02*
G37*
G36*
X016588Y007557D02*
X016568D01*
X016564Y007563D01*
X01656Y007569D01*
X016556Y007575D01*
X016551Y00758D01*
X016547Y007584D01*
X016544Y007588D01*
X016542Y007589D01*
X016541Y00759D01*
X016541Y00759D01*
X01654Y007591D01*
X016533Y007597D01*
X016525Y007603D01*
X016518Y007608D01*
X016511Y007612D01*
X016504Y007615D01*
X016502Y007617D01*
X0165Y007618D01*
X016498Y007619D01*
X016496Y007619D01*
X016496Y00762D01*
X016495D01*
Y00765D01*
X016501Y007648D01*
X016506Y007645D01*
X016512Y007643D01*
X016517Y00764D01*
X016521Y007638D01*
X016525Y007636D01*
X016527Y007635D01*
X016527Y007634D01*
X016528D01*
X016534Y00763D01*
X01654Y007626D01*
X016545Y007623D01*
X016549Y007619D01*
X016553Y007617D01*
X016555Y007615D01*
X016557Y007613D01*
X016557Y007613D01*
Y00781D01*
X016588D01*
Y007557D01*
D02*
G37*
G36*
X01676Y007813D02*
X016769Y007812D01*
X016776Y007809D01*
X016783Y007807D01*
X016788Y007804D01*
X01679Y007803D01*
X016792Y007802D01*
X016793Y007801D01*
X016795Y0078D01*
X016795Y0078D01*
X016795D01*
X016802Y007793D01*
X016807Y007787D01*
X016812Y00778D01*
X016816Y007773D01*
X016819Y007767D01*
X01682Y007764D01*
X016821Y007762D01*
X016821Y00776D01*
X016822Y007758D01*
X016823Y007758D01*
Y007757D01*
X016824Y007752D01*
X016826Y007746D01*
X016828Y007735D01*
X01683Y007723D01*
X016831Y007711D01*
X016831Y007706D01*
X016832Y007701D01*
Y007697D01*
X016832Y007693D01*
Y00769D01*
Y007687D01*
Y007686D01*
Y007686D01*
Y007679D01*
X016832Y007672D01*
Y007666D01*
X016831Y007661D01*
X016831Y007655D01*
X01683Y00765D01*
X01683Y007646D01*
X016829Y007642D01*
X016829Y007638D01*
X016828Y007635D01*
X016828Y007632D01*
X016827Y00763D01*
X016827Y007628D01*
X016827Y007627D01*
X016826Y007627D01*
Y007626D01*
X016824Y007618D01*
X016821Y007611D01*
X016819Y007605D01*
X016816Y007599D01*
X016814Y007595D01*
X016812Y007591D01*
X016811Y00759D01*
X016811Y007589D01*
X016807Y007583D01*
X016803Y007579D01*
X016798Y007575D01*
X016794Y007571D01*
X01679Y007568D01*
X016788Y007567D01*
X016786Y007566D01*
X016785Y007565D01*
X016785D01*
X016779Y007562D01*
X016773Y00756D01*
X016767Y007559D01*
X016762Y007558D01*
X016757Y007557D01*
X016753Y007557D01*
X01675D01*
X01674Y007558D01*
X016731Y007559D01*
X016723Y007562D01*
X016717Y007564D01*
X016711Y007567D01*
X016709Y007568D01*
X016707Y00757D01*
X016706Y00757D01*
X016705Y007571D01*
X016704Y007572D01*
X016704D01*
X016697Y007578D01*
X016692Y007584D01*
X016687Y007591D01*
X016683Y007598D01*
X016681Y007604D01*
X016679Y007607D01*
X016678Y007609D01*
X016678Y007611D01*
X016677Y007612D01*
X016677Y007613D01*
Y007614D01*
X016675Y007619D01*
X016674Y007624D01*
X016671Y007636D01*
X01667Y007649D01*
X016669Y00766D01*
X016668Y007665D01*
X016668Y00767D01*
Y007674D01*
X016667Y007678D01*
Y007681D01*
Y007684D01*
Y007685D01*
Y007686D01*
X016668Y007698D01*
X016669Y00771D01*
X01667Y007721D01*
X016671Y007731D01*
X016673Y007741D01*
X016675Y007749D01*
X016678Y007757D01*
X01668Y007764D01*
X016682Y007769D01*
X016685Y007774D01*
X016686Y007779D01*
X016688Y007782D01*
X01669Y007785D01*
X016691Y007787D01*
X016692Y007788D01*
X016692Y007788D01*
X016696Y007793D01*
X016701Y007797D01*
X016705Y0078D01*
X01671Y007803D01*
X016715Y007806D01*
X01672Y007808D01*
X016724Y007809D01*
X016729Y007811D01*
X016733Y007812D01*
X016737Y007813D01*
X016741Y007813D01*
X016744Y007814D01*
X016746Y007814D01*
X01675D01*
X01676Y007813D01*
D02*
G37*
G36*
X013472Y003798D02*
X013479Y003797D01*
X013485Y003797D01*
X013492Y003795D01*
X013498Y003793D01*
X013503Y003791D01*
X013508Y00379D01*
X013513Y003787D01*
X013517Y003786D01*
X013521Y003784D01*
X013524Y003782D01*
X013527Y00378D01*
X013528Y003779D01*
X01353Y003778D01*
X013531Y003777D01*
X013531Y003777D01*
X013536Y003773D01*
X013541Y003768D01*
X013545Y003763D01*
X013549Y003758D01*
X013555Y003748D01*
X01356Y003738D01*
X013563Y003733D01*
X013564Y003728D01*
X013566Y003724D01*
X013567Y003721D01*
X013568Y003718D01*
X013569Y003716D01*
X013569Y003715D01*
Y003714D01*
X013536Y003706D01*
X013534Y003712D01*
X013532Y003717D01*
X013531Y003722D01*
X013529Y003727D01*
X013527Y003731D01*
X013524Y003735D01*
X013522Y003739D01*
X01352Y003742D01*
X013518Y003745D01*
X013516Y003747D01*
X013514Y003749D01*
X013512Y003751D01*
X013511Y003752D01*
X01351Y003753D01*
X01351Y003754D01*
X013509Y003754D01*
X013506Y003757D01*
X013502Y003759D01*
X013494Y003763D01*
X013486Y003766D01*
X013478Y003768D01*
X013472Y003769D01*
X013469Y00377D01*
X013467D01*
X013464Y00377D01*
X013462D01*
X013453Y00377D01*
X013445Y003768D01*
X013438Y003766D01*
X013432Y003764D01*
X013427Y003762D01*
X013424Y003761D01*
X013423Y00376D01*
X013421Y003759D01*
X01342Y003759D01*
X013419Y003758D01*
X013419D01*
X013412Y003753D01*
X013406Y003748D01*
X013401Y003742D01*
X013397Y003736D01*
X013394Y003731D01*
X013392Y003726D01*
X013391Y003724D01*
X01339Y003723D01*
X01339Y003723D01*
Y003722D01*
X013387Y003713D01*
X013385Y003703D01*
X013383Y003694D01*
X013382Y003685D01*
X013381Y003681D01*
X013381Y003678D01*
Y003674D01*
X013381Y003672D01*
Y00367D01*
Y003668D01*
Y003667D01*
Y003666D01*
X013381Y003657D01*
X013382Y003648D01*
X013383Y00364D01*
X013385Y003633D01*
X013386Y003627D01*
X013386Y003624D01*
X013387Y003622D01*
X013388Y00362D01*
X013388Y003619D01*
X013388Y003618D01*
Y003618D01*
X013392Y003609D01*
X013396Y003602D01*
X0134Y003596D01*
X013405Y00359D01*
X013409Y003586D01*
X013412Y003583D01*
X013415Y003581D01*
X013415Y00358D01*
X013416D01*
X013423Y003576D01*
X013432Y003572D01*
X01344Y003569D01*
X013447Y003568D01*
X013454Y003567D01*
X013457Y003566D01*
X01346D01*
X013461Y003566D01*
X013464D01*
X013473Y003566D01*
X013482Y003568D01*
X013489Y00357D01*
X013495Y003572D01*
X0135Y003575D01*
X013503Y003577D01*
X013506Y003578D01*
X013506Y003579D01*
X013512Y003584D01*
X013518Y003591D01*
X013522Y003597D01*
X013526Y003604D01*
X013528Y003609D01*
X01353Y003612D01*
X01353Y003615D01*
X013531Y003616D01*
X013532Y003618D01*
X013532Y003619D01*
Y003619D01*
X013565Y003611D01*
X013563Y003605D01*
X01356Y003599D01*
X013558Y003593D01*
X013555Y003588D01*
X013552Y003583D01*
X013549Y003579D01*
X013546Y003575D01*
X013543Y003571D01*
X01354Y003568D01*
X013538Y003565D01*
X013535Y003562D01*
X013533Y003561D01*
X013531Y003559D01*
X01353Y003558D01*
X013529Y003557D01*
X013529Y003557D01*
X013524Y003554D01*
X013519Y00355D01*
X013514Y003548D01*
X013508Y003546D01*
X013497Y003542D01*
X013487Y00354D01*
X013483Y003539D01*
X013479Y003539D01*
X013475Y003538D01*
X013471Y003538D01*
X013469Y003538D01*
X013465D01*
X013453Y003538D01*
X013441Y00354D01*
X013431Y003542D01*
X013427Y003544D01*
X013422Y003545D01*
X013418Y003547D01*
X013415Y003548D01*
X013412Y003549D01*
X013409Y00355D01*
X013407Y003552D01*
X013405Y003552D01*
X013404Y003553D01*
X013404Y003553D01*
X013394Y003559D01*
X013386Y003566D01*
X013378Y003574D01*
X013372Y003581D01*
X013368Y003588D01*
X013366Y003591D01*
X013364Y003593D01*
X013363Y003595D01*
X013362Y003596D01*
X013362Y003597D01*
X013361Y003598D01*
X013356Y003609D01*
X013353Y003621D01*
X01335Y003632D01*
X013348Y003643D01*
X013348Y003648D01*
X013347Y003652D01*
X013347Y003656D01*
Y00366D01*
X013346Y003662D01*
Y003664D01*
Y003666D01*
Y003666D01*
X013347Y003679D01*
X013349Y003692D01*
X01335Y003703D01*
X013352Y003709D01*
X013353Y003714D01*
X013354Y003718D01*
X013356Y003722D01*
X013357Y003726D01*
X013357Y003728D01*
X013358Y003731D01*
X013359Y003732D01*
X01336Y003734D01*
Y003734D01*
X013365Y003745D01*
X013371Y003755D01*
X013378Y003763D01*
X013381Y003766D01*
X013384Y00377D01*
X013387Y003773D01*
X01339Y003775D01*
X013392Y003777D01*
X013395Y003779D01*
X013396Y00378D01*
X013397Y003781D01*
X013398Y003782D01*
X013398Y003782D01*
X013404Y003785D01*
X013409Y003787D01*
X01342Y003791D01*
X013431Y003794D01*
X013441Y003796D01*
X013446Y003797D01*
X013451Y003798D01*
X013455Y003798D01*
X013458D01*
X013461Y003798D01*
X013465D01*
X013472Y003798D01*
D02*
G37*
G36*
X013714Y003541D02*
X013694D01*
X01369Y003547D01*
X013686Y003553D01*
X013682Y003559D01*
X013677Y003564D01*
X013673Y003568D01*
X01367Y003572D01*
X013668Y003573D01*
X013667Y003574D01*
X013667Y003575D01*
X013666Y003575D01*
X013659Y003581D01*
X013651Y003587D01*
X013644Y003592D01*
X013637Y003596D01*
X01363Y0036D01*
X013628Y003601D01*
X013626Y003602D01*
X013624Y003603D01*
X013622Y003604D01*
X013622Y003604D01*
X013621D01*
Y003634D01*
X013627Y003632D01*
X013632Y003629D01*
X013638Y003627D01*
X013643Y003624D01*
X013647Y003622D01*
X013651Y00362D01*
X013653Y003619D01*
X013653Y003619D01*
X013654D01*
X01366Y003615D01*
X013666Y003611D01*
X013671Y003607D01*
X013675Y003604D01*
X013679Y003601D01*
X013681Y003599D01*
X013683Y003597D01*
X013683Y003597D01*
Y003794D01*
X013714D01*
Y003541D01*
D02*
G37*
G36*
X006515Y004609D02*
X006523Y004608D01*
X00653Y004605D01*
X006536Y004603D01*
X006541Y004601D01*
X006544Y004599D01*
X006547Y004597D01*
X006547Y004597D01*
X006553Y004592D01*
X006558Y004586D01*
X006561Y004581D01*
X006564Y004575D01*
X006566Y00457D01*
X006568Y004566D01*
X006568Y004564D01*
X006569Y004563D01*
X006569Y004562D01*
Y004562D01*
X006572Y004568D01*
X006575Y004573D01*
X006579Y004578D01*
X006582Y004581D01*
X006585Y004584D01*
X006588Y004586D01*
X006589Y004587D01*
X00659Y004588D01*
X006595Y004591D01*
X0066Y004593D01*
X006605Y004595D01*
X00661Y004596D01*
X006614Y004597D01*
X006617Y004597D01*
X006619D01*
X00662D01*
X006626Y004597D01*
X006632Y004595D01*
X006638Y004594D01*
X006642Y004592D01*
X006646Y00459D01*
X00665Y004589D01*
X006651Y004588D01*
X006652Y004587D01*
X006658Y004584D01*
X006662Y004579D01*
X006666Y004575D01*
X00667Y004571D01*
X006673Y004567D01*
X006675Y004564D01*
X006676Y004562D01*
X006676Y004561D01*
Y004561D01*
X006679Y004554D01*
X006681Y004548D01*
X006683Y004541D01*
X006684Y004535D01*
X006685Y004531D01*
X006685Y004527D01*
Y004518D01*
X006685Y004512D01*
X006683Y004503D01*
X00668Y004494D01*
X006677Y004487D01*
X006675Y004484D01*
X006674Y004481D01*
X006672Y004479D01*
X006671Y004477D01*
X00667Y004475D01*
X006669Y004474D01*
X006669Y004474D01*
X006668Y004473D01*
X006661Y004466D01*
X006654Y004461D01*
X006646Y004456D01*
X006638Y004453D01*
X006631Y004451D01*
X006628Y00445D01*
X006625Y004449D01*
X006623Y004448D01*
X006622Y004448D01*
X006621Y004448D01*
X00662D01*
X006615Y004479D01*
X006623Y00448D01*
X00663Y004482D01*
X006635Y004485D01*
X00664Y004487D01*
X006644Y00449D01*
X006646Y004492D01*
X006648Y004494D01*
X006649Y004494D01*
X006652Y004499D01*
X006655Y004504D01*
X006657Y004509D01*
X006658Y004513D01*
X006659Y004518D01*
X00666Y004521D01*
Y004524D01*
X00666Y00453D01*
X006658Y004536D01*
X006656Y004541D01*
X006654Y004546D01*
X006652Y004549D01*
X00665Y004551D01*
X006649Y004553D01*
X006649Y004554D01*
X006644Y004558D01*
X006639Y004561D01*
X006635Y004562D01*
X00663Y004564D01*
X006626Y004565D01*
X006623Y004565D01*
X006621D01*
X006621D01*
X006621D01*
X006617D01*
X006613Y004565D01*
X006607Y004563D01*
X006601Y00456D01*
X006597Y004557D01*
X006593Y004554D01*
X006591Y004552D01*
X006589Y00455D01*
X006589Y00455D01*
Y004549D01*
X006586Y004543D01*
X006583Y004537D01*
X006581Y004531D01*
X00658Y004526D01*
X006579Y004521D01*
X006579Y004517D01*
Y004512D01*
X006579Y004511D01*
Y004509D01*
X006552Y004505D01*
X006553Y00451D01*
X006554Y004514D01*
X006554Y004518D01*
X006555Y004521D01*
X006555Y004524D01*
Y004527D01*
X006554Y004535D01*
X006553Y004542D01*
X006551Y004548D01*
X006548Y004553D01*
X006546Y004557D01*
X006543Y00456D01*
X006542Y004562D01*
X006541Y004562D01*
X006536Y004567D01*
X00653Y004571D01*
X006524Y004573D01*
X006518Y004575D01*
X006514Y004576D01*
X00651Y004576D01*
X006508Y004577D01*
X006507D01*
X006506D01*
X006506D01*
X006498Y004576D01*
X006491Y004574D01*
X006484Y004572D01*
X006479Y004569D01*
X006475Y004566D01*
X006471Y004564D01*
X006469Y004562D01*
X006468Y004561D01*
X006463Y004555D01*
X00646Y004549D01*
X006457Y004543D01*
X006455Y004537D01*
X006454Y004532D01*
X006454Y004528D01*
X006453Y004527D01*
Y004525D01*
X006454Y004518D01*
X006455Y004512D01*
X006457Y004506D01*
X006459Y004502D01*
X006461Y004498D01*
X006463Y004495D01*
X006464Y004494D01*
X006465Y004493D01*
X00647Y004489D01*
X006476Y004485D01*
X006482Y004482D01*
X006488Y004479D01*
X006494Y004478D01*
X006496Y004477D01*
X006499Y004476D01*
X0065Y004476D01*
X006502Y004476D01*
X006503Y004475D01*
X006503D01*
X006499Y004444D01*
X006493Y004445D01*
X006488Y004446D01*
X006478Y00445D01*
X006469Y004454D01*
X006465Y004456D01*
X006461Y004458D01*
X006458Y00446D01*
X006456Y004462D01*
X006453Y004464D01*
X006451Y004466D01*
X00645Y004467D01*
X006449Y004468D01*
X006448Y004469D01*
X006448Y004469D01*
X006444Y004474D01*
X006441Y004478D01*
X006439Y004482D01*
X006436Y004487D01*
X006433Y004496D01*
X006431Y004505D01*
X00643Y004509D01*
X006429Y004512D01*
X006429Y004516D01*
X006428Y004519D01*
X006428Y004521D01*
Y004524D01*
X006428Y004531D01*
X006429Y004537D01*
X00643Y004543D01*
X006432Y004549D01*
X006433Y004555D01*
X006435Y004559D01*
X006437Y004564D01*
X00644Y004568D01*
X006441Y004572D01*
X006444Y004575D01*
X006445Y004578D01*
X006447Y004581D01*
X006449Y004582D01*
X00645Y004584D01*
X006451Y004585D01*
X006451Y004585D01*
X006455Y004589D01*
X00646Y004593D01*
X006465Y004596D01*
X00647Y004599D01*
X006474Y004601D01*
X006479Y004604D01*
X006487Y004606D01*
X006491Y004607D01*
X006495Y004608D01*
X006498Y004609D01*
X006501Y004609D01*
X006503Y004609D01*
X006505D01*
X006506D01*
X006507D01*
X006515Y004609D01*
D02*
G37*
G36*
X00652Y004382D02*
X006515Y004381D01*
X006509Y004379D01*
X006504Y004377D01*
X006499Y004375D01*
X006495Y004373D01*
X006491Y004371D01*
X006488Y004368D01*
X006484Y004366D01*
X006482Y004364D01*
X006479Y004362D01*
X006477Y00436D01*
X006475Y004359D01*
X006474Y004357D01*
X006473Y004356D01*
X006473Y004356D01*
X006472Y004356D01*
X00647Y004352D01*
X006467Y004348D01*
X006463Y00434D01*
X00646Y004332D01*
X006459Y004325D01*
X006457Y004318D01*
X006457Y004316D01*
Y004313D01*
X006456Y004311D01*
Y004308D01*
X006457Y0043D01*
X006458Y004292D01*
X00646Y004285D01*
X006462Y004278D01*
X006464Y004273D01*
X006465Y004271D01*
X006466Y004269D01*
X006467Y004268D01*
X006468Y004266D01*
X006468Y004266D01*
Y004265D01*
X006473Y004258D01*
X006479Y004253D01*
X006485Y004248D01*
X006491Y004244D01*
X006496Y00424D01*
X0065Y004238D01*
X006502Y004237D01*
X006503Y004237D01*
X006504Y004236D01*
X006504D01*
X006514Y004233D01*
X006523Y004231D01*
X006532Y004229D01*
X006541Y004228D01*
X006545Y004228D01*
X006549Y004227D01*
X006552D01*
X006555Y004227D01*
X006557D01*
X006559D01*
X00656D01*
X00656D01*
X00657Y004227D01*
X006578Y004228D01*
X006586Y00423D01*
X006594Y004231D01*
X0066Y004232D01*
X006602Y004233D01*
X006605Y004234D01*
X006606Y004234D01*
X006607Y004234D01*
X006608Y004235D01*
X006609D01*
X006617Y004238D01*
X006625Y004242D01*
X006631Y004247D01*
X006636Y004252D01*
X006641Y004256D01*
X006643Y004259D01*
X006645Y004261D01*
X006646Y004262D01*
Y004262D01*
X006651Y00427D01*
X006654Y004278D01*
X006657Y004286D01*
X006658Y004294D01*
X00666Y004301D01*
X00666Y004304D01*
Y004306D01*
X00666Y004308D01*
Y004311D01*
X00666Y00432D01*
X006658Y004328D01*
X006656Y004335D01*
X006654Y004341D01*
X006651Y004346D01*
X00665Y00435D01*
X006648Y004352D01*
X006647Y004353D01*
X006642Y004359D01*
X006636Y004364D01*
X006629Y004368D01*
X006623Y004372D01*
X006617Y004375D01*
X006614Y004376D01*
X006612Y004377D01*
X00661Y004377D01*
X006609Y004378D01*
X006608Y004379D01*
X006607D01*
X006615Y004411D01*
X006622Y004409D01*
X006627Y004407D01*
X006633Y004404D01*
X006638Y004401D01*
X006643Y004399D01*
X006647Y004395D01*
X006652Y004392D01*
X006656Y004389D01*
X006658Y004387D01*
X006661Y004384D01*
X006664Y004381D01*
X006666Y00438D01*
X006668Y004378D01*
X006669Y004376D01*
X006669Y004376D01*
X006669Y004375D01*
X006673Y00437D01*
X006676Y004365D01*
X006678Y00436D01*
X006681Y004355D01*
X006684Y004344D01*
X006686Y004334D01*
X006687Y004329D01*
X006688Y004325D01*
X006688Y004321D01*
X006688Y004318D01*
X006689Y004315D01*
Y004312D01*
X006688Y0043D01*
X006686Y004288D01*
X006684Y004278D01*
X006682Y004273D01*
X006681Y004269D01*
X00668Y004265D01*
X006678Y004261D01*
X006677Y004258D01*
X006676Y004255D01*
X006675Y004253D01*
X006674Y004252D01*
X006674Y004251D01*
X006673Y00425D01*
X006667Y004241D01*
X00666Y004232D01*
X006653Y004225D01*
X006645Y004219D01*
X006639Y004214D01*
X006636Y004212D01*
X006633Y004211D01*
X006631Y004209D01*
X00663Y004209D01*
X006629Y004208D01*
X006629Y004208D01*
X006617Y004203D01*
X006606Y004199D01*
X006594Y004197D01*
X006583Y004195D01*
X006579Y004194D01*
X006574Y004194D01*
X00657Y004193D01*
X006567D01*
X006564Y004193D01*
X006562D01*
X006561D01*
X00656D01*
X006547Y004194D01*
X006534Y004195D01*
X006523Y004197D01*
X006518Y004198D01*
X006513Y004199D01*
X006508Y004201D01*
X006504Y004202D01*
X006501Y004203D01*
X006498Y004204D01*
X006496Y004205D01*
X006494Y004205D01*
X006493Y004206D01*
X006492D01*
X006482Y004211D01*
X006472Y004218D01*
X006463Y004224D01*
X00646Y004227D01*
X006457Y00423D01*
X006454Y004233D01*
X006451Y004236D01*
X006449Y004239D01*
X006448Y004241D01*
X006446Y004242D01*
X006445Y004244D01*
X006445Y004245D01*
X006444Y004245D01*
X006441Y00425D01*
X006439Y004255D01*
X006435Y004266D01*
X006432Y004277D01*
X00643Y004288D01*
X006429Y004293D01*
X006429Y004297D01*
X006428Y004301D01*
Y004304D01*
X006428Y004307D01*
Y004311D01*
X006428Y004318D01*
X006429Y004325D01*
X00643Y004332D01*
X006431Y004338D01*
X006433Y004344D01*
X006435Y004349D01*
X006437Y004355D01*
X006439Y004359D01*
X006441Y004363D01*
X006443Y004367D01*
X006444Y00437D01*
X006446Y004373D01*
X006448Y004375D01*
X006448Y004377D01*
X006449Y004377D01*
X006449Y004378D01*
X006454Y004383D01*
X006458Y004387D01*
X006463Y004391D01*
X006468Y004395D01*
X006479Y004402D01*
X006489Y004407D01*
X006494Y004409D01*
X006498Y004411D01*
X006502Y004412D01*
X006505Y004413D01*
X006508Y004415D01*
X00651Y004415D01*
X006512Y004416D01*
X006512D01*
X00652Y004382D01*
D02*
G37*
G36*
X009159Y005851D02*
X009165Y005855D01*
X009168Y005857D01*
X00917Y005859D01*
X009173Y005861D01*
X009174Y005862D01*
X009175Y005864D01*
X009175Y005864D01*
X009177Y005866D01*
X009179Y005868D01*
X009184Y005873D01*
X009189Y005879D01*
X009195Y005885D01*
X009199Y005891D01*
X009202Y005893D01*
X009204Y005896D01*
X009205Y005897D01*
X009206Y005899D01*
X009207Y0059D01*
X009207Y0059D01*
X009213Y005906D01*
X009217Y005912D01*
X009222Y005917D01*
X009226Y005921D01*
X00923Y005926D01*
X009234Y005929D01*
X009237Y005933D01*
X00924Y005936D01*
X009243Y005939D01*
X009245Y005941D01*
X009247Y005943D01*
X009249Y005945D01*
X009251Y005946D01*
X009252Y005947D01*
X009258Y005952D01*
X009263Y005957D01*
X009269Y00596D01*
X009273Y005963D01*
X009277Y005965D01*
X00928Y005967D01*
X009282Y005968D01*
X009282Y005968D01*
X009288Y00597D01*
X009293Y005972D01*
X009298Y005973D01*
X009303Y005974D01*
X009307Y005974D01*
X00931Y005975D01*
X009312D01*
X009312D01*
X009318Y005974D01*
X009323Y005973D01*
X009328Y005973D01*
X009332Y005971D01*
X009341Y005968D01*
X009348Y005964D01*
X009351Y005962D01*
X009354Y00596D01*
X009356Y005958D01*
X009358Y005956D01*
X00936Y005955D01*
X009361Y005954D01*
X009361Y005953D01*
X009362Y005953D01*
X009365Y005949D01*
X009369Y005945D01*
X009371Y00594D01*
X009373Y005935D01*
X009377Y005926D01*
X00938Y005916D01*
X00938Y005912D01*
X009381Y005908D01*
X009381Y005905D01*
X009382Y005902D01*
X009382Y005899D01*
Y005896D01*
X009382Y005889D01*
X009381Y005883D01*
X00938Y005877D01*
X009379Y005872D01*
X009378Y005866D01*
X009376Y005862D01*
X009375Y005857D01*
X009373Y005853D01*
X009371Y00585D01*
X009369Y005847D01*
X009368Y005844D01*
X009366Y005842D01*
X009365Y00584D01*
X009364Y005839D01*
X009364Y005838D01*
X009363Y005838D01*
X00936Y005834D01*
X009356Y005831D01*
X009351Y005828D01*
X009347Y005825D01*
X009338Y005821D01*
X009329Y005818D01*
X009325Y005817D01*
X009321Y005816D01*
X009318Y005815D01*
X009315Y005814D01*
X009313Y005814D01*
X009311D01*
X00931Y005814D01*
X009309D01*
X009306Y005845D01*
X009315Y005846D01*
X009322Y005847D01*
X009328Y00585D01*
X009333Y005852D01*
X009338Y005854D01*
X009341Y005857D01*
X009343Y005858D01*
X009343Y005859D01*
X009348Y005864D01*
X009351Y00587D01*
X009353Y005876D01*
X009355Y005882D01*
X009356Y005887D01*
X009356Y005891D01*
X009357Y005893D01*
Y005895D01*
X009356Y005902D01*
X009355Y005909D01*
X009353Y005915D01*
X009351Y00592D01*
X009348Y005924D01*
X009346Y005927D01*
X009345Y005929D01*
X009344Y005929D01*
X009339Y005934D01*
X009334Y005937D01*
X009329Y00594D01*
X009324Y005941D01*
X00932Y005942D01*
X009316Y005942D01*
X009314Y005943D01*
X009313D01*
X009313D01*
X009306Y005942D01*
X0093Y005941D01*
X009293Y005938D01*
X009288Y005936D01*
X009283Y005933D01*
X009279Y00593D01*
X009277Y005929D01*
X009276Y005929D01*
X009276Y005928D01*
X009276D01*
X009272Y005925D01*
X009268Y005921D01*
X009263Y005917D01*
X009259Y005913D01*
X00925Y005904D01*
X009241Y005895D01*
X009237Y00589D01*
X009234Y005886D01*
X00923Y005882D01*
X009228Y005879D01*
X009225Y005876D01*
X009223Y005874D01*
X009222Y005873D01*
X009222Y005872D01*
X009214Y005863D01*
X009207Y005855D01*
X009201Y005848D01*
X009195Y005842D01*
X00919Y005838D01*
X009187Y005834D01*
X009185Y005833D01*
X009185Y005832D01*
X009184D01*
X009178Y005827D01*
X009172Y005823D01*
X009166Y005819D01*
X009161Y005816D01*
X009157Y005814D01*
X009154Y005813D01*
X009151Y005812D01*
X009151Y005811D01*
X009151D01*
X009147Y00581D01*
X009143Y005809D01*
X009139Y005809D01*
X009136Y005808D01*
X009133Y005808D01*
X009131D01*
X00913D01*
X009129D01*
Y005975D01*
X009159D01*
Y005851D01*
D02*
G37*
G36*
X009217Y00575D02*
X009211Y005749D01*
X009206Y005747D01*
X009201Y005745D01*
X009196Y005743D01*
X009192Y005741D01*
X009188Y005739D01*
X009185Y005736D01*
X009181Y005734D01*
X009178Y005732D01*
X009176Y00573D01*
X009174Y005728D01*
X009172Y005727D01*
X009171Y005726D01*
X00917Y005724D01*
X00917Y005724D01*
X009169Y005724D01*
X009166Y00572D01*
X009164Y005716D01*
X00916Y005708D01*
X009157Y0057D01*
X009155Y005693D01*
X009154Y005686D01*
X009154Y005684D01*
Y005681D01*
X009153Y005679D01*
Y005676D01*
X009154Y005668D01*
X009155Y00566D01*
X009157Y005653D01*
X009159Y005646D01*
X009161Y005641D01*
X009162Y005639D01*
X009163Y005637D01*
X009164Y005636D01*
X009165Y005635D01*
X009165Y005634D01*
Y005633D01*
X00917Y005627D01*
X009175Y005621D01*
X009182Y005616D01*
X009187Y005612D01*
X009193Y005608D01*
X009197Y005606D01*
X009199Y005605D01*
X0092Y005605D01*
X009201Y005604D01*
X009201D01*
X00921Y005601D01*
X00922Y005599D01*
X009229Y005597D01*
X009238Y005596D01*
X009242Y005596D01*
X009246Y005596D01*
X009249D01*
X009252Y005595D01*
X009254D01*
X009256D01*
X009257D01*
X009257D01*
X009266Y005596D01*
X009275Y005596D01*
X009283Y005598D01*
X00929Y005599D01*
X009297Y0056D01*
X009299Y005601D01*
X009301Y005602D01*
X009303Y005602D01*
X009304Y005603D01*
X009305Y005603D01*
X009305D01*
X009314Y005607D01*
X009321Y005611D01*
X009328Y005615D01*
X009333Y00562D01*
X009337Y005624D01*
X00934Y005627D01*
X009342Y005629D01*
X009343Y00563D01*
Y00563D01*
X009348Y005638D01*
X009351Y005646D01*
X009354Y005654D01*
X009355Y005662D01*
X009356Y005669D01*
X009357Y005672D01*
Y005674D01*
X009357Y005676D01*
Y005679D01*
X009357Y005688D01*
X009355Y005696D01*
X009353Y005703D01*
X009351Y00571D01*
X009348Y005714D01*
X009347Y005718D01*
X009345Y00572D01*
X009344Y005721D01*
X009339Y005727D01*
X009333Y005732D01*
X009326Y005736D01*
X00932Y00574D01*
X009314Y005743D01*
X009311Y005744D01*
X009309Y005745D01*
X009307Y005746D01*
X009305Y005746D01*
X009305Y005747D01*
X009304D01*
X009312Y005779D01*
X009319Y005777D01*
X009324Y005775D01*
X00933Y005772D01*
X009335Y00577D01*
X00934Y005767D01*
X009344Y005763D01*
X009349Y00576D01*
X009352Y005758D01*
X009355Y005755D01*
X009358Y005752D01*
X009361Y00575D01*
X009363Y005748D01*
X009364Y005746D01*
X009365Y005744D01*
X009366Y005744D01*
X009366Y005743D01*
X009369Y005738D01*
X009373Y005733D01*
X009375Y005728D01*
X009377Y005723D01*
X009381Y005712D01*
X009383Y005702D01*
X009384Y005697D01*
X009384Y005693D01*
X009385Y005689D01*
X009385Y005686D01*
X009385Y005683D01*
Y00568D01*
X009385Y005668D01*
X009383Y005656D01*
X009381Y005646D01*
X009379Y005641D01*
X009378Y005637D01*
X009376Y005633D01*
X009375Y005629D01*
X009374Y005626D01*
X009373Y005623D01*
X009372Y005621D01*
X009371Y00562D01*
X009371Y005619D01*
X00937Y005619D01*
X009364Y005609D01*
X009357Y0056D01*
X009349Y005593D01*
X009342Y005587D01*
X009336Y005582D01*
X009333Y00558D01*
X00933Y005579D01*
X009328Y005577D01*
X009327Y005577D01*
X009326Y005576D01*
X009325Y005576D01*
X009314Y005571D01*
X009302Y005567D01*
X009291Y005565D01*
X00928Y005563D01*
X009276Y005562D01*
X009271Y005562D01*
X009267Y005561D01*
X009264D01*
X009261Y005561D01*
X009259D01*
X009257D01*
X009257D01*
X009244Y005562D01*
X009231Y005563D01*
X00922Y005565D01*
X009214Y005566D01*
X00921Y005568D01*
X009205Y005569D01*
X009201Y00557D01*
X009198Y005571D01*
X009195Y005572D01*
X009193Y005573D01*
X009191Y005573D01*
X00919Y005574D01*
X009189D01*
X009178Y00558D01*
X009169Y005586D01*
X00916Y005592D01*
X009157Y005596D01*
X009154Y005599D01*
X009151Y005601D01*
X009148Y005604D01*
X009146Y005607D01*
X009145Y005609D01*
X009143Y005611D01*
X009142Y005612D01*
X009142Y005613D01*
X009141Y005613D01*
X009138Y005618D01*
X009136Y005623D01*
X009132Y005634D01*
X009129Y005645D01*
X009127Y005656D01*
X009126Y005661D01*
X009126Y005665D01*
X009125Y005669D01*
Y005672D01*
X009125Y005675D01*
Y005679D01*
X009125Y005687D01*
X009126Y005694D01*
X009127Y0057D01*
X009128Y005706D01*
X00913Y005712D01*
X009132Y005718D01*
X009134Y005723D01*
X009136Y005727D01*
X009138Y005731D01*
X009139Y005735D01*
X009141Y005738D01*
X009143Y005741D01*
X009145Y005743D01*
X009145Y005745D01*
X009146Y005746D01*
X009146Y005746D01*
X009151Y005751D01*
X009155Y005755D01*
X00916Y005759D01*
X009165Y005763D01*
X009175Y00577D01*
X009186Y005775D01*
X00919Y005777D01*
X009195Y005779D01*
X009199Y005781D01*
X009202Y005782D01*
X009205Y005783D01*
X009207Y005783D01*
X009209Y005784D01*
X009209D01*
X009217Y00575D01*
D02*
G37*
G36*
X005088Y009839D02*
X005059Y009835D01*
X005056Y009839D01*
X005053Y009842D01*
X00505Y009845D01*
X005047Y009848D01*
X005044Y00985D01*
X005042Y009852D01*
X005041Y009852D01*
X00504Y009853D01*
X005035Y009855D01*
X005031Y009857D01*
X005026Y009858D01*
X005022Y009859D01*
X005018Y009859D01*
X005015Y00986D01*
X005009D01*
X005004Y009859D01*
X004997Y009857D01*
X00499Y009854D01*
X004984Y009852D01*
X00498Y009849D01*
X004976Y009846D01*
X004975Y009845D01*
X004974Y009844D01*
Y009844D01*
X004969Y009838D01*
X004965Y009831D01*
X004963Y009824D01*
X004961Y009817D01*
X00496Y009811D01*
X004959Y009809D01*
Y009807D01*
X004959Y009805D01*
Y009804D01*
Y009803D01*
Y009802D01*
Y009797D01*
X00496Y009793D01*
X004962Y009783D01*
X004964Y009776D01*
X004967Y00977D01*
X00497Y009765D01*
X004972Y009761D01*
X004973Y009759D01*
X004974Y009758D01*
X004974Y009758D01*
X004975Y009758D01*
X004978Y009755D01*
X00498Y009752D01*
X004987Y009748D01*
X004993Y009745D01*
X004999Y009743D01*
X005005Y009742D01*
X005009Y009741D01*
X00501Y009741D01*
X005013D01*
X005019Y009741D01*
X005026Y009743D01*
X005031Y009745D01*
X005035Y009747D01*
X005039Y009749D01*
X005042Y009751D01*
X005044Y009752D01*
X005045Y009753D01*
X005049Y009758D01*
X005053Y009763D01*
X005055Y009769D01*
X005058Y009775D01*
X005059Y00978D01*
X00506Y009784D01*
X005061Y009786D01*
X005061Y009787D01*
Y009788D01*
Y009788D01*
X005093Y009786D01*
X005093Y00978D01*
X005092Y009774D01*
X005088Y009764D01*
X005084Y009755D01*
X005082Y009751D01*
X00508Y009748D01*
X005078Y009745D01*
X005076Y009742D01*
X005074Y00974D01*
X005072Y009738D01*
X005071Y009737D01*
X00507Y009735D01*
X005069Y009735D01*
X005069Y009734D01*
X005065Y009731D01*
X00506Y009728D01*
X005055Y009726D01*
X005051Y009723D01*
X005042Y00972D01*
X005033Y009718D01*
X005029Y009717D01*
X005025Y009717D01*
X005021Y009716D01*
X005018Y009716D01*
X005016Y009715D01*
X005013D01*
X005005Y009716D01*
X004998Y009717D01*
X004991Y009718D01*
X004985Y00972D01*
X004979Y009723D01*
X004973Y009725D01*
X004968Y009728D01*
X004964Y009731D01*
X00496Y009734D01*
X004956Y009736D01*
X004953Y009739D01*
X004951Y009741D01*
X004949Y009743D01*
X004947Y009745D01*
X004947Y009746D01*
X004946Y009746D01*
X004943Y009751D01*
X00494Y009756D01*
X004937Y009761D01*
X004935Y009766D01*
X004931Y009775D01*
X004929Y009785D01*
X004928Y009789D01*
X004927Y009793D01*
X004927Y009796D01*
X004927Y009799D01*
X004926Y009802D01*
Y009804D01*
Y009805D01*
Y009805D01*
X004927Y009811D01*
X004927Y009818D01*
X004928Y009824D01*
X00493Y009829D01*
X004932Y009834D01*
X004934Y00984D01*
X004936Y009844D01*
X004938Y009848D01*
X00494Y009852D01*
X004942Y009855D01*
X004944Y009857D01*
X004946Y00986D01*
X004947Y009862D01*
X004948Y009863D01*
X004949Y009864D01*
X004949Y009864D01*
X004954Y009868D01*
X004958Y009872D01*
X004963Y009874D01*
X004967Y009877D01*
X004972Y00988D01*
X004977Y009881D01*
X004986Y009884D01*
X00499Y009885D01*
X004993Y009886D01*
X004997Y009886D01*
X004999Y009886D01*
X005002Y009887D01*
X00501D01*
X005014Y009886D01*
X005023Y009884D01*
X005031Y009882D01*
X005038Y009879D01*
X005044Y009876D01*
X005046Y009874D01*
X005049Y009873D01*
X00505Y009872D01*
X005051Y009872D01*
X005052Y009871D01*
X005053Y009871D01*
X005039Y009939D01*
X004938D01*
Y009968D01*
X005063D01*
X005088Y009839D01*
D02*
G37*
G36*
X005238Y009975D02*
X005249Y009973D01*
X00526Y009971D01*
X005264Y00997D01*
X005269Y009968D01*
X005273Y009967D01*
X005276Y009965D01*
X005279Y009964D01*
X005282Y009963D01*
X005284Y009962D01*
X005286Y009961D01*
X005287Y009961D01*
X005287Y009961D01*
X005297Y009955D01*
X005305Y009947D01*
X005312Y00994D01*
X005319Y009933D01*
X005323Y009926D01*
X005325Y009923D01*
X005327Y009921D01*
X005328Y009919D01*
X005329Y009917D01*
X005329Y009916D01*
X00533Y009916D01*
X005335Y009905D01*
X005338Y009893D01*
X005341Y009881D01*
X005343Y009871D01*
X005343Y009866D01*
X005344Y009861D01*
X005344Y009858D01*
Y009854D01*
X005344Y009852D01*
Y009849D01*
Y009848D01*
Y009848D01*
X005344Y009834D01*
X005342Y009822D01*
X00534Y00981D01*
X005339Y009805D01*
X005338Y0098D01*
X005337Y009796D01*
X005335Y009792D01*
X005334Y009788D01*
X005334Y009785D01*
X005332Y009783D01*
X005332Y009781D01*
X005331Y00978D01*
Y00978D01*
X005326Y009769D01*
X00532Y009759D01*
X005313Y009751D01*
X00531Y009747D01*
X005307Y009744D01*
X005304Y009741D01*
X005301Y009739D01*
X005299Y009737D01*
X005296Y009735D01*
X005295Y009734D01*
X005294Y009733D01*
X005293Y009732D01*
X005292Y009732D01*
X005287Y009729D01*
X005282Y009726D01*
X005271Y009722D01*
X00526Y009719D01*
X00525Y009718D01*
X005245Y009717D01*
X00524Y009716D01*
X005236Y009716D01*
X005233D01*
X00523Y009715D01*
X005226D01*
X005219Y009716D01*
X005212Y009717D01*
X005205Y009717D01*
X005199Y009719D01*
X005193Y009721D01*
X005188Y009722D01*
X005183Y009724D01*
X005178Y009726D01*
X005174Y009728D01*
X00517Y00973D01*
X005167Y009732D01*
X005164Y009734D01*
X005162Y009735D01*
X005161Y009736D01*
X00516Y009737D01*
X00516Y009737D01*
X005154Y009741D01*
X00515Y009746D01*
X005146Y009751D01*
X005142Y009756D01*
X005136Y009766D01*
X00513Y009776D01*
X005128Y009781D01*
X005126Y009785D01*
X005125Y009789D01*
X005124Y009793D01*
X005123Y009795D01*
X005122Y009798D01*
X005122Y009799D01*
Y009799D01*
X005155Y009808D01*
X005157Y009802D01*
X005158Y009797D01*
X00516Y009791D01*
X005162Y009787D01*
X005164Y009782D01*
X005167Y009779D01*
X005169Y009775D01*
X005171Y009772D01*
X005173Y009769D01*
X005175Y009767D01*
X005177Y009765D01*
X005179Y009763D01*
X00518Y009762D01*
X005181Y009761D01*
X005181Y00976D01*
X005182Y00976D01*
X005185Y009757D01*
X005189Y009755D01*
X005197Y009751D01*
X005205Y009748D01*
X005213Y009746D01*
X005219Y009745D01*
X005222Y009744D01*
X005224D01*
X005227Y009744D01*
X005229D01*
X005237Y009744D01*
X005245Y009746D01*
X005253Y009747D01*
X005259Y00975D01*
X005264Y009752D01*
X005267Y009753D01*
X005268Y009754D01*
X00527Y009754D01*
X005271Y009755D01*
X005272Y009755D01*
X005272D01*
X005279Y009761D01*
X005285Y009766D01*
X00529Y009772D01*
X005294Y009778D01*
X005297Y009783D01*
X005299Y009787D01*
X0053Y009789D01*
X005301Y00979D01*
X005301Y009791D01*
Y009791D01*
X005304Y009801D01*
X005306Y00981D01*
X005308Y00982D01*
X005309Y009829D01*
X00531Y009833D01*
X00531Y009836D01*
Y00984D01*
X00531Y009842D01*
Y009844D01*
Y009846D01*
Y009847D01*
Y009848D01*
X00531Y009857D01*
X005309Y009866D01*
X005308Y009874D01*
X005306Y009881D01*
X005305Y009887D01*
X005304Y00989D01*
X005304Y009892D01*
X005303Y009894D01*
X005303Y009895D01*
X005303Y009896D01*
Y009896D01*
X005299Y009904D01*
X005295Y009912D01*
X005291Y009918D01*
X005286Y009924D01*
X005282Y009928D01*
X005279Y009931D01*
X005276Y009933D01*
X005276Y009933D01*
X005275D01*
X005268Y009938D01*
X005259Y009942D01*
X005251Y009944D01*
X005244Y009946D01*
X005237Y009947D01*
X005234Y009947D01*
X005231D01*
X005229Y009948D01*
X005227D01*
X005217Y009947D01*
X005209Y009946D01*
X005202Y009944D01*
X005196Y009941D01*
X005191Y009939D01*
X005188Y009937D01*
X005185Y009936D01*
X005185Y009935D01*
X005179Y009929D01*
X005173Y009923D01*
X005169Y009917D01*
X005165Y00991D01*
X005162Y009904D01*
X005161Y009901D01*
X005161Y009899D01*
X00516Y009897D01*
X005159Y009896D01*
X005159Y009895D01*
Y009895D01*
X005126Y009902D01*
X005128Y009909D01*
X00513Y009915D01*
X005133Y00992D01*
X005136Y009926D01*
X005139Y009931D01*
X005142Y009935D01*
X005145Y009939D01*
X005148Y009943D01*
X005151Y009946D01*
X005153Y009949D01*
X005156Y009951D01*
X005158Y009953D01*
X00516Y009955D01*
X005161Y009956D01*
X005162Y009956D01*
X005162Y009957D01*
X005167Y00996D01*
X005172Y009963D01*
X005177Y009966D01*
X005183Y009968D01*
X005194Y009971D01*
X005204Y009973D01*
X005208Y009975D01*
X005212Y009975D01*
X005216Y009975D01*
X00522Y009976D01*
X005222Y009976D01*
X005226D01*
X005238Y009975D01*
D02*
G37*
G36*
X007099Y011477D02*
X007093Y011473D01*
X007087Y011469D01*
X007081Y011464D01*
X007076Y01146D01*
X007071Y011455D01*
X007068Y011452D01*
X007067Y011451D01*
X007066Y01145D01*
X007065Y011449D01*
X007065Y011449D01*
X007059Y011441D01*
X007053Y011434D01*
X007048Y011426D01*
X007044Y011419D01*
X00704Y011413D01*
X007039Y01141D01*
X007038Y011408D01*
X007036Y011406D01*
X007036Y011405D01*
X007035Y011404D01*
Y011404D01*
X007006D01*
X007008Y011409D01*
X00701Y011415D01*
X007013Y01142D01*
X007015Y011425D01*
X007018Y01143D01*
X007019Y011433D01*
X007021Y011435D01*
X007021Y011436D01*
Y011436D01*
X007025Y011443D01*
X007029Y011449D01*
X007033Y011454D01*
X007036Y011458D01*
X007039Y011461D01*
X007041Y011463D01*
X007042Y011465D01*
X007043Y011466D01*
X006846D01*
Y011497D01*
X007099D01*
Y011477D01*
D02*
G37*
G36*
X007098Y011324D02*
X007023Y011275D01*
X007014Y011269D01*
X007006Y011264D01*
X006998Y011259D01*
X006992Y011255D01*
X006986Y011252D01*
X006984Y011251D01*
X006982Y011249D01*
X006981Y011248D01*
X00698Y011248D01*
X006979Y011247D01*
X006979D01*
X006987Y011243D01*
X006994Y011238D01*
X007002Y011234D01*
X007008Y01123D01*
X007014Y011227D01*
X007016Y011225D01*
X007018Y011224D01*
X007019Y011223D01*
X00702Y011222D01*
X007021Y011221D01*
X007021D01*
X007098Y011172D01*
Y011132D01*
X006952Y011229D01*
X006846D01*
Y011262D01*
X006952D01*
X007098Y011363D01*
Y011324D01*
D02*
G37*
G36*
X00549Y011092D02*
X005503Y01109D01*
X005514Y011089D01*
X00552Y011087D01*
X005525Y011086D01*
X005529Y011085D01*
X005533Y011083D01*
X005537Y011082D01*
X00554Y011082D01*
X005542Y011081D01*
X005544Y01108D01*
X005545Y011079D01*
X005545D01*
X005556Y011074D01*
X005566Y011068D01*
X005574Y011061D01*
X005577Y011058D01*
X005581Y011055D01*
X005584Y011052D01*
X005586Y011049D01*
X005588Y011047D01*
X00559Y011044D01*
X005591Y011043D01*
X005592Y011042D01*
X005593Y011041D01*
X005593Y01104D01*
X005596Y011035D01*
X005598Y01103D01*
X005602Y011019D01*
X005605Y011008D01*
X005607Y010998D01*
X005608Y010993D01*
X005609Y010988D01*
X005609Y010984D01*
Y010981D01*
X005609Y010978D01*
Y010974D01*
X005609Y010967D01*
X005608Y01096D01*
X005608Y010953D01*
X005606Y010947D01*
X005604Y010941D01*
X005602Y010936D01*
X005601Y010931D01*
X005598Y010926D01*
X005597Y010922D01*
X005595Y010918D01*
X005593Y010915D01*
X005591Y010912D01*
X00559Y010911D01*
X005589Y010909D01*
X005588Y010908D01*
X005588Y010908D01*
X005584Y010903D01*
X005579Y010898D01*
X005574Y010894D01*
X005569Y01089D01*
X005559Y010884D01*
X005549Y010878D01*
X005544Y010876D01*
X00554Y010874D01*
X005536Y010873D01*
X005532Y010872D01*
X005529Y010871D01*
X005527Y01087D01*
X005526Y01087D01*
X005525D01*
X005517Y010903D01*
X005523Y010905D01*
X005528Y010907D01*
X005533Y010908D01*
X005538Y01091D01*
X005542Y010912D01*
X005546Y010915D01*
X00555Y010917D01*
X005553Y010919D01*
X005556Y010921D01*
X005558Y010923D01*
X00556Y010925D01*
X005562Y010927D01*
X005563Y010928D01*
X005564Y010929D01*
X005565Y010929D01*
X005565Y01093D01*
X005568Y010933D01*
X00557Y010937D01*
X005574Y010945D01*
X005577Y010953D01*
X005579Y010961D01*
X00558Y010967D01*
X005581Y01097D01*
Y010972D01*
X005581Y010975D01*
Y010977D01*
X005581Y010986D01*
X005579Y010994D01*
X005577Y011001D01*
X005575Y011007D01*
X005573Y011012D01*
X005572Y011015D01*
X005571Y011016D01*
X00557Y011018D01*
X00557Y011019D01*
X005569Y01102D01*
Y01102D01*
X005564Y011027D01*
X005559Y011033D01*
X005553Y011038D01*
X005547Y011042D01*
X005542Y011045D01*
X005537Y011047D01*
X005536Y011048D01*
X005534Y011049D01*
X005534Y011049D01*
X005533D01*
X005524Y011052D01*
X005514Y011054D01*
X005505Y011056D01*
X005496Y011057D01*
X005492Y011058D01*
X005489Y011058D01*
X005485D01*
X005483Y011058D01*
X005481D01*
X005479D01*
X005478D01*
X005477D01*
X005468Y011058D01*
X005459Y011057D01*
X005451Y011056D01*
X005444Y011054D01*
X005438Y011053D01*
X005435Y011052D01*
X005433Y011052D01*
X005431Y011051D01*
X00543Y011051D01*
X005429Y011051D01*
X005429D01*
X00542Y011047D01*
X005413Y011043D01*
X005407Y011039D01*
X005401Y011034D01*
X005397Y01103D01*
X005394Y011027D01*
X005392Y011024D01*
X005391Y011024D01*
Y011023D01*
X005387Y011016D01*
X005383Y011007D01*
X00538Y010999D01*
X005379Y010992D01*
X005378Y010985D01*
X005378Y010982D01*
Y010979D01*
X005377Y010977D01*
Y010975D01*
X005378Y010965D01*
X005379Y010957D01*
X005381Y01095D01*
X005383Y010944D01*
X005386Y010939D01*
X005388Y010936D01*
X005389Y010933D01*
X00539Y010933D01*
X005395Y010927D01*
X005402Y010921D01*
X005408Y010917D01*
X005415Y010913D01*
X00542Y010911D01*
X005423Y010909D01*
X005426Y010909D01*
X005427Y010908D01*
X005429Y010907D01*
X00543Y010907D01*
X00543D01*
X005422Y010874D01*
X005416Y010876D01*
X00541Y010878D01*
X005404Y010881D01*
X005399Y010884D01*
X005394Y010887D01*
X00539Y01089D01*
X005386Y010893D01*
X005382Y010896D01*
X005379Y010899D01*
X005376Y010901D01*
X005374Y010904D01*
X005372Y010906D01*
X00537Y010908D01*
X005369Y010909D01*
X005368Y01091D01*
X005368Y01091D01*
X005365Y010915D01*
X005362Y01092D01*
X005359Y010925D01*
X005357Y010931D01*
X005354Y010942D01*
X005351Y010952D01*
X00535Y010956D01*
X00535Y01096D01*
X00535Y010964D01*
X005349Y010968D01*
X005349Y01097D01*
Y010974D01*
X00535Y010986D01*
X005351Y010998D01*
X005354Y011008D01*
X005355Y011012D01*
X005356Y011017D01*
X005358Y011021D01*
X005359Y011024D01*
X00536Y011027D01*
X005362Y01103D01*
X005363Y011032D01*
X005363Y011034D01*
X005364Y011035D01*
X005364Y011035D01*
X00537Y011045D01*
X005378Y011053D01*
X005385Y01106D01*
X005392Y011067D01*
X005399Y011071D01*
X005402Y011073D01*
X005404Y011075D01*
X005406Y011076D01*
X005407Y011077D01*
X005408Y011077D01*
X005409Y011078D01*
X00542Y011083D01*
X005432Y011086D01*
X005443Y011089D01*
X005454Y011091D01*
X005459Y011091D01*
X005463Y011092D01*
X005467Y011092D01*
X005471D01*
X005473Y011093D01*
X005475D01*
X005477D01*
X005477D01*
X00549Y011092D01*
D02*
G37*
G36*
X004832Y010885D02*
X004835Y010884D01*
X004838Y010884D01*
X004842Y010883D01*
X004846Y010882D01*
X004854Y01088D01*
X004863Y010877D01*
X004868Y010874D01*
X004872Y010872D01*
X004877Y010869D01*
X004881Y010865D01*
X004882Y010865D01*
X004882Y010864D01*
X004883Y010863D01*
X004884Y010862D01*
X004886Y01086D01*
X004888Y010857D01*
X00489Y010855D01*
X004892Y010852D01*
X004895Y010848D01*
X004897Y010844D01*
X004901Y010835D01*
X004904Y010825D01*
X004905Y01082D01*
X004906Y010814D01*
X004875Y01081D01*
Y01081D01*
X004875Y010811D01*
X004874Y010813D01*
X004874Y010814D01*
X004874Y010817D01*
X004873Y010819D01*
X004871Y010825D01*
X004868Y010831D01*
X004865Y010837D01*
X004862Y010843D01*
X004857Y010848D01*
X004856Y010849D01*
X004855Y01085D01*
X004852Y010852D01*
X004848Y010854D01*
X004844Y010856D01*
X004839Y010858D01*
X004832Y010859D01*
X004826Y01086D01*
X004824D01*
X004822Y010859D01*
X004818Y010859D01*
X004813Y010858D01*
X004807Y010856D01*
X004801Y010853D01*
X004795Y01085D01*
X004789Y010845D01*
X004788Y010844D01*
X004787Y010842D01*
X004784Y010838D01*
X004781Y010834D01*
X004779Y010829D01*
X004776Y010822D01*
X004775Y010815D01*
X004774Y010807D01*
Y010807D01*
Y010806D01*
Y010805D01*
X004774Y010803D01*
X004775Y010799D01*
X004776Y010795D01*
X004777Y010789D01*
X00478Y010783D01*
X004783Y010777D01*
X004788Y010772D01*
X004789Y010771D01*
X004791Y01077D01*
X004793Y010767D01*
X004797Y010765D01*
X004803Y010762D01*
X004809Y01076D01*
X004816Y010759D01*
X004823Y010758D01*
X004827D01*
X004829Y010758D01*
X004832Y010759D01*
X004836Y010759D01*
X00484Y01076D01*
X004845Y010761D01*
X004842Y010734D01*
X00484D01*
X004838Y010734D01*
X004834D01*
X00483Y010734D01*
X004825Y010733D01*
X004819Y010732D01*
X004813Y01073D01*
X004807Y010727D01*
X004801Y010724D01*
X004801D01*
X0048Y010724D01*
X004799Y010722D01*
X004796Y01072D01*
X004793Y010716D01*
X00479Y010712D01*
X004788Y010706D01*
X004786Y0107D01*
X004785Y010696D01*
Y010692D01*
Y010692D01*
Y010692D01*
Y01069D01*
X004786Y010687D01*
X004787Y010683D01*
X004788Y010678D01*
X00479Y010674D01*
X004793Y010669D01*
X004797Y010664D01*
X004797Y010664D01*
X004799Y010663D01*
X004801Y010661D01*
X004805Y010659D01*
X004809Y010657D01*
X004814Y010655D01*
X00482Y010653D01*
X004827Y010653D01*
X00483D01*
X004833Y010654D01*
X004837Y010655D01*
X004842Y010656D01*
X004847Y010658D01*
X004852Y010661D01*
X004856Y010664D01*
X004857Y010665D01*
X004858Y010667D01*
X00486Y010669D01*
X004863Y010673D01*
X004866Y010678D01*
X004868Y010683D01*
X00487Y01069D01*
X004872Y010698D01*
X004903Y010693D01*
Y010692D01*
X004902Y010691D01*
X004902Y01069D01*
X004902Y010688D01*
X004901Y010685D01*
X0049Y010682D01*
X004898Y010675D01*
X004894Y010667D01*
X00489Y010659D01*
X004884Y010652D01*
X004877Y010645D01*
X004877Y010644D01*
X004876Y010644D01*
X004875Y010643D01*
X004874Y010642D01*
X004872Y010641D01*
X004869Y010639D01*
X004867Y010638D01*
X004863Y010636D01*
X004856Y010633D01*
X004848Y01063D01*
X004838Y010628D01*
X004833Y010628D01*
X004824D01*
X00482Y010628D01*
X004815Y010629D01*
X004809Y01063D01*
X004803Y010632D01*
X004796Y010634D01*
X004789Y010637D01*
X004789D01*
X004789Y010637D01*
X004787Y010638D01*
X004783Y01064D01*
X00478Y010643D01*
X004775Y010647D01*
X004771Y010651D01*
X004767Y010655D01*
X004763Y010661D01*
X004763Y010661D01*
X004761Y010663D01*
X00476Y010667D01*
X004758Y010671D01*
X004756Y010675D01*
X004755Y010681D01*
X004754Y010687D01*
X004753Y010693D01*
Y010694D01*
Y010696D01*
X004754Y010699D01*
X004755Y010703D01*
X004756Y010708D01*
X004757Y010713D01*
X00476Y010718D01*
X004763Y010723D01*
X004763Y010724D01*
X004764Y010725D01*
X004766Y010728D01*
X004769Y010731D01*
X004773Y010734D01*
X004777Y010738D01*
X004782Y010741D01*
X004788Y010744D01*
X004788D01*
X004787Y010744D01*
X004786Y010745D01*
X004785Y010745D01*
X004781Y010747D01*
X004776Y010749D01*
X00477Y010752D01*
X004764Y010755D01*
X004759Y01076D01*
X004753Y010766D01*
X004753Y010766D01*
X004752Y010769D01*
X004749Y010772D01*
X004747Y010777D01*
X004745Y010783D01*
X004743Y01079D01*
X004741Y010798D01*
X004741Y010806D01*
Y010807D01*
Y010808D01*
Y01081D01*
X004741Y010812D01*
X004742Y010815D01*
X004743Y010818D01*
X004743Y010822D01*
X004744Y010826D01*
X004747Y010834D01*
X004749Y010839D01*
X004751Y010843D01*
X004754Y010848D01*
X004757Y010853D01*
X004761Y010858D01*
X004765Y010862D01*
X004766Y010862D01*
X004767Y010863D01*
X004768Y010864D01*
X00477Y010866D01*
X004772Y010868D01*
X004775Y010869D01*
X004778Y010872D01*
X004782Y010873D01*
X004786Y010876D01*
X004791Y010878D01*
X004796Y01088D01*
X004801Y010881D01*
X004807Y010883D01*
X004813Y010884D01*
X004819Y010885D01*
X004826Y010885D01*
X00483D01*
X004832Y010885D01*
D02*
G37*
G36*
X005242D02*
X005245D01*
X005249Y010884D01*
X005254Y010884D01*
X005259Y010883D01*
X005269Y010881D01*
X00528Y010878D01*
X005291Y010874D01*
X005296Y010872D01*
X005301Y010869D01*
X005302Y010868D01*
X005302Y010868D01*
X005304Y010867D01*
X005305Y010865D01*
X005307Y010864D01*
X00531Y010862D01*
X005313Y010859D01*
X005316Y010856D01*
X005319Y010853D01*
X005322Y01085D01*
X005329Y010841D01*
X005335Y010831D01*
X00534Y010821D01*
Y01082D01*
X005341Y010819D01*
X005341Y010817D01*
X005342Y010815D01*
X005343Y010812D01*
X005344Y010809D01*
X005346Y010805D01*
X005347Y0108D01*
X005348Y010795D01*
X005349Y01079D01*
X005351Y010779D01*
X005353Y010766D01*
X005353Y010753D01*
Y010752D01*
Y010751D01*
Y010749D01*
X005353Y010746D01*
Y010745D01*
X005358Y010749D01*
X005364Y010753D01*
X00537Y010757D01*
X005375Y010762D01*
X005379Y010766D01*
X005383Y010769D01*
X005384Y010771D01*
X005385Y010772D01*
X005386Y010772D01*
X005386Y010773D01*
X005392Y01078D01*
X005398Y010788D01*
X005403Y010795D01*
X005407Y010802D01*
X005411Y010809D01*
X005412Y010811D01*
X005413Y010813D01*
X005414Y010815D01*
X005415Y010817D01*
X005415Y010817D01*
Y010818D01*
X005445D01*
X005443Y010812D01*
X00544Y010807D01*
X005438Y010801D01*
X005435Y010796D01*
X005433Y010792D01*
X005431Y010788D01*
X00543Y010786D01*
X00543Y010786D01*
Y010785D01*
X005426Y010779D01*
X005422Y010773D01*
X005418Y010768D01*
X005415Y010764D01*
X005412Y01076D01*
X00541Y010758D01*
X005408Y010756D01*
X005408Y010756D01*
X005605D01*
Y010725D01*
X005352D01*
Y010733D01*
X005351Y01073D01*
X00535Y010719D01*
X005347Y010707D01*
X005343Y010696D01*
X005338Y010684D01*
X005338Y010684D01*
X005338Y010683D01*
X005337Y010682D01*
X005335Y01068D01*
X005334Y010677D01*
X005332Y010674D01*
X005327Y010668D01*
X005321Y01066D01*
X005314Y010653D01*
X005306Y010646D01*
X005296Y01064D01*
X005295Y010639D01*
X005294Y010639D01*
X005293Y010638D01*
X005291Y010637D01*
X005288Y010636D01*
X005285Y010635D01*
X005282Y010633D01*
X005278Y010632D01*
X005273Y010631D01*
X005268Y010629D01*
X005258Y010627D01*
X005247Y010625D01*
X005235Y010624D01*
X005231D01*
X005228Y010625D01*
X005225Y010625D01*
X005221Y010625D01*
X005217Y010626D01*
X005212Y010627D01*
X005203Y010629D01*
X005192Y010632D01*
X005186Y010635D01*
X005181Y010637D01*
X005176Y01064D01*
X005171Y010644D01*
X005171Y010644D01*
X00517Y010644D01*
X005168Y010645D01*
X005167Y010647D01*
X005165Y010649D01*
X005162Y010652D01*
X00516Y010655D01*
X005157Y010657D01*
X005154Y010661D01*
X005151Y010665D01*
X005148Y01067D01*
X005145Y010675D01*
X005142Y01068D01*
X005139Y010686D01*
X005137Y010691D01*
X005135Y010698D01*
X005168Y010706D01*
Y010705D01*
X005168Y010704D01*
X005169Y010703D01*
X005169Y010701D01*
X00517Y010699D01*
X005171Y010696D01*
X005174Y01069D01*
X005178Y010684D01*
X005182Y010677D01*
X005188Y010671D01*
X005194Y010665D01*
X005194Y010665D01*
X005196Y010663D01*
X0052Y010661D01*
X005205Y010659D01*
X005211Y010657D01*
X005218Y010655D01*
X005226Y010653D01*
X005235Y010653D01*
X005238D01*
X00524Y010653D01*
X005243D01*
X005246Y010653D01*
X005252Y010655D01*
X00526Y010656D01*
X005268Y010659D01*
X005277Y010662D01*
X005284Y010667D01*
X005285D01*
X005285Y010668D01*
X005287Y010669D01*
X005291Y010672D01*
X005295Y010677D01*
X005299Y010682D01*
X005304Y010688D01*
X005308Y010696D01*
X005311Y010704D01*
Y010705D01*
X005312Y010706D01*
X005312Y010707D01*
X005313Y010708D01*
X005313Y010711D01*
X005314Y010713D01*
X005315Y010719D01*
X005317Y010727D01*
X005318Y010735D01*
X005319Y010743D01*
X005319Y010753D01*
Y010753D01*
Y010754D01*
Y010756D01*
Y010758D01*
X005319Y010761D01*
Y010764D01*
X005318Y010768D01*
X005318Y010772D01*
X005317Y010781D01*
X005315Y01079D01*
X005313Y010799D01*
X00531Y010809D01*
Y010809D01*
X00531Y01081D01*
X005309Y010811D01*
X005308Y010813D01*
X005306Y010817D01*
X005303Y010822D01*
X005299Y010828D01*
X005294Y010834D01*
X005288Y01084D01*
X005281Y010845D01*
X005281D01*
X00528Y010845D01*
X005279Y010846D01*
X005277Y010847D01*
X005275Y010847D01*
X005273Y010849D01*
X005268Y010851D01*
X005262Y010853D01*
X005254Y010855D01*
X005246Y010856D01*
X005238Y010857D01*
X005235D01*
X005233Y010856D01*
X005231D01*
X005228Y010856D01*
X005222Y010854D01*
X005214Y010853D01*
X005206Y01085D01*
X005198Y010846D01*
X005194Y010843D01*
X005191Y010841D01*
X00519Y01084D01*
X00519Y01084D01*
X005189Y010839D01*
X005187Y010838D01*
X005186Y010836D01*
X005184Y010834D01*
X005182Y010831D01*
X00518Y010829D01*
X005178Y010825D01*
X005175Y010822D01*
X005173Y010818D01*
X005171Y010814D01*
X005169Y010809D01*
X005167Y010804D01*
X005165Y010798D01*
X005164Y010793D01*
X005131Y010801D01*
Y010801D01*
X005131Y010803D01*
X005132Y010805D01*
X005133Y010808D01*
X005134Y010811D01*
X005135Y010815D01*
X005137Y010819D01*
X005139Y010824D01*
X005144Y010834D01*
X005151Y010845D01*
X005155Y01085D01*
X005159Y010855D01*
X005163Y010859D01*
X005168Y010864D01*
X005169Y010864D01*
X005169Y010865D01*
X005171Y010865D01*
X005173Y010867D01*
X005176Y010869D01*
X005179Y01087D01*
X005183Y010872D01*
X005187Y010874D01*
X005192Y010876D01*
X005197Y010878D01*
X005202Y01088D01*
X005208Y010882D01*
X005214Y010883D01*
X005221Y010884D01*
X005228Y010885D01*
X005235Y010885D01*
X005239D01*
X005242Y010885D01*
D02*
G37*
G36*
X005017Y010684D02*
X005017Y010684D01*
X005019Y010686D01*
X005021Y010688D01*
X005025Y01069D01*
X005029Y010694D01*
X005034Y010697D01*
X00504Y010701D01*
X005046Y010705D01*
X005046D01*
X005047Y010706D01*
X005049Y010707D01*
X005053Y010709D01*
X005057Y010711D01*
X005062Y010714D01*
X005068Y010716D01*
X005073Y010719D01*
X005078Y010721D01*
Y010691D01*
X005078D01*
X005077Y01069D01*
X005076Y01069D01*
X005074Y010689D01*
X005072Y010688D01*
X005069Y010686D01*
X005063Y010683D01*
X005056Y010679D01*
X005049Y010674D01*
X005041Y010668D01*
X005033Y010661D01*
X005033Y010661D01*
X005033Y010661D01*
X005032Y01066D01*
X00503Y010659D01*
X005027Y010655D01*
X005022Y010651D01*
X005018Y010645D01*
X005013Y01064D01*
X005009Y010634D01*
X005006Y010628D01*
X004986D01*
Y010881D01*
X005017D01*
Y010684D01*
D02*
G37*
G36*
X005443Y010616D02*
X00544Y010611D01*
X005438Y010605D01*
X005435Y0106D01*
X005433Y010596D01*
X005431Y010592D01*
X00543Y01059D01*
X00543Y01059D01*
Y010589D01*
X005426Y010583D01*
X005422Y010577D01*
X005418Y010572D01*
X005415Y010568D01*
X005412Y010564D01*
X00541Y010562D01*
X005408Y01056D01*
X005408Y01056D01*
X005605D01*
Y010529D01*
X005352D01*
Y010549D01*
X005358Y010553D01*
X005364Y010557D01*
X00537Y010561D01*
X005375Y010566D01*
X005379Y01057D01*
X005383Y010573D01*
X005384Y010575D01*
X005385Y010576D01*
X005386Y010576D01*
X005386Y010577D01*
X005392Y010584D01*
X005398Y010592D01*
X005403Y010599D01*
X005407Y010607D01*
X005411Y010613D01*
X005412Y010615D01*
X005413Y010618D01*
X005414Y010619D01*
X005415Y010621D01*
X005415Y010622D01*
Y010622D01*
X005445D01*
X005443Y010616D01*
D02*
G37*
G36*
X005074Y011474D02*
X005237D01*
Y011449D01*
X005074Y011333D01*
X005046D01*
Y011443D01*
X004986D01*
Y011474D01*
X005046D01*
Y011508D01*
X005074D01*
Y011474D01*
D02*
G37*
G36*
X005074Y011282D02*
X005068Y01128D01*
X005062Y011279D01*
X005057Y011277D01*
X005052Y011275D01*
X005048Y011273D01*
X005044Y011271D01*
X005041Y011268D01*
X005038Y011266D01*
X005035Y011264D01*
X005032Y011262D01*
X00503Y01126D01*
X005028Y011258D01*
X005027Y011257D01*
X005026Y011256D01*
X005026Y011256D01*
X005026Y011255D01*
X005023Y011252D01*
X00502Y011248D01*
X005016Y01124D01*
X005014Y011232D01*
X005012Y011224D01*
X00501Y011218D01*
X00501Y011215D01*
Y011213D01*
X00501Y01121D01*
Y011208D01*
X00501Y0112D01*
X005011Y011192D01*
X005013Y011184D01*
X005015Y011178D01*
X005018Y011173D01*
X005019Y01117D01*
X005019Y011169D01*
X00502Y011167D01*
X005021Y011166D01*
X005021Y011165D01*
Y011165D01*
X005026Y011158D01*
X005032Y011152D01*
X005038Y011147D01*
X005044Y011143D01*
X005049Y01114D01*
X005053Y011138D01*
X005055Y011137D01*
X005056Y011136D01*
X005057Y011136D01*
X005057D01*
X005067Y011133D01*
X005076Y011131D01*
X005086Y011129D01*
X005094Y011128D01*
X005098Y011127D01*
X005102Y011127D01*
X005105D01*
X005108Y011127D01*
X00511D01*
X005112D01*
X005113D01*
X005113D01*
X005123Y011127D01*
X005131Y011128D01*
X005139Y011129D01*
X005147Y011131D01*
X005153Y011132D01*
X005156Y011133D01*
X005158Y011133D01*
X00516Y011134D01*
X005161Y011134D01*
X005161Y011134D01*
X005162D01*
X00517Y011138D01*
X005178Y011142D01*
X005184Y011146D01*
X005189Y011151D01*
X005194Y011155D01*
X005197Y011158D01*
X005198Y011161D01*
X005199Y011161D01*
Y011162D01*
X005204Y011169D01*
X005208Y011178D01*
X00521Y011186D01*
X005212Y011193D01*
X005213Y0112D01*
X005213Y011203D01*
Y011206D01*
X005213Y011208D01*
Y01121D01*
X005213Y01122D01*
X005212Y011228D01*
X005209Y011235D01*
X005207Y011241D01*
X005205Y011246D01*
X005203Y011249D01*
X005201Y011252D01*
X005201Y011252D01*
X005195Y011258D01*
X005189Y011264D01*
X005182Y011268D01*
X005176Y011272D01*
X00517Y011275D01*
X005167Y011276D01*
X005165Y011276D01*
X005163Y011277D01*
X005162Y011278D01*
X005161Y011278D01*
X005161D01*
X005168Y011311D01*
X005175Y011309D01*
X005181Y011307D01*
X005186Y011304D01*
X005192Y011301D01*
X005196Y011298D01*
X005201Y011295D01*
X005205Y011292D01*
X005209Y011289D01*
X005212Y011286D01*
X005214Y011284D01*
X005217Y011281D01*
X005219Y011279D01*
X005221Y011277D01*
X005222Y011276D01*
X005222Y011275D01*
X005222Y011275D01*
X005226Y01127D01*
X005229Y011265D01*
X005232Y01126D01*
X005234Y011254D01*
X005237Y011243D01*
X005239Y011233D01*
X00524Y011229D01*
X005241Y011225D01*
X005241Y011221D01*
X005241Y011217D01*
X005242Y011215D01*
Y011211D01*
X005241Y011199D01*
X005239Y011188D01*
X005237Y011177D01*
X005236Y011173D01*
X005234Y011168D01*
X005233Y011164D01*
X005231Y011161D01*
X00523Y011158D01*
X005229Y011155D01*
X005228Y011153D01*
X005227Y011151D01*
X005227Y01115D01*
X005226Y01115D01*
X00522Y01114D01*
X005213Y011132D01*
X005206Y011125D01*
X005198Y011118D01*
X005192Y011114D01*
X005189Y011112D01*
X005186Y01111D01*
X005185Y011109D01*
X005183Y011108D01*
X005182Y011108D01*
X005182Y011107D01*
X00517Y011102D01*
X005159Y011099D01*
X005147Y011096D01*
X005137Y011094D01*
X005132Y011094D01*
X005127Y011093D01*
X005123Y011093D01*
X00512D01*
X005117Y011093D01*
X005115D01*
X005114D01*
X005113D01*
X0051Y011093D01*
X005087Y011095D01*
X005076Y011097D01*
X005071Y011098D01*
X005066Y011099D01*
X005062Y0111D01*
X005058Y011102D01*
X005054Y011103D01*
X005051Y011103D01*
X005049Y011105D01*
X005047Y011105D01*
X005046Y011106D01*
X005046D01*
X005035Y011111D01*
X005025Y011117D01*
X005016Y011124D01*
X005013Y011127D01*
X00501Y01113D01*
X005007Y011133D01*
X005004Y011136D01*
X005002Y011138D01*
X005001Y011141D01*
X004999Y011142D01*
X004998Y011143D01*
X004998Y011144D01*
X004998Y011145D01*
X004995Y01115D01*
X004992Y011155D01*
X004988Y011166D01*
X004985Y011177D01*
X004983Y011187D01*
X004983Y011192D01*
X004982Y011197D01*
X004982Y011201D01*
Y011204D01*
X004981Y011207D01*
Y011211D01*
X004982Y011218D01*
X004982Y011225D01*
X004983Y011232D01*
X004984Y011238D01*
X004986Y011244D01*
X004988Y011249D01*
X00499Y011254D01*
X004992Y011259D01*
X004994Y011263D01*
X004996Y011267D01*
X004998Y01127D01*
X004999Y011273D01*
X005001Y011275D01*
X005002Y011276D01*
X005002Y011277D01*
X005003Y011277D01*
X005007Y011283D01*
X005011Y011287D01*
X005016Y011291D01*
X005022Y011295D01*
X005032Y011301D01*
X005042Y011307D01*
X005047Y011309D01*
X005051Y011311D01*
X005055Y011312D01*
X005058Y011313D01*
X005061Y011314D01*
X005063Y011315D01*
X005065Y011315D01*
X005065D01*
X005074Y011282D01*
D02*
G37*
G36*
X007666Y011102D02*
X007678Y0111D01*
X00769Y011098D01*
X007695Y011097D01*
X0077Y011096D01*
X007704Y011095D01*
X007708Y011093D01*
X007712Y011092D01*
X007715Y011091D01*
X007717Y01109D01*
X007719Y01109D01*
X00772Y011089D01*
X00772D01*
X007731Y011084D01*
X007741Y011078D01*
X007749Y011071D01*
X007753Y011068D01*
X007756Y011065D01*
X007759Y011062D01*
X007761Y011059D01*
X007763Y011056D01*
X007765Y011054D01*
X007766Y011053D01*
X007767Y011051D01*
X007768Y011051D01*
X007768Y01105D01*
X007771Y011045D01*
X007774Y01104D01*
X007778Y011029D01*
X007781Y011018D01*
X007782Y011008D01*
X007783Y011003D01*
X007784Y010998D01*
X007784Y010994D01*
Y010991D01*
X007785Y010988D01*
Y010984D01*
X007784Y010977D01*
X007783Y01097D01*
X007783Y010963D01*
X007781Y010957D01*
X007779Y010951D01*
X007778Y010946D01*
X007776Y010941D01*
X007774Y010936D01*
X007772Y010932D01*
X00777Y010928D01*
X007768Y010925D01*
X007766Y010922D01*
X007765Y01092D01*
X007764Y010919D01*
X007763Y010918D01*
X007763Y010917D01*
X007759Y010912D01*
X007754Y010908D01*
X007749Y010904D01*
X007744Y0109D01*
X007734Y010893D01*
X007724Y010888D01*
X007719Y010886D01*
X007715Y010884D01*
X007711Y010883D01*
X007707Y010882D01*
X007705Y010881D01*
X007702Y01088D01*
X007701Y01088D01*
X007701D01*
X007692Y010913D01*
X007698Y010915D01*
X007703Y010916D01*
X007709Y010918D01*
X007713Y01092D01*
X007718Y010922D01*
X007721Y010924D01*
X007725Y010927D01*
X007728Y010929D01*
X007731Y010931D01*
X007733Y010933D01*
X007735Y010935D01*
X007737Y010936D01*
X007738Y010938D01*
X007739Y010939D01*
X00774Y010939D01*
X00774Y01094D01*
X007743Y010943D01*
X007745Y010947D01*
X007749Y010955D01*
X007752Y010963D01*
X007754Y010971D01*
X007755Y010977D01*
X007756Y01098D01*
Y010982D01*
X007756Y010984D01*
Y010987D01*
X007756Y010995D01*
X007754Y011003D01*
X007753Y011011D01*
X00775Y011017D01*
X007748Y011022D01*
X007747Y011024D01*
X007746Y011026D01*
X007746Y011028D01*
X007745Y011029D01*
X007745Y01103D01*
Y01103D01*
X007739Y011037D01*
X007734Y011043D01*
X007728Y011048D01*
X007722Y011052D01*
X007717Y011055D01*
X007713Y011057D01*
X007711Y011058D01*
X00771Y011059D01*
X007709Y011059D01*
X007709D01*
X007699Y011062D01*
X00769Y011064D01*
X00768Y011066D01*
X007671Y011067D01*
X007667Y011067D01*
X007664Y011068D01*
X00766D01*
X007658Y011068D01*
X007656D01*
X007654D01*
X007653D01*
X007652D01*
X007643Y011068D01*
X007634Y011067D01*
X007626Y011066D01*
X007619Y011064D01*
X007613Y011063D01*
X00761Y011062D01*
X007608Y011062D01*
X007606Y011061D01*
X007605Y011061D01*
X007604Y011061D01*
X007604D01*
X007596Y011057D01*
X007588Y011053D01*
X007582Y011049D01*
X007576Y011044D01*
X007572Y01104D01*
X007569Y011036D01*
X007567Y011034D01*
X007567Y011034D01*
Y011033D01*
X007562Y011026D01*
X007558Y011017D01*
X007556Y011009D01*
X007554Y011002D01*
X007553Y010995D01*
X007553Y010992D01*
Y010989D01*
X007552Y010987D01*
Y010984D01*
X007553Y010975D01*
X007554Y010967D01*
X007556Y01096D01*
X007559Y010954D01*
X007561Y010949D01*
X007563Y010945D01*
X007564Y010943D01*
X007565Y010943D01*
X007571Y010937D01*
X007577Y010931D01*
X007583Y010927D01*
X00759Y010923D01*
X007596Y01092D01*
X007599Y010919D01*
X007601Y010919D01*
X007603Y010918D01*
X007604Y010917D01*
X007605Y010917D01*
X007605D01*
X007598Y010884D01*
X007591Y010886D01*
X007585Y010888D01*
X00758Y010891D01*
X007574Y010894D01*
X007569Y010897D01*
X007565Y0109D01*
X007561Y010903D01*
X007557Y010906D01*
X007554Y010909D01*
X007551Y010911D01*
X007549Y010914D01*
X007547Y010916D01*
X007545Y010917D01*
X007544Y010919D01*
X007544Y01092D01*
X007543Y01092D01*
X00754Y010925D01*
X007537Y01093D01*
X007534Y010935D01*
X007532Y010941D01*
X007529Y010952D01*
X007527Y010962D01*
X007525Y010966D01*
X007525Y01097D01*
X007525Y010974D01*
X007524Y010978D01*
X007524Y01098D01*
Y010984D01*
X007525Y010996D01*
X007527Y011007D01*
X007529Y011018D01*
X00753Y011022D01*
X007532Y011027D01*
X007533Y011031D01*
X007535Y011034D01*
X007536Y011037D01*
X007537Y01104D01*
X007538Y011042D01*
X007539Y011043D01*
X007539Y011044D01*
X007539Y011045D01*
X007545Y011055D01*
X007553Y011063D01*
X00756Y01107D01*
X007567Y011077D01*
X007574Y011081D01*
X007577Y011083D01*
X007579Y011085D01*
X007581Y011086D01*
X007583Y011087D01*
X007584Y011087D01*
X007584Y011087D01*
X007595Y011093D01*
X007607Y011096D01*
X007619Y011099D01*
X007629Y011101D01*
X007634Y011101D01*
X007639Y011102D01*
X007642Y011102D01*
X007646D01*
X007648Y011102D01*
X007651D01*
X007652D01*
X007652D01*
X007666Y011102D01*
D02*
G37*
G36*
X007618Y010822D02*
X007616Y010817D01*
X007613Y010811D01*
X007611Y010806D01*
X007608Y010802D01*
X007607Y010798D01*
X007605Y010796D01*
X007605Y010796D01*
Y010795D01*
X007601Y010789D01*
X007597Y010783D01*
X007593Y010778D01*
X00759Y010774D01*
X007587Y01077D01*
X007585Y010768D01*
X007584Y010766D01*
X007583Y010766D01*
X00778D01*
Y010735D01*
X007527D01*
Y010755D01*
X007533Y010758D01*
X007539Y010762D01*
X007545Y010767D01*
X00755Y010771D01*
X007555Y010776D01*
X007558Y010779D01*
X007559Y010781D01*
X00756Y010782D01*
X007561Y010782D01*
X007561Y010782D01*
X007567Y01079D01*
X007573Y010798D01*
X007578Y010805D01*
X007582Y010812D01*
X007586Y010818D01*
X007587Y010821D01*
X007588Y010823D01*
X007589Y010825D01*
X00759Y010826D01*
X007591Y010827D01*
Y010828D01*
X00762D01*
X007618Y010822D01*
D02*
G37*
G36*
X00778Y010493D02*
X00775D01*
Y010617D01*
X007744Y010612D01*
X007742Y01061D01*
X007739Y010608D01*
X007737Y010607D01*
X007735Y010605D01*
X007734Y010604D01*
X007734Y010604D01*
X007732Y010602D01*
X00773Y0106D01*
X007726Y010595D01*
X00772Y010589D01*
X007715Y010583D01*
X00771Y010577D01*
X007708Y010574D01*
X007706Y010572D01*
X007704Y01057D01*
X007703Y010569D01*
X007702Y010568D01*
X007702Y010568D01*
X007697Y010562D01*
X007692Y010556D01*
X007687Y010551D01*
X007683Y010546D01*
X007679Y010542D01*
X007676Y010538D01*
X007672Y010535D01*
X00767Y010532D01*
X007667Y010529D01*
X007664Y010527D01*
X007663Y010525D01*
X007661Y010523D01*
X007659Y010521D01*
X007658Y01052D01*
X007652Y010515D01*
X007646Y010511D01*
X007641Y010507D01*
X007636Y010504D01*
X007632Y010502D01*
X00763Y010501D01*
X007628Y0105D01*
X007627Y0105D01*
X007622Y010497D01*
X007616Y010496D01*
X007611Y010494D01*
X007607Y010494D01*
X007603Y010493D01*
X0076Y010493D01*
X007598D01*
X007597D01*
X007592Y010493D01*
X007587Y010494D01*
X007581Y010495D01*
X007577Y010496D01*
X007568Y0105D01*
X007561Y010504D01*
X007558Y010506D01*
X007556Y010508D01*
X007553Y010509D01*
X007551Y010511D01*
X00755Y010513D01*
X007548Y010513D01*
X007548Y010514D01*
X007548Y010515D01*
X007544Y010519D01*
X007541Y010523D01*
X007538Y010528D01*
X007536Y010532D01*
X007532Y010542D01*
X00753Y010551D01*
X007529Y010555D01*
X007528Y010559D01*
X007528Y010563D01*
X007528Y010566D01*
X007527Y010568D01*
Y010572D01*
X007528Y010579D01*
X007528Y010585D01*
X007529Y010591D01*
X00753Y010596D01*
X007532Y010601D01*
X007533Y010606D01*
X007535Y01061D01*
X007537Y010614D01*
X007539Y010618D01*
X00754Y010621D01*
X007542Y010623D01*
X007543Y010626D01*
X007544Y010627D01*
X007545Y010628D01*
X007546Y010629D01*
X007546Y01063D01*
X00755Y010633D01*
X007554Y010636D01*
X007558Y01064D01*
X007563Y010642D01*
X007571Y010647D01*
X00758Y01065D01*
X007584Y010651D01*
X007588Y010652D01*
X007591Y010652D01*
X007594Y010653D01*
X007597Y010654D01*
X007599D01*
X0076Y010654D01*
X0076D01*
X007603Y010622D01*
X007595Y010622D01*
X007588Y01062D01*
X007581Y010618D01*
X007576Y010615D01*
X007572Y010613D01*
X007569Y010611D01*
X007567Y01061D01*
X007566Y010609D01*
X007562Y010603D01*
X007559Y010597D01*
X007556Y010591D01*
X007555Y010586D01*
X007553Y010581D01*
X007553Y010576D01*
X007553Y010575D01*
Y010573D01*
X007553Y010565D01*
X007555Y010558D01*
X007557Y010552D01*
X007559Y010547D01*
X007561Y010543D01*
X007563Y010541D01*
X007565Y010539D01*
X007565Y010538D01*
X007571Y010534D01*
X007576Y010531D01*
X007581Y010528D01*
X007586Y010527D01*
X00759Y010525D01*
X007593Y010525D01*
X007596Y010525D01*
X007596D01*
X007596D01*
X007603Y010525D01*
X00761Y010527D01*
X007616Y010529D01*
X007622Y010532D01*
X007627Y010535D01*
X007631Y010537D01*
X007632Y010538D01*
X007633Y010539D01*
X007634Y01054D01*
X007634D01*
X007638Y010543D01*
X007642Y010546D01*
X007646Y01055D01*
X007651Y010555D01*
X007659Y010564D01*
X007668Y010573D01*
X007672Y010577D01*
X007676Y010581D01*
X007679Y010585D01*
X007682Y010589D01*
X007684Y010591D01*
X007686Y010594D01*
X007687Y010595D01*
X007687Y010595D01*
X007695Y010604D01*
X007702Y010613D01*
X007709Y01062D01*
X007714Y010625D01*
X007719Y01063D01*
X007722Y010633D01*
X007725Y010635D01*
X007725Y010636D01*
X007725D01*
X007731Y010641D01*
X007737Y010645D01*
X007743Y010648D01*
X007748Y010651D01*
X007753Y010654D01*
X007756Y010655D01*
X007758Y010656D01*
X007758Y010656D01*
X007759D01*
X007763Y010658D01*
X007766Y010658D01*
X00777Y010659D01*
X007773Y010659D01*
X007776Y01066D01*
X007778D01*
X00778D01*
X00778D01*
Y010493D01*
D02*
G37*
G36*
X004191Y011036D02*
X004193D01*
X004199Y011035D01*
X004206Y011034D01*
X004213Y011032D01*
X004221Y01103D01*
X004229Y011026D01*
X004229D01*
X00423Y011026D01*
X004231Y011025D01*
X004232Y011024D01*
X004236Y011022D01*
X004241Y011019D01*
X004246Y011015D01*
X004251Y01101D01*
X004256Y011004D01*
X00426Y010998D01*
Y010998D01*
X004261Y010997D01*
X004261Y010996D01*
X004262Y010995D01*
X004264Y010991D01*
X004265Y010986D01*
X004268Y01098D01*
X004269Y010973D01*
X00427Y010966D01*
X004271Y010957D01*
Y010955D01*
X00427Y010954D01*
Y010951D01*
X00427Y010947D01*
X004269Y010944D01*
X004268Y010939D01*
X004267Y010935D01*
X004266Y01093D01*
X004264Y010925D01*
X004262Y01092D01*
X004259Y010914D01*
X004256Y010909D01*
X004252Y010904D01*
X004248Y010899D01*
X004242Y010894D01*
X004242Y010894D01*
X004241Y010893D01*
X00424Y010892D01*
X004237Y010891D01*
X004234Y010888D01*
X00423Y010887D01*
X004225Y010884D01*
X00422Y010882D01*
X004214Y01088D01*
X004207Y010877D01*
X004199Y010876D01*
X004191Y010874D01*
X004182Y010872D01*
X004171Y010871D01*
X004161Y01087D01*
X004149Y01087D01*
X004149D01*
X004148D01*
X004147D01*
X004146D01*
X004142Y01087D01*
X004137D01*
X004131Y010871D01*
X004124Y010871D01*
X004116Y010872D01*
X004108Y010873D01*
X0041Y010875D01*
X004091Y010876D01*
X004082Y010879D01*
X004073Y010881D01*
X004065Y010884D01*
X004057Y010888D01*
X004049Y010892D01*
X004043Y010897D01*
X004042Y010897D01*
X004041Y010898D01*
X00404Y010899D01*
X004038Y010901D01*
X004036Y010903D01*
X004033Y010906D01*
X004031Y01091D01*
X004028Y010913D01*
X004025Y010918D01*
X004023Y010923D01*
X00402Y010928D01*
X004018Y010933D01*
X004016Y01094D01*
X004015Y010946D01*
X004014Y010953D01*
X004013Y01096D01*
Y010963D01*
X004014Y010966D01*
Y010968D01*
X004014Y010971D01*
X004016Y010978D01*
X004017Y010986D01*
X00402Y010994D01*
X004025Y011002D01*
X004027Y011006D01*
X00403Y011009D01*
X004031Y01101D01*
X004031Y01101D01*
X004032Y011011D01*
X004033Y011012D01*
X004035Y011014D01*
X004037Y011015D01*
X004042Y011019D01*
X004049Y011023D01*
X004057Y011027D01*
X004066Y01103D01*
X004076Y011032D01*
X004079Y011002D01*
X004078D01*
X004078Y011001D01*
X004076Y011001D01*
X004072Y011D01*
X004068Y010998D01*
X004064Y010997D01*
X00406Y010995D01*
X004056Y010992D01*
X004052Y01099D01*
X004052Y010989D01*
X00405Y010987D01*
X004048Y010985D01*
X004045Y010981D01*
X004043Y010976D01*
X004041Y010971D01*
X00404Y010965D01*
X004039Y010959D01*
Y010956D01*
X004039Y010953D01*
X00404Y01095D01*
X004041Y010945D01*
X004043Y010941D01*
X004044Y010937D01*
X004047Y010932D01*
X004048Y010932D01*
X004049Y01093D01*
X004052Y010927D01*
X004055Y010924D01*
X00406Y01092D01*
X004065Y010916D01*
X004071Y010913D01*
X004079Y010909D01*
X004079D01*
X00408Y010909D01*
X004081Y010908D01*
X004082Y010908D01*
X004084Y010907D01*
X004087Y010907D01*
X00409Y010906D01*
X004094Y010905D01*
X004098Y010904D01*
X004102Y010903D01*
X004107Y010903D01*
X004112Y010902D01*
X004118Y010901D01*
X004123Y010901D01*
X00413Y010901D01*
X004137D01*
X004136Y010901D01*
X004134Y010903D01*
X004131Y010905D01*
X004127Y010908D01*
X004123Y010912D01*
X004119Y010917D01*
X004115Y010922D01*
X004111Y010928D01*
Y010928D01*
X004111Y010928D01*
X00411Y010931D01*
X004109Y010934D01*
X004107Y010938D01*
X004106Y010943D01*
X004104Y010949D01*
X004103Y010955D01*
X004103Y010962D01*
Y010965D01*
X004103Y010967D01*
X004104Y01097D01*
X004104Y010973D01*
X004105Y010976D01*
X004106Y01098D01*
X004108Y010988D01*
X00411Y010993D01*
X004113Y010997D01*
X004115Y011002D01*
X004118Y011006D01*
X004122Y011011D01*
X004126Y011015D01*
X004126Y011015D01*
X004127Y011016D01*
X004128Y011017D01*
X00413Y011018D01*
X004132Y01102D01*
X004135Y011022D01*
X004138Y011023D01*
X004142Y011026D01*
X004146Y011028D01*
X00415Y01103D01*
X004155Y011031D01*
X004161Y011033D01*
X004166Y011034D01*
X004172Y011035D01*
X004178Y011036D01*
X004185Y011036D01*
X004185D01*
X004186D01*
X004187D01*
X004189D01*
X004191Y011036D01*
D02*
G37*
G36*
X004189Y010842D02*
X004191Y010842D01*
X004194Y010841D01*
X004197Y01084D01*
X004201Y010838D01*
X004205Y010836D01*
X00421Y010834D01*
X00422Y010829D01*
X00423Y010822D01*
X004236Y010818D01*
X004241Y010814D01*
X004245Y01081D01*
X004249Y010805D01*
X00425Y010805D01*
X00425Y010804D01*
X004251Y010802D01*
X004253Y0108D01*
X004254Y010797D01*
X004256Y010794D01*
X004258Y01079D01*
X00426Y010786D01*
X004262Y010782D01*
X004264Y010777D01*
X004266Y010771D01*
X004268Y010765D01*
X004269Y010759D01*
X00427Y010753D01*
X00427Y010746D01*
X004271Y010738D01*
Y010734D01*
X00427Y010731D01*
Y010728D01*
X00427Y010724D01*
X004269Y01072D01*
X004269Y010715D01*
X004267Y010704D01*
X004264Y010693D01*
X00426Y010682D01*
X004257Y010677D01*
X004254Y010672D01*
X004254Y010672D01*
X004254Y010671D01*
X004253Y01067D01*
X004251Y010668D01*
X00425Y010666D01*
X004248Y010663D01*
X004245Y01066D01*
X004242Y010658D01*
X004239Y010655D01*
X004236Y010651D01*
X004227Y010645D01*
X004217Y010639D01*
X004206Y010633D01*
X004206D01*
X004205Y010632D01*
X004203Y010632D01*
X004201Y010631D01*
X004198Y01063D01*
X004194Y010629D01*
X00419Y010628D01*
X004186Y010627D01*
X004181Y010626D01*
X004176Y010624D01*
X004165Y010622D01*
X004152Y010621D01*
X004139Y01062D01*
X004138D01*
X004137D01*
X004135D01*
X004132Y01062D01*
X004128D01*
X004125Y010621D01*
X00412Y010621D01*
X004115Y010622D01*
X004105Y010624D01*
X004093Y010626D01*
X004082Y01063D01*
X00407Y010635D01*
X00407Y010635D01*
X004069Y010636D01*
X004067Y010636D01*
X004066Y010638D01*
X004063Y010639D01*
X00406Y010641D01*
X004054Y010646D01*
X004046Y010652D01*
X004039Y010659D01*
X004032Y010668D01*
X004025Y010678D01*
X004025Y010678D01*
X004025Y010679D01*
X004024Y010681D01*
X004023Y010682D01*
X004022Y010685D01*
X004021Y010688D01*
X004019Y010692D01*
X004018Y010696D01*
X004016Y0107D01*
X004015Y010705D01*
X004013Y010715D01*
X004011Y010727D01*
X00401Y010739D01*
Y010742D01*
X004011Y010745D01*
X004011Y010748D01*
X004011Y010752D01*
X004012Y010756D01*
X004013Y010761D01*
X004015Y010771D01*
X004018Y010782D01*
X00402Y010787D01*
X004023Y010792D01*
X004026Y010797D01*
X004029Y010802D01*
X00403Y010803D01*
X00403Y010804D01*
X004031Y010805D01*
X004033Y010807D01*
X004035Y010809D01*
X004037Y010811D01*
X00404Y010814D01*
X004043Y010817D01*
X004047Y01082D01*
X004051Y010822D01*
X004056Y010826D01*
X00406Y010829D01*
X004066Y010831D01*
X004071Y010834D01*
X004077Y010836D01*
X004084Y010838D01*
X004091Y010806D01*
X004091D01*
X00409Y010805D01*
X004089Y010805D01*
X004087Y010804D01*
X004085Y010803D01*
X004082Y010802D01*
X004076Y010799D01*
X00407Y010796D01*
X004063Y010791D01*
X004057Y010786D01*
X004051Y01078D01*
X004051Y010779D01*
X004049Y010777D01*
X004047Y010773D01*
X004045Y010769D01*
X004043Y010762D01*
X00404Y010755D01*
X004039Y010747D01*
X004039Y010738D01*
Y010735D01*
X004039Y010733D01*
Y010731D01*
X004039Y010728D01*
X00404Y010721D01*
X004042Y010713D01*
X004044Y010705D01*
X004048Y010697D01*
X004053Y010689D01*
Y010689D01*
X004054Y010689D01*
X004055Y010686D01*
X004058Y010683D01*
X004063Y010679D01*
X004068Y010674D01*
X004074Y01067D01*
X004082Y010666D01*
X00409Y010662D01*
X004091D01*
X004091Y010662D01*
X004092Y010661D01*
X004094Y010661D01*
X004096Y01066D01*
X004099Y010659D01*
X004105Y010658D01*
X004112Y010657D01*
X00412Y010655D01*
X004129Y010655D01*
X004139Y010654D01*
X004139D01*
X00414D01*
X004142D01*
X004144D01*
X004147Y010655D01*
X00415D01*
X004154Y010655D01*
X004158Y010655D01*
X004166Y010656D01*
X004176Y010658D01*
X004185Y01066D01*
X004195Y010663D01*
X004195D01*
X004196Y010664D01*
X004197Y010664D01*
X004199Y010665D01*
X004203Y010667D01*
X004208Y010671D01*
X004214Y010675D01*
X00422Y01068D01*
X004226Y010686D01*
X004231Y010693D01*
Y010693D01*
X004231Y010694D01*
X004232Y010695D01*
X004233Y010696D01*
X004233Y010698D01*
X004234Y0107D01*
X004237Y010705D01*
X004239Y010712D01*
X004241Y010719D01*
X004242Y010727D01*
X004242Y010735D01*
Y010738D01*
X004242Y01074D01*
Y010743D01*
X004242Y010745D01*
X00424Y010752D01*
X004238Y010759D01*
X004236Y010767D01*
X004232Y010775D01*
X004229Y010779D01*
X004226Y010783D01*
X004226Y010783D01*
X004226Y010784D01*
X004225Y010785D01*
X004223Y010786D01*
X004222Y010788D01*
X004219Y010789D01*
X004217Y010792D01*
X004214Y010793D01*
X004211Y010796D01*
X004207Y010798D01*
X004204Y0108D01*
X004199Y010802D01*
X004195Y010804D01*
X00419Y010806D01*
X004184Y010808D01*
X004178Y010809D01*
X004187Y010843D01*
X004187D01*
X004189Y010842D01*
D02*
G37*
G36*
X015027Y004599D02*
X015028Y004598D01*
X015029Y004597D01*
X015031Y004595D01*
X015034Y004593D01*
X015037Y00459D01*
X01504Y004587D01*
X015045Y004584D01*
X015049Y004581D01*
X015054Y004577D01*
X01506Y004573D01*
X015066Y004569D01*
X015072Y004565D01*
X015079Y00456D01*
X015087Y004556D01*
X015095Y004551D01*
X015095Y004551D01*
X015096Y00455D01*
X015099Y004549D01*
X015102Y004547D01*
X015106Y004546D01*
X01511Y004543D01*
X015115Y004541D01*
X015121Y004538D01*
X015128Y004535D01*
X015134Y004532D01*
X015142Y004529D01*
X015149Y004526D01*
X015165Y00452D01*
X015182Y004515D01*
X015182D01*
X015183Y004515D01*
X015185Y004514D01*
X015187Y004514D01*
X01519Y004513D01*
X015194Y004512D01*
X015198Y004511D01*
X015202Y00451D01*
X015207Y004509D01*
X015212Y004508D01*
X015224Y004506D01*
X015237Y004504D01*
X015251Y004503D01*
Y004472D01*
X01525D01*
X015249D01*
X015248D01*
X015246Y004472D01*
X015243D01*
X015239Y004472D01*
X015235Y004473D01*
X015231Y004473D01*
X015226Y004474D01*
X01522Y004475D01*
X015214Y004476D01*
X015208Y004477D01*
X015202Y004478D01*
X015194Y004479D01*
X015179Y004483D01*
X015179D01*
X015178Y004483D01*
X015175Y004484D01*
X015172Y004485D01*
X015168Y004486D01*
X015164Y004488D01*
X015159Y004489D01*
X015154Y004491D01*
X015147Y004494D01*
X015141Y004496D01*
X015127Y004501D01*
X015113Y004508D01*
X015098Y004515D01*
X015098Y004515D01*
X015096Y004516D01*
X015095Y004517D01*
X015092Y004519D01*
X015088Y00452D01*
X015084Y004523D01*
X01508Y004526D01*
X015075Y004529D01*
X015065Y004535D01*
X015054Y004543D01*
X015042Y004551D01*
X015032Y00456D01*
Y004436D01*
X015002D01*
Y004599D01*
X015026D01*
X015027Y004599D01*
D02*
G37*
G36*
X015173Y004405D02*
X015175Y004405D01*
X015178Y004404D01*
X015181Y004403D01*
X015185Y004401D01*
X01519Y004399D01*
X015194Y004397D01*
X015204Y004392D01*
X015215Y004385D01*
X01522Y004381D01*
X015225Y004377D01*
X015229Y004373D01*
X015234Y004368D01*
X015234Y004368D01*
X015235Y004367D01*
X015235Y004365D01*
X015237Y004363D01*
X015239Y00436D01*
X015241Y004357D01*
X015242Y004353D01*
X015244Y004349D01*
X015246Y004345D01*
X015248Y00434D01*
X01525Y004334D01*
X015252Y004328D01*
X015253Y004322D01*
X015254Y004316D01*
X015255Y004309D01*
X015255Y004301D01*
Y004297D01*
X015255Y004294D01*
Y004291D01*
X015254Y004287D01*
X015254Y004283D01*
X015253Y004278D01*
X015251Y004267D01*
X015248Y004256D01*
X015244Y004245D01*
X015242Y00424D01*
X015239Y004235D01*
X015238Y004235D01*
X015238Y004234D01*
X015237Y004233D01*
X015235Y004231D01*
X015234Y004229D01*
X015232Y004226D01*
X015229Y004223D01*
X015226Y004221D01*
X015223Y004218D01*
X01522Y004214D01*
X015211Y004208D01*
X015202Y004202D01*
X015191Y004196D01*
X01519D01*
X015189Y004195D01*
X015187Y004195D01*
X015185Y004194D01*
X015182Y004193D01*
X015179Y004192D01*
X015175Y004191D01*
X01517Y00419D01*
X015166Y004189D01*
X01516Y004187D01*
X015149Y004185D01*
X015136Y004184D01*
X015123Y004183D01*
X015123D01*
X015121D01*
X015119D01*
X015116Y004183D01*
X015113D01*
X015109Y004184D01*
X015104Y004184D01*
X0151Y004185D01*
X015089Y004187D01*
X015077Y004189D01*
X015066Y004193D01*
X015055Y004198D01*
X015054Y004198D01*
X015053Y004199D01*
X015052Y004199D01*
X01505Y004201D01*
X015047Y004202D01*
X015044Y004204D01*
X015038Y004209D01*
X01503Y004215D01*
X015023Y004222D01*
X015016Y004231D01*
X01501Y004241D01*
X015009Y004241D01*
X015009Y004242D01*
X015008Y004243D01*
X015007Y004245D01*
X015006Y004248D01*
X015005Y004251D01*
X015004Y004255D01*
X015002Y004259D01*
X015001Y004263D01*
X014999Y004268D01*
X014997Y004278D01*
X014995Y00429D01*
X014994Y004302D01*
Y004305D01*
X014995Y004308D01*
X014995Y004311D01*
X014996Y004315D01*
X014996Y004319D01*
X014997Y004324D01*
X014999Y004334D01*
X015002Y004345D01*
X015005Y00435D01*
X015007Y004355D01*
X01501Y00436D01*
X015014Y004365D01*
X015014Y004366D01*
X015014Y004367D01*
X015016Y004368D01*
X015017Y00437D01*
X015019Y004372D01*
X015022Y004374D01*
X015025Y004377D01*
X015028Y00438D01*
X015031Y004383D01*
X015036Y004385D01*
X01504Y004389D01*
X015045Y004392D01*
X01505Y004394D01*
X015056Y004397D01*
X015061Y004399D01*
X015068Y004401D01*
X015076Y004369D01*
X015075D01*
X015075Y004368D01*
X015073Y004368D01*
X015071Y004367D01*
X015069Y004366D01*
X015066Y004365D01*
X01506Y004362D01*
X015054Y004359D01*
X015047Y004354D01*
X015041Y004349D01*
X015036Y004343D01*
X015035Y004342D01*
X015033Y00434D01*
X015032Y004336D01*
X015029Y004332D01*
X015027Y004325D01*
X015025Y004318D01*
X015023Y00431D01*
X015023Y004301D01*
Y004298D01*
X015023Y004296D01*
Y004294D01*
X015024Y004291D01*
X015025Y004284D01*
X015026Y004276D01*
X015029Y004268D01*
X015032Y00426D01*
X015037Y004252D01*
Y004252D01*
X015038Y004252D01*
X01504Y004249D01*
X015042Y004246D01*
X015047Y004242D01*
X015052Y004237D01*
X015059Y004233D01*
X015066Y004229D01*
X015075Y004225D01*
X015075D01*
X015076Y004225D01*
X015077Y004224D01*
X015079Y004224D01*
X015081Y004223D01*
X015083Y004222D01*
X015089Y004221D01*
X015097Y00422D01*
X015105Y004218D01*
X015113Y004218D01*
X015123Y004217D01*
X015123D01*
X015124D01*
X015126D01*
X015128D01*
X015131Y004218D01*
X015134D01*
X015138Y004218D01*
X015142Y004218D01*
X015151Y004219D01*
X01516Y004221D01*
X01517Y004223D01*
X015179Y004226D01*
X015179D01*
X01518Y004227D01*
X015181Y004227D01*
X015183Y004228D01*
X015187Y00423D01*
X015192Y004234D01*
X015198Y004238D01*
X015204Y004243D01*
X01521Y004249D01*
X015215Y004256D01*
Y004256D01*
X015215Y004257D01*
X015216Y004258D01*
X015217Y004259D01*
X015218Y004261D01*
X015219Y004263D01*
X015221Y004268D01*
X015223Y004275D01*
X015225Y004282D01*
X015226Y00429D01*
X015227Y004298D01*
Y004301D01*
X015226Y004303D01*
Y004306D01*
X015226Y004308D01*
X015224Y004315D01*
X015223Y004322D01*
X01522Y00433D01*
X015216Y004338D01*
X015214Y004342D01*
X015211Y004346D01*
X01521Y004346D01*
X01521Y004347D01*
X015209Y004348D01*
X015208Y004349D01*
X015206Y004351D01*
X015204Y004352D01*
X015202Y004355D01*
X015199Y004356D01*
X015195Y004359D01*
X015192Y004361D01*
X015188Y004363D01*
X015184Y004365D01*
X015179Y004367D01*
X015174Y004369D01*
X015168Y004371D01*
X015163Y004372D01*
X015171Y004406D01*
X015171D01*
X015173Y004405D01*
D02*
G37*
G36*
X014893Y004193D02*
X014897D01*
X014901Y004192D01*
X014905Y004192D01*
X01491Y004191D01*
X014921Y004189D01*
X014932Y004187D01*
X014944Y004183D01*
X014955Y004178D01*
X014956Y004178D01*
X014957Y004177D01*
X014958Y004177D01*
X01496Y004175D01*
X014963Y004174D01*
X014966Y004172D01*
X014972Y004167D01*
X014979Y004161D01*
X014987Y004154D01*
X014994Y004145D01*
X015Y004135D01*
X015Y004135D01*
X015001Y004134D01*
X015002Y004132D01*
X015003Y004131D01*
X015004Y004128D01*
X015005Y004125D01*
X015006Y004121D01*
X015008Y004117D01*
X015009Y004113D01*
X015011Y004108D01*
X015013Y004098D01*
X015015Y004086D01*
X015015Y004074D01*
Y004071D01*
X015015Y004068D01*
X015015Y004065D01*
X015014Y004061D01*
X015014Y004057D01*
X015013Y004052D01*
X015011Y004042D01*
X015007Y004031D01*
X015005Y004026D01*
X015003Y004021D01*
X014999Y004016D01*
X014996Y004011D01*
X014996Y00401D01*
X014995Y004009D01*
X014994Y004008D01*
X014992Y004006D01*
X014991Y004004D01*
X014988Y004002D01*
X014985Y003999D01*
X014982Y003996D01*
X014979Y003993D01*
X014974Y003991D01*
X01497Y003987D01*
X014965Y003984D01*
X01496Y003982D01*
X014954Y003979D01*
X014948Y003977D01*
X014942Y003975D01*
X014934Y004007D01*
X014935D01*
X014935Y004008D01*
X014937Y004008D01*
X014939Y004009D01*
X014941Y00401D01*
X014944Y004011D01*
X01495Y004014D01*
X014956Y004017D01*
X014963Y004022D01*
X014969Y004027D01*
X014974Y004033D01*
X014975Y004034D01*
X014976Y004036D01*
X014978Y00404D01*
X014981Y004044D01*
X014983Y004051D01*
X014985Y004058D01*
X014987Y004066D01*
X014987Y004075D01*
Y004078D01*
X014987Y00408D01*
Y004082D01*
X014986Y004085D01*
X014985Y004092D01*
X014984Y0041D01*
X014981Y004108D01*
X014978Y004116D01*
X014973Y004124D01*
Y004124D01*
X014972Y004124D01*
X01497Y004127D01*
X014967Y00413D01*
X014963Y004134D01*
X014958Y004139D01*
X014951Y004143D01*
X014944Y004147D01*
X014935Y004151D01*
X014935D01*
X014934Y004151D01*
X014933Y004152D01*
X014931Y004152D01*
X014929Y004153D01*
X014927Y004154D01*
X01492Y004155D01*
X014913Y004156D01*
X014905Y004158D01*
X014896Y004158D01*
X014887Y004159D01*
X014887D01*
X014885D01*
X014884D01*
X014881D01*
X014879Y004158D01*
X014876D01*
X014872Y004158D01*
X014868Y004158D01*
X014859Y004157D01*
X01485Y004155D01*
X01484Y004153D01*
X014831Y00415D01*
X01483D01*
X01483Y004149D01*
X014829Y004149D01*
X014827Y004148D01*
X014822Y004146D01*
X014817Y004142D01*
X014812Y004138D01*
X014805Y004133D01*
X0148Y004127D01*
X014795Y00412D01*
Y00412D01*
X014794Y004119D01*
X014794Y004118D01*
X014793Y004117D01*
X014792Y004115D01*
X014791Y004113D01*
X014789Y004108D01*
X014787Y004101D01*
X014785Y004094D01*
X014784Y004086D01*
X014783Y004078D01*
Y004075D01*
X014784Y004073D01*
Y00407D01*
X014784Y004068D01*
X014785Y004061D01*
X014787Y004054D01*
X01479Y004046D01*
X014794Y004038D01*
X014796Y004034D01*
X014799Y00403D01*
X0148Y00403D01*
X0148Y004029D01*
X014801Y004028D01*
X014802Y004027D01*
X014804Y004025D01*
X014806Y004024D01*
X014808Y004021D01*
X014811Y00402D01*
X014814Y004017D01*
X014818Y004015D01*
X014822Y004013D01*
X014826Y004011D01*
X014831Y004009D01*
X014836Y004007D01*
X014841Y004005D01*
X014847Y004004D01*
X014839Y00397D01*
X014839D01*
X014837Y003971D01*
X014835Y003971D01*
X014832Y003972D01*
X014829Y003973D01*
X014825Y003975D01*
X01482Y003977D01*
X014816Y003979D01*
X014805Y003984D01*
X014795Y003991D01*
X01479Y003995D01*
X014785Y003999D01*
X014781Y004003D01*
X014776Y004008D01*
X014776Y004008D01*
X014775Y004009D01*
X014774Y004011D01*
X014773Y004013D01*
X014771Y004016D01*
X014769Y004019D01*
X014768Y004023D01*
X014766Y004027D01*
X014764Y004031D01*
X014762Y004036D01*
X01476Y004042D01*
X014758Y004048D01*
X014757Y004054D01*
X014756Y00406D01*
X014755Y004067D01*
X014755Y004075D01*
Y004079D01*
X014755Y004082D01*
Y004085D01*
X014756Y004089D01*
X014756Y004093D01*
X014757Y004098D01*
X014759Y004109D01*
X014762Y00412D01*
X014766Y004131D01*
X014768Y004136D01*
X014771Y004141D01*
X014772Y004141D01*
X014772Y004142D01*
X014773Y004143D01*
X014774Y004145D01*
X014776Y004147D01*
X014778Y00415D01*
X014781Y004153D01*
X014784Y004155D01*
X014787Y004158D01*
X01479Y004162D01*
X014798Y004168D01*
X014808Y004174D01*
X014819Y00418D01*
X01482D01*
X014821Y004181D01*
X014822Y004181D01*
X014825Y004182D01*
X014828Y004183D01*
X014831Y004184D01*
X014835Y004185D01*
X01484Y004186D01*
X014844Y004187D01*
X01485Y004189D01*
X014861Y004191D01*
X014874Y004192D01*
X014887Y004193D01*
X014887D01*
X014889D01*
X014891D01*
X014893Y004193D01*
D02*
G37*
G36*
X014836Y003942D02*
X014838D01*
X01484Y003941D01*
X014846Y003941D01*
X014853Y003939D01*
X014859Y003937D01*
X014866Y003934D01*
X014873Y00393D01*
X014873D01*
X014873Y003929D01*
X014875Y003928D01*
X014878Y003925D01*
X014882Y003921D01*
X014885Y003916D01*
X014889Y003909D01*
X014893Y003902D01*
X014895Y003894D01*
Y003894D01*
X014896Y003895D01*
X014896Y003896D01*
X014897Y003897D01*
X014898Y003901D01*
X0149Y003905D01*
X014903Y00391D01*
X014907Y003914D01*
X014911Y003919D01*
X014915Y003923D01*
X014916Y003923D01*
X014917Y003924D01*
X01492Y003926D01*
X014924Y003927D01*
X014929Y003929D01*
X014934Y00393D01*
X01494Y003932D01*
X014947Y003932D01*
X014947D01*
X014948D01*
X01495D01*
X014952Y003932D01*
X014954Y003931D01*
X014957Y003931D01*
X014963Y003929D01*
X01497Y003927D01*
X014978Y003924D01*
X014982Y003921D01*
X014986Y003919D01*
X01499Y003916D01*
X014993Y003912D01*
X014994Y003912D01*
X014994Y003911D01*
X014995Y00391D01*
X014996Y003909D01*
X014998Y003907D01*
X014999Y003904D01*
X015001Y003901D01*
X015003Y003898D01*
X015004Y003895D01*
X015006Y003891D01*
X015008Y003886D01*
X015009Y003882D01*
X015011Y003872D01*
X015012Y003866D01*
X015012Y00386D01*
Y003857D01*
X015012Y003854D01*
X015011Y003851D01*
X015011Y003848D01*
X015011Y003845D01*
X01501Y003841D01*
X015007Y003832D01*
X015004Y003823D01*
X015002Y003819D01*
X014999Y003815D01*
X014996Y003811D01*
X014993Y003807D01*
X014992Y003806D01*
X014992Y003806D01*
X014991Y003805D01*
X01499Y003803D01*
X014987Y003802D01*
X014985Y0038D01*
X01498Y003797D01*
X014973Y003793D01*
X014965Y00379D01*
X014956Y003787D01*
X014951Y003787D01*
X014946Y003786D01*
X014946D01*
X014945D01*
X014943D01*
X01494Y003787D01*
X014936Y003787D01*
X014931Y003789D01*
X014926Y00379D01*
X01492Y003793D01*
X014915Y003796D01*
X014915Y003796D01*
X014913Y003798D01*
X014911Y0038D01*
X014908Y003803D01*
X014905Y003807D01*
X014901Y003811D01*
X014898Y003817D01*
X014895Y003823D01*
Y003823D01*
X014895Y003822D01*
X014895Y003821D01*
X014894Y00382D01*
X014892Y003815D01*
X014889Y00381D01*
X014886Y003805D01*
X014882Y003799D01*
X014877Y003794D01*
X014871Y003789D01*
X014871D01*
X01487Y003788D01*
X014868Y003787D01*
X014864Y003785D01*
X01486Y003782D01*
X014854Y00378D01*
X014847Y003778D01*
X014839Y003776D01*
X014831Y003776D01*
X01483D01*
X014829D01*
X014828D01*
X014825Y003776D01*
X014823Y003777D01*
X01482Y003777D01*
X014816Y003778D01*
X014812Y003779D01*
X014804Y003782D01*
X014799Y003783D01*
X014794Y003786D01*
X01479Y003789D01*
X014785Y003791D01*
X014781Y003795D01*
X014777Y003799D01*
X014776Y003799D01*
X014776Y0038D01*
X014774Y003801D01*
X014773Y003803D01*
X014772Y003806D01*
X01477Y003808D01*
X014768Y003811D01*
X014766Y003815D01*
X014764Y003819D01*
X014762Y003824D01*
X01476Y003829D01*
X014758Y003834D01*
X014757Y00384D01*
X014756Y003846D01*
X014755Y003852D01*
X014755Y003859D01*
Y003863D01*
X014755Y003865D01*
X014756Y003869D01*
X014756Y003872D01*
X014757Y003876D01*
X014758Y003881D01*
X01476Y00389D01*
X014762Y003896D01*
X014764Y0039D01*
X014766Y003905D01*
X014769Y00391D01*
X014773Y003915D01*
X014777Y00392D01*
X014777Y00392D01*
X014778Y003921D01*
X014779Y003922D01*
X014781Y003923D01*
X014783Y003925D01*
X014785Y003927D01*
X014788Y003929D01*
X014792Y003931D01*
X014796Y003933D01*
X0148Y003935D01*
X014809Y003938D01*
X014814Y00394D01*
X01482Y003941D01*
X014826Y003942D01*
X014832Y003942D01*
X014832D01*
X014833D01*
X014834D01*
X014836Y003942D01*
D02*
G37*
G36*
X015394Y006144D02*
X015397Y006144D01*
X0154Y006143D01*
X015404Y006142D01*
X015408Y006141D01*
X015416Y006139D01*
X015421Y006136D01*
X015425Y006134D01*
X01543Y006131D01*
X015435Y006128D01*
X01544Y006124D01*
X015444Y00612D01*
X015444Y00612D01*
X015445Y006119D01*
X015446Y006117D01*
X015448Y006116D01*
X015449Y006113D01*
X015451Y006111D01*
X015453Y006107D01*
X015455Y006103D01*
X015458Y006099D01*
X01546Y006095D01*
X015462Y00609D01*
X015463Y006084D01*
X015465Y006079D01*
X015466Y006072D01*
X015467Y006066D01*
X015467Y006059D01*
Y006056D01*
X015467Y006054D01*
X015466Y006051D01*
X015466Y006048D01*
X015465Y006044D01*
X015464Y00604D01*
X015462Y006031D01*
X015459Y006022D01*
X015456Y006017D01*
X015454Y006013D01*
X015451Y006009D01*
X015447Y006004D01*
X015447Y006004D01*
X015446Y006003D01*
X015445Y006002D01*
X015444Y006001D01*
X015442Y005999D01*
X015439Y005997D01*
X015437Y005995D01*
X015433Y005993D01*
X01543Y005991D01*
X015426Y005989D01*
X015417Y005985D01*
X015407Y005981D01*
X015402Y00598D01*
X015396Y00598D01*
X015392Y00601D01*
X015392D01*
X015393Y006011D01*
X015395Y006011D01*
X015396Y006012D01*
X015399Y006012D01*
X015401Y006013D01*
X015407Y006014D01*
X015413Y006017D01*
X015419Y00602D01*
X015425Y006024D01*
X01543Y006028D01*
X015431Y006029D01*
X015432Y00603D01*
X015434Y006033D01*
X015436Y006037D01*
X015438Y006041D01*
X01544Y006047D01*
X015441Y006053D01*
X015441Y00606D01*
Y006062D01*
X015441Y006063D01*
X015441Y006067D01*
X01544Y006072D01*
X015438Y006078D01*
X015435Y006084D01*
X015432Y006091D01*
X015427Y006096D01*
X015426Y006097D01*
X015424Y006099D01*
X01542Y006101D01*
X015416Y006104D01*
X015411Y006107D01*
X015404Y006109D01*
X015397Y006111D01*
X015389Y006112D01*
X015389D01*
X015388D01*
X015387D01*
X015385Y006111D01*
X015381Y006111D01*
X015377Y00611D01*
X015371Y006108D01*
X015365Y006106D01*
X015359Y006102D01*
X015354Y006097D01*
X015353Y006097D01*
X015352Y006095D01*
X015349Y006092D01*
X015347Y006088D01*
X015344Y006083D01*
X015342Y006077D01*
X015341Y00607D01*
X01534Y006062D01*
Y006059D01*
X01534Y006056D01*
X015341Y006053D01*
X015341Y006049D01*
X015342Y006045D01*
X015343Y00604D01*
X015316Y006044D01*
Y006046D01*
X015316Y006047D01*
Y006052D01*
X015316Y006056D01*
X015315Y006061D01*
X015314Y006066D01*
X015312Y006072D01*
X015309Y006078D01*
X015306Y006084D01*
Y006085D01*
X015306Y006085D01*
X015304Y006087D01*
X015302Y006089D01*
X015298Y006092D01*
X015294Y006095D01*
X015288Y006098D01*
X015282Y0061D01*
X015278Y0061D01*
X015274D01*
X015274D01*
X015274D01*
X015272D01*
X015269Y0061D01*
X015265Y006099D01*
X01526Y006097D01*
X015255Y006096D01*
X015251Y006093D01*
X015246Y006089D01*
X015246Y006088D01*
X015245Y006087D01*
X015243Y006084D01*
X015241Y006081D01*
X015239Y006076D01*
X015237Y006071D01*
X015235Y006065D01*
X015235Y006059D01*
Y006056D01*
X015236Y006053D01*
X015237Y006048D01*
X015238Y006044D01*
X01524Y006039D01*
X015243Y006034D01*
X015246Y006029D01*
X015247Y006029D01*
X015249Y006027D01*
X015251Y006025D01*
X015255Y006022D01*
X015259Y00602D01*
X015265Y006017D01*
X015272Y006015D01*
X01528Y006014D01*
X015275Y005983D01*
X015274D01*
X015273Y005983D01*
X015272Y005984D01*
X01527Y005984D01*
X015267Y005985D01*
X015264Y005986D01*
X015257Y005988D01*
X015249Y005992D01*
X015241Y005996D01*
X015234Y006001D01*
X015227Y006008D01*
X015226Y006009D01*
X015226Y006009D01*
X015225Y00601D01*
X015224Y006012D01*
X015223Y006014D01*
X015221Y006016D01*
X01522Y006019D01*
X015218Y006022D01*
X015215Y006029D01*
X015212Y006038D01*
X01521Y006048D01*
X01521Y006053D01*
Y006062D01*
X01521Y006066D01*
X015211Y006071D01*
X015212Y006076D01*
X015214Y006083D01*
X015216Y006089D01*
X015219Y006096D01*
Y006096D01*
X015219Y006097D01*
X01522Y006099D01*
X015222Y006102D01*
X015225Y006106D01*
X015229Y00611D01*
X015233Y006115D01*
X015237Y006119D01*
X015243Y006123D01*
X015243Y006123D01*
X015245Y006124D01*
X015249Y006125D01*
X015253Y006127D01*
X015257Y006129D01*
X015263Y006131D01*
X015269Y006132D01*
X015275Y006132D01*
X015276D01*
X015278D01*
X015281Y006132D01*
X015285Y006131D01*
X01529Y00613D01*
X015295Y006128D01*
X0153Y006126D01*
X015305Y006123D01*
X015306Y006123D01*
X015307Y006121D01*
X01531Y006119D01*
X015313Y006116D01*
X015316Y006113D01*
X01532Y006108D01*
X015323Y006103D01*
X015326Y006097D01*
Y006097D01*
X015326Y006098D01*
X015327Y006099D01*
X015327Y006101D01*
X015329Y006105D01*
X015331Y00611D01*
X015334Y006116D01*
X015337Y006121D01*
X015342Y006127D01*
X015348Y006132D01*
X015348Y006132D01*
X01535Y006134D01*
X015354Y006136D01*
X015359Y006138D01*
X015365Y00614D01*
X015372Y006143D01*
X01538Y006144D01*
X015388Y006144D01*
X015389D01*
X01539D01*
X015392D01*
X015394Y006144D01*
D02*
G37*
G36*
X015366Y005936D02*
X015369D01*
X015374Y005935D01*
X015378Y005935D01*
X015388Y005934D01*
X015398Y005933D01*
X015408Y00593D01*
X015413Y005929D01*
X015417Y005927D01*
X015417D01*
X015418Y005927D01*
X015419Y005926D01*
X015421Y005926D01*
X015425Y005923D01*
X01543Y00592D01*
X015436Y005916D01*
X015441Y005911D01*
X015448Y005904D01*
X015453Y005896D01*
Y005896D01*
X015454Y005895D01*
X015454Y005894D01*
X015455Y005892D01*
X015456Y00589D01*
X015458Y005887D01*
X015459Y005884D01*
X01546Y005881D01*
X015462Y005877D01*
X015463Y005872D01*
X015464Y005867D01*
X015465Y005862D01*
X015466Y005856D01*
X015466Y005851D01*
X015467Y005838D01*
Y005834D01*
X015467Y005832D01*
Y005829D01*
X015466Y005825D01*
X015466Y005821D01*
X015466Y005817D01*
X015464Y005808D01*
X015462Y005798D01*
X015459Y005789D01*
X015455Y00578D01*
Y005779D01*
X015454Y005779D01*
X015453Y005778D01*
X015453Y005776D01*
X01545Y005772D01*
X015446Y005767D01*
X015441Y005762D01*
X015435Y005757D01*
X015428Y005752D01*
X01542Y005748D01*
X015419D01*
X015419Y005747D01*
X015417Y005747D01*
X015415Y005746D01*
X015413Y005745D01*
X01541Y005745D01*
X015407Y005744D01*
X015403Y005743D01*
X015399Y005742D01*
X015394Y005741D01*
X015389Y00574D01*
X015383Y00574D01*
X015377Y005739D01*
X015371Y005739D01*
X015364Y005738D01*
X015356D01*
X015211D01*
Y005772D01*
X015356D01*
X015357D01*
X015358D01*
X01536D01*
X015362D01*
X015364Y005772D01*
X015368D01*
X015375Y005772D01*
X015383Y005773D01*
X015391Y005774D01*
X015398Y005776D01*
X015401Y005776D01*
X015405Y005778D01*
X015405Y005778D01*
X015407Y005779D01*
X01541Y00578D01*
X015413Y005783D01*
X015417Y005785D01*
X015421Y005789D01*
X015425Y005793D01*
X015428Y005798D01*
X015429Y005799D01*
X01543Y005801D01*
X015431Y005804D01*
X015432Y005808D01*
X015434Y005814D01*
X015435Y00582D01*
X015436Y005827D01*
X015437Y005835D01*
Y005838D01*
X015436Y00584D01*
Y005844D01*
X015436Y005847D01*
X015435Y005855D01*
X015433Y005864D01*
X01543Y005872D01*
X015426Y00588D01*
X015423Y005884D01*
X01542Y005887D01*
X01542Y005887D01*
X01542Y005888D01*
X015419Y005889D01*
X015417Y00589D01*
X015415Y005891D01*
X015413Y005892D01*
X015409Y005894D01*
X015406Y005895D01*
X015402Y005897D01*
X015397Y005898D01*
X015392Y005899D01*
X015386Y0059D01*
X01538Y005901D01*
X015373Y005902D01*
X015365Y005903D01*
X015356D01*
X015211D01*
Y005936D01*
X015356D01*
X015357D01*
X015358D01*
X01536D01*
X015362D01*
X015366Y005936D01*
D02*
G37*
G36*
X012728Y00242D02*
X012731D01*
X012734Y00242D01*
X012739Y002419D01*
X012748Y002418D01*
X012757Y002416D01*
X012767Y002414D01*
X012776Y002411D01*
X012776D01*
X012777Y00241D01*
X012778Y00241D01*
X01278Y002409D01*
X012784Y002407D01*
X012789Y002403D01*
X012795Y002399D01*
X012801Y002394D01*
X012807Y002388D01*
X012812Y002381D01*
Y00238D01*
X012813Y00238D01*
X012813Y002379D01*
X012815Y002377D01*
X012815Y002375D01*
X012816Y002373D01*
X012819Y002368D01*
X012821Y002361D01*
X012824Y002353D01*
X012825Y002344D01*
X012826Y002335D01*
X012795Y002332D01*
Y002333D01*
Y002333D01*
X012794Y002334D01*
Y002336D01*
X012793Y002339D01*
X012792Y002344D01*
X012791Y002348D01*
X012789Y002354D01*
X012787Y002359D01*
X012784Y002364D01*
X012784Y002364D01*
X012783Y002365D01*
X012781Y002368D01*
X012778Y002371D01*
X012774Y002374D01*
X01277Y002377D01*
X012765Y00238D01*
X012759Y002383D01*
X012759D01*
X012758Y002384D01*
X012757Y002384D01*
X012756Y002384D01*
X012753Y002385D01*
X012748Y002387D01*
X012742Y002388D01*
X012736Y002389D01*
X012728Y00239D01*
X01272Y002391D01*
X012717D01*
X012713Y00239D01*
X012709Y00239D01*
X012704Y002389D01*
X012698Y002388D01*
X012692Y002387D01*
X012687Y002385D01*
X012686Y002385D01*
X012684Y002384D01*
X012682Y002383D01*
X012678Y002381D01*
X012675Y002379D01*
X012671Y002376D01*
X012668Y002373D01*
X012665Y002369D01*
X012665Y002369D01*
X012664Y002368D01*
X012663Y002366D01*
X012661Y002363D01*
X01266Y00236D01*
X012659Y002356D01*
X012658Y002352D01*
X012658Y002348D01*
Y002348D01*
Y002346D01*
X012658Y002344D01*
X012658Y002341D01*
X012659Y002338D01*
X012661Y002334D01*
X012662Y002331D01*
X012665Y002327D01*
X012665Y002327D01*
X012666Y002326D01*
X012668Y002324D01*
X01267Y002322D01*
X012673Y00232D01*
X012677Y002317D01*
X012682Y002315D01*
X012687Y002313D01*
X012688Y002312D01*
X01269Y002312D01*
X012693Y002311D01*
X012694Y00231D01*
X012697Y00231D01*
X0127Y002309D01*
X012703Y002308D01*
X012706Y002307D01*
X012711Y002306D01*
X012715Y002305D01*
X01272Y002303D01*
X012726Y002302D01*
X012732Y0023D01*
X012733D01*
X012734Y0023D01*
X012736Y0023D01*
X012738Y002299D01*
X012741Y002298D01*
X012744Y002297D01*
X012751Y002295D01*
X012759Y002293D01*
X012768Y00229D01*
X012775Y002288D01*
X012778Y002286D01*
X012781Y002285D01*
X012781D01*
X012782Y002284D01*
X012784Y002283D01*
X012787Y002281D01*
X012791Y002278D01*
X012795Y002275D01*
X0128Y002271D01*
X012804Y002266D01*
X012808Y002261D01*
X012808Y00226D01*
X012809Y002258D01*
X012811Y002256D01*
X012812Y002252D01*
X012813Y002247D01*
X012815Y002242D01*
X012816Y002236D01*
X012816Y00223D01*
Y002229D01*
Y002229D01*
Y002228D01*
Y002226D01*
X012816Y002223D01*
X012815Y002218D01*
X012814Y002213D01*
X012812Y002206D01*
X012809Y0022D01*
X012806Y002194D01*
Y002194D01*
X012805Y002193D01*
X012804Y002191D01*
X012801Y002188D01*
X012798Y002185D01*
X012793Y002181D01*
X012788Y002176D01*
X012781Y002172D01*
X012774Y002169D01*
X012774D01*
X012773Y002168D01*
X012772Y002168D01*
X01277Y002167D01*
X012769Y002166D01*
X012766Y002166D01*
X012761Y002164D01*
X012754Y002163D01*
X012746Y002161D01*
X012737Y00216D01*
X012728Y00216D01*
X012723D01*
X012721Y00216D01*
X012718D01*
X012711Y002161D01*
X012704Y002162D01*
X012695Y002164D01*
X012687Y002166D01*
X012679Y002169D01*
X012678D01*
X012678Y002169D01*
X012677Y00217D01*
X012675Y002171D01*
X012671Y002173D01*
X012667Y002176D01*
X012661Y002179D01*
X012656Y002184D01*
X012651Y00219D01*
X012646Y002196D01*
Y002196D01*
X012646Y002197D01*
X012645Y002198D01*
X012644Y002199D01*
X012642Y002202D01*
X01264Y002207D01*
X012638Y002213D01*
X012636Y00222D01*
X012634Y002227D01*
X012633Y002235D01*
X012665Y002238D01*
Y002237D01*
Y002237D01*
X012666Y002236D01*
X012666Y002234D01*
X012667Y00223D01*
X012669Y002224D01*
X012671Y002218D01*
X012674Y002213D01*
X012678Y002207D01*
X012683Y002202D01*
X012684Y002202D01*
X012686Y0022D01*
X012689Y002198D01*
X012694Y002196D01*
X0127Y002194D01*
X012708Y002191D01*
X012717Y00219D01*
X012727Y00219D01*
X012732D01*
X012734Y00219D01*
X012737Y00219D01*
X012744Y002191D01*
X012751Y002193D01*
X012758Y002194D01*
X012765Y002197D01*
X012768Y002199D01*
X012771Y002201D01*
X012772Y002201D01*
X012773Y002203D01*
X012775Y002205D01*
X012777Y002208D01*
X01278Y002212D01*
X012782Y002217D01*
X012784Y002222D01*
X012784Y002227D01*
Y002228D01*
Y00223D01*
X012784Y002232D01*
X012783Y002235D01*
X012782Y002239D01*
X01278Y002242D01*
X012778Y002246D01*
X012775Y00225D01*
X012774Y00225D01*
X012773Y002251D01*
X012771Y002252D01*
X01277Y002253D01*
X012768Y002254D01*
X012765Y002256D01*
X012762Y002257D01*
X012758Y002258D01*
X012754Y00226D01*
X012749Y002261D01*
X012744Y002263D01*
X012738Y002265D01*
X012732Y002266D01*
X012725Y002268D01*
X012724D01*
X012723Y002268D01*
X012721Y002269D01*
X012718Y002269D01*
X012715Y00227D01*
X012711Y002271D01*
X012707Y002272D01*
X012702Y002273D01*
X012693Y002276D01*
X012684Y002278D01*
X012679Y00228D01*
X012675Y002281D01*
X012672Y002282D01*
X012669Y002284D01*
X012669D01*
X012668Y002284D01*
X012667Y002285D01*
X012665Y002286D01*
X012661Y002288D01*
X012657Y002291D01*
X012651Y002295D01*
X012646Y002299D01*
X012641Y002304D01*
X012636Y00231D01*
X012636Y00231D01*
X012634Y002312D01*
X012633Y002316D01*
X012631Y00232D01*
X012629Y002325D01*
X012627Y002331D01*
X012626Y002338D01*
X012626Y002345D01*
Y002346D01*
Y002346D01*
Y002347D01*
Y002349D01*
X012626Y002353D01*
X012627Y002358D01*
X012629Y002364D01*
X01263Y00237D01*
X012633Y002376D01*
X012637Y002383D01*
Y002384D01*
X012638Y002384D01*
X012639Y002386D01*
X012642Y002389D01*
X012646Y002393D01*
X01265Y002397D01*
X012656Y002402D01*
X012663Y002407D01*
X01267Y002411D01*
X012671D01*
X012671Y002411D01*
X012673Y002411D01*
X012674Y002412D01*
X012676Y002413D01*
X012679Y002414D01*
X012685Y002415D01*
X012692Y002417D01*
X0127Y002419D01*
X012709Y00242D01*
X012719Y00242D01*
X012725D01*
X012728Y00242D01*
D02*
G37*
G36*
X013012Y002164D02*
X012978D01*
Y002386D01*
X012854D01*
Y002416D01*
X013012D01*
Y002164D01*
D02*
G37*
G36*
X012507Y002219D02*
X012507Y002219D01*
X012509Y002221D01*
X012511Y002223D01*
X012515Y002226D01*
X012519Y002229D01*
X012524Y002233D01*
X01253Y002237D01*
X012536Y002241D01*
X012537D01*
X012537Y002241D01*
X012539Y002242D01*
X012543Y002244D01*
X012547Y002246D01*
X012552Y002249D01*
X012558Y002252D01*
X012563Y002254D01*
X012569Y002256D01*
Y002226D01*
X012568D01*
X012568Y002226D01*
X012566Y002225D01*
X012564Y002224D01*
X012562Y002223D01*
X01256Y002222D01*
X012554Y002218D01*
X012546Y002214D01*
X012539Y002209D01*
X012531Y002203D01*
X012524Y002197D01*
X012523Y002197D01*
X012523Y002196D01*
X012522Y002195D01*
X01252Y002194D01*
X012517Y00219D01*
X012513Y002186D01*
X012508Y002181D01*
X012504Y002175D01*
X0125Y002169D01*
X012496Y002163D01*
X012476D01*
Y002416D01*
X012507D01*
Y002219D01*
D02*
G37*
G36*
X011313Y008203D02*
X011282D01*
Y0084D01*
X011282Y0084D01*
X01128Y008398D01*
X011278Y008396D01*
X011274Y008393D01*
X01127Y00839D01*
X011265Y008386D01*
X011259Y008382D01*
X011253Y008378D01*
X011252D01*
X011252Y008378D01*
X01125Y008377D01*
X011246Y008375D01*
X011242Y008373D01*
X011237Y00837D01*
X011231Y008368D01*
X011226Y008365D01*
X01122Y008363D01*
Y008393D01*
X011221D01*
X011221Y008393D01*
X011223Y008394D01*
X011225Y008395D01*
X011227Y008396D01*
X011229Y008397D01*
X011235Y008401D01*
X011243Y008405D01*
X01125Y00841D01*
X011258Y008416D01*
X011265Y008422D01*
X011266Y008423D01*
X011266Y008423D01*
X011267Y008424D01*
X011269Y008425D01*
X011272Y008429D01*
X011276Y008433D01*
X011281Y008438D01*
X011285Y008444D01*
X011289Y00845D01*
X011293Y008456D01*
X011313D01*
Y008203D01*
D02*
G37*
G36*
X011175Y008425D02*
X011092D01*
Y008203D01*
X011058D01*
Y008425D01*
X010975D01*
Y008455D01*
X011175D01*
Y008425D01*
D02*
G37*
G36*
X010859Y008455D02*
X010862D01*
X010869Y008454D01*
X010876Y008453D01*
X010884Y008452D01*
X010891Y00845D01*
X010898Y008447D01*
X010899D01*
X010899Y008447D01*
X010901Y008446D01*
X010905Y008444D01*
X010908Y008441D01*
X010913Y008438D01*
X010917Y008434D01*
X010922Y008429D01*
X010926Y008424D01*
X010926Y008423D01*
X010927Y008421D01*
X010929Y008418D01*
X010931Y008413D01*
X010933Y008408D01*
X010934Y008403D01*
X010935Y008397D01*
X010936Y00839D01*
Y00839D01*
Y008388D01*
X010935Y008385D01*
X010935Y008381D01*
X010934Y008376D01*
X010932Y008371D01*
X01093Y008366D01*
X010927Y00836D01*
X010926Y00836D01*
X010925Y008358D01*
X010923Y008355D01*
X01092Y008352D01*
X010917Y008349D01*
X010912Y008345D01*
X010907Y008341D01*
X010901Y008337D01*
X010901D01*
X010902Y008337D01*
X010903Y008337D01*
X010904Y008336D01*
X010909Y008334D01*
X010914Y008332D01*
X010919Y008329D01*
X010925Y008325D01*
X010931Y00832D01*
X010936Y008314D01*
X010936Y008313D01*
X010938Y008311D01*
X01094Y008308D01*
X010942Y008304D01*
X010944Y008298D01*
X010946Y008292D01*
X010948Y008284D01*
X010948Y008276D01*
Y008276D01*
Y008275D01*
Y008273D01*
X010948Y00827D01*
X010947Y008265D01*
X010946Y00826D01*
X010945Y008255D01*
X010943Y008249D01*
X010941Y008243D01*
X01094Y008242D01*
X010939Y008241D01*
X010938Y008238D01*
X010935Y008234D01*
X010933Y008231D01*
X01093Y008227D01*
X010926Y008223D01*
X010922Y008219D01*
X010922Y008219D01*
X01092Y008218D01*
X010918Y008217D01*
X010914Y008215D01*
X01091Y008213D01*
X010906Y008211D01*
X010901Y008209D01*
X010894Y008207D01*
X010894D01*
X010891Y008206D01*
X010888Y008206D01*
X010883Y008205D01*
X010877Y008205D01*
X01087Y008204D01*
X010863Y008203D01*
X010854Y008203D01*
X010758D01*
Y008455D01*
X010857D01*
X010859Y008455D01*
D02*
G37*
%LPC*%
G36*
X016556Y006969D02*
X016554D01*
X016546Y006968D01*
X016539Y006966D01*
X016533Y006964D01*
X016527Y006961D01*
X016523Y006958D01*
X01652Y006956D01*
X016518Y006954D01*
X016517Y006954D01*
X016513Y006948D01*
X016509Y006941D01*
X016507Y006935D01*
X016505Y006929D01*
X016504Y006923D01*
X016504Y006921D01*
Y006919D01*
X016503Y006917D01*
Y006916D01*
Y006915D01*
Y006915D01*
X016504Y006905D01*
X016505Y006896D01*
X016508Y006889D01*
X016511Y006883D01*
X016513Y006878D01*
X016516Y006874D01*
X016517Y006873D01*
X016517Y006872D01*
X016518Y006871D01*
Y006871D01*
X016521Y006868D01*
X016524Y006865D01*
X01653Y006861D01*
X016536Y006858D01*
X016542Y006856D01*
X016547Y006855D01*
X016551Y006854D01*
X016552Y006854D01*
X016558D01*
X016562Y006855D01*
X016568Y006856D01*
X016574Y006859D01*
X016579Y006862D01*
X016583Y006864D01*
X016586Y006867D01*
X016588Y006869D01*
X016589Y006869D01*
Y00687D01*
X016594Y006876D01*
X016597Y006883D01*
X0166Y00689D01*
X016601Y006897D01*
X016602Y006903D01*
X016603Y006905D01*
Y006908D01*
X016603Y00691D01*
Y006911D01*
Y006912D01*
Y006912D01*
X016602Y006922D01*
X016601Y00693D01*
X016599Y006937D01*
X016596Y006943D01*
X016593Y006947D01*
X016591Y006951D01*
X01659Y006953D01*
X016589Y006954D01*
X016583Y006959D01*
X016578Y006962D01*
X016572Y006965D01*
X016566Y006967D01*
X016561Y006968D01*
X016557Y006968D01*
X016556Y006969D01*
D02*
G37*
G36*
X016752Y007789D02*
X01675D01*
X016746Y007788D01*
X016742Y007788D01*
X016735Y007785D01*
X016729Y007782D01*
X016724Y007778D01*
X01672Y007775D01*
X016716Y007772D01*
X016714Y007769D01*
X016714Y007769D01*
Y007768D01*
X016711Y007764D01*
X016709Y007759D01*
X016707Y007753D01*
X016705Y007747D01*
X016704Y00774D01*
X016703Y007733D01*
X016701Y007719D01*
X0167Y007713D01*
X0167Y007706D01*
X016699Y007701D01*
Y007696D01*
X016699Y007691D01*
Y007688D01*
Y007686D01*
Y007686D01*
X016699Y007674D01*
X0167Y007664D01*
X016701Y007655D01*
X016702Y007646D01*
X016703Y007638D01*
X016704Y007631D01*
X016706Y007625D01*
X016707Y00762D01*
X016709Y007615D01*
X01671Y007611D01*
X016711Y007608D01*
X016712Y007605D01*
X016713Y007603D01*
X016714Y007602D01*
X016715Y007601D01*
Y0076D01*
X016717Y007597D01*
X01672Y007594D01*
X016723Y007592D01*
X016726Y00759D01*
X016732Y007587D01*
X016737Y007584D01*
X016742Y007583D01*
X016746Y007583D01*
X016747Y007582D01*
X016749D01*
X016753Y007583D01*
X016757Y007583D01*
X016761Y007584D01*
X016764Y007586D01*
X01677Y007589D01*
X016776Y007592D01*
X01678Y007596D01*
X016783Y0076D01*
X016784Y007601D01*
X016785Y007602D01*
X016786Y007603D01*
Y007603D01*
X016788Y007607D01*
X01679Y007612D01*
X016793Y007618D01*
X016794Y007624D01*
X016796Y007631D01*
X016797Y007638D01*
X016798Y007652D01*
X016799Y007659D01*
X0168Y007665D01*
X0168Y007671D01*
Y007675D01*
X0168Y00768D01*
Y007683D01*
Y007685D01*
Y007685D01*
Y007686D01*
Y007697D01*
X0168Y007707D01*
X016799Y007716D01*
X016798Y007725D01*
X016797Y007732D01*
X016796Y007739D01*
X016794Y007745D01*
X016793Y00775D01*
X016792Y007755D01*
X01679Y007758D01*
X016789Y007762D01*
X016788Y007764D01*
X016787Y007766D01*
X016786Y007767D01*
X016785Y007768D01*
Y007768D01*
X016782Y007772D01*
X01678Y007775D01*
X016777Y007778D01*
X016774Y00778D01*
X016768Y007784D01*
X016762Y007786D01*
X016757Y007788D01*
X016753Y007788D01*
X016752Y007789D01*
D02*
G37*
G36*
X005187Y011443D02*
X005074D01*
Y011363D01*
X005187Y011443D01*
D02*
G37*
G36*
X004187Y011005D02*
X004186D01*
X004186D01*
X004184D01*
X004182Y011004D01*
X00418D01*
X004178Y011004D01*
X004172Y011003D01*
X004165Y011002D01*
X004158Y010999D01*
X004152Y010995D01*
X004146Y010991D01*
X004145Y01099D01*
X004143Y010988D01*
X004141Y010985D01*
X004138Y010981D01*
X004135Y010976D01*
X004133Y01097D01*
X004131Y010963D01*
X00413Y010956D01*
Y010954D01*
X004131Y010952D01*
X004131Y010948D01*
X004132Y010943D01*
X004134Y010938D01*
X004137Y010932D01*
X004141Y010926D01*
X004146Y01092D01*
X004146Y010919D01*
X004148Y010918D01*
X004151Y010915D01*
X004156Y010913D01*
X004162Y01091D01*
X004169Y010908D01*
X004176Y010906D01*
X004185Y010905D01*
X004186D01*
X004187D01*
X004191Y010906D01*
X004195Y010906D01*
X004199Y010907D01*
X004205Y010908D01*
X00421Y01091D01*
X004215Y010912D01*
X004216Y010912D01*
X004218Y010913D01*
X004221Y010915D01*
X004224Y010917D01*
X004227Y01092D01*
X004231Y010923D01*
X004234Y010927D01*
X004238Y010931D01*
X004238Y010932D01*
X004239Y010933D01*
X00424Y010936D01*
X004241Y010939D01*
X004243Y010943D01*
X004244Y010947D01*
X004245Y010952D01*
X004245Y010957D01*
Y010959D01*
X004245Y01096D01*
X004245Y010964D01*
X004244Y010968D01*
X004241Y010974D01*
X004239Y010979D01*
X004235Y010985D01*
X004233Y010988D01*
X00423Y010991D01*
X004229D01*
X004229Y010991D01*
X004227Y010993D01*
X004223Y010995D01*
X004218Y010998D01*
X004212Y011D01*
X004205Y011003D01*
X004197Y011004D01*
X004187Y011005D01*
D02*
G37*
G36*
X014948Y0039D02*
X014947D01*
X014947D01*
X014945Y0039D01*
X014942Y0039D01*
X014938Y003899D01*
X014933Y003897D01*
X014928Y003896D01*
X014923Y003893D01*
X014919Y003889D01*
X014918Y003889D01*
X014917Y003887D01*
X014915Y003884D01*
X014913Y003881D01*
X014911Y003877D01*
X014909Y003872D01*
X014908Y003866D01*
X014907Y003859D01*
Y003858D01*
X014908Y003856D01*
X014908Y003853D01*
X014909Y003849D01*
X01491Y003844D01*
X014912Y003839D01*
X014915Y003834D01*
X014919Y00383D01*
X014919Y003829D01*
X014921Y003828D01*
X014923Y003826D01*
X014926Y003824D01*
X01493Y003822D01*
X014935Y00382D01*
X01494Y003818D01*
X014946Y003818D01*
X014947D01*
X014947D01*
X014949D01*
X014952Y003819D01*
X014956Y003819D01*
X014961Y003821D01*
X014966Y003823D01*
X01497Y003826D01*
X014975Y00383D01*
X014975Y00383D01*
X014977Y003832D01*
X014979Y003835D01*
X014981Y003838D01*
X014983Y003842D01*
X014985Y003847D01*
X014986Y003853D01*
X014987Y003859D01*
Y003862D01*
X014986Y003865D01*
X014985Y00387D01*
X014984Y003874D01*
X014982Y00388D01*
X014979Y003884D01*
X014975Y003889D01*
X014975Y003889D01*
X014973Y003891D01*
X014971Y003893D01*
X014967Y003894D01*
X014963Y003897D01*
X014959Y003898D01*
X014954Y0039D01*
X014948Y0039D01*
D02*
G37*
G36*
X014832Y00391D02*
X014831D01*
X014829D01*
X014827Y00391D01*
X014824Y00391D01*
X01482Y003909D01*
X014815Y003908D01*
X014811Y003906D01*
X014806Y003905D01*
X014806Y003904D01*
X014804Y003904D01*
X014802Y003902D01*
X014799Y0039D01*
X014796Y003897D01*
X014793Y003894D01*
X01479Y00389D01*
X014787Y003886D01*
X014786Y003885D01*
X014786Y003884D01*
X014785Y003881D01*
X014784Y003878D01*
X014782Y003874D01*
X014781Y003869D01*
X014781Y003864D01*
X01478Y003859D01*
Y003857D01*
X014781Y003855D01*
X014781Y003851D01*
X014782Y003846D01*
X014784Y00384D01*
X014786Y003834D01*
X01479Y003828D01*
X014794Y003822D01*
X014795Y003822D01*
X014797Y00382D01*
X0148Y003818D01*
X014804Y003815D01*
X014809Y003813D01*
X014816Y00381D01*
X014823Y003809D01*
X01483Y003808D01*
X014831D01*
X014832D01*
X014833D01*
X014834Y003808D01*
X014838Y003809D01*
X014844Y00381D01*
X014849Y003811D01*
X014855Y003814D01*
X014861Y003818D01*
X014867Y003823D01*
X014868Y003823D01*
X014869Y003825D01*
X014872Y003829D01*
X014875Y003833D01*
X014877Y003838D01*
X01488Y003845D01*
X014881Y003852D01*
X014882Y00386D01*
Y003862D01*
X014882Y003864D01*
X014881Y003868D01*
X01488Y003873D01*
X014879Y003879D01*
X014876Y003885D01*
X014872Y003891D01*
X014868Y003896D01*
X014867Y003897D01*
X014865Y003898D01*
X014862Y003901D01*
X014858Y003903D01*
X014852Y003906D01*
X014846Y003908D01*
X014839Y00391D01*
X014832Y00391D01*
D02*
G37*
G36*
X010851Y008425D02*
X010791D01*
Y008349D01*
X010853D01*
X010858Y00835D01*
X010863Y00835D01*
X010868Y00835D01*
X010873Y008351D01*
X010877Y008352D01*
X010878Y008352D01*
X010879Y008353D01*
X010882Y008354D01*
X010885Y008355D01*
X010887Y008357D01*
X010891Y008359D01*
X010894Y008362D01*
X010897Y008365D01*
X010897Y008365D01*
X010898Y008366D01*
X010899Y008368D01*
X0109Y008371D01*
X010901Y008374D01*
X010902Y008377D01*
X010903Y008382D01*
X010903Y008386D01*
Y008387D01*
Y008389D01*
X010903Y008391D01*
X010902Y008394D01*
X010902Y008397D01*
X010901Y008401D01*
X010899Y008405D01*
X010897Y008408D01*
X010897Y008409D01*
X010896Y00841D01*
X010894Y008412D01*
X010893Y008413D01*
X01089Y008416D01*
X010887Y008418D01*
X010883Y00842D01*
X010879Y008421D01*
X010879D01*
X010877Y008422D01*
X010875Y008423D01*
X010871Y008423D01*
X010865Y008424D01*
X010859Y008424D01*
X010851Y008425D01*
D02*
G37*
G36*
X010858Y00832D02*
X010791D01*
Y008233D01*
X010863D01*
X010871Y008233D01*
X010874Y008234D01*
X010877Y008234D01*
X010877D01*
X010879Y008234D01*
X010881Y008235D01*
X010883Y008235D01*
X01089Y008238D01*
X010896Y008241D01*
X010896Y008241D01*
X010897Y008242D01*
X010899Y008243D01*
X010901Y008244D01*
X010902Y008246D01*
X010905Y008249D01*
X010907Y008251D01*
X010909Y008255D01*
X010909Y008255D01*
X01091Y008256D01*
X01091Y008258D01*
X010911Y008261D01*
X010913Y008264D01*
X010913Y008267D01*
X010914Y008272D01*
X010914Y008276D01*
Y008277D01*
Y008278D01*
X010914Y008281D01*
X010913Y008285D01*
X010912Y008288D01*
X010911Y008292D01*
X010909Y008296D01*
X010906Y0083D01*
X010906Y008301D01*
X010905Y008302D01*
X010903Y008304D01*
X010901Y008306D01*
X010898Y008309D01*
X010895Y008311D01*
X010891Y008313D01*
X010886Y008315D01*
X010885Y008316D01*
X010884Y008316D01*
X010881Y008317D01*
X010877Y008317D01*
X010871Y008318D01*
X010865Y008319D01*
X010858Y00832D01*
D02*
G37*
%LPD*%
D11*
X015728Y006927D02*
X016713D01*
Y007384D01*
X015728D02*
X016713D01*
X015728Y006927D02*
Y007384D01*
Y007656D02*
X016713D01*
Y008112D01*
X015728D02*
X016713D01*
X015728Y007656D02*
Y008112D01*
X012854Y00364D02*
Y004096D01*
X013839D01*
Y00364D02*
Y004096D01*
X012854Y00364D02*
X013839D01*
X00613Y003701D02*
X006587D01*
X00613D02*
Y004685D01*
X006587D01*
Y003701D02*
Y004685D01*
X008827Y005069D02*
X009283D01*
X008827D02*
Y006053D01*
X009283D01*
Y005069D02*
Y006053D01*
X005837Y009417D02*
Y009874D01*
X004852Y009417D02*
X005837D01*
X004852D02*
Y009874D01*
X005837D01*
X007382Y010384D02*
Y01188D01*
X006161D02*
X007382D01*
X006161Y010384D02*
Y01188D01*
Y010384D02*
X007382D01*
X005451Y011585D02*
X005907D01*
Y0106D02*
Y011585D01*
X005451Y0106D02*
X005907D01*
X005451D02*
Y011585D01*
X004683Y0106D02*
X00514D01*
X004683D02*
Y011585D01*
X00514D01*
Y0106D02*
Y011585D01*
X007626Y011594D02*
X008083D01*
Y01061D02*
Y011594D01*
X007626Y01061D02*
X008083D01*
X007626D02*
Y011594D01*
X004112Y010128D02*
Y011112D01*
X004569D01*
Y010128D02*
Y011112D01*
X004112Y010128D02*
X004569D01*
X004861Y010726D02*
X005845D01*
X004861D02*
Y011183D01*
X005845D01*
Y010726D02*
Y011183D01*
X015096Y003691D02*
Y004675D01*
X015553D01*
Y003691D02*
Y004675D01*
X015096Y003691D02*
X015553D01*
X014913Y003701D02*
Y004685D01*
X014457Y003701D02*
X014913D01*
X014457D02*
Y004685D01*
X014913D01*
X01502Y00499D02*
Y006486D01*
X015906D01*
Y00499D02*
Y006486D01*
X01502Y00499D02*
X015906D01*
X012087Y001565D02*
X013937D01*
X012087D02*
Y003415D01*
X013937D01*
Y001565D02*
Y003415D01*
X007608Y013364D02*
X013907D01*
Y002894D02*
Y013364D01*
X007608Y002894D02*
X013907D01*
X007608D02*
Y013364D01*
M02*
