G04*
G04 #@! TF.GenerationSoftware,Altium Limited,Altium Designer,18.1.6 (161)*
G04*
G04 Layer_Color=128*
%FSTAX24Y24*%
%MOIN*%
G70*
G01*
G75*
%ADD64C,0.0020*%
D64*
X007734Y002126D02*
X007915D01*
X007825Y002035D02*
Y002217D01*
X007234Y002126D02*
X007415D01*
X007325Y002035D02*
Y002217D01*
X006734Y002126D02*
X006915D01*
X006825Y002035D02*
Y002217D01*
X007402Y014144D02*
X007736D01*
X007569Y013976D02*
Y014311D01*
X008592Y014154D02*
X008927D01*
X008759Y013986D02*
Y014321D01*
X005941Y002116D02*
X006122D01*
X006032Y002026D02*
Y002207D01*
X005441Y002116D02*
X005622D01*
X005531Y002026D02*
Y002207D01*
X004941Y002116D02*
X005122D01*
X005031Y002026D02*
Y002207D01*
X004441Y002116D02*
X004622D01*
X004532Y002026D02*
Y002207D01*
X004167Y009222D02*
X004317D01*
X004242Y009147D02*
Y009297D01*
X004266Y011447D02*
X004416D01*
X004341Y011372D02*
Y011522D01*
X006086Y004974D02*
X006236D01*
X006161Y004899D02*
Y005049D01*
X005171Y005699D02*
X005321D01*
X005246Y005624D02*
Y005774D01*
X011372Y004931D02*
X011522D01*
X011447Y004856D02*
Y005006D01*
X009827Y005413D02*
X009977D01*
X009902Y005338D02*
Y005488D01*
X013291Y004774D02*
X013441D01*
X013366Y004699D02*
Y004849D01*
X010683Y002667D02*
X010833D01*
X010758Y002592D02*
Y002742D01*
X005151Y009016D02*
X005301D01*
X005226Y008941D02*
Y009091D01*
X004266Y009803D02*
X004416D01*
X004341Y009728D02*
Y009878D01*
X014521Y003209D02*
X014671D01*
X014596Y003134D02*
Y003284D01*
X008302Y009037D02*
X008452D01*
X008377Y008962D02*
Y009112D01*
X011729Y004037D02*
X011879D01*
X011804Y003962D02*
Y004112D01*
X011273Y002028D02*
X011423D01*
X011348Y001953D02*
Y002103D01*
X006874Y006319D02*
X007024D01*
X006949Y006244D02*
Y006394D01*
X01585Y008386D02*
X016D01*
X015925Y008311D02*
Y008461D01*
X006679Y005031D02*
X006829D01*
X006754Y004956D02*
Y005106D01*
X006994Y009805D02*
X007144D01*
X007069Y00973D02*
Y00988D01*
X004346Y00759D02*
X004496D01*
X004421Y007515D02*
Y007665D01*
X009836Y006142D02*
X009986D01*
X009911Y006067D02*
Y006217D01*
X009049Y007146D02*
X009199D01*
X009124Y007071D02*
Y007221D01*
X009049Y008465D02*
X009199D01*
X009124Y00839D02*
Y00854D01*
X013439Y010057D02*
X013589D01*
X013514Y009982D02*
Y010132D01*
X013941Y009529D02*
X014091D01*
X014016Y009454D02*
Y009604D01*
X008963Y009283D02*
X009113D01*
X009038Y009208D02*
Y009358D01*
X008333Y009618D02*
X008483D01*
X008408Y009543D02*
Y009693D01*
X013911Y01061D02*
X014061D01*
X013986Y010535D02*
Y010685D01*
X004262Y004281D02*
X005443D01*
X004852Y003691D02*
Y004872D01*
X015453Y012165D02*
X016634D01*
X016043Y011575D02*
Y012756D01*
M02*
