G04*
G04 #@! TF.GenerationSoftware,Altium Limited,Altium Designer,18.1.6 (161)*
G04*
G04 Layer_Color=16711935*
%FSTAX24Y24*%
%MOIN*%
G70*
G01*
G75*
%ADD40C,0.0200*%
%ADD60C,0.0200*%
D40*
X004086Y001678D02*
D03*
X015376Y001678D02*
D03*
X015377Y001678D02*
D03*
X015379Y001682D02*
D03*
X015378Y001683D02*
D03*
X015378Y001683D02*
D03*
X015378Y001683D02*
D03*
X014935Y002332D02*
D03*
X014541Y002334D02*
D03*
X01576Y003709D02*
D03*
X015762Y004103D02*
D03*
X015762Y004103D02*
D03*
X016961Y003266D02*
D03*
X016966Y014559D02*
D03*
X016767Y014758D02*
D03*
D03*
X006311Y014082D02*
D03*
X006311Y014082D02*
D03*
X005092Y012727D02*
D03*
X003891Y01317D02*
D03*
D60*
X003886Y001877D02*
G03*
X004086Y001678I000199J0D01*
G01*
X015378Y001677D02*
G03*
X015382Y001679I000001J000002D01*
G01*
D02*
G03*
X015381Y001681I-000003J0D01*
G01*
X014935Y002332D02*
G03*
X015378Y001683I001101J000276D01*
G01*
X014935Y002332D02*
G03*
X014933Y002334I-000003J-000001D01*
G01*
X014541Y002882D02*
G03*
X014541Y002334I0J-000274D01*
G01*
X014933Y002882D02*
G03*
X014935Y002884I0J000003D01*
G01*
X01576Y003709D02*
G03*
X014935Y002884I000276J-001101D01*
G01*
X01576Y003709D02*
G03*
X015762Y003711I-000001J000003D01*
G01*
X01631Y004103D02*
G03*
X015762Y004103I-000274J0D01*
G01*
X01631Y003711D02*
G03*
X016312Y003709I000003J0D01*
G01*
X016961Y003266D02*
G03*
X016312Y003709I-000925J-000658D01*
G01*
X016961Y003266D02*
G03*
X016966Y003267I000002J000001D01*
G01*
Y014558D02*
G03*
X016966Y014559I-000003J0D01*
G01*
Y014558D02*
G03*
X016966Y014559I-000199J0D01*
G01*
Y014559D02*
G03*
X016767Y014758I-000199J-0D01*
G01*
X005476Y014758D02*
G03*
X005474Y014753I0J-000003D01*
G01*
X005917Y014105D02*
G03*
X005474Y014753I-001101J-000277D01*
G01*
X005901Y014086D02*
G03*
X005917Y014105I-002854J00226D01*
G01*
X005901Y014086D02*
G03*
X005901Y014084I000002J-000002D01*
G01*
Y014084D02*
G03*
X005903Y014082I000003J-0D01*
G01*
X006564Y013828D02*
G03*
X006311Y014082I-000253J0D01*
G01*
X006311Y013575D02*
G03*
X006564Y013828I0J000253D01*
G01*
X005903Y013575D02*
G03*
X005901Y013571I0J-000003D01*
G01*
X005917Y013551D02*
G03*
X005901Y013571I-002878J-002247D01*
G01*
X005092Y012727D02*
G03*
X005917Y013551I-000276J001101D01*
G01*
X005092Y012727D02*
G03*
X00509Y012725I000001J-000003D01*
G01*
X004542Y012333D02*
G03*
X00509Y012333I000274J0D01*
G01*
X004542Y012725D02*
G03*
X00454Y012727I-000003J0D01*
G01*
X003891Y01317D02*
G03*
X00454Y012727I000925J000658D01*
G01*
X003891Y01317D02*
G03*
X003886Y013169I-000002J-000001D01*
G01*
Y001878D02*
G03*
X003886Y001877I000003J0D01*
G01*
X004086Y001678D02*
Y001678D01*
Y001678D02*
X015376D01*
X015376Y001678D01*
X015376Y001678D02*
X015377Y001678D01*
X015377Y001678D02*
X015378Y001677D01*
X01538Y001682D02*
X015381Y001681D01*
X01538Y001682D02*
X01538Y001682D01*
X015379Y001682D02*
X01538Y001682D01*
X015378Y001683D02*
X015379Y001682D01*
X015378Y001683D02*
X015378Y001683D01*
X015378Y001683D01*
X015378Y001683D02*
X015378Y001683D01*
X014935Y002332D02*
X014935Y002332D01*
X014541Y002334D02*
X014933D01*
X014541Y002882D02*
X014933D01*
X014935Y002884D02*
X014935Y002884D01*
X01576Y003709D02*
X01576Y003709D01*
X015762Y003711D02*
Y004103D01*
X015762D02*
Y004103D01*
X01631Y003711D02*
Y004103D01*
X016312Y003709D02*
X016312Y003709D01*
X016961Y003266D02*
X016961Y003266D01*
X016966Y003267D02*
Y014558D01*
X016966D02*
Y014559D01*
X016767Y014758D02*
Y014758D01*
X016767Y014758D01*
X005476Y014758D02*
X016767D01*
X005474Y014753D02*
Y014753D01*
X005903Y014082D02*
X006311D01*
Y014082D02*
X006311D01*
X005903Y013575D02*
X006311D01*
X005901Y013571D02*
X005901D01*
X005092Y012727D02*
X005092Y012727D01*
X00509Y012333D02*
Y012725D01*
X004542Y012333D02*
Y012725D01*
X00454Y012727D02*
X00454Y012727D01*
X003891Y01317D02*
X003891Y01317D01*
X003886Y001878D02*
Y013169D01*
M02*
