G04*
G04 #@! TF.GenerationSoftware,Altium Limited,Altium Designer,18.1.6 (161)*
G04*
G04 Layer_Color=16711935*
%FSTAX24Y24*%
%MOIN*%
G70*
G01*
G75*
%ADD11C,0.0079*%
%ADD14C,0.0039*%
D11*
X015876Y006967D02*
X016565D01*
Y007344D01*
X015876D02*
X016565D01*
X015876Y006967D02*
Y007344D01*
Y007695D02*
X016565D01*
Y008073D01*
X015876D02*
X016565D01*
X015876Y007695D02*
Y008073D01*
X013002Y003679D02*
Y004057D01*
X013691D01*
Y003679D02*
Y004057D01*
X013002Y003679D02*
X013691D01*
X006169Y003848D02*
X006547D01*
X006169D02*
Y004537D01*
X006547D01*
Y003848D02*
Y004537D01*
X008866Y005217D02*
X009244D01*
X008866D02*
Y005906D01*
X009244D01*
Y005217D02*
Y005906D01*
X005689Y009457D02*
Y009835D01*
X005Y009457D02*
X005689D01*
X005D02*
Y009835D01*
X005689D01*
X007283Y010482D02*
Y011782D01*
X00626D02*
X007283D01*
X00626Y010482D02*
Y011782D01*
Y010482D02*
X007283D01*
X00549Y011437D02*
X005868D01*
Y010748D02*
Y011437D01*
X00549Y010748D02*
X005868D01*
X00549D02*
Y011437D01*
X004722Y010748D02*
X0051D01*
X004722D02*
Y011437D01*
X0051D01*
Y010748D02*
Y011437D01*
X007665Y011447D02*
X008043D01*
Y010758D02*
Y011447D01*
X007665Y010758D02*
X008043D01*
X007665D02*
Y011447D01*
X004152Y010276D02*
Y010965D01*
X00453D01*
Y010276D02*
Y010965D01*
X004152Y010276D02*
X00453D01*
X005009Y010766D02*
X005698D01*
X005009D02*
Y011144D01*
X005698D01*
Y010766D02*
Y011144D01*
X015136Y003839D02*
Y004528D01*
X015514D01*
Y003839D02*
Y004528D01*
X015136Y003839D02*
X015514D01*
X014874Y003848D02*
Y004537D01*
X014496Y003848D02*
X014874D01*
X014496D02*
Y004537D01*
X014874D01*
X015059Y005138D02*
Y006339D01*
X015866D01*
Y005138D02*
Y006339D01*
X015059Y005138D02*
X015866D01*
X0094Y013612D02*
Y014675D01*
X006919Y013612D02*
X0094D01*
X006919D02*
Y014675D01*
X0094D01*
X012126Y001604D02*
X013898D01*
X012126D02*
Y003376D01*
X013898D01*
Y001604D02*
Y003376D01*
X007648Y013325D02*
X013868D01*
Y00388D02*
Y013325D01*
X007648Y00388D02*
X013868D01*
X007648D02*
Y013325D01*
D14*
X006024Y008258D02*
G03*
X006024Y008258I-000197J0D01*
G01*
X00816Y003754D02*
G03*
X00816Y003754I-000197J0D01*
G01*
X004085Y00876D02*
X0044D01*
X004085Y00813D02*
X0044D01*
X004085D02*
Y00876D01*
X0044Y00813D02*
Y00876D01*
X005472Y008612D02*
X008228D01*
X005472Y005856D02*
X008228D01*
X005472D02*
Y008612D01*
X008228Y005856D02*
Y008612D01*
X009961Y005766D02*
X015079D01*
X009961Y014821D02*
X015079D01*
X009961Y005766D02*
Y014821D01*
X015079Y005766D02*
Y014821D01*
X012805Y004341D02*
Y004931D01*
X012707Y004341D02*
Y004931D01*
Y004341D02*
X014085D01*
Y004931D01*
X012707D02*
X014085D01*
X008484Y003839D02*
X0125D01*
X008484Y001949D02*
X0125D01*
Y003839D01*
X008484Y001949D02*
Y003839D01*
X006831Y003888D02*
Y004518D01*
X007146Y003888D02*
Y004518D01*
X006831D02*
X007146D01*
X006831Y003888D02*
X007146D01*
X007458D02*
Y004518D01*
X007773Y003888D02*
Y004518D01*
X007458D02*
X007773D01*
X007458Y003888D02*
X007773D01*
X006366Y002304D02*
Y003504D01*
X007866Y002304D02*
Y003504D01*
X006366D02*
X007866D01*
X006366Y002304D02*
X007866D01*
X008084Y003888D02*
Y004518D01*
X008399Y003888D02*
Y004518D01*
X008084D02*
X008399D01*
X008084Y003888D02*
X008399D01*
X00876D02*
Y004518D01*
X009075Y003888D02*
Y004518D01*
X00876D02*
X009075D01*
X00876Y003888D02*
X009075D01*
X00435Y005591D02*
X004665D01*
X00435Y00622D02*
X004665D01*
Y005591D02*
Y00622D01*
X00435Y005591D02*
Y00622D01*
X008356Y010984D02*
X008671D01*
X008356Y010354D02*
X008671D01*
X008356D02*
Y010984D01*
X008671Y010354D02*
Y010984D01*
X00501Y010108D02*
Y010423D01*
X00564Y010108D02*
Y010423D01*
X00501D02*
X00564D01*
X00501Y010108D02*
X00564D01*
X013907Y004508D02*
X014222D01*
X013907Y003878D02*
X014222D01*
Y004508D01*
X013907Y003878D02*
Y004508D01*
X01627Y006289D02*
X016585D01*
X01627Y006919D02*
X016585D01*
X01627Y006289D02*
Y006919D01*
X016585Y006289D02*
Y006919D01*
X01627Y00499D02*
X016585D01*
X01627Y00562D02*
X016585D01*
X01627Y00499D02*
Y00562D01*
X016585Y00499D02*
Y00562D01*
M02*
