G04*
G04 #@! TF.GenerationSoftware,Altium Limited,Altium Designer,18.1.6 (161)*
G04*
G04 Layer_Color=32768*
%FSTAX24Y24*%
%MOIN*%
G70*
G01*
G75*
%ADD11C,0.0079*%
%ADD14C,0.0039*%
%ADD63C,0.0020*%
D11*
X015728Y006927D02*
X016713D01*
Y007384D01*
X015728D02*
X016713D01*
X015728Y006927D02*
Y007384D01*
Y007656D02*
X016713D01*
Y008112D01*
X015728D02*
X016713D01*
X015728Y007656D02*
Y008112D01*
X012854Y00364D02*
Y004096D01*
X013839D01*
Y00364D02*
Y004096D01*
X012854Y00364D02*
X013839D01*
X00613Y003701D02*
X006587D01*
X00613D02*
Y004685D01*
X006587D01*
Y003701D02*
Y004685D01*
X008827Y005069D02*
X009283D01*
X008827D02*
Y006053D01*
X009283D01*
Y005069D02*
Y006053D01*
X005837Y009417D02*
Y009874D01*
X004852Y009417D02*
X005837D01*
X004852D02*
Y009874D01*
X005837D01*
X007382Y010384D02*
Y01188D01*
X006161D02*
X007382D01*
X006161Y010384D02*
Y01188D01*
Y010384D02*
X007382D01*
X005451Y011585D02*
X005907D01*
Y0106D02*
Y011585D01*
X005451Y0106D02*
X005907D01*
X005451D02*
Y011585D01*
X004683Y0106D02*
X00514D01*
X004683D02*
Y011585D01*
X00514D01*
Y0106D02*
Y011585D01*
X007626Y011594D02*
X008083D01*
Y01061D02*
Y011594D01*
X007626Y01061D02*
X008083D01*
X007626D02*
Y011594D01*
X004112Y010128D02*
Y011112D01*
X004569D01*
Y010128D02*
Y011112D01*
X004112Y010128D02*
X004569D01*
X004861Y010726D02*
X005845D01*
X004861D02*
Y011183D01*
X005845D01*
Y010726D02*
Y011183D01*
X015096Y003691D02*
Y004675D01*
X015553D01*
Y003691D02*
Y004675D01*
X015096Y003691D02*
X015553D01*
X014913Y003701D02*
Y004685D01*
X014457Y003701D02*
X014913D01*
X014457D02*
Y004685D01*
X014913D01*
X01502Y00499D02*
Y006486D01*
X015906D01*
Y00499D02*
Y006486D01*
X01502Y00499D02*
X015906D01*
X012087Y001565D02*
X013937D01*
X012087D02*
Y003415D01*
X013937D01*
Y001565D02*
Y003415D01*
X007608Y013364D02*
X013907D01*
Y002894D02*
Y013364D01*
X007608Y002894D02*
X013907D01*
X007608D02*
Y013364D01*
D14*
X00685Y007037D02*
Y007431D01*
X006654Y007234D02*
X007047D01*
X010492Y002697D02*
Y003091D01*
X010295Y002894D02*
X010689D01*
X0081Y002215D02*
Y003593D01*
X006132Y002215D02*
Y003593D01*
X0081D01*
X006132Y002215D02*
X0081D01*
X006919Y002904D02*
X007313D01*
X007116Y002707D02*
Y0031D01*
X010069Y012431D02*
Y015069D01*
X00625D02*
X010069D01*
X00625Y012431D02*
Y015069D01*
Y012431D02*
X010069D01*
D63*
X004921Y009163D02*
X00878D01*
X004921Y005305D02*
X00878D01*
X004921D02*
Y009163D01*
X00878Y005305D02*
Y009163D01*
X00952Y005315D02*
X01552D01*
X00952Y01486D02*
X01552D01*
X00952Y005315D02*
Y01486D01*
X01552Y005315D02*
Y01486D01*
X012323Y010293D02*
X012717D01*
X01252Y010096D02*
Y01049D01*
X012323Y010293D02*
X012717D01*
X01252Y010096D02*
Y01049D01*
X008228Y003622D02*
X012756D01*
X008228Y002165D02*
X012756D01*
Y003622D01*
X008228Y002165D02*
Y003622D01*
M02*
