G04*
G04 #@! TF.GenerationSoftware,Altium Limited,Altium Designer,18.1.6 (161)*
G04*
G04 Layer_Color=0*
%FSTAX24Y24*%
%MOIN*%
G70*
G01*
G75*
%ADD14C,0.0039*%
D14*
X016024Y007156D02*
X016417D01*
X01622Y006959D02*
Y007352D01*
X016024Y007884D02*
X016417D01*
X01622Y007687D02*
Y008081D01*
X013346Y003671D02*
Y004065D01*
X01315Y003868D02*
X013543D01*
X006161Y004193D02*
X006555D01*
X006358Y003996D02*
Y00439D01*
X008858Y005561D02*
X009252D01*
X009055Y005364D02*
Y005758D01*
X005344Y009449D02*
Y009843D01*
X005148Y009646D02*
X005541D01*
X006772Y010949D02*
Y011315D01*
X006589Y011132D02*
X006955D01*
X005482Y011093D02*
X005876D01*
X005679Y010896D02*
Y011289D01*
X004715Y011093D02*
X005108D01*
X004911Y010896D02*
Y011289D01*
X007657Y011102D02*
X008051D01*
X007854Y010906D02*
Y011299D01*
X004341Y010423D02*
Y010817D01*
X004144Y01062D02*
X004537D01*
X005156Y010955D02*
X00555D01*
X005353Y010758D02*
Y011152D01*
X015325Y003986D02*
Y00438D01*
X015128Y004183D02*
X015522D01*
X014685Y003996D02*
Y00439D01*
X014488Y004193D02*
X014882D01*
X015463Y005541D02*
Y005935D01*
X015266Y005738D02*
X015659D01*
X012815Y00249D02*
X013209D01*
X013012Y002293D02*
Y002687D01*
X010561Y008602D02*
X010955D01*
X010758Y008406D02*
Y008799D01*
X010561Y008602D02*
X010955D01*
X010758Y008406D02*
Y008799D01*
M02*
