G04*
G04 #@! TF.GenerationSoftware,Altium Limited,Altium Designer,18.1.6 (161)*
G04*
G04 Layer_Physical_Order=2*
G04 Layer_Color=16711680*
%FSTAX24Y24*%
%MOIN*%
G70*
G01*
G75*
%ADD10C,0.0098*%
%ADD15C,0.0100*%
%ADD16R,0.0295X0.0315*%
%ADD18R,0.0315X0.0295*%
%ADD19R,0.0374X0.0394*%
%ADD36C,0.0118*%
%ADD37C,0.0256*%
%ADD38R,0.0256X0.0256*%
%ADD39C,0.0167*%
%ADD40C,0.0200*%
%ADD41C,0.1575*%
%ADD42O,0.0098X0.0610*%
%ADD43O,0.0610X0.0098*%
%ADD44R,0.0394X0.0965*%
%ADD45R,0.0965X0.0394*%
%ADD46R,0.0492X0.0787*%
%ADD47R,0.0354X0.0374*%
%ADD48R,0.0630X0.1260*%
%ADD49R,0.0591X0.0354*%
%ADD50R,0.0472X0.0551*%
G36*
X009504Y014741D02*
Y011096D01*
X008568D01*
X008174Y01149D01*
X008131Y011519D01*
X008081Y011529D01*
X007986D01*
Y011791D01*
X007976Y011842D01*
X007947Y011884D01*
X007613Y012219D01*
X00757Y012247D01*
X00752Y012257D01*
X006634D01*
X006584Y012247D01*
X006541Y012219D01*
X006344Y012022D01*
X006316Y011979D01*
X006306Y011929D01*
Y011705D01*
X006093D01*
X006039Y011695D01*
X005993Y011664D01*
X005857Y011528D01*
X00497D01*
X004952Y011546D01*
X004906Y011577D01*
X004852Y011587D01*
X004341D01*
X004287Y011577D01*
X004241Y011546D01*
X004211Y011501D01*
X0042Y011447D01*
X00421Y011396D01*
Y010354D01*
X00422Y010304D01*
X004248Y010262D01*
X004865Y009646D01*
X004642Y009423D01*
X004614Y009381D01*
X004604Y009331D01*
Y008258D01*
X004613Y008212D01*
X004611Y00821D01*
X004556Y008199D01*
X004512Y008242D01*
X004508Y008245D01*
Y008415D01*
X004508Y008425D01*
Y008465D01*
X004508Y008475D01*
Y009016D01*
X004373D01*
Y009097D01*
X00441Y009153D01*
X004424Y009222D01*
X00441Y009292D01*
X004371Y009351D01*
X004312Y009391D01*
X004242Y009405D01*
X004172Y009391D01*
X004113Y009351D01*
X004074Y009292D01*
X00406Y009222D01*
X004074Y009153D01*
X004111Y009097D01*
Y009016D01*
X003976D01*
Y008475D01*
X003976Y008465D01*
Y008425D01*
X003976Y008415D01*
Y007874D01*
X004457D01*
X004472Y007824D01*
X004465Y007819D01*
X004417Y007771D01*
X004352Y007758D01*
X004292Y007719D01*
X004253Y00766D01*
X004239Y00759D01*
X004253Y00752D01*
X004292Y007461D01*
X004352Y007422D01*
X004421Y007408D01*
X004491Y007422D01*
X00455Y007461D01*
X00459Y00752D01*
X004603Y007586D01*
X004612Y007595D01*
X004756D01*
X004775Y007549D01*
X004435Y007209D01*
X004406Y007166D01*
X004396Y007116D01*
Y006476D01*
X004242D01*
Y005925D01*
X004774D01*
Y006476D01*
X004659D01*
Y007062D01*
X004823Y007226D01*
X004885Y007218D01*
X004897Y007198D01*
X004896Y007195D01*
X004889Y007186D01*
X004879Y007136D01*
X004889Y007086D01*
X004918Y007044D01*
Y007031D01*
X004889Y006989D01*
X004879Y006939D01*
X004889Y006889D01*
X004896Y00688D01*
X004915Y006841D01*
X004896Y006801D01*
X004889Y006792D01*
X004879Y006742D01*
X004889Y006692D01*
X004918Y00665D01*
Y006638D01*
X004889Y006595D01*
X004879Y006545D01*
X004889Y006495D01*
X004918Y006453D01*
Y006441D01*
X004889Y006398D01*
X004879Y006348D01*
X004889Y006298D01*
X004896Y006289D01*
X004915Y00625D01*
X004896Y006211D01*
X004889Y006202D01*
X004879Y006152D01*
X004889Y006102D01*
X004918Y006059D01*
X00496Y006031D01*
X00501Y006021D01*
X005115D01*
Y005824D01*
X005078Y005769D01*
X005064Y005699D01*
X005078Y005629D01*
X005117Y00557D01*
X005176Y00553D01*
X005246Y005517D01*
X005316Y00553D01*
X005375Y00557D01*
X005414Y005629D01*
X005428Y005699D01*
X005414Y005769D01*
X005377Y005824D01*
Y006021D01*
X005522D01*
X005572Y006031D01*
X005586Y006041D01*
X005636Y006014D01*
Y00565D01*
X005637Y005646D01*
Y005394D01*
X005639Y005387D01*
X005598Y005337D01*
X004965D01*
X0046Y005702D01*
X004558Y005731D01*
X004508Y005741D01*
X004458Y005731D01*
X004416Y005702D01*
X004387Y00566D01*
X004377Y00561D01*
X004387Y00556D01*
X004416Y005518D01*
X004747Y005187D01*
X00473Y00514D01*
X004683Y005135D01*
X004519Y005086D01*
X004369Y005005D01*
X004237Y004897D01*
X004129Y004765D01*
X004048Y004615D01*
X003999Y004451D01*
X003982Y004281D01*
X003999Y004112D01*
X004048Y003948D01*
X004129Y003798D01*
X004237Y003666D01*
X004369Y003558D01*
X004519Y003477D01*
X004683Y003428D01*
X004852Y003411D01*
X005022Y003428D01*
X005185Y003477D01*
X005187Y003478D01*
X005218Y003438D01*
X004432Y002652D01*
X004402Y002607D01*
X004391Y002553D01*
Y002116D01*
X004402Y002062D01*
X004432Y002017D01*
X004478Y001986D01*
X004532Y001976D01*
X004585Y001986D01*
X004631Y002017D01*
X004661Y002062D01*
X004672Y002116D01*
Y002495D01*
X006086Y003909D01*
X006132Y00389D01*
Y003661D01*
X006384D01*
Y003438D01*
X006132D01*
Y003112D01*
X005939Y002919D01*
X00591Y002876D01*
X0059Y002826D01*
Y002277D01*
X005882Y002265D01*
X005837Y002197D01*
X005821Y002116D01*
X005837Y002035D01*
X005882Y001967D01*
X005951Y001921D01*
X006032Y001905D01*
X006052Y00191D01*
X006234Y001728D01*
X006234Y001727D01*
X006218Y001678D01*
X004086D01*
X004086Y001678D01*
X004046Y001678D01*
X003973Y001709D01*
X003917Y001765D01*
X003886Y001838D01*
X003886Y001877D01*
X003886Y013095D01*
X003936Y013112D01*
X003953Y013091D01*
X004096Y012951D01*
X004261Y012838D01*
X004444Y012756D01*
X00454Y012727D01*
X004542Y012725D01*
Y012333D01*
X004544Y012297D01*
X004563Y012228D01*
X004599Y012166D01*
X004649Y012116D01*
X004711Y01208D01*
X00478Y012062D01*
X004852D01*
X004921Y01208D01*
X004983Y012116D01*
X005033Y012166D01*
X005069Y012228D01*
X005087Y012297D01*
X00509Y012333D01*
Y012678D01*
X005092Y012727D01*
X005165Y012748D01*
X005307Y012805D01*
X00544Y012881D01*
X005562Y012973D01*
X00567Y013081D01*
X005763Y013203D01*
X005838Y013336D01*
X005895Y013478D01*
X005917Y013551D01*
X005958Y013575D01*
X006311D01*
X00636Y01358D01*
X006452Y013618D01*
X006522Y013688D01*
X006559Y013779D01*
X006564Y013828D01*
X006559Y013878D01*
X006522Y013969D01*
X006452Y014039D01*
X00636Y014077D01*
X006311Y014082D01*
X005958D01*
X005917Y014105D01*
X005888Y014201D01*
X005806Y014384D01*
X005693Y014549D01*
X005553Y014691D01*
X005532Y014708D01*
X005549Y014758D01*
X009497D01*
X009504Y014741D01*
D02*
G37*
G36*
X016767Y014758D02*
X016767Y014758D01*
X016815Y014754D01*
X016879Y014727D01*
X016935Y014671D01*
X016966Y014598D01*
X016966Y014559D01*
X016966Y014558D01*
Y008371D01*
X016916Y008355D01*
X016914Y008359D01*
X016776Y008496D01*
X016733Y008525D01*
X016683Y008535D01*
X016024D01*
X015995Y008554D01*
X015925Y008568D01*
X015855Y008554D01*
X015796Y008515D01*
X015757Y008456D01*
X015743Y008386D01*
X015757Y008316D01*
X015794Y008261D01*
Y00811D01*
X015689D01*
Y008015D01*
X015559D01*
Y008128D01*
X015559D01*
Y008128D01*
X015559D01*
Y008629D01*
X015559Y008679D01*
X015559Y008729D01*
Y00918D01*
X015559Y00923D01*
X015559Y00928D01*
Y009732D01*
X015559Y009781D01*
X015559Y009832D01*
Y010283D01*
X015559Y010333D01*
X015559Y010383D01*
Y010884D01*
X015551D01*
Y01139D01*
X015601Y01142D01*
X01571Y011361D01*
X015874Y011312D01*
X016043Y011295D01*
X016213Y011312D01*
X016376Y011361D01*
X016527Y011442D01*
X016659Y01155D01*
X016767Y011682D01*
X016847Y011832D01*
X016897Y011996D01*
X016914Y012165D01*
X016897Y012335D01*
X016847Y012498D01*
X016767Y012649D01*
X016659Y012781D01*
X016527Y012889D01*
X016376Y012969D01*
X016213Y013019D01*
X016043Y013036D01*
X015874Y013019D01*
X01571Y012969D01*
X015601Y012911D01*
X015551Y012941D01*
Y014758D01*
X016717D01*
X016767Y014758D01*
D02*
G37*
G36*
X006316Y011416D02*
X006344Y011374D01*
X006619Y011099D01*
X006599Y011053D01*
X006122D01*
Y010929D01*
X005906D01*
Y011033D01*
X005453D01*
Y010561D01*
X005906D01*
Y010666D01*
X006122D01*
Y010344D01*
X006306D01*
Y009636D01*
X006316Y009586D01*
X006344Y009543D01*
X006424Y009463D01*
Y00924D01*
X006374Y009202D01*
X006358Y009205D01*
X006308Y009195D01*
X006299Y009189D01*
X00626Y00917D01*
X006221Y009189D01*
X006211Y009195D01*
X006161Y009205D01*
X006111Y009195D01*
X006069Y009167D01*
X006057D01*
X006014Y009195D01*
X005965Y009205D01*
X005915Y009195D01*
X005864Y009222D01*
X005861Y009227D01*
X005771Y009316D01*
Y009419D01*
X005876D01*
Y009872D01*
X005771D01*
Y01D01*
X005761Y01005D01*
X005733Y010093D01*
X005138Y010688D01*
Y011033D01*
X004685D01*
Y010561D01*
X004893D01*
X005508Y009946D01*
Y009872D01*
X005404D01*
Y009419D01*
X005508D01*
Y009262D01*
X005519Y009212D01*
X005528Y009197D01*
X005501Y009147D01*
X005352D01*
X005296Y009184D01*
X005226Y009198D01*
X005157Y009184D01*
X005098Y009145D01*
X005058Y009085D01*
X005044Y009016D01*
X005058Y008946D01*
X005098Y008887D01*
X005157Y008847D01*
X005226Y008834D01*
X005296Y008847D01*
X005352Y008884D01*
X005636D01*
Y008448D01*
X005266D01*
X005262Y008447D01*
X00501D01*
X00496Y008437D01*
X004918Y008409D01*
X004915Y008405D01*
X004865Y00842D01*
Y009277D01*
X005141Y009553D01*
X00517Y009596D01*
X00518Y009646D01*
X00517Y009696D01*
X005141Y009738D01*
X004471Y010408D01*
Y011306D01*
X004794D01*
X004812Y011288D01*
X004858Y011258D01*
X004911Y011247D01*
X005915D01*
X005969Y011258D01*
X006015Y011288D01*
X006151Y011424D01*
X006314D01*
X006316Y011416D01*
D02*
G37*
G36*
X007723Y011737D02*
Y011398D01*
X007733Y011347D01*
X007762Y011305D01*
X007804Y011276D01*
X007854Y011266D01*
X008026D01*
X008299Y010994D01*
X008127Y010822D01*
X008081Y010842D01*
Y011043D01*
X007804D01*
X007421Y011426D01*
Y011919D01*
X006791D01*
Y011363D01*
X006745Y011344D01*
X006569Y011521D01*
X006578Y011565D01*
X006568Y011611D01*
Y011875D01*
X006688Y011995D01*
X007465D01*
X007723Y011737D01*
D02*
G37*
G36*
X007628Y010848D02*
Y010571D01*
X007667D01*
X007688Y010521D01*
X007481Y010315D01*
X006912D01*
X006862Y010305D01*
X006819Y010276D01*
X006618Y010075D01*
X006568Y010096D01*
Y010344D01*
X006752D01*
Y010901D01*
X006798Y01092D01*
X006975Y010743D01*
Y010699D01*
X006985Y010649D01*
X007013Y010606D01*
X007056Y010578D01*
X007106Y010568D01*
X007157Y010578D01*
X007199Y010606D01*
X007228Y010649D01*
X007238Y010699D01*
Y010797D01*
X007228Y010847D01*
X007199Y01089D01*
X006925Y011164D01*
X006944Y011211D01*
X007265D01*
X007628Y010848D01*
D02*
G37*
G36*
X013884Y010757D02*
X013857Y010739D01*
X013818Y01068D01*
X013804Y01061D01*
X013818Y01054D01*
X013857Y010481D01*
X013916Y010442D01*
X013986Y010428D01*
X014056Y010442D01*
X014109Y010477D01*
X014402D01*
X014437Y010442D01*
X014437Y010333D01*
X014437Y010283D01*
Y010188D01*
X013639D01*
X013584Y010225D01*
X013514Y010239D01*
X013444Y010225D01*
X013385Y010186D01*
X013345Y010127D01*
X013332Y010057D01*
X013345Y009987D01*
X013385Y009928D01*
X013444Y009889D01*
X013514Y009875D01*
X013584Y009889D01*
X013639Y009926D01*
X014402D01*
X014437Y00989D01*
X014437Y009782D01*
X014437Y009732D01*
Y009637D01*
X014158D01*
X014145Y009658D01*
X014085Y009697D01*
X014016Y009711D01*
X013946Y009697D01*
X013887Y009658D01*
X013847Y009599D01*
X013834Y009529D01*
X013847Y009459D01*
X013887Y0094D01*
X013946Y009361D01*
X014016Y009347D01*
X014085Y009361D01*
X014106Y009375D01*
X014402D01*
X014437Y009339D01*
X014437Y00923D01*
X014437Y00918D01*
Y008729D01*
X014437Y008679D01*
X014437Y008629D01*
Y008178D01*
X014437Y008128D01*
X014437D01*
Y008128D01*
X014437D01*
Y007577D01*
X014437D01*
Y007577D01*
X014437D01*
Y007026D01*
X015559D01*
Y007577D01*
X015559D01*
Y007577D01*
X015559D01*
Y007753D01*
X015689D01*
Y007657D01*
X015794D01*
Y007382D01*
X015689D01*
Y006929D01*
X015662Y00689D01*
X011135D01*
Y009144D01*
Y009911D01*
X011124Y009965D01*
X011093Y010011D01*
X010948Y010156D01*
X010902Y010187D01*
X010848Y010198D01*
X010182D01*
Y010608D01*
X010171Y010662D01*
X010141Y010708D01*
X010101Y010734D01*
X010074Y010761D01*
X010093Y010807D01*
X013869D01*
X013884Y010757D01*
D02*
G37*
G36*
X009504Y010807D02*
X009657D01*
X009901Y010563D01*
Y010057D01*
X009912Y010003D01*
X009942Y009958D01*
X009988Y009927D01*
X010041Y009917D01*
X01079D01*
X010854Y009853D01*
Y009202D01*
X010747Y009095D01*
X010041D01*
X009988Y009085D01*
X009942Y009054D01*
X009912Y009008D01*
X009901Y008955D01*
X009912Y008901D01*
X009942Y008855D01*
X009988Y008825D01*
X010041Y008814D01*
X010805D01*
X010815Y008816D01*
X010854Y008784D01*
Y00684D01*
X010649Y006635D01*
X010602Y006654D01*
Y007026D01*
X010602D01*
Y007026D01*
X010602D01*
Y007577D01*
X010602D01*
Y007577D01*
X010602D01*
Y008128D01*
X010602D01*
X010602Y008178D01*
Y008679D01*
X00948D01*
Y008465D01*
X009325Y008309D01*
X009269Y008325D01*
X009262Y00835D01*
X009292Y008395D01*
X009306Y008465D01*
X009292Y008534D01*
X009253Y008593D01*
X009194Y008633D01*
X009124Y008647D01*
X009054Y008633D01*
X008995Y008593D01*
X008956Y008534D01*
X008942Y008465D01*
X008956Y008395D01*
X008984Y008353D01*
X0089Y008268D01*
X008854Y008271D01*
X008821Y008313D01*
X008821Y008317D01*
X008811Y008367D01*
X008783Y008409D01*
X008741Y008437D01*
X008691Y008447D01*
X008615D01*
X008594Y008497D01*
X00913Y009033D01*
X009159Y009076D01*
X009169Y009126D01*
Y009158D01*
X009206Y009213D01*
X00922Y009283D01*
X009206Y009353D01*
X009167Y009412D01*
X009107Y009451D01*
X009038Y009465D01*
X008968Y009451D01*
X008909Y009412D01*
X008869Y009353D01*
X008855Y009283D01*
X008869Y009213D01*
X008897Y009171D01*
X008342Y008616D01*
X008314Y008574D01*
X008304Y008524D01*
Y008447D01*
X008179D01*
X008129Y008437D01*
X008087Y008409D01*
X008059Y008367D01*
X008049Y008317D01*
X008059Y008267D01*
X008087Y008225D01*
Y008212D01*
X008059Y00817D01*
X008049Y00812D01*
X008059Y00807D01*
X008087Y008028D01*
Y008015D01*
X008059Y007973D01*
X008049Y007923D01*
X008059Y007873D01*
X008065Y007864D01*
X008084Y007825D01*
X008065Y007786D01*
X008059Y007776D01*
X008049Y007726D01*
X008059Y007676D01*
X008087Y007634D01*
Y007622D01*
X008059Y007579D01*
X008049Y00753D01*
X008059Y00748D01*
X008087Y007437D01*
Y007425D01*
X008059Y007383D01*
X008049Y007333D01*
X008059Y007283D01*
X008065Y007273D01*
X008084Y007234D01*
X008065Y007195D01*
X008059Y007186D01*
X008049Y007136D01*
X008059Y007086D01*
X008087Y007044D01*
Y007031D01*
X008059Y006989D01*
X008049Y006939D01*
X008059Y006889D01*
X008065Y00688D01*
X008084Y006841D01*
X008065Y006801D01*
X008059Y006792D01*
X008049Y006742D01*
X008059Y006692D01*
X008087Y00665D01*
Y006638D01*
X008059Y006595D01*
X008049Y006545D01*
X008059Y006495D01*
X008087Y006453D01*
X008129Y006425D01*
X008179Y006415D01*
X008258D01*
X008298Y006365D01*
X008295Y006348D01*
X008298Y006333D01*
X008258Y006283D01*
X007505D01*
X007474Y006314D01*
Y008325D01*
Y008397D01*
X007524Y008436D01*
X007539Y008433D01*
X007589Y008442D01*
X007599Y008449D01*
X007638Y008468D01*
X007677Y008449D01*
X007686Y008442D01*
X007736Y008433D01*
X007786Y008442D01*
X007795Y008449D01*
X007835Y008468D01*
X007874Y008449D01*
X007883Y008442D01*
X007933Y008433D01*
X007983Y008442D01*
X008025Y008471D01*
X008054Y008513D01*
X008064Y008563D01*
Y008688D01*
X008159D01*
X00821Y008698D01*
X008252Y008726D01*
X008382Y008855D01*
X008447Y008868D01*
X008506Y008908D01*
X008546Y008967D01*
X00856Y009037D01*
X008546Y009107D01*
X008506Y009166D01*
X008447Y009205D01*
X008377Y009219D01*
X008308Y009205D01*
X008249Y009166D01*
X008209Y009107D01*
X008196Y009041D01*
X008114Y008959D01*
X008064Y008971D01*
Y009075D01*
X008054Y009125D01*
X008025Y009167D01*
X007983Y009195D01*
X00796Y0092D01*
X007944Y009254D01*
X008145Y009455D01*
X008329D01*
X008338Y009449D01*
X008408Y009435D01*
X008477Y009449D01*
X008537Y009489D01*
X008576Y009548D01*
X00859Y009618D01*
X008576Y009687D01*
X008537Y009746D01*
X008477Y009786D01*
X008408Y0098D01*
X008338Y009786D01*
X008279Y009746D01*
X00826Y009718D01*
X008091D01*
X008083Y009716D01*
X008058Y009762D01*
X008394Y010098D01*
X008608D01*
X009198Y009508D01*
X009293Y009413D01*
X009336Y009385D01*
X009386Y009375D01*
X00948D01*
Y00923D01*
X010602D01*
Y009781D01*
X00948D01*
Y009661D01*
X00943Y009647D01*
X009384Y009694D01*
X00878Y010298D01*
Y01065D01*
X008391D01*
X008372Y010696D01*
X008509Y010833D01*
X009504D01*
Y010807D01*
D02*
G37*
G36*
X01669Y008211D02*
Y007955D01*
X016682Y007952D01*
X01664Y007947D01*
X016615Y007983D01*
X01657Y008014D01*
X016516Y008024D01*
X016462Y008014D01*
X016416Y007983D01*
X016386Y007938D01*
X016375Y007884D01*
Y007214D01*
X016208Y007046D01*
X016161Y007065D01*
Y007382D01*
X016056D01*
Y007657D01*
X016161D01*
Y00811D01*
X016056D01*
Y008261D01*
X016064Y008272D01*
X016629D01*
X01669Y008211D01*
D02*
G37*
G36*
X007211Y00626D02*
X007221Y00621D01*
X00725Y006167D01*
X007332Y006085D01*
X007315Y006031D01*
X007293Y006026D01*
X007283Y00602D01*
X007244Y006001D01*
X007205Y00602D01*
X007196Y006026D01*
X007146Y006036D01*
X00713Y006033D01*
X00708Y006071D01*
Y006194D01*
X007117Y006249D01*
X007131Y006319D01*
X007125Y006348D01*
X007129Y006368D01*
X007119Y006418D01*
X007091Y006461D01*
X007048Y006489D01*
X006998Y006499D01*
X006978Y006495D01*
X006949Y006501D01*
X006879Y006487D01*
X00682Y006448D01*
X00678Y006389D01*
X006767Y006319D01*
X00678Y006249D01*
X006818Y006194D01*
Y006071D01*
X006768Y006033D01*
X006752Y006036D01*
X006702Y006026D01*
X00666Y005998D01*
X006647D01*
X006605Y006026D01*
X006555Y006036D01*
X006505Y006026D01*
X006463Y005998D01*
X006451D01*
X006408Y006026D01*
X006358Y006036D01*
X006308Y006026D01*
X006266Y005998D01*
X006254D01*
X006211Y006026D01*
X006161Y006036D01*
X006111Y006026D01*
X006069Y005998D01*
X006041Y005955D01*
X006031Y005906D01*
Y005815D01*
X005981Y005777D01*
X005965Y00578D01*
X005949Y005777D01*
X005899Y005815D01*
Y008194D01*
X007211D01*
Y00626D01*
D02*
G37*
G36*
X010441Y006469D02*
X010459Y006424D01*
X01045Y006378D01*
Y005846D01*
Y005314D01*
X010208Y005072D01*
X009783D01*
X009589Y005265D01*
Y005463D01*
X009579Y005516D01*
X009548Y005562D01*
X009196Y005914D01*
Y006144D01*
X009185Y006198D01*
X009173Y006215D01*
X009212Y006247D01*
X009401Y006058D01*
Y005851D01*
X009411Y005801D01*
X00944Y005758D01*
X00973Y005468D01*
X009719Y005413D01*
X009733Y005344D01*
X009773Y005285D01*
X009832Y005245D01*
X009902Y005231D01*
X009971Y005245D01*
X01003Y005285D01*
X01007Y005344D01*
X010084Y005413D01*
X01007Y005483D01*
X01003Y005542D01*
X010005Y005559D01*
X009994Y005575D01*
X009664Y005906D01*
Y006013D01*
X009714Y006037D01*
X009738Y00602D01*
X009785Y006011D01*
X009842Y005973D01*
X009911Y005959D01*
X009981Y005973D01*
X01004Y006013D01*
X01008Y006072D01*
X010094Y006142D01*
X01008Y006211D01*
X01004Y006271D01*
X009981Y00631D01*
X009911Y006324D01*
X009842Y00631D01*
X00982Y006296D01*
X009688Y006428D01*
X009707Y006474D01*
X010438D01*
X010441Y006469D01*
D02*
G37*
G36*
X016682Y007087D02*
X01669Y007085D01*
Y005547D01*
X016461Y005318D01*
X014724D01*
Y006407D01*
X014173D01*
Y006407D01*
X014173D01*
Y006407D01*
X013672D01*
X013622Y006407D01*
Y006407D01*
X013622D01*
Y006407D01*
X013121D01*
X013071Y006407D01*
X013021Y006407D01*
X01257D01*
X01252Y006407D01*
X01247Y006407D01*
X012019D01*
X011969Y006407D01*
X011918Y006407D01*
X011467D01*
X011417Y006407D01*
X011367Y006407D01*
X010889D01*
X010869Y006457D01*
X011021Y00661D01*
X01611D01*
X016164Y00662D01*
X01621Y006651D01*
X016615Y007056D01*
X01664Y007093D01*
X016682Y007087D01*
D02*
G37*
G36*
X007096Y005273D02*
X007146Y005263D01*
X007161Y005266D01*
X007211Y005228D01*
Y005054D01*
X006931Y004774D01*
X006723D01*
Y004222D01*
X006723D01*
Y004183D01*
X006723D01*
Y003632D01*
X006946D01*
Y003044D01*
X00693Y003032D01*
X00688Y003057D01*
Y003438D01*
X006647D01*
Y00374D01*
X006637Y00379D01*
X006609Y003833D01*
X006585Y003857D01*
Y004134D01*
X006184D01*
Y004348D01*
X006358D01*
X006412Y004358D01*
X006458Y004389D01*
X006488Y004434D01*
X006499Y004488D01*
X006488Y004542D01*
X006458Y004588D01*
X006412Y004618D01*
X006358Y004629D01*
X006087D01*
X005984Y004732D01*
Y004828D01*
X006025Y004843D01*
X006034Y004845D01*
X006092Y004806D01*
X006161Y004792D01*
X006231Y004806D01*
X00629Y004846D01*
X00633Y004905D01*
X006344Y004974D01*
X00633Y005044D01*
X006293Y0051D01*
Y005228D01*
X006343Y005266D01*
X006358Y005263D01*
X006408Y005273D01*
X006451Y005301D01*
X006463D01*
X006505Y005273D01*
X006555Y005263D01*
X006573Y005267D01*
X006623Y005229D01*
Y005156D01*
X006586Y005101D01*
X006572Y005031D01*
X006586Y004961D01*
X006625Y004902D01*
X006684Y004862D01*
X006754Y004849D01*
X006824Y004862D01*
X006883Y004902D01*
X006922Y004961D01*
X006936Y005031D01*
X006922Y005101D01*
X006885Y005156D01*
Y005227D01*
X006935Y005266D01*
X006949Y005263D01*
X006999Y005273D01*
X007041Y005301D01*
X007053D01*
X007096Y005273D01*
D02*
G37*
G36*
X010866Y006384D02*
Y005285D01*
X011367D01*
X011417Y005285D01*
X011467Y005285D01*
X011918D01*
X011968Y005285D01*
X012019Y005285D01*
X01247D01*
X01252Y005285D01*
X01257Y005285D01*
X013051Y005285D01*
X013071Y005237D01*
X013071Y005235D01*
X012944Y005108D01*
X012333D01*
Y004767D01*
X011687D01*
X011637Y004757D01*
X011594Y004729D01*
X011495Y004629D01*
X009192D01*
X009186Y004636D01*
Y00503D01*
X009281D01*
Y005119D01*
X009331Y005134D01*
X009349Y005107D01*
X009625Y004832D01*
X009671Y004801D01*
X009724Y004791D01*
X011447D01*
X011501Y004801D01*
X011546Y004832D01*
X011576Y004861D01*
X011606Y004907D01*
X011617Y004961D01*
X011606Y005014D01*
X011576Y00506D01*
X01153Y00509D01*
X011476Y005101D01*
X011423Y00509D01*
X011394Y005072D01*
X01067D01*
X010651Y005118D01*
X01069Y005157D01*
X01072Y005202D01*
X010731Y005256D01*
Y005846D01*
Y00632D01*
X010816Y006405D01*
X010866Y006384D01*
D02*
G37*
G36*
X008304Y005886D02*
X008314Y005836D01*
X008342Y005793D01*
X008829Y005306D01*
Y00503D01*
X008924D01*
Y004774D01*
X008704D01*
X008675Y004816D01*
X008064Y005427D01*
Y00565D01*
X008064Y005654D01*
Y005906D01*
X008054Y005955D01*
X008044Y00597D01*
X00807Y00602D01*
X008304D01*
Y005886D01*
D02*
G37*
G36*
X013809Y004694D02*
X013549Y004433D01*
X013537Y004415D01*
X013487Y004431D01*
Y004706D01*
X013496Y00472D01*
X013507Y004774D01*
X013496Y004827D01*
X013465Y004873D01*
X01342Y004903D01*
X013366Y004914D01*
X013312Y004903D01*
X013267Y004873D01*
X013247Y004853D01*
X013217Y004808D01*
X013206Y004754D01*
Y004094D01*
X01301D01*
X01297Y004135D01*
X012982Y004163D01*
X012982D01*
Y004775D01*
X013263Y005056D01*
X013809D01*
Y004694D01*
D02*
G37*
G36*
X016966Y005387D02*
Y003341D01*
X016916Y003324D01*
X016899Y003345D01*
X016756Y003485D01*
X016591Y003598D01*
X016408Y00368D01*
X016312Y003709D01*
X01631Y003711D01*
Y004103D01*
X01631D01*
X016308Y004139D01*
X016289Y004208D01*
X016254Y00427D01*
X016203Y00432D01*
X016141Y004356D01*
X016072Y004374D01*
X016001Y004374D01*
X015932Y004356D01*
X01587Y00432D01*
X015819Y00427D01*
X015783Y004208D01*
X015765Y004139D01*
X015762Y004103D01*
X015762Y004103D01*
Y003711D01*
X01576Y003709D01*
X015687Y003688D01*
X015545Y003631D01*
X015411Y003555D01*
X01529Y003463D01*
X015181Y003354D01*
X015089Y003233D01*
X015013Y003099D01*
X014956Y002957D01*
X014935Y002884D01*
X014933Y002882D01*
X014541D01*
X014541Y002882D01*
X014505Y002879D01*
X014436Y002861D01*
X014374Y002825D01*
X014324Y002775D01*
X014288Y002713D01*
X01427Y002644D01*
X01427Y002572D01*
X014288Y002503D01*
X014324Y002441D01*
X014374Y002391D01*
X014436Y002355D01*
X014505Y002336D01*
X014541Y002334D01*
X014541Y002334D01*
X014886D01*
X014935Y002332D01*
X014964Y002236D01*
X015046Y002053D01*
X015159Y001888D01*
X015299Y001745D01*
X01532Y001728D01*
X015303Y001678D01*
X01125D01*
X011235Y001727D01*
X011235Y001728D01*
X011353Y001846D01*
X011418Y001859D01*
X011477Y001899D01*
X011517Y001958D01*
X011531Y002028D01*
X011517Y002097D01*
X011477Y002156D01*
X011418Y002196D01*
X011348Y00221D01*
X011279Y002196D01*
X01122Y002156D01*
X01118Y002097D01*
X011167Y002032D01*
X011087Y001952D01*
X009615D01*
X009595Y001998D01*
X009611Y002013D01*
X009639Y002056D01*
X009649Y002106D01*
Y003898D01*
X009639Y003948D01*
X009611Y00399D01*
X00928Y004321D01*
X0093Y004367D01*
X011549D01*
X0116Y004377D01*
X011642Y004405D01*
X011742Y004505D01*
X012333D01*
Y004163D01*
X01257D01*
X012815Y003919D01*
Y003642D01*
X013166D01*
X013186Y003599D01*
X013187Y003592D01*
X013158Y003548D01*
X013147Y003494D01*
X012814D01*
X012178Y004129D01*
X012136Y004158D01*
X012085Y004168D01*
X011929D01*
X011873Y004205D01*
X011804Y004219D01*
X011734Y004205D01*
X011675Y004165D01*
X011635Y004106D01*
X011621Y004037D01*
X011635Y003967D01*
X011675Y003908D01*
X011734Y003868D01*
X011804Y003854D01*
X011873Y003868D01*
X011929Y003905D01*
X012031D01*
X012638Y003299D01*
Y002963D01*
X013147D01*
Y002385D01*
X012962D01*
X012698Y002649D01*
X012652Y002679D01*
X012598Y00269D01*
X01247D01*
X012166Y002993D01*
X012121Y003024D01*
X012067Y003034D01*
X010896D01*
X010842Y003024D01*
X010796Y002993D01*
X010659Y002855D01*
X010628Y00281D01*
X010617Y002756D01*
Y002667D01*
X010628Y002614D01*
X010659Y002568D01*
X010704Y002538D01*
X010758Y002527D01*
X010812Y002538D01*
X010857Y002568D01*
X010888Y002614D01*
X010898Y002667D01*
Y002698D01*
X010954Y002753D01*
X012009D01*
X012312Y00245D01*
X012358Y002419D01*
X012411Y002409D01*
X01254D01*
X012804Y002145D01*
X01285Y002114D01*
X012904Y002104D01*
X013268D01*
X013321Y002114D01*
X013367Y002145D01*
X013387Y002164D01*
X013417Y00221D01*
X013428Y002264D01*
Y002963D01*
X013898D01*
Y003077D01*
X014471D01*
X014527Y00304D01*
X014596Y003026D01*
X014666Y00304D01*
X014725Y00308D01*
X014765Y003139D01*
X014779Y003209D01*
X014765Y003278D01*
X014725Y003338D01*
X014666Y003377D01*
X014596Y003391D01*
X014527Y003377D01*
X014471Y00334D01*
X013898D01*
Y003494D01*
X013773D01*
Y003642D01*
X013878D01*
Y004094D01*
X013809D01*
X0138Y004117D01*
X013835Y004163D01*
X014459D01*
Y005056D01*
X016516D01*
X016566Y005066D01*
X016609Y005094D01*
X016914Y005399D01*
X016916Y005403D01*
X016966Y005387D01*
D02*
G37*
G36*
X009386Y003843D02*
Y002161D01*
X009178Y001952D01*
X007517D01*
X007491Y002002D01*
X00752Y002045D01*
X007536Y002126D01*
X00752Y002207D01*
X007474Y002275D01*
X007408Y002319D01*
X007407Y002323D01*
X007425Y002369D01*
X0081D01*
Y002659D01*
X008361Y002919D01*
X008389Y002962D01*
X008399Y003012D01*
Y003632D01*
X008486D01*
X008516Y003608D01*
X008524Y003589D01*
Y002185D01*
X009311D01*
Y003602D01*
X009221D01*
X009183Y003632D01*
Y003981D01*
X009229Y004D01*
X009386Y003843D01*
D02*
G37*
G36*
X007349Y004751D02*
Y004222D01*
X007349D01*
Y004183D01*
X007349D01*
Y003632D01*
X007486D01*
X007494Y003594D01*
X007522Y003552D01*
X007586Y003488D01*
X007566Y003438D01*
X007352D01*
Y002926D01*
X007352Y002926D01*
Y002881D01*
X007352D01*
X007352Y002876D01*
Y002382D01*
X007334Y002351D01*
X007316Y002335D01*
X007244Y002321D01*
X007176Y002275D01*
X00713Y002207D01*
X007114Y002126D01*
X00713Y002045D01*
X007159Y002002D01*
X007132Y001952D01*
X007031D01*
Y002333D01*
X006915D01*
X00688Y002368D01*
Y002623D01*
X006916Y002631D01*
X006959Y002659D01*
X00717Y00287D01*
X007198Y002912D01*
X007208Y002963D01*
Y003632D01*
X007254D01*
Y004183D01*
X007254D01*
Y004222D01*
X007254D01*
Y004726D01*
X007299Y004771D01*
X007349Y004751D01*
D02*
G37*
%LPC*%
G36*
X008759Y014405D02*
X008663Y014385D01*
X008582Y014331D01*
X008528Y01425D01*
X008509Y014154D01*
X008528Y014058D01*
X008582Y013976D01*
X008663Y013922D01*
X008759Y013903D01*
X008855Y013922D01*
X008937Y013976D01*
X008991Y014058D01*
X00901Y014154D01*
X008991Y01425D01*
X008937Y014331D01*
X008855Y014385D01*
X008759Y014405D01*
D02*
G37*
G36*
X007569Y014395D02*
X007473Y014375D01*
X007391Y014321D01*
X007337Y01424D01*
X007318Y014144D01*
X007337Y014048D01*
X007391Y013966D01*
X007473Y013912D01*
X007569Y013893D01*
X007665Y013912D01*
X007746Y013966D01*
X007801Y014048D01*
X00782Y014144D01*
X007801Y01424D01*
X007746Y014321D01*
X007665Y014375D01*
X007569Y014395D01*
D02*
G37*
G36*
X004341Y009985D02*
X004271Y009972D01*
X004212Y009932D01*
X004172Y009873D01*
X004158Y009803D01*
X004172Y009733D01*
X004212Y009674D01*
X004271Y009635D01*
X004341Y009621D01*
X00441Y009635D01*
X004469Y009674D01*
X004509Y009733D01*
X004523Y009803D01*
X004509Y009873D01*
X004469Y009932D01*
X00441Y009972D01*
X004341Y009985D01*
D02*
G37*
G36*
X005531Y002327D02*
X005451Y002311D01*
X005382Y002265D01*
X005337Y002197D01*
X005321Y002116D01*
X005337Y002035D01*
X005382Y001967D01*
X005451Y001921D01*
X005531Y001905D01*
X005612Y001921D01*
X005681Y001967D01*
X005726Y002035D01*
X005742Y002116D01*
X005726Y002197D01*
X005681Y002265D01*
X005612Y002311D01*
X005531Y002327D01*
D02*
G37*
G36*
X005031D02*
X004951Y002311D01*
X004882Y002265D01*
X004837Y002197D01*
X004821Y002116D01*
X004837Y002035D01*
X004882Y001967D01*
X004951Y001921D01*
X005031Y001905D01*
X005112Y001921D01*
X005181Y001967D01*
X005226Y002035D01*
X005242Y002116D01*
X005226Y002197D01*
X005181Y002265D01*
X005112Y002311D01*
X005031Y002327D01*
D02*
G37*
%LPD*%
D10*
X004341Y010354D02*
Y011447D01*
X005856Y005204D02*
X005965Y005312D01*
X005854Y004678D02*
X006043Y004488D01*
X005854Y004678D02*
Y005207D01*
X004911D02*
X005854D01*
X004341Y010354D02*
X005049Y009646D01*
X005854Y005207D02*
X005856Y005204D01*
X005965Y005312D02*
Y00565D01*
X004508Y00561D02*
X004911Y005207D01*
X004734Y009331D02*
X005049Y009646D01*
X004734Y008258D02*
Y009331D01*
Y008258D02*
X004872Y00812D01*
X005266D01*
D15*
X004242Y009222D02*
Y009232D01*
Y00874D02*
Y009222D01*
X013642Y003228D02*
Y003868D01*
Y004341D01*
X013937Y004636D01*
X008393Y009587D02*
X008424Y009618D01*
X008091Y009587D02*
X008393D01*
X007881Y002625D02*
X008268Y003012D01*
X007726Y002625D02*
X007881D01*
X007736Y003192D02*
Y003524D01*
X007726Y003182D02*
X007736Y003192D01*
X007615Y003645D02*
X007736Y003524D01*
X007615Y003645D02*
Y003907D01*
X006032Y002826D02*
X006516Y00331D01*
X006032Y002116D02*
Y002826D01*
X006161Y004974D02*
X006161Y004975D01*
Y00565D01*
X005246Y005699D02*
Y006132D01*
X005266Y006152D01*
X008917Y004498D02*
X011549D01*
X011687Y004636D01*
X012657D01*
X009533Y005851D02*
Y006112D01*
X009099Y006545D02*
X009533Y006112D01*
X009902Y005413D02*
Y005482D01*
X009533Y005851D02*
X009902Y005482D01*
X009518Y002106D02*
Y003898D01*
X009232Y001821D02*
X009518Y002106D01*
X006032Y002116D02*
X006327Y001821D01*
X005768Y009006D02*
Y009134D01*
Y008819D02*
Y009006D01*
X005758Y009016D02*
X005768Y009006D01*
X005226Y009016D02*
X005758D01*
X004242Y00815D02*
X004419D01*
X004646Y007923D01*
X005266D01*
X016683Y008404D02*
X016821Y008266D01*
Y005492D02*
Y008266D01*
X016516Y005187D02*
X016821Y005492D01*
X013209Y005187D02*
X016516D01*
X015925Y008386D02*
X015943Y008404D01*
X016683D01*
X012657Y004636D02*
X013209Y005187D01*
X013661Y003209D02*
X014596D01*
X013642Y003228D02*
X013661Y003209D01*
X006437Y011565D02*
Y011929D01*
X006634Y012126D01*
X00752D01*
X007854Y011791D01*
Y011398D02*
Y011791D01*
Y011398D02*
X008081D01*
X008514Y010965D01*
X009685D02*
X010041Y010608D01*
X008514Y010965D02*
X009685D01*
X008435Y008524D02*
X009038Y009126D01*
X008159Y008819D02*
X008377Y009037D01*
X008435Y008317D02*
Y008524D01*
X00564Y009262D02*
Y009646D01*
Y009262D02*
X005768Y009134D01*
X004911Y010728D02*
Y010797D01*
Y010728D02*
X00564Y01D01*
Y009646D02*
Y01D01*
X011804Y004037D02*
Y004057D01*
Y004037D02*
X012085D01*
X012894Y003228D01*
X009232Y001821D02*
X011142D01*
X011348Y002028D01*
X008917Y004498D02*
X009518Y003898D01*
X006327Y001821D02*
X009232D01*
X006358Y003898D02*
X006516Y00374D01*
Y00331D02*
Y00374D01*
X008435Y005886D02*
Y006152D01*
Y005886D02*
X009055Y005266D01*
X012657Y004262D02*
X013051Y003868D01*
X012657Y004262D02*
Y004636D01*
X008917Y004498D02*
X009055Y004636D01*
Y005266D01*
X007343Y00626D02*
Y008325D01*
Y00626D02*
X007451Y006152D01*
X008435D01*
X005768Y008325D02*
Y008819D01*
Y008317D02*
Y008325D01*
Y00565D02*
Y008317D01*
Y008325D02*
X007343D01*
X005266Y008317D02*
X005768D01*
X007343Y008325D02*
Y008819D01*
X008408Y009618D02*
X008424D01*
X008501Y010391D02*
X008516Y010376D01*
X009291Y009601D01*
X008499Y010389D02*
X008501Y010391D01*
X007539Y009429D02*
X008499Y010389D01*
X009045Y009291D02*
X009054Y009283D01*
X006949Y006319D02*
X006998Y006368D01*
X006949Y00565D02*
Y006319D01*
X015925Y007884D02*
Y008386D01*
X014998Y007852D02*
Y008404D01*
Y007301D02*
Y007852D01*
X01503Y007884D01*
X015925D01*
Y007156D02*
Y007884D01*
X006754Y004982D02*
Y005031D01*
Y005648D01*
X006752Y00565D02*
X006754Y005648D01*
X006989Y004646D02*
X007343Y005D01*
X006989Y004498D02*
Y004646D01*
X007343Y005D02*
Y00565D01*
X006555Y008819D02*
Y009518D01*
X006437Y009636D02*
X006555Y009518D01*
X006437Y009636D02*
Y010699D01*
X006949Y008819D02*
Y009478D01*
X007069Y009599D01*
Y009805D01*
X007146Y009334D02*
X00815Y010338D01*
X007146Y008819D02*
Y009334D01*
X00815Y010338D02*
Y010659D01*
X006912Y010183D02*
X007536D01*
X00669Y009962D02*
X006912Y010183D01*
X00669Y009648D02*
Y009962D01*
X007536Y010183D02*
X007854Y010502D01*
X008455Y010965D02*
X008514D01*
X00815Y010659D02*
X008455Y010965D01*
X00669Y009648D02*
X006752Y009586D01*
Y008819D02*
Y009586D01*
X006437Y011467D02*
Y011565D01*
Y011467D02*
X007106Y010797D01*
Y010699D02*
Y010797D01*
Y011555D02*
X007854Y010807D01*
X005679Y010797D02*
X006339D01*
X006437Y010699D01*
X007106Y011555D02*
Y011565D01*
X007854Y010502D02*
Y010807D01*
X008242Y003907D02*
X008268Y003881D01*
Y003012D02*
Y003881D01*
X006989Y003907D02*
X007077Y003819D01*
Y002963D02*
Y003819D01*
X006866Y002752D02*
X007077Y002963D01*
X006516Y002752D02*
X006866D01*
X007539Y004921D02*
Y00565D01*
Y004921D02*
X007648Y004813D01*
X007736Y005138D02*
Y00565D01*
Y005138D02*
X008242Y004632D01*
X008917Y002894D02*
Y003907D01*
X008917Y003907D01*
X007933Y005373D02*
X008583Y004723D01*
Y004242D02*
Y004723D01*
Y004242D02*
X008917Y003907D01*
X007933Y005373D02*
Y00565D01*
X008242Y004498D02*
Y004632D01*
X007615Y004498D02*
X007648Y004531D01*
Y004813D01*
X013937Y004636D02*
X014134D01*
X004941Y00753D02*
X005266D01*
X004528Y007116D02*
X004941Y00753D01*
X004508Y006201D02*
X004528Y00622D01*
Y007116D01*
X004421Y00759D02*
X004558Y007726D01*
X005266D01*
X008435Y006545D02*
X009099D01*
X009518Y006752D02*
X010039D01*
X009124Y007146D02*
X009518Y006752D01*
X009788Y006142D02*
X009911D01*
X00943Y0065D02*
X009788Y006142D01*
X00943Y0065D02*
Y006503D01*
X009191Y006742D02*
X00943Y006503D01*
X008435Y006742D02*
X009191D01*
X010039Y006752D02*
X010041Y00675D01*
X008435Y00753D02*
X009276D01*
X009504Y007301D01*
X010041D01*
X009213Y007726D02*
X009339Y007852D01*
X008435Y007726D02*
X009213D01*
X009339Y007852D02*
X010041D01*
X009124Y008307D02*
Y008465D01*
X008937Y00812D02*
X009124Y008307D01*
X008435Y00812D02*
X008937D01*
X013514Y010057D02*
X014998D01*
X014039Y009506D02*
X014998D01*
X014016Y009529D02*
X014039Y009506D01*
X009038Y009126D02*
Y009283D01*
X007933Y008819D02*
X008159D01*
X009038Y009283D02*
X009054D01*
X009124Y007923D02*
X009604Y008404D01*
X008435Y007923D02*
X009124D01*
X009604Y008404D02*
X010041D01*
X013986Y01061D02*
X013988Y010608D01*
X014998D01*
X007736Y009232D02*
X008091Y009587D01*
X007736Y008819D02*
Y009232D01*
X007539Y008819D02*
Y009429D01*
X009386Y009506D02*
X010041D01*
X009291Y009601D02*
X009386Y009506D01*
D16*
X006358Y004488D02*
D03*
Y003898D02*
D03*
X009055Y005856D02*
D03*
Y005266D02*
D03*
X005679Y010797D02*
D03*
Y011388D02*
D03*
X004911D02*
D03*
Y010797D02*
D03*
X007854Y010807D02*
D03*
Y011398D02*
D03*
D18*
X015925Y007156D02*
D03*
X016516D02*
D03*
X015925Y007884D02*
D03*
X016516D02*
D03*
X013642Y003868D02*
D03*
X013051D02*
D03*
X005049Y009646D02*
D03*
X00564D02*
D03*
D19*
X004242Y00874D02*
D03*
Y00815D02*
D03*
X006989Y004498D02*
D03*
Y003907D02*
D03*
X007615Y004498D02*
D03*
Y003907D02*
D03*
X008242Y004498D02*
D03*
Y003907D02*
D03*
X008917Y004498D02*
D03*
Y003907D02*
D03*
X004508Y00561D02*
D03*
Y006201D02*
D03*
X008514Y010965D02*
D03*
Y010374D02*
D03*
D36*
X013346Y003553D02*
Y004754D01*
X013287Y003494D02*
X013346Y003553D01*
Y004754D02*
X013366Y004774D01*
X004852Y011447D02*
X004911Y011388D01*
X004341Y011447D02*
X004852D01*
X006043Y004065D02*
Y004488D01*
X004532Y002553D02*
X006043Y004065D01*
X004532Y002116D02*
Y002553D01*
X006043Y004488D02*
X006358D01*
X009724Y004931D02*
X010266D01*
X011447D01*
X011476Y004961D01*
X010994Y009144D02*
Y009911D01*
X011024Y00675D02*
X014998D01*
X010963D02*
X011024D01*
X010994Y00678D02*
Y009144D01*
Y00678D02*
X011024Y00675D01*
X010591Y005846D02*
Y006378D01*
X010963Y00675D01*
X013287Y002264D02*
Y003494D01*
X013268Y002244D02*
X013287Y002264D01*
X010758Y002667D02*
Y002756D01*
X010896Y002894D01*
X012904Y002244D02*
X013268D01*
X012598Y002549D02*
X012904Y002244D01*
X012411Y002549D02*
X012598D01*
X012067Y002894D02*
X012411Y002549D01*
X010041Y010057D02*
Y010608D01*
Y010057D02*
X010848D01*
X010994Y009911D01*
X010805Y008955D02*
X010994Y009144D01*
X010041Y008955D02*
X010805D01*
X006093Y011565D02*
X006437D01*
X005915Y011388D02*
X006093Y011565D01*
X005679Y011388D02*
X005915D01*
X004911D02*
X005679D01*
X010896Y002894D02*
X012067D01*
X009055Y005856D02*
X009449Y005463D01*
X010591Y005256D02*
Y005846D01*
X010266Y004931D02*
X010591Y005256D01*
X009449Y005207D02*
X009724Y004931D01*
X009449Y005207D02*
Y005463D01*
X009055Y005856D02*
Y006144D01*
X008851Y006348D02*
X009055Y006144D01*
X008435Y006348D02*
X008851D01*
X016516Y007156D02*
Y007884D01*
X01611Y00675D02*
X016516Y007156D01*
X014998Y00675D02*
X01611D01*
D37*
X007825Y002126D02*
D03*
X007325D02*
D03*
X006032Y002116D02*
D03*
X005531D02*
D03*
X005031D02*
D03*
D38*
X006825Y002126D02*
D03*
X004532Y002116D02*
D03*
D39*
X007569Y014144D02*
D03*
X008759Y014154D02*
D03*
D40*
X004242Y009222D02*
D03*
X004341Y011447D02*
D03*
X006161Y004974D02*
D03*
X005246Y005699D02*
D03*
X011447Y004931D02*
D03*
X009902Y005413D02*
D03*
X013366Y004774D02*
D03*
X010758Y002667D02*
D03*
X005226Y009016D02*
D03*
X004341Y009803D02*
D03*
X014596Y003209D02*
D03*
X008377Y009037D02*
D03*
X011804Y004037D02*
D03*
X011348Y002028D02*
D03*
X006949Y006319D02*
D03*
X015925Y008386D02*
D03*
X006754Y005031D02*
D03*
X007069Y009805D02*
D03*
X004421Y00759D02*
D03*
X009911Y006142D02*
D03*
X009124Y007146D02*
D03*
Y008465D02*
D03*
X013514Y010057D02*
D03*
X014016Y009529D02*
D03*
X009038Y009283D02*
D03*
X008408Y009618D02*
D03*
X013986Y01061D02*
D03*
D41*
X004852Y004281D02*
D03*
X016043Y012165D02*
D03*
D42*
X005768Y008819D02*
D03*
X005965D02*
D03*
X006161D02*
D03*
X006358D02*
D03*
X006555D02*
D03*
X006752D02*
D03*
X006949D02*
D03*
X007146D02*
D03*
X007343D02*
D03*
X007539D02*
D03*
X007736D02*
D03*
X007933D02*
D03*
Y00565D02*
D03*
X007736D02*
D03*
X007539D02*
D03*
X007343D02*
D03*
X007146D02*
D03*
X006949D02*
D03*
X006752D02*
D03*
X006555D02*
D03*
X006358D02*
D03*
X006161D02*
D03*
X005965D02*
D03*
X005768D02*
D03*
D43*
X008435Y008317D02*
D03*
Y00812D02*
D03*
Y007923D02*
D03*
Y007726D02*
D03*
Y00753D02*
D03*
Y007333D02*
D03*
Y007136D02*
D03*
Y006939D02*
D03*
Y006742D02*
D03*
Y006545D02*
D03*
Y006348D02*
D03*
Y006152D02*
D03*
X005266D02*
D03*
Y006348D02*
D03*
Y006545D02*
D03*
Y006742D02*
D03*
Y006939D02*
D03*
Y007136D02*
D03*
Y007333D02*
D03*
Y00753D02*
D03*
Y007726D02*
D03*
Y007923D02*
D03*
Y00812D02*
D03*
Y008317D02*
D03*
D44*
X014449Y005846D02*
D03*
X013898D02*
D03*
X013346D02*
D03*
X012795D02*
D03*
X012244D02*
D03*
X011693D02*
D03*
X011142D02*
D03*
X010591D02*
D03*
D45*
X010041Y010608D02*
D03*
Y010057D02*
D03*
Y009506D02*
D03*
Y008955D02*
D03*
Y008404D02*
D03*
Y007852D02*
D03*
Y007301D02*
D03*
Y00675D02*
D03*
X014998D02*
D03*
Y007301D02*
D03*
Y007852D02*
D03*
Y008404D02*
D03*
Y008955D02*
D03*
Y009506D02*
D03*
Y010057D02*
D03*
Y010608D02*
D03*
D46*
X014134Y004636D02*
D03*
X012657D02*
D03*
D47*
X012894Y003228D02*
D03*
X013268Y002244D02*
D03*
X013642Y003228D02*
D03*
D48*
X012067Y002894D02*
D03*
X008917D02*
D03*
D49*
X007726Y003182D02*
D03*
Y002625D02*
D03*
X006506Y003182D02*
D03*
Y002624D02*
D03*
D50*
X007106Y011565D02*
D03*
X006437D02*
D03*
Y010699D02*
D03*
X007106D02*
D03*
M02*
