G04*
G04 #@! TF.GenerationSoftware,Altium Limited,Altium Designer,18.1.6 (161)*
G04*
G04 Layer_Color=8421504*
%FSTAX24Y24*%
%MOIN*%
G70*
G01*
G75*
%ADD16R,0.0295X0.0315*%
%ADD17R,0.0394X0.0374*%
%ADD18R,0.0315X0.0295*%
%ADD19R,0.0374X0.0394*%
%ADD20R,0.0118X0.0276*%
%ADD21R,0.0642X0.0689*%
%ADD22R,0.0315X0.0197*%
%ADD23R,0.0197X0.0394*%
%ADD24R,0.0354X0.0709*%
%ADD25R,0.1024X0.1181*%
%ADD26R,0.1417X0.1181*%
D16*
X004341Y010325D02*
D03*
Y010915D02*
D03*
X015325Y003888D02*
D03*
Y004478D02*
D03*
X014685Y004488D02*
D03*
Y003898D02*
D03*
D17*
X00503Y010266D02*
D03*
X00562D02*
D03*
D18*
X005649Y010955D02*
D03*
X005058D02*
D03*
D19*
X014065Y004488D02*
D03*
Y003898D02*
D03*
X016427Y006309D02*
D03*
Y0069D02*
D03*
Y00501D02*
D03*
Y0056D02*
D03*
D20*
X015167Y005167D02*
D03*
X015364D02*
D03*
X015561D02*
D03*
X015758D02*
D03*
Y006309D02*
D03*
X015561D02*
D03*
X015364D02*
D03*
X015167D02*
D03*
D21*
X015463Y005738D02*
D03*
D22*
X009518Y01373D02*
D03*
Y014557D02*
D03*
X006801D02*
D03*
Y01373D02*
D03*
D23*
X007274Y013415D02*
D03*
X007864D02*
D03*
X009045D02*
D03*
D24*
X013701Y00249D02*
D03*
X012323D02*
D03*
D25*
X010758Y011949D02*
D03*
D26*
Y003524D02*
D03*
M02*
