M48
;Layer_Color=9474304
;FILE_FORMAT=2:4
INCH,LZ
;TYPE=PLATED
T1F00S00C0.0150
T2F00S00C0.0181
T3F00S00C0.1181
;TYPE=NON_PLATED
T4F00S00C0.0335
%
T01
X005246Y005699
X006161Y004974
X006754Y005031
X006949Y006319
X009124Y007146
Y008465
X009038Y009283
X008377Y009037
X008408Y009618
X007069Y009805
X005226Y009016
X004242Y009222
X004341Y009803
Y011447
X004421Y00759
X009911Y006142
X009902Y005413
X011447Y004931
X011804Y004037
X013366Y004774
X014596Y003209
X010758Y002667
X011348Y002028
X014016Y009529
X013514Y010057
X013986Y01061
X015925Y008386
T02
X004532Y002116
X005031
X005531
X006032
X006825Y002126
X007325
X007825
T03
X004852Y004281
X016043Y012165
T04
X007569Y014144
X008759Y014154
M30
