G04*
G04 #@! TF.GenerationSoftware,Altium Limited,Altium Designer,18.1.6 (161)*
G04*
G04 Layer_Color=32768*
%FSTAX24Y24*%
%MOIN*%
G70*
G01*
G75*
%ADD14C,0.0039*%
%ADD62R,0.0236X0.0098*%
G36*
X012918Y002439D02*
X012914Y002438D01*
X012911Y002436D01*
X012907Y002434D01*
X012904Y002432D01*
X012901Y00243D01*
X0129Y00243D01*
X012899Y002429D01*
X012898Y002428D01*
X012897Y002428D01*
X012897Y002428D01*
X012897D01*
X0129Y002424D01*
X012903Y00242D01*
X012906Y002417D01*
X012908Y002413D01*
X012909Y00241D01*
X01291Y002409D01*
X01291Y002408D01*
X01291Y002407D01*
X012911Y002407D01*
X012911Y002406D01*
Y002406D01*
X012913Y002401D01*
X012914Y002396D01*
X012915Y002392D01*
X012915Y002387D01*
X012915Y002385D01*
X012916Y002384D01*
Y002382D01*
X012916Y002381D01*
Y002379D01*
Y002379D01*
Y002378D01*
Y002378D01*
X012915Y002371D01*
X012915Y002365D01*
X012914Y002362D01*
X012913Y002359D01*
X012913Y002357D01*
X012912Y002354D01*
X012911Y002352D01*
X012911Y00235D01*
X01291Y002348D01*
X012909Y002347D01*
X012909Y002346D01*
X012909Y002345D01*
X012908Y002345D01*
Y002344D01*
X012905Y002339D01*
X012902Y002334D01*
X012898Y00233D01*
X012895Y002327D01*
X012892Y002325D01*
X01289Y002324D01*
X012889Y002323D01*
X012888Y002322D01*
X012888Y002322D01*
X012887Y002321D01*
X012887Y002321D01*
X012884Y00232D01*
X012882Y002318D01*
X012876Y002316D01*
X012871Y002315D01*
X012866Y002314D01*
X012864Y002314D01*
X012862Y002313D01*
X01286Y002313D01*
X012858D01*
X012857Y002313D01*
X012852D01*
X012849Y002313D01*
X012843Y002314D01*
X012838Y002315D01*
X012836Y002316D01*
X012833Y002317D01*
X012831Y002318D01*
X012829Y002318D01*
X012828Y002319D01*
X012827Y00232D01*
X012826Y00232D01*
X012825Y00232D01*
X012824Y002321D01*
X012824Y002321D01*
X012819Y002324D01*
X012815Y002328D01*
X012811Y002332D01*
X012808Y002335D01*
X012806Y002339D01*
X012805Y00234D01*
X012804Y002342D01*
X012803Y002343D01*
X012803Y002343D01*
X012803Y002344D01*
X012803Y002344D01*
X0128Y00235D01*
X012798Y002356D01*
X012797Y002362D01*
X012796Y002367D01*
X012796Y002369D01*
X012796Y002371D01*
X012795Y002373D01*
Y002375D01*
X012795Y002376D01*
Y002377D01*
Y002378D01*
Y002378D01*
X012796Y002385D01*
X012796Y002391D01*
X012797Y002394D01*
X012798Y002397D01*
X012798Y0024D01*
X012799Y002402D01*
X0128Y002404D01*
X0128Y002406D01*
X012801Y002408D01*
X012802Y002409D01*
X012802Y00241D01*
X012802Y002411D01*
X012803Y002412D01*
Y002412D01*
X012806Y002417D01*
X012809Y002422D01*
X012813Y002426D01*
X012816Y002429D01*
X012819Y002431D01*
X012821Y002433D01*
X012822Y002433D01*
X012823Y002434D01*
X012823Y002435D01*
X012824Y002435D01*
X012824Y002435D01*
X012827Y002436D01*
X012829Y002438D01*
X012835Y00244D01*
X01284Y002441D01*
X012845Y002442D01*
X012847Y002442D01*
X012849Y002443D01*
X012851Y002443D01*
X012852D01*
X012854Y002443D01*
X012855D01*
X012858Y002443D01*
X012861Y002443D01*
X012867Y002442D01*
X012872Y002441D01*
X012875Y00244D01*
X012877Y002439D01*
X012879Y002438D01*
X012881Y002438D01*
X012882Y002437D01*
X012884Y002437D01*
X012885Y002436D01*
X012886Y002436D01*
X012886Y002435D01*
X012886D01*
X012891Y002439D01*
X012896Y002442D01*
X012901Y002445D01*
X012905Y002447D01*
X012906Y002448D01*
X012908Y002449D01*
X01291Y002449D01*
X012911Y00245D01*
X012912Y00245D01*
X012913Y002451D01*
X012913Y002451D01*
X012913D01*
X012918Y002439D01*
D02*
G37*
G36*
X01299Y002314D02*
X01298D01*
X012978Y002318D01*
X012976Y00232D01*
X012974Y002323D01*
X012972Y002326D01*
X012969Y002328D01*
X012968Y00233D01*
X012967Y00233D01*
X012967Y002331D01*
X012966Y002331D01*
X012966Y002331D01*
X012962Y002334D01*
X012959Y002337D01*
X012955Y00234D01*
X012951Y002342D01*
X012948Y002344D01*
X012947Y002344D01*
X012946Y002345D01*
X012945Y002346D01*
X012944Y002346D01*
X012944Y002346D01*
X012944D01*
Y002361D01*
X012946Y00236D01*
X012949Y002359D01*
X012952Y002357D01*
X012954Y002356D01*
X012957Y002355D01*
X012958Y002354D01*
X012959Y002353D01*
X01296Y002353D01*
X01296D01*
X012963Y002351D01*
X012966Y002349D01*
X012969Y002347D01*
X012971Y002346D01*
X012972Y002344D01*
X012973Y002343D01*
X012974Y002343D01*
X012975Y002342D01*
Y002441D01*
X01299D01*
Y002314D01*
D02*
G37*
G36*
X012894Y002482D02*
X012877D01*
Y002534D01*
X012812D01*
Y002482D01*
X012795D01*
Y002608D01*
X012812D01*
Y002549D01*
X012877D01*
Y002608D01*
X012894D01*
Y002482D01*
D02*
G37*
G36*
X012939Y002551D02*
X012998D01*
Y002536D01*
X012939D01*
Y002497D01*
X013008D01*
Y002482D01*
X012922D01*
Y002608D01*
X012939D01*
Y002551D01*
D02*
G37*
%LPC*%
G36*
X012857Y002429D02*
X012856D01*
X012852Y002429D01*
X012849Y002428D01*
X012846Y002428D01*
X012843Y002427D01*
X01284Y002426D01*
X012837Y002425D01*
X012835Y002424D01*
X012833Y002422D01*
X012831Y002421D01*
X012829Y00242D01*
X012828Y002419D01*
X012827Y002418D01*
X012826Y002417D01*
X012825Y002416D01*
X012825Y002416D01*
X012824Y002416D01*
X012822Y002413D01*
X01282Y00241D01*
X012819Y002407D01*
X012817Y002404D01*
X012816Y002401D01*
X012815Y002398D01*
X012814Y002392D01*
X012813Y002389D01*
X012813Y002387D01*
X012813Y002384D01*
X012813Y002382D01*
X012812Y002381D01*
Y002379D01*
Y002379D01*
Y002378D01*
X012813Y002374D01*
X012813Y002369D01*
X012813Y002365D01*
X012814Y002362D01*
X012815Y002358D01*
X012816Y002355D01*
X012817Y002352D01*
X012819Y00235D01*
X01282Y002347D01*
X012821Y002345D01*
X012822Y002344D01*
X012823Y002342D01*
X012823Y002341D01*
X012824Y002341D01*
X012824Y00234D01*
X012825Y00234D01*
X012827Y002338D01*
X012829Y002336D01*
X012832Y002334D01*
X012835Y002333D01*
X012837Y002331D01*
X01284Y00233D01*
X012842Y00233D01*
X012845Y002329D01*
X012847Y002328D01*
X012849Y002328D01*
X012851Y002328D01*
X012852Y002327D01*
X012854Y002327D01*
X012856D01*
X01286Y002327D01*
X012864Y002328D01*
X012868Y002329D01*
X012872Y00233D01*
X012874Y002332D01*
X012875Y002332D01*
X012876Y002332D01*
X012877Y002333D01*
X012878Y002333D01*
X012878Y002334D01*
X012878D01*
X012882Y002336D01*
X012885Y002339D01*
X012887Y002342D01*
X01289Y002345D01*
X012891Y002347D01*
X012892Y00235D01*
X012893Y00235D01*
X012893Y002351D01*
X012893Y002351D01*
Y002351D01*
X012895Y002356D01*
X012896Y00236D01*
X012897Y002365D01*
X012898Y002369D01*
X012898Y002371D01*
X012898Y002373D01*
Y002374D01*
X012899Y002376D01*
Y002377D01*
Y002377D01*
Y002378D01*
Y002378D01*
X012898Y002383D01*
X012898Y002388D01*
X012897Y002392D01*
X012896Y002396D01*
X012895Y002399D01*
X012894Y002403D01*
X012893Y002406D01*
X012891Y002408D01*
X01289Y002411D01*
X012889Y002413D01*
X012887Y002414D01*
X012886Y002416D01*
X012885Y002417D01*
X012885Y002418D01*
X012884Y002418D01*
X012884Y002418D01*
X01288Y002415D01*
X012876Y002413D01*
X012872Y002411D01*
X012868Y002409D01*
X012865Y002408D01*
X012864Y002407D01*
X012862Y002407D01*
X012862Y002407D01*
X012861Y002407D01*
X01286Y002406D01*
X01286D01*
X012856Y002418D01*
X012859Y002419D01*
X012862Y00242D01*
X012865Y002422D01*
X012868Y002423D01*
X01287Y002424D01*
X012871Y002425D01*
X012872Y002425D01*
X012872Y002426D01*
X01287Y002427D01*
X012866Y002427D01*
X012864Y002428D01*
X012861Y002429D01*
X012859Y002429D01*
X012857Y002429D01*
D02*
G37*
%LPD*%
D14*
X012756Y003248D02*
X01378D01*
X012756Y002244D02*
X01378D01*
X012756D02*
Y003248D01*
X01378Y002244D02*
Y003248D01*
D62*
X013632Y003287D02*
D03*
X012904D02*
D03*
X013268Y002195D02*
D03*
M02*
